<svg width="55" height="36" viewBox="0 0 55 36" fill="none" xmlns="http://www.w3.org/2000/svg">
<path d="M5.7528 34.96C-6.4072 30.4 1.6488 1.064 21.1048 0L22.1688 4.712C15.0248 5.168 12.8968 8.512 10.6168 14.288C11.5288 14.44 12.5928 14.744 13.3528 15.048C18.8248 17.176 21.5608 23.256 19.5848 28.728C17.4568 34.352 11.3768 36.936 5.7528 34.96ZM38.2808 34.96C26.1208 30.4 34.1768 1.064 53.6328 0L54.6968 4.712C47.5528 5.168 45.4248 8.512 43.1448 14.288C44.0568 14.44 45.1208 14.744 45.8808 15.048C51.3528 17.176 54.0888 23.256 52.1128 28.728C49.9848 34.352 43.9048 36.936 38.2808 34.96Z" fill="#C2BEBE"/>
</svg>
