<svg width="12" height="11" viewBox="0 0 12 11" fill="none" xmlns="http://www.w3.org/2000/svg">
<path d="M1.85508 6.70758C1.65774 6.81469 1.48012 6.97047 1.34198 7.19441C1.27291 7.19441 1.11503 7.39888 0.88808 7.83702C0.88808 8.19727 0.779538 8.52831 0.572323 8.81067C0.276302 9.19039 0.108556 9.45328 0.0789537 9.58959C0.0296167 9.76485 0.0592189 9.90116 0.187495 10.0277C0.276302 10.1154 0.384843 10.164 0.483517 10.164C0.601925 10.164 0.779539 10.0959 0.976886 9.94011C1.0953 9.82327 1.24331 9.69669 1.40118 9.57012C1.6676 9.41433 1.78601 9.20987 1.78601 8.97619C1.78601 8.78146 1.58866 8.24595 1.6084 7.98307C1.6084 7.91491 1.69721 7.69097 1.85508 7.30151C1.99323 6.93152 2.05243 6.74653 2.0327 6.70758L1.85508 6.68811V6.70758Z" fill="#7F1612"/>
<path d="M6.68022 7.17569C6.8381 7.15621 7.06505 7.21463 7.37094 7.37042C7.66696 7.50673 7.91365 7.56515 8.09126 7.5262C8.44649 7.47752 8.95959 6.97122 8.95959 6.57202C8.95959 6.48439 8.93986 6.41624 8.91025 6.36756C8.77211 6.16309 8.48596 6.14362 8.25901 6.09493C8.15047 6.05599 7.7163 5.67626 6.91704 4.92655C6.12765 4.17684 5.70335 3.75817 5.64415 3.6608C5.62441 3.62186 5.61455 3.59265 5.61455 3.57318C5.61455 3.45634 5.81189 3.26161 6.19672 3.01819C6.60129 2.77478 6.79863 2.58005 6.79863 2.46321C6.79863 2.30743 6.70983 2.23927 6.51248 2.23927C6.3546 2.23927 6.19672 2.28796 6.03884 2.39506C5.8415 2.81373 5.56521 3.01819 5.22972 3.01819C4.94356 3.01819 4.46993 2.79425 3.78908 2.33664C3.09836 1.86929 2.60499 1.65508 2.30897 1.67456C1.54918 1.79139 0.967004 1.91797 0.601911 2.0056C0.197348 2.33664 0 2.62873 0 2.89162C0 3.00846 0.049337 3.09609 0.138143 3.17398C0.22695 3.15451 0.335491 3.15451 0.424298 3.15451C0.86833 3.15451 1.32223 3.32976 1.83533 3.6608C2.34844 3.99185 2.6642 4.32289 2.753 4.68314C2.753 4.70261 2.63459 4.97523 2.37804 5.52048C2.17083 5.98783 2.06228 6.2994 2.06228 6.45518C2.06228 6.50387 2.08202 6.54281 2.10175 6.56228C2.2103 6.54281 2.37804 6.31887 2.64446 5.87099C2.91088 5.40364 3.13783 5.14075 3.36478 5.0726C3.45359 5.05313 3.52266 5.03365 3.61147 5.03365C4.01603 5.03365 4.55873 5.32575 5.22972 5.91968C5.72309 6.33835 6.21646 6.75702 6.69009 7.18542" fill="#7F1612"/>
<path d="M10.8048 7.79882C10.9824 7.68198 11.0712 7.55541 11.0712 7.44831C11.0712 7.18542 10.6963 7.04911 9.97593 7.04911C9.61084 7.04911 9.41349 7.09779 9.39376 7.22437C9.37402 7.34121 9.51216 7.46778 9.84766 7.62356C10.1437 7.75988 10.3904 7.83777 10.6272 7.83777C10.716 7.83777 10.7653 7.8183 10.8048 7.79882Z" fill="#7F1612"/>
<path d="M9.77853 1.41192C10.9429 1.04193 11.5251 0.701151 11.5251 0.331164C11.5251 0.107224 11.3869 0.00012207 11.1205 0.00012207C10.6765 0.00012207 9.99562 0.204589 9.07795 0.603786C8.19975 0.973773 7.68665 1.26587 7.5485 1.48981C7.25248 1.53849 7.0354 1.90848 7.0354 2.17136C7.0354 2.2882 7.07487 2.34662 7.15381 2.34662C7.26235 2.34662 7.40049 2.27847 7.55837 2.12268C8.03201 1.92795 8.38723 1.77217 8.61418 1.65533L8.92994 1.37297C9.08782 1.21719 9.19636 1.14903 9.2457 1.1685C9.47265 1.25613 9.65026 1.34376 9.76867 1.41192" fill="#7F1612"/>
</svg>
