<svg width="141" height="29" viewBox="0 0 141 29" fill="none" xmlns="http://www.w3.org/2000/svg">
<g clip-path="url(#clip0_2056_1033)">
<path d="M5.14834 18.7693C4.60351 19.069 4.11317 19.5048 3.73179 20.1314C3.5411 20.1314 3.10524 20.7035 2.47869 21.9293C2.47869 22.9373 2.17903 23.8635 1.60696 24.6535C0.78972 25.7159 0.326616 26.4514 0.244892 26.8328C0.108685 27.3231 0.190409 27.7045 0.544547 28.0586C0.78972 28.3038 1.08937 28.44 1.36179 28.44C1.68869 28.44 2.17903 28.2493 2.72386 27.8135C3.05075 27.4866 3.45937 27.1324 3.89524 26.7783C4.63075 26.3424 4.95765 25.7704 4.95765 25.1166C4.95765 24.5717 4.41282 23.0735 4.46731 22.3379C4.46731 22.1473 4.71248 21.5207 5.14834 20.4311C5.52972 19.3959 5.69317 18.8783 5.63869 18.7693L5.14834 18.7148V18.7693Z" fill="#D9D9D9"/>
<path d="M18.4698 20.0769C18.9056 20.0224 19.5322 20.1859 20.3767 20.6217C21.1939 21.0031 21.8749 21.1666 22.3653 21.0576C23.346 20.9214 24.7625 19.5048 24.7625 18.3879C24.7625 18.1428 24.708 17.9521 24.6263 17.8159C24.2449 17.2438 23.4549 17.1893 22.8284 17.0531C22.5287 16.9442 21.3301 15.8817 19.1236 13.7842C16.9442 11.6866 15.7729 10.5152 15.6094 10.2428C15.5549 10.1338 15.5277 10.0521 15.5277 9.9976C15.5277 9.6707 16.0725 9.12588 17.1349 8.44484C18.2518 7.76381 18.7967 7.21898 18.7967 6.89208C18.7967 6.45622 18.5515 6.26553 18.0067 6.26553C17.5708 6.26553 17.1349 6.40174 16.6991 6.70139C16.1542 7.87277 15.3915 8.44484 14.4653 8.44484C13.6753 8.44484 12.3677 7.81829 10.488 6.53794C8.58114 5.23036 7.21907 4.63105 6.40183 4.68553C4.30424 5.01243 2.697 5.36656 1.68907 5.61174C0.572171 6.53794 0.0273438 7.35519 0.0273438 8.0907C0.0273438 8.4176 0.163551 8.66277 0.408723 8.8807C0.653896 8.82622 0.953551 8.82622 1.19872 8.82622C2.42459 8.82622 3.67769 9.31657 5.09424 10.2428C6.51079 11.169 7.38252 12.0952 7.62769 13.1031C7.62769 13.1576 7.30079 13.9204 6.59252 15.4459C6.02045 16.7535 5.72079 17.6252 5.72079 18.061C5.72079 18.1973 5.77528 18.3062 5.82976 18.3607C6.12941 18.3062 6.59252 17.6797 7.32803 16.4266C8.06355 15.119 8.6901 14.3835 9.31666 14.1928C9.56183 14.1383 9.75252 14.0838 9.99769 14.0838C11.1146 14.0838 12.6129 14.901 14.4653 16.5628C15.8273 17.7342 17.1894 18.9055 18.497 20.1042" fill="#D9D9D9"/>
<path d="M29.8567 21.8202C30.347 21.4933 30.5922 21.1392 30.5922 20.8396C30.5922 20.104 29.557 19.7227 27.5684 19.7227C26.5604 19.7227 26.0156 19.8589 25.9611 20.213C25.9067 20.5399 26.288 20.894 27.2142 21.3299C28.0315 21.7113 28.7125 21.9292 29.3663 21.9292C29.6115 21.9292 29.7477 21.8747 29.8567 21.8202Z" fill="#D9D9D9"/>
<path d="M27.0233 3.95C30.2378 2.91483 31.845 1.96138 31.845 0.926207C31.845 0.299655 31.4636 0 30.7281 0C29.5023 0 27.6226 0.572069 25.0892 1.68897C22.6647 2.72414 21.2481 3.54138 20.8667 4.16793C20.0495 4.30414 19.4502 5.33931 19.4502 6.07483C19.4502 6.40172 19.5592 6.56517 19.7771 6.56517C20.0767 6.56517 20.4581 6.37448 20.894 5.93862C22.2016 5.39379 23.1823 4.95793 23.8088 4.63103L24.6805 3.84103C25.1164 3.40517 25.4161 3.21448 25.5523 3.26897C26.1788 3.51414 26.6692 3.75931 26.9961 3.95" fill="#D9D9D9"/>
</g>
<g clip-path="url(#clip1_2056_1033)">
<path d="M59.6308 18.7693C59.0859 19.069 58.5956 19.5048 58.2142 20.1314C58.0235 20.1314 57.5877 20.7035 56.9611 21.9293C56.9611 22.9373 56.6615 23.8635 56.0894 24.6535C55.2721 25.7159 54.809 26.4514 54.7273 26.8328C54.5911 27.3231 54.6728 27.7045 55.027 28.0586C55.2721 28.3038 55.5718 28.44 55.8442 28.44C56.1711 28.44 56.6615 28.2493 57.2063 27.8135C57.5332 27.4866 57.9418 27.1324 58.3777 26.7783C59.1132 26.3424 59.4401 25.7704 59.4401 25.1166C59.4401 24.5717 58.8952 23.0735 58.9497 22.3379C58.9497 22.1473 59.1949 21.5207 59.6308 20.4311C60.0121 19.3959 60.1756 18.8783 60.1211 18.7693L59.6308 18.7148V18.7693Z" fill="#D9D9D9"/>
<path d="M72.9522 20.0769C73.388 20.0224 74.0146 20.1859 74.8591 20.6217C75.6763 21.0031 76.3574 21.1666 76.8477 21.0576C77.8284 20.9214 79.2449 19.5048 79.2449 18.3879C79.2449 18.1428 79.1905 17.9521 79.1087 17.8159C78.7274 17.2438 77.9374 17.1893 77.3108 17.0531C77.0111 16.9442 75.8125 15.8817 73.606 13.7842C71.4267 11.6866 70.2553 10.5152 70.0918 10.2428C70.0374 10.1338 70.0101 10.0521 70.0101 9.9976C70.0101 9.6707 70.5549 9.12588 71.6174 8.44484C72.7342 7.76381 73.2791 7.21898 73.2791 6.89208C73.2791 6.45622 73.0339 6.26553 72.4891 6.26553C72.0532 6.26553 71.6174 6.40174 71.1815 6.70139C70.6367 7.87277 69.8739 8.44484 68.9477 8.44484C68.1577 8.44484 66.8501 7.81829 64.9705 6.53794C63.0636 5.23036 61.7015 4.63105 60.8842 4.68553C58.7867 5.01243 57.1794 5.36656 56.1715 5.61174C55.0546 6.53794 54.5098 7.35519 54.5098 8.0907C54.5098 8.4176 54.646 8.66277 54.8911 8.8807C55.1363 8.82622 55.436 8.82622 55.6811 8.82622C56.907 8.82622 58.1601 9.31657 59.5767 10.2428C60.9932 11.169 61.8649 12.0952 62.1101 13.1031C62.1101 13.1576 61.7832 13.9204 61.0749 15.4459C60.5029 16.7535 60.2032 17.6252 60.2032 18.061C60.2032 18.1973 60.2577 18.3062 60.3122 18.3607C60.6118 18.3062 61.0749 17.6797 61.8105 16.4266C62.546 15.119 63.1725 14.3835 63.7991 14.1928C64.0442 14.1383 64.2349 14.0838 64.4801 14.0838C65.597 14.0838 67.0953 14.901 68.9477 16.5628C70.3098 17.7342 71.6718 18.9055 72.9794 20.1042" fill="#D9D9D9"/>
<path d="M84.3391 21.8202C84.8294 21.4933 85.0746 21.1392 85.0746 20.8396C85.0746 20.104 84.0394 19.7227 82.0508 19.7227C81.0429 19.7227 80.498 19.8589 80.4436 20.213C80.3891 20.5399 80.7705 20.894 81.6967 21.3299C82.5139 21.7113 83.1949 21.9292 83.8487 21.9292C84.0939 21.9292 84.2301 21.8747 84.3391 21.8202Z" fill="#D9D9D9"/>
<path d="M81.5057 3.95C84.7202 2.91483 86.3274 1.96138 86.3274 0.926207C86.3274 0.299655 85.9461 0 85.2105 0C83.9847 0 82.105 0.572069 79.5716 1.68897C77.1471 2.72414 75.7305 3.54138 75.3492 4.16793C74.5319 4.30414 73.9326 5.33931 73.9326 6.07483C73.9326 6.40172 74.0416 6.56517 74.2595 6.56517C74.5592 6.56517 74.9405 6.37448 75.3764 5.93862C76.684 5.39379 77.6647 4.95793 78.2912 4.63103L79.163 3.84103C79.5988 3.40517 79.8985 3.21448 80.0347 3.26897C80.6612 3.51414 81.1516 3.75931 81.4785 3.95" fill="#D9D9D9"/>
</g>
<g clip-path="url(#clip2_2056_1033)">
<path d="M114.113 18.7693C113.568 19.069 113.078 19.5048 112.697 20.1314C112.506 20.1314 112.07 20.7035 111.444 21.9293C111.444 22.9373 111.144 23.8635 110.572 24.6535C109.755 25.7159 109.291 26.4514 109.21 26.8328C109.074 27.3231 109.155 27.7045 109.509 28.0586C109.755 28.3038 110.054 28.44 110.327 28.44C110.654 28.44 111.144 28.2493 111.689 27.8135C112.016 27.4866 112.424 27.1324 112.86 26.7783C113.596 26.3424 113.922 25.7704 113.922 25.1166C113.922 24.5717 113.378 23.0735 113.432 22.3379C113.432 22.1473 113.677 21.5207 114.113 20.4311C114.495 19.3959 114.658 18.8783 114.604 18.7693L114.113 18.7148V18.7693Z" fill="#D9D9D9"/>
<path d="M127.435 20.0769C127.87 20.0224 128.497 20.1859 129.341 20.6217C130.159 21.0031 130.84 21.1666 131.33 21.0576C132.311 20.9214 133.727 19.5048 133.727 18.3879C133.727 18.1428 133.673 17.9521 133.591 17.8159C133.21 17.2438 132.42 17.1893 131.793 17.0531C131.494 16.9442 130.295 15.8817 128.088 13.7842C125.909 11.6866 124.738 10.5152 124.574 10.2428C124.52 10.1338 124.493 10.0521 124.493 9.9976C124.493 9.6707 125.037 9.12588 126.1 8.44484C127.217 7.76381 127.761 7.21898 127.761 6.89208C127.761 6.45622 127.516 6.26553 126.972 6.26553C126.536 6.26553 126.1 6.40174 125.664 6.70139C125.119 7.87277 124.356 8.44484 123.43 8.44484C122.64 8.44484 121.333 7.81829 119.453 6.53794C117.546 5.23036 116.184 4.63105 115.367 4.68553C113.269 5.01243 111.662 5.36656 110.654 5.61174C109.537 6.53794 108.992 7.35519 108.992 8.0907C108.992 8.4176 109.128 8.66277 109.374 8.8807C109.619 8.82622 109.918 8.82622 110.164 8.82622C111.389 8.82622 112.643 9.31657 114.059 10.2428C115.476 11.169 116.347 12.0952 116.593 13.1031C116.593 13.1576 116.266 13.9204 115.557 15.4459C114.985 16.7535 114.686 17.6252 114.686 18.061C114.686 18.1973 114.74 18.3062 114.795 18.3607C115.094 18.3062 115.557 17.6797 116.293 16.4266C117.028 15.119 117.655 14.3835 118.281 14.1928C118.527 14.1383 118.717 14.0838 118.963 14.0838C120.079 14.0838 121.578 14.901 123.43 16.5628C124.792 17.7342 126.154 18.9055 127.462 20.1042" fill="#D9D9D9"/>
<path d="M138.821 21.8202C139.312 21.4933 139.557 21.1392 139.557 20.8396C139.557 20.104 138.522 19.7227 136.533 19.7227C135.525 19.7227 134.98 19.8589 134.926 20.213C134.871 20.5399 135.253 20.894 136.179 21.3299C136.996 21.7113 137.677 21.9292 138.331 21.9292C138.576 21.9292 138.713 21.8747 138.821 21.8202Z" fill="#D9D9D9"/>
<path d="M135.988 3.95C139.203 2.91483 140.81 1.96138 140.81 0.926207C140.81 0.299655 140.428 0 139.693 0C138.467 0 136.587 0.572069 134.054 1.68897C131.63 2.72414 130.213 3.54138 129.832 4.16793C129.014 4.30414 128.415 5.33931 128.415 6.07483C128.415 6.40172 128.524 6.56517 128.742 6.56517C129.042 6.56517 129.423 6.37448 129.859 5.93862C131.166 5.39379 132.147 4.95793 132.774 4.63103L133.645 3.84103C134.081 3.40517 134.381 3.21448 134.517 3.26897C135.144 3.51414 135.634 3.75931 135.961 3.95" fill="#D9D9D9"/>
</g>
<defs>
<clipPath id="clip0_2056_1033">
<rect width="31.8452" height="28.44" fill="white"/>
</clipPath>
<clipPath id="clip1_2056_1033">
<rect width="31.8452" height="28.44" fill="white" transform="translate(54.4824)"/>
</clipPath>
<clipPath id="clip2_2056_1033">
<rect width="31.8452" height="28.44" fill="white" transform="translate(108.965)"/>
</clipPath>
</defs>
</svg>
