<svg width="206" height="159" viewBox="0 0 206 159" fill="none" xmlns="http://www.w3.org/2000/svg">
<g clip-path="url(#clip0_2088_147)">
<path d="M0 8.83126H5.1196V34.9412H14.3989V8.83126H19.7105V0.639893H0V8.83126Z" fill="#D9D9D9"/>
<path d="M46.5242 34.9412L39.6128 20.6703C43.1325 19.0705 44.9244 16.1907 44.9244 12.095C44.9244 8.19131 43.5805 5.18354 40.9567 3.1357C38.9088 1.47183 35.7731 0.639893 31.5494 0.639893H22.0781V35.0052H31.2934V20.7343C31.4214 21.1823 31.5494 21.6303 31.6134 21.9502C31.7414 22.2702 31.8054 22.5902 31.8694 22.7822L36.477 35.0052H46.5242V34.9412ZM34.6851 15.2948C33.9812 16.1267 33.0853 16.5107 31.9974 16.5107H31.3574V8.3193H31.6774C34.3652 8.3193 35.7091 9.5992 35.7091 12.159C35.7091 13.4389 35.3251 14.4628 34.6212 15.2948H34.6851Z" fill="#D9D9D9"/>
<path d="M64.763 34.9412H74.3623L67.0669 0.639893H55.7397L47.4844 35.0052H57.0836L57.8516 30.6536H64.1231L64.827 35.0052L64.763 34.9412ZM59.0675 23.2301L60.0274 17.8546L60.6673 13.6949C60.6673 13.6949 60.6673 13.4389 60.7313 13.0549C60.7953 12.671 60.8593 12.031 60.9873 11.1351C60.9873 10.6871 61.1153 10.2391 61.1793 9.85518C61.1793 9.47121 61.2433 9.15123 61.3073 8.83126L61.5633 12.095C61.6273 12.735 61.6913 13.3109 61.7553 13.7589C61.7553 14.2068 61.8193 14.5268 61.8833 14.7828C62.1392 17.0226 62.3312 18.3025 62.3312 18.6865C62.3312 19.0705 62.3952 19.2624 62.3952 19.2624L62.9712 23.2301H59.0675Z" fill="#D9D9D9"/>
<path d="M96.5048 30.9736C99.3206 27.9018 100.728 23.4862 100.728 17.7906C100.728 12.095 99.0646 7.48739 95.6729 4.28764C93.1131 1.85583 89.5294 0.575928 84.9857 0.575928H76.9863V34.9413H85.6897C90.4893 34.9413 94.073 33.5974 96.5048 30.9736ZM86.3296 9.21526H86.5856C87.9935 9.21526 89.1454 9.9832 90.0413 11.6471C90.8733 13.2469 91.3212 15.4228 91.3212 18.1746C91.3212 23.7421 89.6573 26.6219 86.3296 26.7499V9.21526Z" fill="#D9D9D9"/>
<path d="M113.976 0.639893H104.696V35.0052H113.976V0.639893Z" fill="#D9D9D9"/>
<path d="M121.527 34.9412H130.806V8.83126H136.118V0.639893H116.407V8.83126H121.527V34.9412Z" fill="#D9D9D9"/>
<path d="M147.765 0.639893H138.485V35.0052H147.765V0.639893Z" fill="#D9D9D9"/>
<path d="M164.979 35.5812C168.819 35.5812 171.891 33.9814 174.259 30.7176C176.626 27.4539 177.842 23.1662 177.842 17.9186C177.842 12.671 176.69 8.06337 174.323 4.86362C171.955 1.66387 168.819 0 164.851 0C161.652 0 158.836 1.21591 156.468 3.58372C153.268 6.78347 151.732 11.4551 151.732 17.5346C151.732 23.6142 153.268 28.6698 156.276 31.8055C158.708 34.3013 161.588 35.5812 164.979 35.5812ZM162.292 11.0711C162.932 9.47126 163.827 8.63933 164.915 8.63933C167.091 8.63933 168.179 11.7751 168.179 17.9826C168.179 20.7984 167.859 22.9742 167.219 24.5741C166.643 26.174 165.811 26.9419 164.659 26.9419C163.508 26.9419 162.74 26.174 162.164 24.5741C161.588 22.9742 161.268 20.7344 161.268 17.8546C161.268 14.9748 161.588 12.671 162.228 11.1991L162.292 11.0711Z" fill="#D9D9D9"/>
<path d="M197.105 0.639893V8.38329C197.105 9.79118 197.169 11.583 197.361 13.6949C197.553 15.8067 197.809 18.3665 198.129 21.3743L197.169 18.3665C196.785 17.1506 196.401 16.1267 196.081 15.1668C195.761 14.2068 195.505 13.4389 195.249 12.735L190.577 0.703888H181.746V35.0692H190.577V26.3019C190.577 24.958 190.577 23.3581 190.449 21.5663C190.385 19.7744 190.193 17.6626 190.001 15.2308C190.321 16.3187 190.641 17.4066 191.025 18.6225C191.409 19.7744 191.857 21.0543 192.369 22.3982L197.041 35.0052H205.872V0.639893H197.041H197.105Z" fill="#D9D9D9"/>
<path d="M101.56 66.4909C102.328 67.2588 103.352 67.6428 104.504 67.6428C105.656 67.6428 106.616 67.2588 107.448 66.4909C108.28 65.723 108.728 64.763 108.728 63.5471C108.728 62.3312 108.28 61.4353 107.448 60.6034C106.68 59.8354 105.784 59.3875 104.568 59.3875C103.352 59.3875 102.456 59.8354 101.624 60.6034C100.856 61.4353 100.472 62.3952 100.408 63.5471C100.408 64.763 100.792 65.659 101.496 66.4909H101.56Z" fill="#D9D9D9"/>
<path d="M153.14 87.2251C151.348 92.2808 143.733 97.0164 145.013 90.6809L148.341 73.6582H151.796L153.332 70.5224H148.981L151.156 59.6433L147.125 58.6834C145.973 58.3634 141.941 57.4035 138.933 57.5314C137.269 57.6594 135.798 57.9794 134.582 58.6834C133.046 58.2354 130.742 57.7234 129.59 57.6594C120.823 56.5715 116.919 62.5871 114.679 70.5224H111.863L110.584 73.6582H113.911C112.887 78.7138 111.863 83.5774 110.84 88.505C108.408 93.0487 102.008 96.5684 103.096 90.8089C104.312 84.6653 105.464 79.2898 107.128 70.5224H99.9604L96.5047 87.0332C94.1369 98.7443 103.864 99.0642 109.944 92.9207C108.792 98.4243 107.704 103.928 106.616 109.623H114.103L121.207 73.7222H126.518C124.023 85.8813 121.655 97.4643 119.223 109.623H126.71L133.942 73.7222H141.045L138.229 86.9692C135.286 101.688 151.092 98.6163 155.316 87.3531H153.204L153.14 87.2251ZM127.222 70.5224H121.911L123.383 63.099L123.575 62.2031C124.151 61.8831 124.726 61.6271 125.302 61.7551C126.198 61.8831 127.094 62.0111 128.63 63.163C128.182 64.9549 127.67 68.6026 127.222 70.5224ZM141.685 70.5224H134.71L136.31 62.2031C136.95 61.8831 137.525 61.6271 138.101 61.7551C143.797 62.3311 142.389 67.1307 141.685 70.5224Z" fill="#D9D9D9"/>
<path d="M93.1131 76.282L97.9768 72.2503C91.1293 68.2186 86.7136 70.7144 83.4499 76.218L84.5378 70.5224H77.4344L73.9786 87.7371C72.0588 92.7287 64.9553 96.9524 66.1712 91.0008L69.627 73.7222H72.8907L74.4266 70.5224H70.2029L71.8028 62.3311L64.4434 63.8029L63.0355 70.5864H60.5397L59.2598 73.7862H62.3955L59.6437 87.2891C57.2759 99.0002 67.0672 99.1282 73.0187 92.7287L72.2508 96.6324H79.6102L82.554 81.5936C85.1778 77.3059 89.0815 73.2742 93.3051 76.346L93.1131 76.282Z" fill="#D9D9D9"/>
<path d="M56.2517 123.83H46.4605L40.9569 138.549L41.2129 123.83H31.9336V158.132H41.2129L40.9569 142.325L47.1644 158.132H57.1476L48.8283 140.405L56.2517 123.83Z" fill="#D9D9D9"/>
<path d="M73.8499 145.973C73.8499 147.509 73.6579 148.596 73.3379 149.172C73.0179 149.748 72.378 150.068 71.4821 150.068C70.5861 150.068 70.0102 149.748 69.6262 149.108C69.2422 148.468 69.1142 147.445 69.1142 145.909V123.766H59.835V146.741C59.835 151.156 61.1789 154.356 63.9306 156.34C66.1065 157.94 68.7303 158.708 71.93 158.708C74.7458 158.708 77.1136 158.004 79.0975 156.596C80.5693 155.508 81.5933 154.356 82.2332 153.012C82.8732 151.732 83.1931 150.132 83.1931 148.084V123.83H73.9139V145.973H73.8499Z" fill="#D9D9D9"/>
<path d="M97.208 123.83H87.9287V158.132H104.119V149.94H97.208V123.83Z" fill="#D9D9D9"/>
<path d="M103.608 132.022H108.728V158.132H118.007V132.022H123.319V123.83H103.608V132.022Z" fill="#D9D9D9"/>
<path d="M139.701 145.973C139.701 147.509 139.509 148.596 139.189 149.172C138.87 149.748 138.23 150.068 137.334 150.068C136.438 150.068 135.862 149.748 135.478 149.108C135.094 148.468 134.966 147.445 134.966 145.909V123.766H125.687V146.741C125.687 151.156 127.03 154.356 129.782 156.34C131.958 157.94 134.582 158.708 137.782 158.708C140.597 158.708 142.965 158.004 144.949 156.596C146.421 155.508 147.445 154.356 148.085 153.012C148.725 151.732 149.045 150.132 149.045 148.084V123.83H139.765V145.973H139.701Z" fill="#D9D9D9"/>
<path d="M176.626 135.285C176.626 131.382 175.283 128.374 172.659 126.326C170.611 124.662 167.475 123.83 163.252 123.83H153.78V158.196H162.996V143.925C163.124 144.373 163.252 144.821 163.316 145.141C163.444 145.461 163.508 145.781 163.572 145.973L168.179 158.196H178.226L171.315 143.925C174.835 142.325 176.626 139.445 176.626 135.349V135.285ZM166.387 138.485C165.683 139.317 164.787 139.701 163.699 139.701H163.06V131.51H163.38C166.067 131.51 167.411 132.79 167.411 135.349C167.411 136.629 167.027 137.653 166.323 138.485H166.387Z" fill="#D9D9D9"/>
</g>
<defs>
<clipPath id="clip0_2088_147">
<rect width="206" height="158.772" fill="white"/>
</clipPath>
</defs>
</svg>
