<svg width="147" height="87" viewBox="0 0 147 87" fill="none" xmlns="http://www.w3.org/2000/svg">
<path d="M3.26773 21.5113C5.11242 19.7349 9.31422 19.5446 11.3639 20.6231C11.6201 20.75 11.6201 21.321 11.3126 21.2576C3.16525 16.5628 1.3718 29.4418 5.36863 36.7378C6.75215 39.5293 8.64808 41.6864 11.0052 43.209C14.7971 46.1909 19.2038 47.2694 23.5081 48.2845C31.2456 50.0609 38.778 51.647 46.4643 53.6772C48.2065 54.1213 49.9999 54.6923 51.8446 55.4536C51.076 50.3147 51.5372 45.3027 54.4067 41.3692C54.5604 41.1788 54.7141 41.1154 54.8166 41.0519C57.3275 38.7045 60.4019 38.4508 63.5277 39.1486C63.5789 39.1486 63.6302 39.1486 63.6814 39.2121C65.2186 39.6562 66.7046 40.3541 68.1906 41.1154C69.9841 42.1305 71.6238 43.3359 73.3148 44.5413C72.1362 38.768 71.3164 32.8677 71.1114 26.904C71.0602 20.8135 71.6238 14.6594 74.0322 9.26675C75.1595 6.91934 76.5942 4.95259 78.3877 3.36651C78.3877 3.36651 78.4389 3.30306 78.4902 3.23962C79.2076 2.66863 79.9762 2.16108 80.796 1.71698C80.796 1.71698 80.8473 1.71698 80.8985 1.71698C80.8985 1.71698 80.9498 1.65353 81.001 1.65353C91.9154 -3.16817 103.65 3.42995 113.027 10.2184C127.323 21.3845 149.357 45.0489 146.795 68.7767C146.795 68.7767 146.795 68.9036 146.795 68.9671C145.514 74.4867 142.183 77.7857 137.469 78.2298C130.5 78.9277 125.069 74.8039 120.149 69.0305C120.098 69.0305 119.996 69.0305 119.944 68.9036C119.586 68.4595 119.227 68.0154 118.868 67.5079C114.718 61.798 111.233 55.3902 107.544 49.2361C107.339 48.8555 107.852 48.4748 108.056 48.8555C111.746 54.9461 115.23 61.227 119.535 66.6831C119.893 67.1272 120.252 67.5713 120.662 68.0154C120.662 68.0154 120.662 68.1423 120.713 68.2058C126.913 75.248 142.132 83.9397 145.616 68.523C147.82 45.2392 126.606 22.5264 112.463 11.5507C103.598 5.20637 91.9154 -0.56699 81.7184 3.9375C80.9498 4.3816 80.2324 4.82571 79.515 5.3967C79.515 5.3967 79.515 5.3967 79.4638 5.3967C77.9265 6.72901 76.6967 8.44199 75.7231 10.4722C73.5197 15.5477 73.0073 21.2576 73.0586 26.904C73.2635 33.3118 74.1859 39.5927 75.5694 45.7468C75.5694 45.7468 75.5694 45.7468 75.5694 45.8102C75.5694 46.0005 75.6719 46.1909 75.7231 46.3177C77.7215 47.9038 79.6687 49.5534 81.6671 51.2029C86.945 55.6439 91.9667 60.656 96.1685 66.5562C99.0892 70.8069 102.112 75.8824 102.164 81.7192C102.164 81.7192 102.164 81.7192 102.164 81.7827C102.061 83.3053 101.754 84.7011 100.883 85.843C95.4511 90.2841 88.3798 80.831 85.3053 76.1996C79.9762 68.1423 76.6455 57.801 74.1859 47.9038C71.9825 46.1274 69.6766 44.4779 67.3195 43.1456C65.9873 42.3843 64.655 41.7498 63.2202 41.3692C63.2202 41.3692 63.2202 41.3692 63.169 41.3692C60.6581 40.7347 57.9936 40.7982 55.9439 42.8284C55.9439 42.8284 55.9439 42.8918 55.8927 42.9552C53.2794 46.5715 53.0232 51.3298 53.9455 56.2149C63.1177 60.2753 72.4949 67.8251 75.262 79.1815C75.262 79.3084 75.262 79.4353 75.262 79.5621C75.4157 81.3386 75.262 83.1784 74.2371 84.5107C74.2371 84.5742 74.1346 84.7011 74.0834 84.7645C74.0834 84.7645 73.9809 84.8914 73.9297 84.8914C68.908 88.0636 62.6566 78.6739 59.8383 74.5501C57.0712 70.4897 53.9968 64.3357 52.562 58.0548C47.6428 56.7225 42.6212 56.3418 38.3169 56.659C27.4024 57.5472 10.3903 58.372 2.60159 44.5413C-0.421651 39.1486 -1.6002 26.4599 3.4727 21.4479M82.6407 67.1272C84.7416 72.0124 93.7601 90.7282 100.524 85.3989C101.293 84.3838 101.498 83.1784 101.498 81.8461C101.293 76.3265 98.1669 71.5683 95.2974 67.6982C90.9931 62.1152 85.9202 57.5472 80.6423 53.4234C79.31 52.3449 77.9778 51.2029 76.6455 50.1244C78.2852 56.0246 80.2324 61.7345 82.5895 67.1907M61.3243 73.5984C63.4252 76.7706 69.1642 85.272 72.8536 83.1784C73.6222 82.2268 73.9297 80.831 73.9809 79.5621C71.8288 68.1423 63.5277 61.6711 54.4067 58.6892C55.9439 64.3991 58.9159 69.9822 61.3243 73.6619" fill="#F9F9F9"/>
</svg>
