<?xml version="1.0" standalone="no"?>
<!DOCTYPE svg PUBLIC "-//W3C//DTD SVG 1.1//EN" "http://www.w3.org/Graphics/SVG/1.1/DTD/svg11.dtd">
<svg xmlns="http://www.w3.org/2000/svg">
  <defs>
    <font id="WorkSans" horiz-adv-x="568">
      <font-face font-family="Work Sans" units-per-em="1000" panose-1="0 0 0 0 0 0 0 0 0 0" ascent="930" descent="-243" alphabetic="0" />
      <glyph unicode=" " glyph-name="gid505" horiz-adv-x="336" />
      <glyph unicode="!" glyph-name="gid465" horiz-adv-x="268" d="M92,208l24,166l66,286h86L202,374L150,208H92ZM84-10Q59-10 42.5,5.5T26,46q0,34 20,54t48,20q25,0 41.5-15.5T152,64q0-34-19.5-54T84-10Z" />
      <glyph unicode="&quot;" glyph-name="gid503" horiz-adv-x="398" d="M439,690L355,443H291l57,247h91Zm-167,0L188,443H124l57,247h91Z" />
      <glyph unicode="#" glyph-name="gid472" horiz-adv-x="639" d="M303,0L526,660h71L374,0H303ZM27,185v61H582V185H27ZM69,0L292,660h71L140,0H69ZM94,414v61H649V414H94Z" />
      <glyph unicode="$" glyph-name="gid515" horiz-adv-x="620" d="M321,1Q249,1 191.5,22.5T94,86.5T32,191l74,34q17-56 50-90.5t77-50T327,69q48,0 81.5,17T459,130.5T476,187q0,35-23.5,56T385,276L276,306q-46,13-80,36t-53,55.5T124,468q0,54 28.5,97.5t80.5,69T356,660q63,0 112-17t83.5-52T604,503l-74-33q-12,51-40,77.5t-64,36T352,593q-73,0-112-34.5T201,481q0-22 11.5-41.5t33-34.5T295,381l117-34q69-20 104.5-56.5T552,199q0-60-31.5-104.5t-84-69T321,1ZM200-100L399,760h69L269-100H200Z" />
      <glyph unicode="%" glyph-name="gid555" horiz-adv-x="888" d="M123,0L716,660h86L209,0H123ZM235,306q-45,0-77,19t-49,52.5T92,454q0,57 23,106t64,79.5T275,670q46,0 77.5-19T401,598.5T418,522q0-56-23-105.5t-64-80T235,306Zm5,63q35,0 58.5,23t36,58T347,520q0,39-19.5,63T270,607q-34,0-58-23t-36.5-57.5T163,456q0-39 19.5-63T240,369ZM650-10q-45,0-77,19T524,61.5T507,138q0,57 23,106t64,79.5T690,354q46,0 77.5-19T816,282.5T833,206q0-56-23-105.5t-64-80T650-10Zm5,63q35,0 58.5,23t36,58T762,204q0,39-19.5,63T685,291q-34,0-58-23t-36.5-57.5T578,140q0-39 19.5-63T655,53Z" />
      <glyph unicode="&amp;" glyph-name="gid559" horiz-adv-x="606" d="M232-8Q165-8 118,14.5T46.5,78T22,175q0,61 26.5,102T123,345t112,45l37,15q41,13 74.5,30.5t53.5,43T420,539t-18,51.5T356,607q-37,0-63-27.5T267,499q0-24 6-54t17-63t25.5-67.5T346,245q26-53 62-97.5T485,76t80-27L553-11q-55,0-104.5,29T358,95.5T287,203q-26,52-47,103.5t-33,100T195,496q0,54 22,93t59.5,60.5T362,671q61,0 94.5-34T490,551q0-58-27.5-97t-76-65T273,342l-7-1q-52-15-90-35t-58.5-50T97,179q0-58 38-89t98-31q51,0 86,17.5T388,123l15,10q35,35 62.5,81.5T503,319l67-6q-12-63-46.5-124.5T442,84L422,68q-27-23-57-40T302.5,1.5T232-8Z" />
      <glyph unicode="&apos;" glyph-name="gid504" horiz-adv-x="231" d="M272,690L188,443H124l57,247h91Z" />
      <glyph unicode="(" glyph-name="gid482" horiz-adv-x="342" d="M166-189Q115-112 87.5-13T60,182q0,86 21.5,168.5t62.5,157T245.5,644T384,751l33-49q-91-59-153-143T170.5,376.5T139,174q0-88 21.5-175T219-155l-53-34Z" />
      <glyph unicode=")" glyph-name="gid483" horiz-adv-x="342" d="M190,751q51-77 78.5-176T296,380q0-86-21.5-168.5T212,54.5T110.5-82T-28-189l-33,49Q31-81 92.5,3t93,183T217,388q0,89-21,175.5T137,717l53,34Z" />
      <glyph unicode="*" glyph-name="gid471" horiz-adv-x="564" d="M402,277L353,382l-23,76l-55-69l-93-89l-44,46l91,90l70,53l-74,25L121,565l30,57l106-49l66-43l8,83l26,117h70L398,606l-30-81l82,27l122,23l4-63L456,487l-85-7l42-68l47-105l-58-30Z" />
      <glyph unicode="+" glyph-name="gid543" horiz-adv-x="604" d="M412,564L298,68H223L337,564h75ZM569,354l-17-75H66l17,75H569Z" />
      <glyph unicode="," glyph-name="gid461" horiz-adv-x="252" d="M94,120q30,0 48-22.5T160,39q0-38-19.5-77.5T84-108T-5-149l-25,48Q9-95 35.5-81T78-46.5T101-2l-1,1Q95-5 89.5-6.5T73-8Q49-8 36.5,9.5T24,48q0,32 20.5,52T94,120Z" />
      <glyph unicode="-" glyph-name="gid488" horiz-adv-x="510" d="M432,303l-19-83H83l19,83H432Z" />
      <glyph unicode="." glyph-name="gid460" horiz-adv-x="262" d="M81-10Q56-10 39.5,5.5T23,46q0,34 20,54t48,20q25,0 41.5-15.5T149,64q0-34-19.5-54T81-10Z" />
      <glyph unicode="/" glyph-name="gid473" horiz-adv-x="420" d="M505,730L34-70H-48L423,730h82Z" />
      <glyph unicode="0" glyph-name="gid406" horiz-adv-x="629" d="M296-8Q227-8 177.5,23.5t-76,88T75,244q0,37 4,72.5T91,386q14,60 39.5,111.5t62,90.5t84,60.5T381,670q65,0 112-31.5t72.5-88T591,419q0-36-4-71t-12-69q-14-60-39-112T475.5,75.5T395,14T296-8Zm7,71q50,0 88,31.5T455,178t39,111q8,32 11.5,64.5T509,417q0,96-37,139t-99,43q-53,0-93.5-32T212,483.5T171,371q-7-31-10.5-63T157,245q0-66 19.5-106t53-58T303,63Z" />
      <glyph unicode="1" glyph-name="gid407" horiz-adv-x="382" d="M132,0L239,466q8,31 15,54.5T269,566q-19-18-52.5-36T146,498T76,478v78q37,8 80,25.5t81,39T295,660h70L212,0H132Z" />
      <glyph unicode="2" glyph-name="gid408" horiz-adv-x="565" d="M25,0L43,75q82,58 155,108.5t128.5,99t87,98T445,487q0,54-34,80.5T327,594q-69,0-111.5-41.5T156,447L94,499q16,48 48.5,87t80,61.5T331,670q59,0 103-21t69-59t25-89q0-55-23.5-104t-63-93t-89-84T251,143.5T152,73V72q11,1 34.5,2T220,75H489L471,0H25Z" />
      <glyph unicode="3" glyph-name="gid409" horiz-adv-x="564" d="M269-10q-91,0-150,50T42,172l85,24q8-60 45.5-95.5T275,65q45,0 75.5,18.5t46,48.5T412,196q0,58-36.5,79.5T288,297q-7,0-13.5,0T260,296l18,79q11-1 21-2t20-1q42,0 72,14t46.5,41T454,493q0,37-17.5,59.5t-44.5,33T334,596q-61,0-92.5-28.5T192,495l-69,43q26,63 84.5,98T343,671q54,0 97-20t68-56.5T533,506q0-50-20-89t-54.5-61.5T381,330l-1-2q36-5 61-21t38.5-42T493,203q0-67-32-114.5t-83-73T269-10Z" />
      <glyph unicode="4" glyph-name="gid410" horiz-adv-x="565" d="M275,0l40,173H16l16,69q16,21 32.5,42.5T99,327L393,660H507L410,242H535l-16-69H394L354,0H275ZM106,242H331l79,343L185,328q-20-22-39.5-43T106,242Z" />
      <glyph unicode="5" glyph-name="gid411" horiz-adv-x="571" d="M269-10q-61,0-107.5,24T87,77.5T52,161l85,22q5-30 19-57t43.5-44T278,65t80.5,23.5t47,61T421,229q0,45-18.5,73t-48,41T290,356q-38,0-65-10.5T172,312l-64,22L215,660H558l-18-75H268L202,386q23,19 54,28.5t66,9.5q50,0 91.5-20.5t66-61.5T504,241q0-72-28.5-129t-81-89.5T269-10Z" />
      <glyph unicode="6" glyph-name="gid412" horiz-adv-x="589" d="M307-10q-78,0-129,32t-76,89T77,244q0,79 18,155t55.5,137.5t96.5,98T387,671q71,0 127-35t72-115l-80-26q-7,49-43.5,75T380,596q-53,0-92.5-26T221,501t-43-95T156,301q17,55 69,84.5T339,415q89,0 140.5-51T531,230q0-68-27-122.5t-77-86T307-10Zm3,75q45,0 76,20.5t46.5,55T448,217q0,53-35,88.5T310,341q-46,0-78-20.5T184,267t-16-71q0-31 10.5-55.5t30-41.5T254,73.5T310,65Z" />
      <glyph unicode="7" glyph-name="gid413" horiz-adv-x="538" d="M122,660H589l-18-75q-81-73-146-160.5t-111-193T243,0H156q21,111 68.5,219.5T345,426.5T514,605l-2-20H104l18,75Z" />
      <glyph unicode="8" glyph-name="gid414" horiz-adv-x="606" d="M294-9Q244-9 199.5,3.5T121,40T67.5,98.5T48,177q0,54 24,92.5T138.5,332T238,364l-4-16q-26,11-45,30.5t-29.5,45T149,477q0,58 28,101.5t76.5,68T365,671q59,0 106.5-20T547,594.5T575,506q0-67-43-116T419,327v17q34-15 58.5-36.5t38-49.5T529,195q0-62-31-108T414,16T294-9Zm7,74q44,0 76.5,14.5t50.5,42T446,187q0,39-23.5,66.5T362,295t-79,14q-44,0-78.5-16t-54-44T131,184q0-39 24-65.5t62.5-40T301,65Zm58,314q39,0 69,15t47,41.5T492,496q0,45-34,74t-94,29q-40,0-70-16t-46.5-43T231,480q0-28 16-51t45-36.5T359,379Z" />
      <glyph unicode="9" glyph-name="gid415" horiz-adv-x="609" d="M259-10q-60,0-103.5,22.5T84.5,75T46,168l84,27q5-32 20-62t43.5-49T265,65q54,0 94,24t67.5,65.5t43,94.5T490,360q-11-36-37.5-61t-61-38T320,248q-64,0-110,25t-70.5,68.5T115,440q0,64 29,116t81,83t121,31q78,0 127.5-32T546,549t23-133q0-79-18.5-154.5T494,124.5t-96.5-98T259-10Zm77,329q47,0 78.5,20.5t47.5,54T478,464q0,42-17,71.5T414,580t-71,15q-45,0-77.5-18t-50-50T198,453q0-35 15.5-66T260,337.5T336,319Z" />
      <glyph unicode=":" glyph-name="gid462" horiz-adv-x="296" d="M98-10Q73-10 56.5,5.5T40,46q0,34 20,54t48,20q25,0 41.5-15.5T166,64q0-34-19.5-54T98-10Zm90,390q-25,0-41.5,15.5T130,436q0,34 20,54t48,20q25,0 41.5-15.5T256,454q0-34-19.5-54T188,380Z" />
      <glyph unicode=";" glyph-name="gid463" horiz-adv-x="296" d="M198,510q25,0 41.5-15.5T256,454q0-34-19.5-54T188,380q-25,0-41.5,15.5T130,436q0,34 20,54t48,20ZM108,120q30,0 48-22.5T174,39q0-38-19.5-77.5T98-108T9-149l-25,48q39,6 65.5,20T92-46.5T115-2l-1,1q-5-4-10.5-5.5T87-8Q63-8 50.5,9.5T38,48q0,32 20.5,52T108,120Z" />
      <glyph unicode="&lt;" glyph-name="gid549" horiz-adv-x="604" d="M621,571l-20-84L142,298L514,105L496,28L72,253l21,93L621,571Z" />
      <glyph unicode="=" glyph-name="gid547" horiz-adv-x="604" d="M584,441l-17-75H91l17,75H584ZM538,241l-17-75H45l17,75H538Z" />
      <glyph unicode="&gt;" glyph-name="gid548" horiz-adv-x="604" d="M6,28l20,84L485,301L113,494l18,77L555,346l-21-93L6,28Z" />
      <glyph unicode="?" glyph-name="gid467" horiz-adv-x="536" d="M203,208l35,146q67,0 116,13t76,43.5T457,494q0,51-37,75t-92,24q-66,0-108.5-31.5T158,478L93,525q18,42 52,74.5T226,650t104,18q60,0 107-20.5T511.5,589T539,498q0-64-30.5-107.5t-83-67.5T307,295l-21-87H203Zm4-218q-25,0-41.5,15.5T149,46q0,34 20,54t48,20q25,0 41.5-15.5T275,64q0-34-19.5-54T207-10Z" />
      <glyph unicode="@" glyph-name="gid558" horiz-adv-x="950" d="M469-196q-117,0-208,48T118-12T66,196q0,102 33,187t93,147t141.5,96T513,660q91,0 161.5-27T794,557.5t74-115T893,297q0-67-17-122T830,79.5T764,17T686-5Q653-5 630.5,7.5T598,42.5T591,93q-22-42-66-66.5T434,2q-52,0-91.5,25T281,96.5T259,199q0,56 17,104.5t47.5,85t72.5,57T487,466q39,0 70-13.5t52-38T638,356l24,101h71L657,131q-2-11-3.5-20T652,94q0-27 13-35t31-8q27,0 51.5,17t44,49t31,77.5T834,297q0,71-22.5,127t-65,95.5T643.5,580T507,601q-81,0-149.5-29T239,489.5t-78-128T133,196q0-79 27-141T233.5-50T341-115t128-22q71,0 118,14.5T667-89l24-52q-28-14-58-27t-68.5-20.5T469-196ZM457,63q42,0 77,27.5t55.5,75T610,272q0,40-14.5,69.5t-41,46T492,404t-65.5-15.5t-51-43.5T342,280t-12-80q0-44 15-74.5T388.5,79T457,63Z" />
      <glyph unicode="A" glyph-name="gid1" horiz-adv-x="643" d="M-35,0L367,660h99L562,0H483L455,189H168L55,0H-35ZM214,264H445L400,574L214,264Z" />
      <glyph unicode="B" glyph-name="gid16" horiz-adv-x="645" d="M47,0L200,660H436q83,0 128.5-40.5T610,511q0-47-17.5-85T544,363t-72-35v-1q47-7 76-42.5T577,202q0-66-32-111T457,23T327,0H47Zm98,75H327q81,0 123.5,34T493,202q0,30-13,50t-39,30t-65,10H195L145,75Zm67,292H379q47,0 80,17t50.5,47T527,500q0,47-31.5,66T416,585H263L212,367Z" />
      <glyph unicode="C" glyph-name="gid17" horiz-adv-x="674" d="M363-10q-77,0-140.5,32T121,117T83,273q0,74 21.5,144.5T169,545t106.5,91T422,670q63,0 112-20t83-61t51-104l-84-28q-17,74-59.5,106T414,595q-60,0-106-27t-77-71.5T184,397T168,285q0-69 26.5-118t72-75.5T368,65q66,0 104,27.5T536,166l77-37Q572,66 513,28T363-10Z" />
      <glyph unicode="D" glyph-name="gid24" horiz-adv-x="706" d="M47,0L200,660H391q85,0 145-35t92.5-96T661,390q0-83-26.5-154T559,112T441.5,29.5T290,0H47Zm97,75H302q63,0 113.5,24.5t86,67t54.5,97T575,378q0,59-21,105.5t-64,74T381,585H263L144,75Z" />
      <glyph unicode="E" glyph-name="gid34" horiz-adv-x="625" d="M47,0L200,660H653l-18-75H262L213,372H505l-17-75H196L145,75H534L516,0H47Z" />
      <glyph unicode="F" glyph-name="gid50" horiz-adv-x="585" d="M621,585H263L213,372H511l-17-75H196L127,0H47L200,660H639l-18-75Z" />
      <glyph unicode="G" glyph-name="gid51" horiz-adv-x="707" d="M343-8Q273-8 214,25.5t-94.5,97T84,275q0,77 22.5,147.5t66,126.5T280,637.5T428,670q60,0 111.5-17T629,597.5T685,493l-81-28q-18,71-65.5,101T423,596q-62,0-109.5-26.5t-80-71.5t-49-100.5T168,284q0-68 23.5-116.5t66.5-74T359,68q56,0 97,19.5T523,142t37,81l7,30H361l17,75H655L575,0H512l27,132l9-11q-19-41-48-70T432,7T343-8Z" />
      <glyph unicode="H" glyph-name="gid59" horiz-adv-x="719" d="M709,660L556,0H476L629,660h80Zm-429,0L127,0H47L200,660h80ZM599,372l-17-75H158l17,75H599Z" />
      <glyph unicode="I" glyph-name="gid64" horiz-adv-x="290" d="M280,660L127,0H47L200,660h80Z" />
      <glyph unicode="J" glyph-name="gid78" horiz-adv-x="549" d="M214-8q-52,0-92,19T59,64T32,143t14,97l76,5q-17-52-12.5-93T142,87.5T221,64q65,0 97,37.5T369,227L469,660h81L445,207q-14-61-41-110T331.5,20T214-8Z" />
      <glyph unicode="K" glyph-name="gid80" horiz-adv-x="637" d="M47,0L200,660h80L202,324L589,660H701L386,385L551,0H463L324,331L174,202L127,0H47Z" />
      <glyph unicode="L" glyph-name="gid82" horiz-adv-x="586" d="M144,75H515L497,0H47L200,660h80L144,75Z" />
      <glyph unicode="M" glyph-name="gid92" horiz-adv-x="837" d="M47,0L200,660H315l49-410L378,97h1l81,151L698,660H827L674,0H599l96,415l45,174h-1L392,0H324L252,589h-1L219,415L123,0H47Z" />
      <glyph unicode="N" glyph-name="gid94" horiz-adv-x="719" d="M47,0L200,660h96L460,220L503,88h1l21,106L633,660h76L556,0H461L294,442L253,572h-1L231,466L123,0H47Z" />
      <glyph unicode="O" glyph-name="gid105" horiz-adv-x="742" d="M359-10q-74,0-136.5,33.5T122.5,122T85,280q0,77 22,147t64.5,124.5t106,86.5T423,670q74,0 135.5-34T657,537.5T694,380q0-76-21.5-146t-64-125t-105-87T359-10Zm9,76q60,0 105,26t75.5,70.5t46,99.5T610,375q0,69-25,118t-69,75T413,594q-60,0-105.5-26T231,498t-46.5-99T169,285q0-69 25-118t69.5-75T368,66Z" />
      <glyph unicode="P" glyph-name="gid128" horiz-adv-x="610" d="M47,0L200,660H392q99,0 155.5-50T604,479q0-65-32-116t-90.5-80T345,254H153l17,75H364q53,0 87.5,20t52,53T521,474q0,50-34,80.5T386,585H263L127,0H47Z" />
      <glyph unicode="Q" glyph-name="gid130" horiz-adv-x="742" d="M474-194q-39,0-72,11t-58.5,31.5T304-102T290-37q0,14 2.5,28T299,20l75,17q-6-16-8.5-31T363-23q0-46 31.5-69.5T481-116q33,0 58.5,7.5T590-86l6-79q-28-16-61-22.5T474-194ZM359-10q-74,0-136.5,33.5T122.5,122T85,280q0,77 22,147t64.5,124.5t106,86.5T423,670q74,0 135.5-34T657,537.5T694,380q0-76-21.5-146t-64-125t-105-87T359-10Zm9,76q60,0 105,26t75.5,70.5t46,99.5T610,375q0,69-25,118t-69,75T413,594q-60,0-105.5-26T231,498t-46.5-99T169,285q0-69 25-118t69.5-75T368,66Z" />
      <glyph unicode="R" glyph-name="gid131" horiz-adv-x="637" d="M47,0L200,660H416q89,0 141.5-47.5T610,481q0-56-25.5-100t-67-71.5T428,273l-50-7H173l17,75H370q53,0 88,19.5t52,52T527,484q0,50-34,75.5T400,585H263L127,0H47ZM469,0L356,281l81,10L556,0H469Z" />
      <glyph unicode="S" glyph-name="gid139" horiz-adv-x="639" d="M337-8Q263-8 203.5,14.5T102.5,80T39,187l80,40q17-58 50-93.5t78-51T344,67q49,0 82,16.5t49.5,43T492,183q0,37-23.5,58T400,275L293,305q-51,15-86.5,39t-54,57T134,473q0,55 29.5,100t83,71.5T373,671q97,0 162-40t93-122l-80-39q-13,52-41,79t-64,37t-75,10q-50,0-84-15t-50.5-40T217,486q0-34 26-61.5T313,384l119-34q73-21 108-59.5T575,196q0-62-32.5-108T456,17T337-8Z" />
      <glyph unicode="T" glyph-name="gid152" horiz-adv-x="592" d="M656,660l-18-75H415L280,0H200L335,585H108l18,75H656Z" />
      <glyph unicode="U" glyph-name="gid159" horiz-adv-x="693" d="M325-10q-87,0-145.5,35t-80,101.5T99,286l88,374h80L177,267q-15-67 1-112t55.5-67.5T330,65q80,0 126,50t65,134l95,411h80L596,226Q571,120 503,55T325-10Z" />
      <glyph unicode="V" glyph-name="gid175" horiz-adv-x="628" d="M700,660L300,0H209L118,660h81l58-456L269,73l66,130L612,660h88Z" />
      <glyph unicode="W" glyph-name="gid176" horiz-adv-x="939" d="M166,0L128,660h77L232,83L507,660h98L623,78L915,660h86L658,0H557L539,428l-1,149h-1L471,428L263,0H166Z" />
      <glyph unicode="X" glyph-name="gid181" horiz-adv-x="588" d="M-34,0L272,347L143,660h88L332,405L552,660h93L363,336L501,0H417L304,277L63,0H-34Z" />
      <glyph unicode="Y" glyph-name="gid182" horiz-adv-x="562" d="M183,0l60,258L110,660h86l72-229l27-98l75,104L546,660h96L322,251L263,0H183Z" />
      <glyph unicode="Z" glyph-name="gid192" horiz-adv-x="591" d="M-3,0L14,73L504,585H130l18,75H623l-17-72L114,75H515L497,0H-3Z" />
      <glyph unicode="[" glyph-name="gid486" horiz-adv-x="344" d="M408,660H255L79-98H233l-17-70H-12L196,730H424l-16-70Z" />
      <glyph unicode="\" glyph-name="gid474" horiz-adv-x="469" d="M137,730h71L369-70H298L137,730Z" />
      <glyph unicode="]" glyph-name="gid487" horiz-adv-x="345" d="M-49-98H104L280,660H126l17,70H371L163-168H-65l16,70Z" />
      <glyph unicode="^" glyph-name="gid553" horiz-adv-x="560" d="M51,355L353,730h76L557,355H481L379,663L137,355H51Z" />
      <glyph unicode="_" glyph-name="gid492" horiz-adv-x="539" d="M459-97l-17-75H-97l17,75H459Z" />
      <glyph unicode="`" glyph-name="gid605" horiz-adv-x="500" d="M364,750l45-167H348L284,750h80Z" />
      <glyph unicode="a" glyph-name="gid198" horiz-adv-x="616" d="M251-8Q193-8 149,20T80,97.5T55,212q0,62 19,116t53,95t81,64t102,23q44,0 79-15t58-42.5T479,387l26,113h80L469,0H399l17,93q-24-46-68.5-73.5T251-8Zm21,68q35,0 66.5,18t56,49.5t38.5,74T447,293q0,45-16.5,78.5t-46,51.5T315,441t-73-17.5T185,375t-37.5-72.5T134,213q0-49 16-83t46.5-52T272,60Z" />
      <glyph unicode="b" glyph-name="gid213" horiz-adv-x="616" d="M372,508q54,0 97-26t67.5-75.5T561,286q0-63-19.5-116.5t-54-94t-81-63T306-10q-46,0-81.5,16.5T167,51t-30,62L111,0H31L200,730h80L208,420q23,38 67,63t97,25ZM305,59q36,0 68,17t56.5,47.5T468,196t14,92q0,51-17.5,84.5t-47.5,50T349,439q-40,0-73-17.5T219,373t-37-74t-13-94q0-65 34.5-105.5T305,59Z" />
      <glyph unicode="c" glyph-name="gid214" horiz-adv-x="538" d="M277-9Q208-9 158.5,21.5T83,103.5T57,217q0,86 33,151.5t92,103T319,509q57,0 99.5-20t69-55T523,355l-84-20q-4,44-34.5,74.5T315,440q-38,0-70.5-16T188,378.5t-37-70T138,218q0-44 17-80t49.5-57T285,60q39,0 73.5,20T407,139l78-28q-26-58-81.5-89T277-9Z" />
      <glyph unicode="d" glyph-name="gid221" horiz-adv-x="616" d="M251-8Q193-8 149,20T80,97.5T55,212q0,62 19,116t53,95t81,64t102,23q44,0 79-15t58-42.5T479,387l79,343h80L469,0H399l17,93q-24-46-68.5-73.5T251-8Zm20,68q36,0 68,18t56,49.5t38,74T447,293q0,45-16.5,78.5t-46,51.5T315,441t-73-17.5T185,375t-37.5-72.5T134,213q0-49 16-83t46.5-52T271,60Z" />
      <glyph unicode="e" glyph-name="gid229" horiz-adv-x="572" d="M276-9Q207-9 157.5,21T82,102T56,216q0,78 31,145t90.5,107.5T322,509q61,0 104.5-25T493,415.5T516,317q0-20-3.5-41.5T502,231H95v70H467l-35-28q3,12 4.5,24t1.5,23q0,36-14.5,63T382,425t-65,15q-49,0-83.5-19.5t-56-52.5t-31-73.5T137,213q0-45 18.5-79.5t51.5-54T285,60q51,1 84,22t54,55l63-42q-22-32-53-55.5t-70.5-36T276-9Z" />
      <glyph unicode="f" glyph-name="gid246" horiz-adv-x="385" d="M70,0L207,593q12,50 35,81t57.5,46T380,735q28,0 52-6.5T469,711l-27-65q-9,7-26,12t-36,5q-42,0-65-20t-34-71l-16-72l-5-26L150,0H70ZM68,431l16,69H420l-16-69H68Z" />
      <glyph unicode="g" glyph-name="gid247" horiz-adv-x="613" d="M213-215q-43,0-80.5,11.5T66.5-171t-47,50.5T-6-54L74-26q11-56 43.5-87.5T219-145q38,0 72,13.5t60,47T390,10l25,113l13,12q-15-55-63-89.5T254,11q-58,0-104,29T78,118.5T52,227q0,63 19,114.5T124,431t80.5,58.5T305,510q51,0 89.5-19.5t61.5-55T481,352l-15-8l36,156h80L465,1q-18-77-54.5-124.5T324-193T213-215ZM275,80q47,0 85,28t60.5,76.5T443,295q0,45-16,77.5T381,423t-71,18q-52,0-92-26.5t-63-74T132,229q0-65 38-107T275,80Z" />
      <glyph unicode="h" glyph-name="gid255" horiz-adv-x="600" d="M31,0L200,730h80L204,400l-16-7q14,39 42.5,65t66,39T375,510q56,0 96.5-25T529,413.5T531,301L461,0H381l70,302q15,65-12.5,101.5T352,440q-46,0-81.5-20.5t-60-59.5T172,263L111,0H31Z" />
      <glyph unicode="i" glyph-name="gid260" horiz-adv-x="258" d="M218,596q-24,0-39,14.5T164,648q0,31 18.5,49.5T227,716q24,0 39-14.5T281,664q0-31-18.5-49.5T218,596Zm9-96L111,0H31L147,500h80Z" />
      <glyph unicode="j" glyph-name="gid275" horiz-adv-x="258" d="M218,596q-24,0-39,14.5T164,648q0,31 18.5,49.5T227,716q24,0 39-14.5T281,664q0-31-18.5-49.5T218,596ZM-53-215q-30,0-59.5,9T-159-179l28,72q14-12 33.5-20t38.5-8q28,0 46.5,16T16-57L147,500h80L93-78Q77-149 35.5-182T-53-215Z" />
      <glyph unicode="k" glyph-name="gid278" horiz-adv-x="545" d="M568,500L307,283l-17-11L96,110l15,102L456,500H568ZM280,730L111,0H31L200,730h80Zm42-405L464,0H377L257,282l65,43Z" />
      <glyph unicode="l" glyph-name="gid281" horiz-adv-x="303" d="M168-7Q99-7 72,34.5T61,143L197,730h80L140,140q-10-41 6-59t55-18q15,0 26,1t21,3L228,3q-16-6-29-8T168-7Z" />
      <glyph unicode="m" glyph-name="gid290" horiz-adv-x="934" d="M31,0L147,500h70L198,388l-10,5q20,59 72,88t113,29q54,0 92.5-25T520,413t0-114L450,0H370l70,300q16,66-9.5,103T350,440q-46,0-81.5-20.5t-59-59.5T172,263L111,0H31ZM710,0l69,300q15,66-10,103t-80,37q-46,0-81-20.5T549,360t-38-97L501,369q29,71 86.5,106T712,510q54,0 92.5-25T859,413t0-114L790,0H710Z" />
      <glyph unicode="n" glyph-name="gid292" horiz-adv-x="600" d="M31,0L147,500h70L198,388l-10,5q20,59 73,88t114,29q58,0 98-25t56.5-71.5T531,301L461,0H381l70,302q15,65-12.5,101.5T352,440q-46,0-81.5-20.5t-60-59.5T172,263L111,0H31Z" />
      <glyph unicode="o" glyph-name="gid302" horiz-adv-x="595" d="M282-9Q210-9 159.5,21.5t-77,82T56,216q0,86 33,152t91,103.5T314,509q73,0 123-30.5t76-81T539,285q0-85-32.5-151.5T416,29T282-9Zm3,69q36,0 67.5,15.5t55.5,45T445,191t13,91q0,44-15.5,79.5t-48,57T311,440q-36,0-68-15.5T187.5,380t-37-70T137,219q0-43 16-79.5t49-58T285,60Z" />
      <glyph unicode="p" glyph-name="gid325" horiz-adv-x="616" d="M-17-210L147,500h70L195,377l-13-12q12,45 39.5,77T289,491t86,17q53,0 95-26t66.5-75T561,290q0-64-19.5-119T487,75.5t-81.5-63T304-10q-49,0-87,19.5T157,65t-25,83l15,8L63-210H-17ZM305,59q36,0 68,17t56.5,48.5T468,198t14,92q0,48-17,81.5T418,422t-70,17q-39,0-71.5-17.5T220,373t-37.5-74T169,205q0-65 34.5-105.5T305,59Z" />
      <glyph unicode="q" glyph-name="gid327" horiz-adv-x="616" d="M341-210l74,320l6,3q-21-55-67.5-88T251-8T150.5,19.5t-70,77T55,212q0,63 19.5,117.5t54,95t81,63T310,510q51,0 88-19.5t59-52T482,365l-11-11l34,146h80L421-210H341ZM271,60q37,0 69,18t56,49.5t37.5,74T447,293q0,45-16.5,78.5t-46,51.5T315,441t-73-17.5T185,375t-37.5-72.5T134,213q0-49 16.5-83t47-52T271,60Z" />
      <glyph unicode="r" glyph-name="gid328" horiz-adv-x="388" d="M31,0L147,500h65L201,385l-12,7q16,37 44,63.5T296.5,496T367,510q16,0 28.5-2t22.5-7l-24-76q-10,5-22.5,7.5T342,435q-38,0-71.5-17.5T212,364t-38-93L111,0H31Z" />
      <glyph unicode="s" glyph-name="gid336" horiz-adv-x="512" d="M252-11Q194-11 147.5,7t-79,51T19,136l76,33q19-55 59-82.5T256,59q53,0 80.5,23.5T364,140q0,26-15,41t-47,24l-89,25q-62,17-93,51.5T89,361q0,42 23,75.5T178,490t102,20q71,0 125-32t77-93l-73-35q-9,28-28,48.5T335.5,430T275,441q-55,0-81.5-20T167,368q0-28 19.5-44.5T235,299l98-28q51-14 80.5-46T443,151q0-50-25-86.5t-68-56T252-11Z" />
      <glyph unicode="t" glyph-name="gid349" horiz-adv-x="402" d="M235-8q-48,0-82,19T105,66t-3,86L207,610l87,25L180,148q-10-46 12.5-65.5T249,63q25,0 44,7t33,18l16-66Q317,5 291-1.5T235-8ZM65,431l16,69H417l-16-69H65Z" />
      <glyph unicode="u" glyph-name="gid357" horiz-adv-x="598" d="M228-8q-54,0-95.5,24.5t-60,71T69,199l70,301h80L150,201q-16-67 12.5-103T249,62q46,0 81,20t59,59t37,96l61,263h80L451,0H381l19,112l10-5q-20-58-70-86.5T228-8Z" />
      <glyph unicode="v" glyph-name="gid373" horiz-adv-x="493" d="M456,500h89L232,0H151L64,500h79L213,60l-20,4L456,500Z" />
      <glyph unicode="w" glyph-name="gid374" horiz-adv-x="803" d="M130,0L76,500h77l38-400L402,500h80L533,94L749,500h85L558,0H478L423,397L211,0H130Z" />
      <glyph unicode="x" glyph-name="gid379" horiz-adv-x="519" d="M-31,0L232,278l20,16L439,500h98L287,231l-21-20L70,0H-31ZM345,0L236,220l-10,18L93,500h91L288,288l4-9L435,0H345Z" />
      <glyph unicode="y" glyph-name="gid380" horiz-adv-x="504" d="M12-215q-38,0-65.5,9T-99-181l32,67q34-31 76-31q32,0 56.5,18T114-71L161,4L73,500h79l46-286L218,89l70,117L465,500h91L178-98q-26-41-53.5-67T69-203T12-215Z" />
      <glyph unicode="z" glyph-name="gid390" horiz-adv-x="513" d="M1,0L16,65L345,383l55,50l-88-2H96l16,69H509l-16-69L190,140L112,69H220H430L414,0H1Z" />
      <glyph unicode="{" glyph-name="gid484" horiz-adv-x="333" d="M185-189q-78,0-110.5,34.5T55-65l48,207q13,56-6.5,80T31,246H25l16,70H56q43,0 69.5,18T163,401l54,236q12,52 51,83t112,31h23l-14-62h-1q-52,0-72-15.5T288,623L235,394q-10-48-42.5-80.5T113,273q43-10 60-42.5t6-81.5L130-63q-7-33 9.5-49.5T199-130h1l-14-59h-1Z" />
      <glyph unicode="|" glyph-name="gid568" horiz-adv-x="239" d="M265,730L57-168H-12L196,730h69Z" />
      <glyph unicode="}" glyph-name="gid485" horiz-adv-x="333" d="M-56-189l14,59q52,0 72.5,17.5T59-61l53,229q11,48 43,81t79,40q-43,11-60,43t-6,81l48,209q8,33-9,50t-61,17l15,62q53,0 84.5-15.5T289,692t3-65L244,420q-13-56 6.5-80T316,316h6l-16-70H291q-43,0-69.5-17.5T184,161L130-75q-12-52-50.5-83T-33-189H-56Z" />
      <glyph unicode="~" glyph-name="gid551" horiz-adv-x="540" d="M528,384q-14-51-39.5-84t-58-49T364,235q-33,0-54,11t-38,26t-34.5,26T195,309q-26,0-47-19t-32-55H40q14,51 39,84t58,49t68,16q32,0 53.5-11t38-26T331,321t42-11q26,0 47,18.5T452,384h76Z" />
      <glyph unicode="&#xa0;" glyph-name="gid506" horiz-adv-x="336" />
      <glyph unicode="&#xa1;" glyph-name="gid466" horiz-adv-x="264" d="M166,292L142,126L76-160H-10L56,126l52,166h58Zm8,218q25,0 41.5-15.5T232,454q0-34-19.5-54T164,380q-25,0-41.5,15.5T106,436q0,34 20,54t48,20Z" />
      <glyph unicode="&#xa2;" glyph-name="gid512" horiz-adv-x="565" d="M283-9Q214-9 164.5,21T89,102T63,215q0,86 33,152t92,104t137,38q57,0 99.5-20t69-55T529,355l-80-20q-4,44-36.5,76.5T321,444q-51,0-92-29t-65-79.5T140,218q0-44 17.5-81T209,78t82-22q39,0 75.5,22T417,139l74-28q-26-58-81.5-89T283-9Zm-99-91L346,600h67L251-100H184Z" />
      <glyph unicode="&#xa3;" glyph-name="gid530" horiz-adv-x="599" d="M88,278l15,65H469l-15-65H88ZM412-10q-44,0-77,11.5T276,30T228,64T183.5,92.5T134,104q-19,0-29-8T95,74t9-22t28-8q26,0 48,23.5T216,130t14,85q0,30-5.5,59.5t-12,58.5t-12,59T195,452q0,65 30,114t79,77t106,28q51,0 91.5-21t66-58.5T597,504l-73-22q-5,48-33.5,82.5T408,599q-44,0-75-21.5T286,522t-16-74q0-41 6-76t11.5-71t5.5-82q0-43-12.5-84t-35-73.5T191.5,10T122-9Q81-9 53.5,14T26,71q0,37 30.5,64T139,162q35,0 62-10.5T251,125t45.5-32t49-26.5T406,56q39,0 59.5,24T497,158l64-22q-11-49-32-81.5T478.5,6T412-10Z" />
      <glyph unicode="&#xa4;" glyph-name="gid514" horiz-adv-x="665" d="M351,539q61,0 108.5-27T534,437.5T561,329T534,220.5t-74.5-75T351,118T242.5,145.5t-75,75T140,329t27.5,108.5t75,74.5T351,539Zm0-72q-57,0-94-39t-37-99q0-61 37-100t94-39q56,0 93,39t37,100q0,60-37,99t-93,39ZM139,591L258,474l-51-50L88,540l51,51Zm66-355l50-51L139,66L88,117L205,236Zm289-3L613,117L562,66L443,182l51,51Zm68,358l51-51L497,421l-51,51L562,591Z" />
      <glyph unicode="&#xa5;" glyph-name="gid532" horiz-adv-x="600" d="M207,0l25,107H60l13,55H245l17,75H90l14,60H213l48-4L129,660h80l85-243l26-96h2l61,98L566,660h95L368,292l41,5H519l-14-60H332l-17-75H488l-13-55H302L277,0H207Z" />
      <glyph unicode="&#xa6;" glyph-name="gid569" horiz-adv-x="239" d="M265,730L181,367H112l84,363h69ZM141,195L57-168H-12L72,195h69Z" />
      <glyph unicode="&#xa7;" glyph-name="gid561" horiz-adv-x="591" d="M255-110q-54,0-101.5,15t-83,45.5T16,25L89,67q17-46 60-78T269-43q64,0 97,26t33,67q0,32-19,50t-71,32L194,163q-82,22-118,56T40,311q0,35 17,62t47,43.5T173,436l35-31q-49-3-72.5-27T112,324q0-31 22.5-54T216,231l122-32q72-19 106.5-48.5T479,69q0-48-23.5-89T383-85.5T255-110ZM420,125l-20,38q30,0 51,9.5t32.5,28T495,244q0,29-18.5,48T404,326L282,360q-45,13-74,31t-42.5,45T152,501q0,45 23.5,83.5t71,62T365,670q41,0 84-11.5t81.5-39T597,544l-69-41q-31,53-72.5,75.5T355,601q-40,0-67-12t-41-32t-14-45q0-37 18.5-55.5T322,423l123-35q60-17 91-48t31-80q0-32-15.5-61.5t-48-49.5T420,125Z" />
      <glyph unicode="&#xa8;" glyph-name="gid604" horiz-adv-x="500" d="M431,582q-22,0-36,14t-14,35q0,30 18,47.5T443,696q22,0 36-14t14-35q0-30-18-47.5T431,582Zm-194,0q-22,0-36,14t-14,35q0,30 18,47.5T249,696q22,0 36-14t14-35q0-30-18-47.5T237,582Z" />
      <glyph unicode="&#xa9;" glyph-name="gid562" horiz-adv-x="807" d="M422-10Q320-10 243,35T123,157T80,330q0,97 43,173.5T243,625t179,45t179-44.5T721,504t43-174q0-96-43-173T601,35T422-10Zm0,65q81,0 142,36.5t95,99T693,330T659,469.5t-95,99T422,605q-80,0-141.5-36.5t-95.5-99T151,330t34-139.5t95.5-99T422,55Zm7,88q-85,0-133.5,49.5T247,328t48.5,135.5T429,513q59,0 98-25.5T585,418l-58-29q-13,32-37,48t-62,16q-53,0-83.5-33T314,328t30.5-92T428,203q40,0 66.5,16.5T534,270l55-22q-19-49-59-77T429,143Z" />
      <glyph unicode="&#xaa;" glyph-name="gid404" horiz-adv-x="355" d="M184,327q-50,0-83,38.5T68,467q0,43 12.5,79.5t35.5,63T170,651t68,15q27,0 48.5-12.5t34-37T331,555l-16-26l33,131h65L336,336H279l37,164l-4-61q-17-57-53-84.5T184,327ZM25,201l12,53H320l-12-53H25ZM208,382q32,0 54,21t33,54.5T306,526q0,37-18.5,61T238,611q-35,0-57.5-21T147,536t-11-69q0-37 18.5-61T208,382Z" />
      <glyph unicode="&#xab;" glyph-name="gid499" horiz-adv-x="490" d="M312,461L115,239l4,57L211,69H133L52,265L224,461h88Zm177,0L292,239l4,57L388,69H310L229,265L401,461h88Z" />
      <glyph unicode="&#xac;" glyph-name="gid552" horiz-adv-x="604" d="M561,319L518,131H438l43,188h80Zm8,35l-17-75H66l17,75H569Z" />
      <glyph unicode="&#xad;" glyph-name="gid489" horiz-adv-x="510" d="M432,303l-19-83H83l19,83H432Z" />
      <glyph unicode="&#xae;" glyph-name="gid563" horiz-adv-x="809" d="M423,670q104,0 181-42T723,509.5T765,330T723,150.5T604,32T423-10T242,32T123,150.5T81,330t42,179.5T242,628t181,42ZM361,513V143H294V513h67ZM473,316L594,143H518L418,293l55,23ZM423,605q-82,0-143-34t-94.5-95.5T152,330t33.5-145.5T280,89T423,55q83,0 143.5,34t94,95.5T694,330T660.5,475.5t-94,95.5T423,605Zm23-92q42,0 73.5-14.5t49-40.5T586,395q0-55-39-86.5T446,277H335v51H445q36,0 55,16.5T519,395t-19,50.5T445,462H335v51H446Z" />
      <glyph unicode="&#xaf;" glyph-name="gid612" horiz-adv-x="500" d="M502,663l-15-67H173l15,67H502Z" />
      <glyph unicode="&#xb0;" glyph-name="gid565" horiz-adv-x="444" d="M281,340q-49,0-87.5,21.5T133,420t-22,85t22,85.5T193.5,649T281,670q50,0 88-21t60-58.5T451,505t-22-85t-60-58.5T281,340Zm0,65q44,0 72,28.5T381,505q0,44-28,72t-72,28q-43,0-71.5-28T181,505q0-43 28.5-71.5T281,405Z" />
      <glyph unicode="&#xb1;" glyph-name="gid550" horiz-adv-x="604" d="M430,640L318,154H243L355,640h75ZM587,434l-17-75H84l17,75H587ZM505,75L487,0H1L19,75H505Z" />
      <glyph unicode="&#xb2;" glyph-name="gid448" horiz-adv-x="368" d="M75,333l13,55q47,30 90.5,57.5t78,54.5T311,555t20,59q0,35-18,49t-46,14q-37,0-61-24t-32-65l-60,35q14,50 53.5,81T269,735q63,0 97.5-33T401,624q0-40-21-73.5t-54-62t-72-53T179,389v-1q11,1 28,1.5t26,0.5H376l-13-57H75Z" />
      <glyph unicode="&#xb3;" glyph-name="gid449" horiz-adv-x="346" d="M215,327q-61,0-101.5,30.5T62,441l71,16q5-32 25-52t58-20q35,0 54.5,20.5T290,453q0,26-18.5,39.5T218,506q-4,0-8,0t-9-1l13,56q5-1 11.5-1.5T239,559q35,0 55,17t20,46t-19,42t-46,13q-30,0-50.5-14.5T169,620l-62,29q17,41 55,63.5T253,735q57,0 94-27t37-75q0-42-25.5-71T290,530l-1-1q32-4 52-23.5T361,451q0-39-20.5-67T287,341.5T215,327Z" />
      <glyph unicode="&#xb4;" glyph-name="gid606" horiz-adv-x="600" d="M409,750h96L362,583H287L409,750Z" />
      <glyph unicode="&#xb5;" glyph-name="gid554" horiz-adv-x="606" d="M-17-210L147,500h80L158,201q-16-67 12.5-103T257,62q46,0 81,20t59,59t37,96l61,263h80L459,0H389l12,72q-25-40-67-60T244-8Q210-8 176.5,5T123,49L63-210H-17Z" />
      <glyph unicode="&#xb6;" glyph-name="gid560" horiz-adv-x="657" d="M213-100l67,291q-46,3-83,19t-63.5,43t-40,63T80,394q0,87 36,146t101.5,89.5T372,660H661L485-100H415L575,593H446L286-100H213Zm83,358l77,335H339q-52,0-94.5-21.5T177,508T152,402q0-61 38.5-102.5T296,258Z" />
      <glyph unicode="&#xb7;" glyph-name="gid469" horiz-adv-x="223" d="M131,290q-25,0-41.5,15.5T73,346q0,34 20,54t48,20q25,0 41.5-15.5T199,364q0-34-19.5-54T131,290Z" />
      <glyph unicode="&#xb8;" glyph-name="gid613" horiz-adv-x="500" d="M140,6l46,23q44-19 67.5-48T277-90q0-41-18.5-69t-48-42T147-215q-35,0-62.5,14T45-171l32,50q14-16 33-23.5t40-7.5q29,0 47,18.5T215-87q0,32-19,53T140,6Z" />
      <glyph unicode="&#xb9;" glyph-name="gid447" horiz-adv-x="253" d="M146,333l60,255q3,13 7,27.5t7.5,25T224,652q-21-17-55-31.5T106,601l4,65q20,4 46.5,14T208,703.5T248,729h60L216,333H146Z" />
      <glyph unicode="&#xba;" glyph-name="gid405" horiz-adv-x="355" d="M218,327q-63,0-102,38.5T77,467q0,54 21.5,99.5t61,72.5T252,666q63,0 102-38t39-101q0-51-21.5-97t-61-74.5T218,327ZM25,201l12,53H320l-12-53H25ZM222,382q34,0 56.5,21t34,54.5T324,526q0,37-19,61t-57,24q-34,0-56.5-21t-34-54T146,467q0-37 19-61t57-24Z" />
      <glyph unicode="&#xbb;" glyph-name="gid500" horiz-adv-x="491" d="M8,69L205,291l-4-57L109,461h78l81-196L96,69H8Zm177,0L382,291l-4-57L286,461h78l81-196L273,69H185Z" />
      <glyph unicode="&#xbc;" glyph-name="gid458" horiz-adv-x="794" d="M131,268l60,255q3,13 7,27.5t7.5,25T209,587q-21-17-55-31.5T91,536l4,65q20,4 46.5,14T193,638.5T233,664h60L201,268H131ZM51,0L669,660h87L137,0H51ZM590-4l23,99H437l11,52q9,11 15,18t12.5,15T494,202L657,393h84L682,145h77L749,95H672L649-4H590ZM512,145H623l45,184L536,170q-7-7-13-13.5T512,145Z" />
      <glyph unicode="&#xbd;" glyph-name="gid457" horiz-adv-x="885" d="M131,268l60,255q3,13 7,27.5t7.5,25T209,587q-21-17-55-31.5T91,536l4,65q20,4 46.5,14T193,638.5T233,664h60L201,268H131ZM51,0L669,660h87L137,0H51ZM514-4l13,55q47,30 90.5,57.5t78,54.5T750,218t20,59q0,35-18,49t-46,14q-37,0-61-24t-32-65l-60,35q14,50 53.5,81T708,398q63,0 97.5-33T840,287q0-40-21-73.5t-54-62t-72-53T618,52V51q11,1 28,1.5T672,53H815L802-4H514Z" />
      <glyph unicode="&#xbe;" glyph-name="gid459" horiz-adv-x="887" d="M200,262q-61,0-101.5,30.5T47,376l71,16q5-32 25-52t58-20q35,0 54.5,20.5T275,388q0,26-18.5,39.5T203,441q-4,0-8,0t-9-1l13,56q5-1 11.5-1.5T224,494q35,0 55,17t20,46t-19,42t-46,13q-30,0-50.5-14.5T154,555L92,584q17,41 55,63.5T238,670q57,0 94-27t37-75q0-42-25.5-71T275,465l-1-1q32-4 52-23.5T346,386q0-39-20.5-67T272,276.5T200,262ZM144,0L762,660h87L230,0H144ZM683-4l23,99H530l11,52q9,11 15,18t12.5,15T587,202L750,393h84L775,145h77L842,95H765L742-4H683ZM605,145H716l45,184L629,170q-7-7-13-13.5T605,145Z" />
      <glyph unicode="&#xbf;" glyph-name="gid468" horiz-adv-x="528" d="M334,292L299,146q-67,0-116-13T107,89.5T80,6q0-51 37-75t92-24q66,0 108.5,31.5T379,22l65-47q-18-42-52-74t-80.5-50.5T207-168q-59,0-106.5,20.5T25.5-89T-2,2q0,64 30.5,108t83,67.5T230,205l21,87h83Zm-4,218q25,0 41.5-15.5T388,454q0-34-19.5-54T320,380q-25,0-41.5,15.5T262,436q0,34 20,54t48,20Z" />
      <glyph unicode="&#xc0;" glyph-name="gid7" horiz-adv-x="643" d="M-35,0L367,660h99L562,0H483L455,189H168L55,0H-35ZM214,264H445L400,574L214,264ZM435,902l40-159H418L353,902h82Z" />
      <glyph unicode="&#xc1;" glyph-name="gid2" horiz-adv-x="643" d="M-35,0L367,660h99L562,0H483L455,189H168L55,0H-35ZM214,264H445L400,574L214,264ZM473,902h93L445,743H377l96,159Z" />
      <glyph unicode="&#xc2;" glyph-name="gid4" horiz-adv-x="643" d="M-35,0L367,660h99L562,0H483L455,189H168L55,0H-35ZM214,264H445L400,574L214,264ZM506,902l73-159H511L454,849L351,743H271L418,902h88Z" />
      <glyph unicode="&#xc3;" glyph-name="gid13" horiz-adv-x="643" d="M-35,0L367,660h99L562,0H483L455,189H168L55,0H-35ZM214,264H445L400,574L214,264ZM624,877q-11-65-45.5-99.5T500,743q-26,0-44,10.5t-31,24t-25,24T373,812q-18,0-32.5-19T318,742H255q11,65 45.5,99.5T379,876q26,0 44-10.5t31-24t25-24T506,807q18,0 32.5,19T561,877h63Z" />
      <glyph unicode="&#xc4;" glyph-name="gid6" horiz-adv-x="643" d="M-35,0L367,660h99L562,0H483L455,189H168L55,0H-35ZM214,264H445L400,574L214,264ZM530,742q-22,0-36,14t-14,35q0,30 18,47.5T542,856q22,0 36-14t14-35q0-30-18-47.5T530,742Zm-194,0q-22,0-36,14t-14,35q0,30 18,47.5T348,856q22,0 36-14t14-35q0-30-18-47.5T336,742Z" />
      <glyph unicode="&#xc5;" glyph-name="gid11" horiz-adv-x="643" d="M-35,0L367,660h99L562,0H483L455,189H168L55,0H-35ZM214,264H445L400,574L214,264ZM430,847q51,0 84-31.5T547,739q0-56-36.5-92.5T419,610q-51,0-84,31.5T302,718q0,56 36.5,92.5T430,847Zm-1-50q-30,0-51-20t-21-54q0-27 19-45t46-18q29,0 49.5,20T492,734q0,27-17,45t-46,18Z" />
      <glyph unicode="&#xc6;" glyph-name="gid14" horiz-adv-x="935" d="M-52,0L473,660H964l-18-75H600L550,372H814l-17-75H533L481,75H844L826,0H384l49,213H211L43,0H-52ZM271,288H451l69,297H506L271,288Z" />
      <glyph unicode="&#xc7;" glyph-name="gid20" horiz-adv-x="674" d="M363-10q-77,0-140.5,32T121,117T83,273q0,74 21.5,144.5T169,545t106.5,91T422,670q63,0 112-20t83-61t51-104l-84-28q-17,74-59.5,106T414,595q-60,0-106-27t-77-71.5T184,397T168,285q0-69 26.5-118t72-75.5T368,65q66,0 104,27.5T536,166l77-37Q572,66 513,28T363-10ZM300,6l46,23q44-19 67.5-48T437-90q0-41-18.5-69t-48-42T307-215q-35,0-62.5,14T205-171l32,50q14-16 33-23.5t40-7.5q29,0 47,18.5T375-87q0,32-19,53T300,6Z" />
      <glyph unicode="&#xc8;" glyph-name="gid43" horiz-adv-x="625" d="M47,0L200,660H653l-18-75H262L213,372H505l-17-75H196L145,75H534L516,0H47ZM435,902l40-159H418L353,902h82Z" />
      <glyph unicode="&#xc9;" glyph-name="gid35" horiz-adv-x="625" d="M47,0L200,660H653l-18-75H262L213,372H505l-17-75H196L145,75H534L516,0H47ZM485,902h93L457,743H389l96,159Z" />
      <glyph unicode="&#xca;" glyph-name="gid39" horiz-adv-x="625" d="M47,0L200,660H653l-18-75H262L213,372H505l-17-75H196L145,75H534L516,0H47ZM518,902l73-159H523L466,849L363,743H283L430,902h88Z" />
      <glyph unicode="&#xcb;" glyph-name="gid41" horiz-adv-x="625" d="M47,0L200,660H653l-18-75H262L213,372H505l-17-75H196L145,75H534L516,0H47ZM542,742q-22,0-36,14t-14,35q0,30 18,47.5T554,856q22,0 36-14t14-35q0-30-18-47.5T542,742Zm-194,0q-22,0-36,14t-14,35q0,30 18,47.5T360,856q22,0 36-14t14-35q0-30-18-47.5T348,742Z" />
      <glyph unicode="&#xcc;" glyph-name="gid73" horiz-adv-x="290" d="M280,660L127,0H47L200,660h80ZM248,902l40-159H231L166,902h82Z" />
      <glyph unicode="&#xcd;" glyph-name="gid66" horiz-adv-x="290" d="M280,660L127,0H47L200,660h80Zm38,242h93L290,743H222l96,159Z" />
      <glyph unicode="&#xce;" glyph-name="gid68" horiz-adv-x="290" d="M280,660L127,0H47L200,660h80Zm58,242l73-159H343L286,849L183,743H103L250,902h88Z" />
      <glyph unicode="&#xcf;" glyph-name="gid70" horiz-adv-x="290" d="M352,742q-22,0-36,14t-14,35q0,30 18,47.5T364,856q22,0 36-14t14-35q0-30-18-47.5T352,742Zm-174,0q-22,0-36,14t-14,35q0,30 18,47.5T190,856q22,0 36-14t14-35q0-30-18-47.5T178,742Zm102-82L127,0H47L200,660h80Z" />
      <glyph unicode="&#xd0;" glyph-name="gid27" horiz-adv-x="725" d="M27,296l17,75H419l-17-75H27ZM66,0L219,660H410q85,0 145-35t92.5-96T680,390q0-83-26.5-154T578,112T460.5,29.5T309,0H66Zm97,75H321q63,0 113.5,24.5t86,67t54.5,97T594,378q0,59-21,105.5t-64,74T400,585H282L163,75Z" />
      <glyph unicode="&#xd1;" glyph-name="gid104" horiz-adv-x="719" d="M47,0L200,660h96L460,220L503,88h1l21,106L633,660h76L556,0H461L294,442L253,572h-1L231,466L123,0H47ZM663,877q-11-65-45.5-99.5T539,743q-26,0-44,10.5t-31,24t-25,24T412,812q-18,0-32.5-19T357,742H294q11,65 45.5,99.5T418,876q26,0 44-10.5t31-24t25-24T545,807q18,0 32.5,19T600,877h63Z" />
      <glyph unicode="&#xd2;" glyph-name="gid113" horiz-adv-x="742" d="M359-10q-74,0-136.5,33.5T122.5,122T85,280q0,77 22,147t64.5,124.5t106,86.5T423,670q74,0 135.5-34T657,537.5T694,380q0-76-21.5-146t-64-125t-105-87T359-10Zm9,76q60,0 105,26t75.5,70.5t46,99.5T610,375q0,69-25,118t-69,75T413,594q-60,0-105.5-26T231,498t-46.5-99T169,285q0-69 25-118t69.5-75T368,66Zm84,836l40-159H435L370,902h82Z" />
      <glyph unicode="&#xd3;" glyph-name="gid106" horiz-adv-x="742" d="M359-10q-74,0-136.5,33.5T122.5,122T85,280q0,77 22,147t64.5,124.5t106,86.5T423,670q74,0 135.5-34T657,537.5T694,380q0-76-21.5-146t-64-125t-105-87T359-10Zm9,76q60,0 105,26t75.5,70.5t46,99.5T610,375q0,69-25,118t-69,75T413,594q-60,0-105.5-26T231,498t-46.5-99T169,285q0-69 25-118t69.5-75T368,66ZM502,902h93L474,743H406l96,159Z" />
      <glyph unicode="&#xd4;" glyph-name="gid108" horiz-adv-x="742" d="M359-10q-74,0-136.5,33.5T122.5,122T85,280q0,77 22,147t64.5,124.5t106,86.5T423,670q74,0 135.5-34T657,537.5T694,380q0-76-21.5-146t-64-125t-105-87T359-10Zm9,76q60,0 105,26t75.5,70.5t46,99.5T610,375q0,69-25,118t-69,75T413,594q-60,0-105.5-26T231,498t-46.5-99T169,285q0-69 25-118t69.5-75T368,66ZM535,902l73-159H540L483,849L380,743H300L447,902h88Z" />
      <glyph unicode="&#xd5;" glyph-name="gid123" horiz-adv-x="742" d="M359-10q-74,0-136.5,33.5T122.5,122T85,280q0,77 22,147t64.5,124.5t106,86.5T423,670q74,0 135.5-34T657,537.5T694,380q0-76-21.5-146t-64-125t-105-87T359-10Zm9,76q60,0 105,26t75.5,70.5t46,99.5T610,375q0,69-25,118t-69,75T413,594q-60,0-105.5-26T231,498t-46.5-99T169,285q0-69 25-118t69.5-75T368,66ZM653,877q-11-65-45.5-99.5T529,743q-26,0-44,10.5t-31,24t-25,24T402,812q-18,0-32.5-19T347,742H284q11,65 45.5,99.5T408,876q26,0 44-10.5t31-24t25-24T535,807q18,0 32.5,19T590,877h63Z" />
      <glyph unicode="&#xd6;" glyph-name="gid110" horiz-adv-x="742" d="M359-10q-74,0-136.5,33.5T122.5,122T85,280q0,77 22,147t64.5,124.5t106,86.5T423,670q74,0 135.5-34T657,537.5T694,380q0-76-21.5-146t-64-125t-105-87T359-10Zm9,76q60,0 105,26t75.5,70.5t46,99.5T610,375q0,69-25,118t-69,75T413,594q-60,0-105.5-26T231,498t-46.5-99T169,285q0-69 25-118t69.5-75T368,66ZM559,742q-22,0-36,14t-14,35q0,30 18,47.5T571,856q22,0 36-14t14-35q0-30-18-47.5T559,742Zm-194,0q-22,0-36,14t-14,35q0,30 18,47.5T377,856q22,0 36-14t14-35q0-30-18-47.5T365,742Z" />
      <glyph unicode="&#xd7;" glyph-name="gid545" horiz-adv-x="604" d="M88,97L43,156L515,538l45-59L88,97Zm336,0L121,492l58,46L482,143L424,97Z" />
      <glyph unicode="&#xd8;" glyph-name="gid121" horiz-adv-x="742" d="M216,94l-40,42L562,566l37-45L216,94ZM44-12L176,136l40-42L121-12H44ZM599,521l-37,45l97,108h78L599,521ZM359-10q-74,0-136.5,33.5T122.5,122T85,280q0,77 22,147t64.5,124.5t106,86.5T423,670q74,0 135.5-34T657,537.5T694,380q0-76-21.5-146t-64-125t-105-87T359-10Zm9,76q60,0 105,26t75.5,70.5t46,99.5T610,375q0,69-25,118t-69,75T413,594q-60,0-105.5-26T231,498t-46.5-99T169,285q0-69 25-118t69.5-75T368,66Z" />
      <glyph unicode="&#xd9;" glyph-name="gid165" horiz-adv-x="693" d="M325-10q-87,0-145.5,35t-80,101.5T99,286l88,374h80L177,267q-15-67 1-112t55.5-67.5T330,65q80,0 126,50t65,134l95,411h80L596,226Q571,120 503,55T325-10ZM445,882l40-159H428L363,882h82Z" />
      <glyph unicode="&#xda;" glyph-name="gid160" horiz-adv-x="693" d="M325-10q-87,0-145.5,35t-80,101.5T99,286l88,374h80L177,267q-15-67 1-112t55.5-67.5T330,65q80,0 126,50t65,134l95,411h80L596,226Q571,120 503,55T325-10ZM495,882h93L467,723H399l96,159Z" />
      <glyph unicode="&#xdb;" glyph-name="gid162" horiz-adv-x="693" d="M325-10q-87,0-145.5,35t-80,101.5T99,286l88,374h80L177,267q-15-67 1-112t55.5-67.5T330,65q80,0 126,50t65,134l95,411h80L596,226Q571,120 503,55T325-10ZM528,882l73-159H533L476,829L373,723H293L440,882h88Z" />
      <glyph unicode="&#xdc;" glyph-name="gid164" horiz-adv-x="693" d="M325-10q-87,0-145.5,35t-80,101.5T99,286l88,374h80L177,267q-15-67 1-112t55.5-67.5T330,65q80,0 126,50t65,134l95,411h80L596,226Q571,120 503,55T325-10ZM552,722q-22,0-36,14t-14,35q0,30 18,47.5T564,836q22,0 36-14t14-35q0-30-18-47.5T552,722Zm-194,0q-22,0-36,14t-14,35q0,30 18,47.5T370,836q22,0 36-14t14-35q0-30-18-47.5T358,722Z" />
      <glyph unicode="&#xdd;" glyph-name="gid183" horiz-adv-x="562" d="M183,0l60,258L110,660h86l72-229l27-98l75,104L546,660h96L322,251L263,0H183ZM424,882h93L396,723H328l96,159Z" />
      <glyph unicode="&#xde;" glyph-name="gid129" horiz-adv-x="614" d="M130,132l17,75H345q54,0 89,21.5T485.5,285T502,360q0,47-35,75T367,463H204l20,75H373q99,0 155-49.5T584,358q0-65-31.5-116.5T465,161T336,132H130ZM47,0L200,660h80L127,0H47Z" />
      <glyph unicode="&#xdf;" glyph-name="gid347" horiz-adv-x="595" d="M320-10q-39,0-72.5,9.5T193,23l25,71q17-13 44.5-22T323,63q45,0 75.5,22.5t45.5,58T459,218q0,58-37,95T314,350q-6,0-12,0t-12-1l17,71q9-1 18-1.5t17-0.5q53,0 88.5,18T484,486t18,74q0,33-15,55t-40.5,33.5T387,660q-61,0-101-37.5T225,492L111,0H31L152,525q26,109 89.5,159.5T394,735q59,0 100.5-20t64-56.5T581,572t-23.5-93.5t-62.5-70T408,382v-2q31-4 60-24t48-53.5T535,222q0-71-28-123.5T430.5,18T320-10Z" />
      <glyph unicode="&#xe0;" glyph-name="gid204" horiz-adv-x="616" d="M251-8Q193-8 149,20T80,97.5T55,212q0,62 19,116t53,95t81,64t102,23q44,0 79-15t58-42.5T479,387l26,113h80L469,0H399l17,93q-24-46-68.5-73.5T251-8Zm21,68q35,0 66.5,18t56,49.5t38.5,74T447,293q0,45-16.5,78.5t-46,51.5T315,441t-73-17.5T185,375t-37.5-72.5T134,213q0-49 16-83t46.5-52T272,60Zm69,690l45-167H325L261,750h80Z" />
      <glyph unicode="&#xe1;" glyph-name="gid199" horiz-adv-x="616" d="M251-8Q193-8 149,20T80,97.5T55,212q0,62 19,116t53,95t81,64t102,23q44,0 79-15t58-42.5T479,387l26,113h80L469,0H399l17,93q-24-46-68.5-73.5T251-8Zm21,68q35,0 66.5,18t56,49.5t38.5,74T447,293q0,45-16.5,78.5t-46,51.5T315,441t-73-17.5T185,375t-37.5-72.5T134,213q0-49 16-83t46.5-52T272,60ZM418,750h96L371,583H296L418,750Z" />
      <glyph unicode="&#xe2;" glyph-name="gid201" horiz-adv-x="616" d="M251-8Q193-8 149,20T80,97.5T55,212q0,62 19,116t53,95t81,64t102,23q44,0 79-15t58-42.5T479,387l26,113h80L469,0H399l17,93q-24-46-68.5-73.5T251-8Zm21,68q35,0 66.5,18t56,49.5t38.5,74T447,293q0,45-16.5,78.5t-46,51.5T315,441t-73-17.5T185,375t-37.5-72.5T134,213q0-49 16-83t46.5-52T272,60ZM185,576L337,743h90l76-167H434L374,690L263,576H185Z" />
      <glyph unicode="&#xe3;" glyph-name="gid210" horiz-adv-x="616" d="M251-8Q193-8 149,20T80,97.5T55,212q0,62 19,116t53,95t81,64t102,23q44,0 79-15t58-42.5T479,387l26,113h80L469,0H399l17,93q-24-46-68.5-73.5T251-8Zm21,68q35,0 66.5,18t56,49.5t38.5,74T447,293q0,45-16.5,78.5t-46,51.5T315,441t-73-17.5T185,375t-37.5-72.5T134,213q0-49 16-83t46.5-52T272,60ZM546,717q-11-65-45.5-99.5T422,583q-26,0-44,10.5t-31,24t-25,24T295,652q-18,0-32.5-19T240,582H177q11,65 45.5,99.5T301,716q26,0 44-10.5t31-24t25-24T428,647q18,0 32.5,19T483,717h63Z" />
      <glyph unicode="&#xe4;" glyph-name="gid203" horiz-adv-x="616" d="M251-8Q193-8 149,20T80,97.5T55,212q0,62 19,116t53,95t81,64t102,23q44,0 79-15t58-42.5T479,387l26,113h80L469,0H399l17,93q-24-46-68.5-73.5T251-8Zm21,68q35,0 66.5,18t56,49.5t38.5,74T447,293q0,45-16.5,78.5t-46,51.5T315,441t-73-17.5T185,375t-37.5-72.5T134,213q0-49 16-83t46.5-52T272,60ZM452,582q-22,0-36,14t-14,35q0,30 18,47.5T464,696q22,0 36-14t14-35q0-30-18-47.5T452,582Zm-194,0q-22,0-36,14t-14,35q0,30 18,47.5T270,696q22,0 36-14t14-35q0-30-18-47.5T258,582Z" />
      <glyph unicode="&#xe5;" glyph-name="gid208" horiz-adv-x="616" d="M251-8Q193-8 149,20T80,97.5T55,212q0,62 19,116t53,95t81,64t102,23q44,0 79-15t58-42.5T479,387l26,113h80L469,0H399l17,93q-24-46-68.5-73.5T251-8Zm21,68q35,0 66.5,18t56,49.5t38.5,74T447,293q0,45-16.5,78.5t-46,51.5T315,441t-73-17.5T185,375t-37.5-72.5T134,213q0-49 16-83t46.5-52T272,60ZM375,813q51,0 84-31.5T492,705q0-56-36.5-92.5T364,576q-51,0-84,31.5T247,684q0,56 36.5,92.5T375,813Zm-1-50q-30,0-51-20t-21-54q0-27 19-45t46-18q29,0 49.5,20T437,700q0,27-17,45t-46,18Z" />
      <glyph unicode="&#xe6;" glyph-name="gid211" horiz-adv-x="883" d="M206-10Q122-10 81.5,30.5T41,129q0,45 23.5,75T129,251.5T223,276l194,25l-3-62L251,217q-58-8-92.5-25.5T124,132q0-35 22-54.5T213,58q65,0 104,36t53,100l26,115q2,9 3,17.5t1,15.5q0,44-30,71t-81,27q-55,0-91.5-22T135,347L77,388q31,59 86.5,90T297,509q44,0 78.5-15.5t55.5-40T454,401l-13,4q20,32 51,55t71,36t86,13q55,0 95-25t61.5-68.5T827,317q0-20-3.5-41.5T813,231H443l9,70H748q1,5 1,10t0,9q0,36-14,63t-38,42t-56,15q-51,0-86-20.5t-56.5-54t-31-74.5T458,209q0-44 17.5-78T525,78.5T599,60q48,0 81,21t54,56l63-42q-22-32-53-55.5t-69-36T592-9Q535-9 491.5,13t-68,58T399,148l16,12q-4-43-31.5-82t-73-63.5T206-10Z" />
      <glyph unicode="&#xe7;" glyph-name="gid217" horiz-adv-x="538" d="M277-9Q208-9 158.5,21.5T83,103.5T57,217q0,86 33,151.5t92,103T319,509q57,0 99.5-20t69-55T523,355l-84-20q-4,44-34.5,74.5T315,440q-38,0-70.5-16T188,378.5t-37-70T138,218q0-44 17-80t49.5-57T285,60q39,0 73.5,20T407,139l78-28q-26-58-81.5-89T277-9ZM193,6l46,23q44-19 67.5-48T330-90q0-41-18.5-69t-48-42T200-215q-35,0-62.5,14T98-171l32,50q14-16 33-23.5t40-7.5q29,0 47,18.5T268-87q0,32-19,53T193,6Z" />
      <glyph unicode="&#xe8;" glyph-name="gid238" horiz-adv-x="572" d="M276-9Q207-9 157.5,21T82,102T56,216q0,78 31,145t90.5,107.5T322,509q61,0 104.5-25T493,415.5T516,317q0-20-3.5-41.5T502,231H95v70H467l-35-28q3,12 4.5,24t1.5,23q0,36-14.5,63T382,425t-65,15q-49,0-83.5-19.5t-56-52.5t-31-73.5T137,213q0-45 18.5-79.5t51.5-54T285,60q51,1 84,22t54,55l63-42q-22-32-53-55.5t-70.5-36T276-9Zm55,759l45-167H315L251,750h80Z" />
      <glyph unicode="&#xe9;" glyph-name="gid230" horiz-adv-x="572" d="M276-9Q207-9 157.5,21T82,102T56,216q0,78 31,145t90.5,107.5T322,509q61,0 104.5-25T493,415.5T516,317q0-20-3.5-41.5T502,231H95v70H467l-35-28q3,12 4.5,24t1.5,23q0,36-14.5,63T382,425t-65,15q-49,0-83.5-19.5t-56-52.5t-31-73.5T137,213q0-45 18.5-79.5t51.5-54T285,60q51,1 84,22t54,55l63-42q-22-32-53-55.5t-70.5-36T276-9ZM408,750h96L361,583H286L408,750Z" />
      <glyph unicode="&#xea;" glyph-name="gid234" horiz-adv-x="572" d="M276-9Q207-9 157.5,21T82,102T56,216q0,78 31,145t90.5,107.5T322,509q61,0 104.5-25T493,415.5T516,317q0-20-3.5-41.5T502,231H95v70H467l-35-28q3,12 4.5,24t1.5,23q0,36-14.5,63T382,425t-65,15q-49,0-83.5-19.5t-56-52.5t-31-73.5T137,213q0-45 18.5-79.5t51.5-54T285,60q51,1 84,22t54,55l63-42q-22-32-53-55.5t-70.5-36T276-9ZM175,576L327,743h90l76-167H424L364,690L253,576H175Z" />
      <glyph unicode="&#xeb;" glyph-name="gid236" horiz-adv-x="572" d="M276-9Q207-9 157.5,21T82,102T56,216q0,78 31,145t90.5,107.5T322,509q61,0 104.5-25T493,415.5T516,317q0-20-3.5-41.5T502,231H95v70H467l-35-28q3,12 4.5,24t1.5,23q0,36-14.5,63T382,425t-65,15q-49,0-83.5-19.5t-56-52.5t-31-73.5T137,213q0-45 18.5-79.5t51.5-54T285,60q51,1 84,22t54,55l63-42q-22-32-53-55.5t-70.5-36T276-9ZM442,582q-22,0-36,14t-14,35q0,30 18,47.5T454,696q22,0 36-14t14-35q0-30-18-47.5T442,582Zm-194,0q-22,0-36,14t-14,35q0,30 18,47.5T260,696q22,0 36-14t14-35q0-30-18-47.5T248,582Z" />
      <glyph unicode="&#xec;" glyph-name="gid269" horiz-adv-x="258" d="M227,500L111,0H31L147,500h80ZM198,750l45-167H182L118,750h80Z" />
      <glyph unicode="&#xed;" glyph-name="gid262" horiz-adv-x="258" d="M227,500L111,0H31L147,500h80Zm48,250h96L228,583H153L275,750Z" />
      <glyph unicode="&#xee;" glyph-name="gid264" horiz-adv-x="258" d="M227,500L111,0H31L147,500h80ZM42,576L194,743h90l76-167H291L231,690L120,576H42Z" />
      <glyph unicode="&#xef;" glyph-name="gid266" horiz-adv-x="258" d="M299,582q-22,0-36,14t-14,35q0,30 18,47.5T311,696q22,0 36-14t14-35q0-30-18-47.5T299,582Zm-174,0q-22,0-36,14T75,631q0,30 18,47.5T137,696q22,0 36-14t14-35q0-30-18-47.5T125,582Zm102-82L111,0H31L147,500h80Z" />
      <glyph unicode="&#xf0;" glyph-name="gid222" horiz-adv-x="598" d="M267-10q-68,0-116,30T77.5,101T52,214q0,77 32.5,139T173,451t126,36q52,0 91.5-18t62-50T476,344l-16-1q1,10 1,19.5t0,19.5q0,70-20,133T375.5,632T255,730h96q50-22 86-61.5T496,579t34-104.5T541,367q0-76-17-144.5T473,102T387.5,20T267-10Zm14,70q39,0 70.5,17.5T405,125t33.5,67T450,269q0,50-20,82.5t-53.5,49T301,417q-39,0-70.5-17T177,354.5T143.5,290T132,216q0-46 18.5-81T203,80t78-20ZM253,536l-13,57l189,42l35-47L253,536Zm211,52l-34,47l161,42l16-56L464,588Z" />
      <glyph unicode="&#xf1;" glyph-name="gid301" horiz-adv-x="600" d="M31,0L147,500h70L198,388l-10,5q20,59 73,88t114,29q58,0 98-25t56.5-71.5T531,301L461,0H381l70,302q15,65-12.5,101.5T352,440q-46,0-81.5-20.5t-60-59.5T172,263L111,0H31ZM576,717q-11-65-45.5-99.5T452,583q-26,0-44,10.5t-31,24t-25,24T325,652q-18,0-32.5-19T270,582H207q11,65 45.5,99.5T331,716q26,0 44-10.5t31-24t25-24T458,647q18,0 32.5,19T513,717h63Z" />
      <glyph unicode="&#xf2;" glyph-name="gid310" horiz-adv-x="595" d="M282-9Q210-9 159.5,21.5t-77,82T56,216q0,86 33,152t91,103.5T314,509q73,0 123-30.5t76-81T539,285q0-85-32.5-151.5T416,29T282-9Zm3,69q36,0 67.5,15.5t55.5,45T445,191t13,91q0,44-15.5,79.5t-48,57T311,440q-36,0-68-15.5T187.5,380t-37-70T137,219q0-43 16-79.5t49-58T285,60Zm49,690l45-167H318L254,750h80Z" />
      <glyph unicode="&#xf3;" glyph-name="gid303" horiz-adv-x="595" d="M282-9Q210-9 159.5,21.5t-77,82T56,216q0,86 33,152t91,103.5T314,509q73,0 123-30.5t76-81T539,285q0-85-32.5-151.5T416,29T282-9Zm3,69q36,0 67.5,15.5t55.5,45T445,191t13,91q0,44-15.5,79.5t-48,57T311,440q-36,0-68-15.5T187.5,380t-37-70T137,219q0-43 16-79.5t49-58T285,60ZM411,750h96L364,583H289L411,750Z" />
      <glyph unicode="&#xf4;" glyph-name="gid305" horiz-adv-x="595" d="M282-9Q210-9 159.5,21.5t-77,82T56,216q0,86 33,152t91,103.5T314,509q73,0 123-30.5t76-81T539,285q0-85-32.5-151.5T416,29T282-9Zm3,69q36,0 67.5,15.5t55.5,45T445,191t13,91q0,44-15.5,79.5t-48,57T311,440q-36,0-68-15.5T187.5,380t-37-70T137,219q0-43 16-79.5t49-58T285,60ZM178,576L330,743h90l76-167H427L367,690L256,576H178Z" />
      <glyph unicode="&#xf5;" glyph-name="gid320" horiz-adv-x="595" d="M282-9Q210-9 159.5,21.5t-77,82T56,216q0,86 33,152t91,103.5T314,509q73,0 123-30.5t76-81T539,285q0-85-32.5-151.5T416,29T282-9Zm3,69q36,0 67.5,15.5t55.5,45T445,191t13,91q0,44-15.5,79.5t-48,57T311,440q-36,0-68-15.5T187.5,380t-37-70T137,219q0-43 16-79.5t49-58T285,60ZM539,717q-11-65-45.5-99.5T415,583q-26,0-44,10.5t-31,24t-25,24T288,652q-18,0-32.5-19T233,582H170q11,65 45.5,99.5T294,716q26,0 44-10.5t31-24t25-24T421,647q18,0 32.5,19T476,717h63Z" />
      <glyph unicode="&#xf6;" glyph-name="gid307" horiz-adv-x="595" d="M282-9Q210-9 159.5,21.5t-77,82T56,216q0,86 33,152t91,103.5T314,509q73,0 123-30.5t76-81T539,285q0-85-32.5-151.5T416,29T282-9Zm3,69q36,0 67.5,15.5t55.5,45T445,191t13,91q0,44-15.5,79.5t-48,57T311,440q-36,0-68-15.5T187.5,380t-37-70T137,219q0-43 16-79.5t49-58T285,60ZM445,582q-22,0-36,14t-14,35q0,30 18,47.5T457,696q22,0 36-14t14-35q0-30-18-47.5T445,582Zm-194,0q-22,0-36,14t-14,35q0,30 18,47.5T263,696q22,0 36-14t14-35q0-30-18-47.5T251,582Z" />
      <glyph unicode="&#xf7;" glyph-name="gid546" horiz-adv-x="604" d="M569,354l-17-75H66l17,75H569ZM267,55q-25,0-41.5,15.5T209,111q0,34 20,54t48,20q25,0 41.5-15.5T335,129q0-34-19.5-54T267,55Zm90,391q-25,0-41.5,15.5T299,502q0,34 20,54t48,20q25,0 41.5-15.5T425,520q0-34-19.5-54T357,446Z" />
      <glyph unicode="&#xf8;" glyph-name="gid318" horiz-adv-x="595" d="M282-9Q210-9 159.5,21.5t-77,82T56,216q0,86 33,152t91,103.5T314,509q73,0 123-30.5t76-81T539,285q0-85-32.5-151.5T416,29T282-9Zm3,69q36,0 67.5,15.5t55.5,45T445,191t13,91q0,44-15.5,79.5t-48,57T311,440q-36,0-68-15.5T187.5,380t-37-70T137,219q0-43 16-79.5t49-58T285,60ZM12-26L507,527h72L84-26H12Z" />
      <glyph unicode="&#xf9;" glyph-name="gid363" horiz-adv-x="598" d="M228-8q-54,0-95.5,24.5t-60,71T69,199l70,301h80L150,201q-16-67 12.5-103T249,62q46,0 81,20t59,59t37,96l61,263h80L451,0H381l19,112l10-5q-20-58-70-86.5T228-8ZM354,740l45-167H338L274,740h80Z" />
      <glyph unicode="&#xfa;" glyph-name="gid358" horiz-adv-x="598" d="M228-8q-54,0-95.5,24.5t-60,71T69,199l70,301h80L150,201q-16-67 12.5-103T249,62q46,0 81,20t59,59t37,96l61,263h80L451,0H381l19,112l10-5q-20-58-70-86.5T228-8ZM431,740h96L384,573H309L431,740Z" />
      <glyph unicode="&#xfb;" glyph-name="gid360" horiz-adv-x="598" d="M228-8q-54,0-95.5,24.5t-60,71T69,199l70,301h80L150,201q-16-67 12.5-103T249,62q46,0 81,20t59,59t37,96l61,263h80L451,0H381l19,112l10-5q-20-58-70-86.5T228-8ZM198,566L350,733h90l76-167H447L387,680L276,566H198Z" />
      <glyph unicode="&#xfc;" glyph-name="gid362" horiz-adv-x="598" d="M228-8q-54,0-95.5,24.5t-60,71T69,199l70,301h80L150,201q-16-67 12.5-103T249,62q46,0 81,20t59,59t37,96l61,263h80L451,0H381l19,112l10-5q-20-58-70-86.5T228-8ZM465,572q-22,0-36,14t-14,35q0,30 18,47.5T477,686q22,0 36-14t14-35q0-30-18-47.5T465,572Zm-194,0q-22,0-36,14t-14,35q0,30 18,47.5T283,686q22,0 36-14t14-35q0-30-18-47.5T271,572Z" />
      <glyph unicode="&#xfd;" glyph-name="gid381" horiz-adv-x="504" d="M12-215q-38,0-65.5,9T-99-181l32,67q34-31 76-31q32,0 56.5,18T114-71L161,4L73,500h79l46-286L218,89l70,117L465,500h91L178-98q-26-41-53.5-67T69-203T12-215ZM390,740h96L343,573H268L390,740Z" />
      <glyph unicode="&#xfe;" glyph-name="gid326" horiz-adv-x="616" d="M-17-210L200,730h80L201,391l-16-26q17,67 69,105t124,38q50,0 91.5-26T536,407t25-117q0-64-19.5-119T487,75.5t-81.5-63T304-10q-49,0-87,19.5T157,65t-25,83l15,8L63-210H-17ZM305,59q36,0 68,17t56.5,48.5T468,198t14,92q0,48-17,81.5T418,422t-70,17q-39,0-71.5-17.5T220,373t-37.5-74T169,205q0-65 34.5-105.5T305,59Z" />
      <glyph unicode="&#xff;" glyph-name="gid383" horiz-adv-x="504" d="M12-215q-38,0-65.5,9T-99-181l32,67q34-31 76-31q32,0 56.5,18T114-71L161,4L73,500h79l46-286L218,89l70,117L465,500h91L178-98q-26-41-53.5-67T69-203T12-215ZM424,572q-22,0-36,14t-14,35q0,30 18,47.5T436,686q22,0 36-14t14-35q0-30-18-47.5T424,572Zm-194,0q-22,0-36,14t-14,35q0,30 18,47.5T242,686q22,0 36-14t14-35q0-30-18-47.5T230,572Z" />
      <glyph unicode="&#x2013;" glyph-name="gid490" horiz-adv-x="664" d="M593,299l-17-75H76l17,75H593Z" />
      <glyph unicode="&#x2014;" glyph-name="gid491" horiz-adv-x="1014" d="M943,299l-17-75H76l17,75H943Z" />
      <glyph unicode="&#x2018;" glyph-name="gid497" horiz-adv-x="241" d="M174,432q-29,0-48,21t-19,54q0,44 23,85t61.5,70.5T276,700l21-48q-39-3-65.5-19.5t-41.5-37T169,558l2-2q2,1 8.5,2.5T193,560q26,0 38.5-16T244,507q0-32-19.5-53.5T174,432Z" />
      <glyph unicode="&#x2019;" glyph-name="gid498" horiz-adv-x="241" d="M221,700q30,0 48-22.5T287,619q0-38-19.5-77.5T211,472t-89-41L97,479q39,6 65.5,20T205,533.5T228,578l-1,1q-5-4-10.5-5.5T200,572q-24,0-36.5,17.5T151,628q0,32 20.5,52T221,700Z" />
      <glyph unicode="&#x201a;" glyph-name="gid493" horiz-adv-x="241" d="M87,120q30,0 48-22.5T153,39q0-38-19.5-77.5T77-108t-89-41l-25,48Q2-95 28.5-81T71-46.5T94-2L93-1Q88-5 82.5-6.5T66-8Q42-8 29.5,9.5T17,48q0,32 20.5,52T87,120Z" />
      <glyph unicode="&#x201c;" glyph-name="gid495" horiz-adv-x="425" d="M174,432q-29,0-48,21t-19,54q0,44 23,85t61.5,70.5T276,700l21-48q-39-3-65.5-19.5t-41.5-37T169,558l2-2q2,1 8.5,2.5T193,560q26,0 38.5-16T244,507q0-32-19.5-53.5T174,432Zm184,0q-29,0-48,21t-19,54q0,44 23,85t61.5,70.5T460,700l21-48q-39-3-65.5-19.5t-41.5-37T353,558l2-2q2,1 8.5,2.5T377,560q26,0 38.5-16T428,507q0-32-19.5-53.5T358,432Z" />
      <glyph unicode="&#x201d;" glyph-name="gid496" horiz-adv-x="425" d="M221,700q30,0 48-22.5T287,619q0-38-19.5-77.5T211,472t-89-41L97,479q39,6 65.5,20T205,533.5T228,578l-1,1q-5-4-10.5-5.5T200,572q-24,0-36.5,17.5T151,628q0,32 20.5,52T221,700Zm184,0q30,0 48-22.5T471,619q0-38-19.5-77.5T395,472t-89-41l-25,48q39,6 65.5,20T389,533.5T412,578l-1,1q-5-4-10.5-5.5T384,572q-24,0-36.5,17.5T335,628q0,32 20.5,52T405,700Z" />
      <glyph unicode="&#x201e;" glyph-name="gid494" horiz-adv-x="425" d="M87,120q30,0 48-22.5T153,39q0-38-19.5-77.5T77-108t-89-41l-25,48Q2-95 28.5-81T71-46.5T94-2L93-1Q88-5 82.5-6.5T66-8Q42-8 29.5,9.5T17,48q0,32 20.5,52T87,120Zm184,0q30,0 48-22.5T337,39q0-38-19.5-77.5T261-108t-89-41l-25,48q39,6 65.5,20T255-46.5T278-2l-1,1q-5-4-10.5-5.5T250-8Q226-8 213.5,9.5T201,48q0,32 20.5,52T271,120Z" />
      <glyph unicode="&#x2022;" glyph-name="gid470" horiz-adv-x="422" d="M224,215q-52,0-84,33.5T108,328q0,58 37.5,94T238,458q53,0 84.5-33.5T354,345q0-58-37-94t-93-36Z" />
      <glyph unicode="&#x2039;" glyph-name="gid501" horiz-adv-x="313" d="M312,461L115,239l4,57L211,69H133L52,265L224,461h88Z" />
      <glyph unicode="&#x203a;" glyph-name="gid502" horiz-adv-x="314" d="M8,69L205,291l-4-57L109,461h78l81-196L96,69H8Z" />
    </font>
</defs>
</svg>
