<?xml version="1.0" standalone="no"?>
<!DOCTYPE svg PUBLIC "-//W3C//DTD SVG 1.1//EN" "http://www.w3.org/Graphics/SVG/1.1/DTD/svg11.dtd">
<svg xmlns="http://www.w3.org/2000/svg">
  <defs>
    <font id="WorkSans" horiz-adv-x="542">
      <font-face font-family="Work Sans Thin" units-per-em="1000" panose-1="0 0 0 0 0 0 0 0 0 0" ascent="930" descent="-243" alphabetic="0" />
      <glyph unicode=" " glyph-name="gid576" horiz-adv-x="281" />
      <glyph unicode="!" glyph-name="gid536" horiz-adv-x="182" d="M99,660V302V170H83V302V660H99ZM91,39q10,0 16-6t6-16T107,1T91-5T75,1T69,17t6,16t16,6Z" />
      <glyph unicode="&quot;" glyph-name="gid574" horiz-adv-x="241" d="M175,680V521H158V680h17Zm-92,0V521H66V680H83Z" />
      <glyph unicode="#" glyph-name="gid543" horiz-adv-x="632" d="M478,660L378,0H362L462,660h16Zm81-433V213H43v14H559ZM265,660L165,0H149L249,660h16ZM589,457V443H73v14H589Z" />
      <glyph unicode="$" glyph-name="gid586" horiz-adv-x="580" d="M303,0Q242,0 189.5,18.5T101.5,75T55,171l14,8q9-57 42.5-93T195,32.5T303,15q91,0 148.5,40T509,172q0,52-36.5,84.5T353,306L241,329q-59,12-96,33T91,414T74,487q0,46 27,85.5T177,636t116,24q83,0 140.5-36T513,511l-12-10q-19,75-75,110T290,646q-59,0-104-21t-70-57T91,487q0-38 15.5-66t50-47T248,343l112-23q87-18 126-53.5T525,172q0-52-29-90.5t-79-60T303,0ZM291-100V760h14V-100H291Z" />
      <glyph unicode="%" glyph-name="gid626" horiz-adv-x="755" d="M144,0L591,660h19L163,0H144Zm34,660q49,0 79.5-24.5T302,573t14-81q0-42-14-80t-44.5-61.5T178,327T98.5,350.5T53.5,412T39,492q0,43 14,81t45,62.5T178,660Zm0-14q-43,0-70-22T68,567T55,492t13-74.5T108,362t70-21t70,21t39.5,55.5T300,492t-13,75t-39.5,57T178,646ZM578,333q49,0 79.5-24T702,247t14-81T702,85.5T657.5,24T578,0T498,24T452.5,85.5T438,166t14.5,81T498,309t80,24Zm0-14q-43,0-70.5-21.5T467,241t-13-75t13-74.5t40.5-56T578,14t69.5,21.5t39.5,56T700,166t-13,75t-39.5,56.5T578,319Z" />
      <glyph unicode="&amp;" glyph-name="gid630" horiz-adv-x="572" d="M234-10q-53,0-96,17.5t-68,51T45,139q0,39 13,69t37,55t57,47.5T225,357l5,3q46,27 82.5,52t58,57T392,548t-32,75.5T274,652q-56,0-90-32.5T150,533q0-24 6-43.5T179,443t50-71t87-116q59-77 99-126.5t68-77T533.5,14T579,3l-1-13q-27,0-52,12T471.5,43t-69,78.5T307,245q-51,67-84.5,110.5t-53,73.5T142,482.5T134,533q0,41 17.5,70.5t49,46T274,666q41,0 71-14.5t46.5-41T408,548q0-50-22-84.5T326.5,403T242,349l-5-3q-51-30-91-58.5T83.5,224T61,139q0-42 22.5-72.5T145,20T231,4q67,0 115.5,26T426,101l2,3q35,50 51,118.5T495,366h15q0-71-15.5-144T440,94l-3-4q-32-45-82-72.5T234-10Z" />
      <glyph unicode="&apos;" glyph-name="gid575" horiz-adv-x="149" d="M83,680V521H66V680H83Z" />
      <glyph unicode="(" glyph-name="gid553" horiz-adv-x="253" d="M236,740l8-10q-61-50-100-116T86.5,466T68,285T86.5,104T144-43.5T244-160l-8-10Q142-90 97.5,20.5T53,285q0,155 44.5,265.5T236,740Z" />
      <glyph unicode=")" glyph-name="gid554" horiz-adv-x="253" d="M17-170L9-160Q70-109 109-43.5T166.5,104T185,285T166.5,466T109,614T9,730l8,10q94-79 138.5-189.5T200,285q0-154-44.5-264.5T17-170Z" />
      <glyph unicode="*" glyph-name="gid542" horiz-adv-x="510" d="M260,517l50-66l79-109l-13-9L297,441l-47,69l5,3l5,4Zm-10,0l5-4l5-3l-47-69L134,333l-13,9l79,109l50,66ZM51,588l127-41l79-28l-2-6l-2-5l-80,23L46,573l5,15ZM263,730V596l-2-83h-6h-6l-2,83V730h16ZM459,588l5-15L336,531l-79-23l-2,5l-2,6l78,28l128,41Z" />
      <glyph unicode="+" glyph-name="gid614" horiz-adv-x="604" d="M310,545V79H294V545h16ZM534,323V309H70v14H534Z" />
      <glyph unicode="," glyph-name="gid532" horiz-adv-x="168" d="M85,39q11,0 18.5-6t11-16T118-6q0-19-6.5-38.5T92-80T59-107L47-98q21,9 35.5,27.5t20.5,40T102,7h-2q-2-6-6-9T83-5Q77-5 72-2T64.5,6T62,17t3,11t8,8t12,3Z" />
      <glyph unicode="-" glyph-name="gid559" horiz-adv-x="417" d="M349,278V262H68v16H349Z" />
      <glyph unicode="." glyph-name="gid531" horiz-adv-x="168" d="M84,39q10,0 16-6t6-16T100,1T84-5T68,1T62,17t6,16t16,6Z" />
      <glyph unicode="/" glyph-name="gid544" horiz-adv-x="349" d="M313,730L52-70H35L296,730h17Z" />
      <glyph unicode="0" glyph-name="gid477" horiz-adv-x="590" d="M295-10Q182-10 121,78T60,330t61,252t174,88t174-88t61-252T469,78T295-10Zm0,14q71,0 119.5,37.5t74,110.5T514,330q0,106-25.5,178.5t-74,110T295,656q-70,0-119-37.5t-74.5-110T76,330q0-105 25.5-178T176,41.5T295,4Z" />
      <glyph unicode="1" glyph-name="gid478" horiz-adv-x="316" d="M208,0V568q0,16 0,31t0,31q-30-49-77.5-81.5T33,500l-5,13q27,10 53.5,24T132,569.5t43.5,41T208,660h16V0H208Z" />
      <glyph unicode="2" glyph-name="gid479" horiz-adv-x="534" d="M54,0V14q89,74 161,136T339.5,266.5T420,372t28,103q0,85-50.5,133T260,656q-88,0-141-54T62,458l-15,6q3,63 29.5,109T150,644.5T260,670q47,0 84.5-13t64-38.5T449,557t14-82q0-72-46-139.5t-131.5-144T81,15V14q5,0 9.5,0t9.5,0t9,0H492V0H54Z" />
      <glyph unicode="3" glyph-name="gid480" horiz-adv-x="512" d="M263-10q-89,0-149,41.5T38,141l14,9q9-44 37-77t71.5-51T261,4T362.5,24t70,59T458,178q0,50-23,83t-61.5,49T288,326q-22,0-36.5,0T229,325v15q11-1 26.5-1t29.5,0q71,0 113.5,42T441,495q0,75-47,118T267,656q-73,0-125.5-34.5T71,527l-15,8q15,42 45,72.5T173.5,654T267,670q58,0 100.5-21t66-60T457,495q0-30-8.5-57T424,389t-40-36.5T329,333v-1q32-2 58.5-14t46-32t30-48.5T474,174q0-55-27.5-96.5T371.5,13T263-10Z" />
      <glyph unicode="4" glyph-name="gid481" horiz-adv-x="550" d="M372,0V205H38v14L366,660h22V219H527V205H388V0H372ZM56,219H372V582q0,15 0,30.5t0,30.5h-1q-10-15-21.5-30T328,584L56,219Z" />
      <glyph unicode="5" glyph-name="gid482" horiz-adv-x="535" d="M275-10q-85,0-146.5,35.5T50,149l14,6Q77,76 133,40T275,4q58,0 101.5,24.5t68.5,68T470,196t-24,99t-67,67t-99,24q-54,0-91.5-12.5t-62-32T86,301H72l30,359H461V646H115L89,337l-2-19h1q23,32 68.5,57T280,400q61,0 107-26t72.5-72T486,196q0-45-15.5-83T427,47.5T360.5,5T275-10Z" />
      <glyph unicode="6" glyph-name="gid483" horiz-adv-x="545" d="M308,670q49,0 83-16t56.5-43T481,550l-15-7q-14,48-53,80.5T308,656q-65,0-110-29t-72-77.5t-39-109T75,317q0-30 3-62t7-61h2q2,66 31,110.5T193.5,372T292,395q65,0 110.5-25.5t69.5-71T496,192T470.5,85.5T398.5,15T288-10q-75,0-126,38.5T85.5,143T60,330q0,114 32.5,189.5t88.5,113T308,670ZM292,381q-58,0-101-28t-67-71.5T100,191q0-52 23.5-94.5t66-67.5T287,4q89,0 141,52.5T480,194q0,55-23,97t-65.5,66T292,381Z" />
      <glyph unicode="7" glyph-name="gid484" horiz-adv-x="494" d="M22,660H485V646q-80-86-136-185.5T260.5,247T217,0H200q11,127 42.5,242t89,218.5T476,655l-1-9H22v14Z" />
      <glyph unicode="8" glyph-name="gid485" horiz-adv-x="562" d="M281,670q60,0 104.5-20t69-56.5T479,508q0-63-38-104.5T336,348v-1q78-13 124.5-61.5T507,169q0-52-29-92.5T398.5,13T281-10q-66,0-117,23T84,76.5T55,169q0,69 47.5,117T226,347v1q-67,14-105,55.5T83,508q0,49 24.5,85.5t69,56.5T281,670Zm0-14q-82,0-132-40T99,508t50-110.5T281,355q83,0 132.5,42.5T463,508T413.5,616T281,656ZM281,4q62,0 109.5,21t74,58T491,169q0,50-26.5,88t-74,60T281,339T171.5,317t-74-60T71,169q0-49 26.5-86t74-58T281,4Z" />
      <glyph unicode="9" glyph-name="gid486" horiz-adv-x="566" d="M271,670q79,0 131-40t78-115.5T506,330q0-114-30.5-189.5t-83-113T272-10q-82,0-138.5,39T63,130l14,7q14-58 63-95.5T272,4q62,0 104.5,28.5t67.5,76T480,215t11,119q0,36-3.5,70.5T479,470h-2q0-68-31-113.5T367.5,288T268,265q-65,0-112.5,25t-73,71T57,468q0,62 26.5,107T158,645t113,25Zm1-14q-91,0-145-52T73,466q0-84 53.5-135.5T268,279q58,0 102,26.5t69.5,71T465,475q0,49-26,90t-69.5,66T272,656Z" />
      <glyph unicode=":" glyph-name="gid533" horiz-adv-x="192" d="M96,500q10,0 16-6t6-16t-6-16t-16-6t-16,6t-6,16t6,16t16,6ZM96,39q10,0 16-6t6-16T112,1T96-5T80,1T74,17t6,16t16,6Z" />
      <glyph unicode=";" glyph-name="gid534" horiz-adv-x="192" d="M95,39q11,0 18.5-6t11-16T128-6q0-19-6.5-38.5T102-80T69-107L57-98q21,9 35.5,27.5t20.5,40T112,7h-2q-2-6-6-9T93-5Q87-5 82-2T74.5,6T72,17t3,11t8,8t12,3Zm1,461q10,0 16-6t6-16t-6-16t-16-6t-16,6t-6,16t6,16t16,6Z" />
      <glyph unicode="&lt;" glyph-name="gid620" horiz-adv-x="604" d="M533,58L91,290v19L533,541V523L105,300L533,76V58Z" />
      <glyph unicode="=" glyph-name="gid618" horiz-adv-x="604" d="M517,422V408H87v14H517Zm0-204V204H87v14H517Z" />
      <glyph unicode="&gt;" glyph-name="gid619" horiz-adv-x="604" d="M71,541L513,309V290L71,58V76L499,299L71,523v18Z" />
      <glyph unicode="?" glyph-name="gid538" horiz-adv-x="473" d="M236,670q61,0 104.5-24T408,580t24-95q0-56-20.5-94t-64-64T234,281V150H218V290q75,23 118.5,47.5t61.5,59T416,485q0,49-22,87.5t-62,61T236,656q-88,0-134.5-42.5T44,495l-14,6q9,53 34,91t68,58t104,20ZM226,39q10,0 16-6t6-16T242,1T226-5T210,1t-6,16t6,16t16,6Z" />
      <glyph unicode="@" glyph-name="gid629" horiz-adv-x="898" d="M474-171q-93,0-168.5,27T176-66T93.5,58T65,224q0,104 33,183t90.5,133.5t131.5,82T476,650q95,0 164.5-31.5t115-84.5t68-119T846,280q0-56-13-106.5t-36.5-89T741,24T671,2q-47,0-68,34t-16,78q-23-43-65-72.5T417,12q-55,0-94.5,27T262,112T241,214q0,55 16.5,102.5T304,400t70,56t88,20q52,0 89.5-22.5T609,389t19-100l41,177h16L607,135q-3-11-4-21.5T602,94q0-44 23.5-61T674,16q42,0 77.5,36t57,96T830,278q0,67-21.5,130.5t-65,115t-110,82T476,636q-78,0-149-27T200.5,530T113,401T81,224q0-89 28-159.5t79.5-120t124-75.5T474-157q69,0 136.5,22T719-74l10-13q-29-25-70-44t-88.5-29.5T474-171ZM414,26q61,0 106,32.5T590,148t25,131q0,66-21,106t-56,57.5T461,460q-41,0-78-18t-65.5-50.5T273,314T257,214q0-57 21-99.5T334.5,49T414,26Z" />
      <glyph unicode="A" glyph-name="gid1" horiz-adv-x="586" d="M574,0H557L460,234H126L29,0H12L284,660h18L574,0ZM132,248H454L293,642L132,248Z" />
      <glyph unicode="B" glyph-name="gid16" horiz-adv-x="609" d="M99,0V660H331q100,0 151-42t51-125q0-64-32.5-104.5T401,334v-1q71-10 111-51.5T552,169q0-83-56-126T331,0H99Zm16,14H331q101,0 153,39.5T536,170q0,78-52,117T331,326H115V14Zm0,326H331q186,0 186,152q0,154-186,154H115V340Z" />
      <glyph unicode="C" glyph-name="gid17" horiz-adv-x="649" d="M610,165q-16-55-52.5-94.5t-89-60T349-10q-87,0-153,41.5T93,149T56,330T92.5,511T195,628.5T349,670q70,0 121-19.5t85-58T605,496l-15-7q-25,84-84.5,125.5T349,656q-83,0-145.5-40t-97-113T72,330t35-173T204.5,44T349,4q95,0 159,44t87,123l15-6Z" />
      <glyph unicode="D" glyph-name="gid24" horiz-adv-x="683" d="M302,660q161,0 243-81t82-239q0-167-82-253.5T302,0H99V660H302Zm0-646q152,0 230.5,83T611,340q0,151-78.5,228.5T302,646H115V14H302Z" />
      <glyph unicode="E" glyph-name="gid34" horiz-adv-x="583" d="M99,0V660H536V646H115V344H453V330H115V14H553V0H99Z" />
      <glyph unicode="F" glyph-name="gid50" horiz-adv-x="554" d="M535,646H115V344H453V330H115V0H99V660H535V646Z" />
      <glyph unicode="G" glyph-name="gid51" horiz-adv-x="676" d="M355-10q-92,0-159.5,41.5T92,149T56,330T92.5,511T195,628.5T349,670q104,0 167.5-43.5T605,496l-14-7q-25,84-84.5,125.5T349,656q-83,0-145.5-40t-97-113T72,330t34.5-173t98-113T355,4q71,0 117.5,24.5t73,62.5T583,170t11,74v53H353v14H610V0H594V166l1-2Q574,85 512,37.5T355-10Z" />
      <glyph unicode="H" glyph-name="gid59" horiz-adv-x="696" d="M597,660V0H581V660h16Zm-482,0V0H99V660h16ZM590,344V330H107v14H590Z" />
      <glyph unicode="I" glyph-name="gid64" horiz-adv-x="214" d="M115,660V0H99V660h16Z" />
      <glyph unicode="J" glyph-name="gid78" horiz-adv-x="498" d="M406,660V209q0-100-49-159.5T212-10q-66,0-109,26.5T41.5,90T32,200l16,8Q35,109 78.5,56.5T212,4q89,0 133.5,55.5T390,209V660h16Z" />
      <glyph unicode="K" glyph-name="gid80" horiz-adv-x="557" d="M534,660L270,391l-2-2L106,225v23L511,660h23Zm-419,0V0H99V660h16ZM270,404L544,0H523L259,390l11,14Z" />
      <glyph unicode="L" glyph-name="gid82" horiz-adv-x="543" d="M115,14H531V0H99V660h16V14Z" />
      <glyph unicode="M" glyph-name="gid92" horiz-adv-x="786" d="M687,660V0H671V580l1,57L403,0H383L114,637l1-57V0H99V660h21L381,48l12-29l12,28L666,660h21Z" />
      <glyph unicode="N" glyph-name="gid94" horiz-adv-x="694" d="M595,660V0H573L140,605l-26,39l1-57V0H99V660h22L554,55l26-39l-1,57V660h16Z" />
      <glyph unicode="O" glyph-name="gid105" horiz-adv-x="714" d="M357,670q93,0 160.5-41.5T621.5,511T658,330T621.5,149T517.5,31.5T357-10q-92,0-160,41.5T92.5,149T56,330T92.5,511T197,628.5T357,670Zm0-14q-87,0-151-40T107,503T72,330t35-173T206,44T357,4q88,0 151.5,40T607,157t35,173T607,503T508.5,616T357,656Z" />
      <glyph unicode="P" glyph-name="gid128" horiz-adv-x="561" d="M303,660q71,0 121-22t77-63.5T528,475t-27-99t-77-63T303,291H115V0H99V660H303Zm0-355q98,0 153.5,45T512,475T456.5,600.5T303,646H115V305H303Z" />
      <glyph unicode="Q" glyph-name="gid130" horiz-adv-x="714" d="M536-195q-51,0-91.5,23.5T380-105T356-4q0,2 0,3t0,2h14q0-1 0-2t0-3q0-55 21.5-95T451-160t85-21q29,0 57,8.5T640-144l8-13q-19-19-47-28.5T536-195ZM357,670q93,0 160.5-41.5T621.5,511T658,330T621.5,149T517.5,31.5T357-10q-92,0-160,41.5T92.5,149T56,330T92.5,511T197,628.5T357,670Zm0-14q-87,0-151-40T107,503T72,330t35-173T206,44T357,4q88,0 151.5,40T607,157t35,173T607,503T508.5,616T357,656Z" />
      <glyph unicode="R" glyph-name="gid131" horiz-adv-x="611" d="M338,660q97,0 153-48t56-132T491,348T338,300h-3H115V0H99V660H338Zm0-346q91,0 142,44t51,122T480,602T338,646H115V314H338Zm31,0L576,0H558L356,304l13,10Z" />
      <glyph unicode="S" glyph-name="gid139" horiz-adv-x="594" d="M295,670q94,0 156-36.5T536,517l-13-10q-20,77-79,113T295,656q-66,0-114.5-22T105,575T78,492q0-58 39-93t135-55l115-24q98-20 139.5-56T548,167q0-53-30.5-93t-84-62T309-10Q240-10 183.5,9T90,67T42,166l15,8q9-58 44-96t89-56T309,4q62,0 112.5,18.5t80.5,55T532,167t-39.5,86T360,305L245,329q-66,14-106,35.5T80.5,417T62,492q0,47 28,87.5T170,645t125,25Z" />
      <glyph unicode="T" glyph-name="gid152" horiz-adv-x="544" d="M533,660V646H280V0H264V646H11v14H533Z" />
      <glyph unicode="U" glyph-name="gid159" horiz-adv-x="664" d="M581,660V235q0-118-66-181.5T332-10T149,53.5T83,235V660H99V235q0-110 62-170.5T332,4Q442,4 503.5,64.5T565,235V660h16Z" />
      <glyph unicode="V" glyph-name="gid175" horiz-adv-x="576" d="M559,660L299,0H277L17,660H34L261,87l27-69l27,69L542,660h17Z" />
      <glyph unicode="W" glyph-name="gid176" horiz-adv-x="909" d="M241,0L23,660H40L252,16L444,660h21L657,16L869,660h17L668,0H647L496,502L455,638h-1L414,502L262,0H241Z" />
      <glyph unicode="X" glyph-name="gid181" horiz-adv-x="526" d="M509,0H489L263,326L33,0H12L253,342L33,660H53L263,356L478,660h22L274,340L509,0Z" />
      <glyph unicode="Y" glyph-name="gid182" horiz-adv-x="512" d="M496,660L264,256V0H248V256L16,660H35L164,434l92-161l92,161L477,660h19Z" />
      <glyph unicode="Z" glyph-name="gid192" horiz-adv-x="552" d="M43,8l-3,6H528V0H29V14L494,652l3-6H36v14H508V646L43,8Z" />
      <glyph unicode="[" glyph-name="gid557" horiz-adv-x="268" d="M257,716H91V-154H257v-14H76V730H257V716Z" />
      <glyph unicode="\" glyph-name="gid545" horiz-adv-x="349" d="M36,730H53L314-70H297L36,730Z" />
      <glyph unicode="]" glyph-name="gid558" horiz-adv-x="268" d="M11-154H177V716H11v14H192V-168H11v14Z" />
      <glyph unicode="^" glyph-name="gid624" horiz-adv-x="533" d="M37,355L257,730h19L496,355H477L267,714L56,355H37Z" />
      <glyph unicode="_" glyph-name="gid563" horiz-adv-x="499" d="M499-97v-14H0v14H499Z" />
      <glyph unicode="`" glyph-name="gid676" horiz-adv-x="550" d="M242,730l85-147H312L224,730h18Z" />
      <glyph unicode="a" glyph-name="gid253" horiz-adv-x="517" d="M407,336q0,74-41,117T248,496q-63,0-109.5-27.5T69,378L56,388q23,62 72.5,92T248,510q56,0 95-20.5T402.5,430T423,336V78q0-72 59-72q22,0 34,8L515,0q-14-8-36-8q-15,0-32,7T418.5,25.5T407,84v46l7,6q-7-49-38.5-81.5T299.5,6T209-10q-50,0-86,14.5T68,46T49,112q0,56 37.5,88T193,245l217,42V273L204,233q-70-13-104.5-42.5T65,114q0-53 37.5-81.5T211,4q30,0 63.5,9t64,28.5t49.5,50T407,165V336Z" />
      <glyph unicode="b" glyph-name="gid268" horiz-adv-x="585" d="M308-10q-51,0-94,19.5t-72.5,57T100,157l1,2V0H85V730h16V343l-1,2q19,79 75.5,122T308,510q69,0 119.5-31T506,390t28-140q0-81-28-139.5T427.5,21T308-10ZM305,4q97,0 155,65t58,181T460,431T305,496q-58,0-104.5-30t-73-85T101,250q0-75 27-130.5T201,34T305,4Z" />
      <glyph unicode="c" glyph-name="gid269" horiz-adv-x="524" d="M281,510q50,0 90-16t67.5-46.5T478,373l-14-7q-16,62-64,96T281,496q-61,0-109.5-29.5T95,382T67,250q0-76 27.5-131.5t75-85T278,4q47,0 87.5,17t68,48T468,142l14-5q-8-45-37.5-78T372,8T278-10q-66,0-117,31T80.5,110.5T51,250T81,389.5T163,479t118,31Z" />
      <glyph unicode="d" glyph-name="gid276" horiz-adv-x="585" d="M280-10q-68,0-120,31T79.5,110.5T51,250q0,82 28.5,140T160,479t120,31q77,0 131.5-43T485,345l-1-2V730h16V0H484V159l1-2q-11-53-40-90.5t-71-57T280-10Zm3,14q58,0 103.5,30T458,119.5T484,250q0,76-26,131t-71,85T283,496q-97,0-156.5-65T67,250T126.5,69T283,4Z" />
      <glyph unicode="e" glyph-name="gid284" horiz-adv-x="534" d="M283-10q-66,0-118.5,31t-83,89.5T51,250q0,82 30,140t80.5,89T275,510q66,0 113-30t72.5-85.5T486,262q0-1 0-3t0-4H59v15H479l-7-6q-1,103-51.5,167.5T275,496q-58,0-105.5-29.5T94.5,382T67,250T95,118t77-84.5T283,4q61,0 111,30t75,82l13-7q-17-37-47-63.5t-69-41T283-10Z" />
      <glyph unicode="f" glyph-name="gid301" horiz-adv-x="320" d="M245,735q29,0 47-8.5T322,704l-7-12q-13,16-29.5,22.5T245,721q-55,0-86-36.5T128,583V500v-9V0H112V583q0,36 9,64t26.5,47.5t42,30T245,735Zm69-235V486H12v14H314Z" />
      <glyph unicode="g" glyph-name="gid302" horiz-adv-x="496" d="M491,592l5-14q-1,0-1.5,0t-1.5,0q-49,0-75-31.5T392,465l-13,5q0,37 13.5,64t38,42.5T488,592q2,0 2,0t1,0ZM326,37q77,0 121.5-30T492-73q0-42-28.5-74t-80-50T264-215q-107,0-168.5,37T34-81Q34-37 68.5-6T158,32l-1-2q-30,8-55.5,29T76,117q0,42 32.5,66T186,207l51-8H205q-44,0-78.5-19.5T92,119t33-61.5T203,37H326ZM266-201q59,0 106.5,16T448-140.5T476-75q0,44-41,71T325,23H197Q133,23 91.5-5.5T50-79q0-54 58-88t158-34Zm-8,711q59,0 103-19.5T429.5,436T454,353q0-47-24.5-82.5t-68.5-55T258,196q-89,0-143.5,43T60,353q0,48 24.5,83T154,490.5T258,510Zm0-14q-82,0-132-39T76,353q0-64 50-103.5T258,210t131,39.5T438,353q0,65-49,104T258,496Z" />
      <glyph unicode="h" glyph-name="gid310" horiz-adv-x="574" d="M85,0V730h16V368q17,62 73,102.5T309,511q58,0 99.5-21.5t64-61.5T495,330V1H479V328q0,80-46.5,124.5T306,497q-58,0-104.5-27T128,398.5T101,302V0H85Z" />
      <glyph unicode="i" glyph-name="gid315" horiz-adv-x="186" d="M93,598q-10,0-16,6t-6,16t6,16t16,6t16-6t6-16t-6-16t-16-6Zm8-98V0H85V500h16Z" />
      <glyph unicode="j" glyph-name="gid330" horiz-adv-x="186" d="M93,598q-10,0-16,6t-6,16t6,16t16,6t16-6t6-16t-6-16t-16-6Zm8-98V-64q0-46-16.5-80t-46-52.5T-31-215q-21,0-40,6t-31,16l5,14q12-11 30-16.5t36-5.5q53,0 84.5,37.5T85-64V500h16Z" />
      <glyph unicode="k" glyph-name="gid333" horiz-adv-x="482" d="M465,500L241,292l-4-3L93,155v22L441,500h24ZM101,730V0H85V730h16ZM240,302L470,0H450L228,291l12,11Z" />
      <glyph unicode="l" glyph-name="gid336" horiz-adv-x="237" d="M97,730V107q0-55 18-79T170,4q22,0 34,3t24,9V2q-10-5-24-8.5T170-10q-44,0-66.5,28T81,107V730H97Z" />
      <glyph unicode="m" glyph-name="gid345" horiz-adv-x="968" d="M85,0V500h16V367q17,62 73,102.5T309,510q78,0 126.5-39T493,361q10,43 39,77t73,54t98,20q58,0 99.5-21.5t64-61.5T889,331V2H873V329q0,80-46.5,124.5T700,498q-58,0-104.5-27T522,399.5T495,303V0H479V327q0,80-46.5,124.5T306,496q-58,0-104.5-27T128,397.5T101,301V0H85Z" />
      <glyph unicode="n" glyph-name="gid347" horiz-adv-x="574" d="M85,0V500h16V360l-1,3q11,42 40,75.5T212,491t97,19q58,0 99.5-21.5t64-61.5T495,329V0H479V327q0,80-46.5,124.5T306,496q-58,0-104.5-27T128,397.5T101,301V0H85Z" />
      <glyph unicode="o" glyph-name="gid357" horiz-adv-x="569" d="M285,510q69,0 121.5-31t82-89.5T518,250T488.5,110.5T406.5,21T285-10T163.5,21T81,110.5T51,250T81,389.5T163.5,479T285,510Zm0-14q-64,0-113-29.5T95,382T67,250q0-76 28-131.5t77-85T285,4T398,33.5t76.5,85T502,250q0,77-27.5,132T398,466.5T285,496Z" />
      <glyph unicode="p" glyph-name="gid380" horiz-adv-x="585" d="M85-210V500h16V341l-1,2q12,53 41.5,90.5t72.5,57T308,510q69,0 119.5-31T506,390t28-140q0-81-28-139.5T427.5,21T308-10q-76,0-132.5,43T100,155l1,2V-210H85ZM305,4q97,0 155,65t58,181T460,431T305,496q-58,0-104-30t-73-85T101,250q0-75 26.5-130.5t73-85.5T305,4Z" />
      <glyph unicode="q" glyph-name="gid382" horiz-adv-x="585" d="M484-210V157l1-2q-12-52-41-89T373,9.5T280-10q-68,0-120,31T79.5,110.5T51,250q0,82 28.5,140T160,479t120,31q52,0 94-19.5t71-57T485,343l-1-2V500h16V-210H484ZM283,4q59,0 104,30t71,85.5T484,250q0,76-26,131t-71.5,85T283,496q-97,0-156.5-65T67,250T126.5,69T283,4Z" />
      <glyph unicode="r" glyph-name="gid383" horiz-adv-x="343" d="M85,0V500h16V370q17,59 60,99.5T265,510q27,0 44-6.5T336,486l-9-12q-10,10-23,16t-41,6q-46,0-83-29.5T122,390t-21-99V0H85Z" />
      <glyph unicode="s" glyph-name="gid391" horiz-adv-x="479" d="M240-10q-78,0-133.5,30.5T37,111l15,7q13-56 64-85T243,4q80,0 126.5,32.5T416,124q0,38-24.5,64T301,228L187,253q-69,15-98.5,46.5T59,374q0,39 24,69.5T149,492t95,18q77,0 124-30t61-95l-14-8q-13,62-56.5,90.5T244,496q-49,0-87-15.5t-60-42T75,378q0-38 25.5-66.5T188,269l116-26q71-16 99.5-45T432,124q0-41-23.5-71.5T342,6T240-10Z" />
      <glyph unicode="t" glyph-name="gid404" horiz-adv-x="329" d="M127,635V126q0-60 25-91T231,4q26,0 48,9t40,28l8-13Q312,12 286.5,1T231-10q-40,0-67,15.5t-40,46T111,126V630l16,5ZM320,500V486H11v14H320Z" />
      <glyph unicode="u" glyph-name="gid412" horiz-adv-x="564" d="M254-10q-55,0-94.5,20.5T99.5,71T79,167V500H95V169q0-79 42.5-122T257,4q54,0 93,19t64,49t37,63t12,61V500h16V0H463V133Q446,72 390,31T254-10Z" />
      <glyph unicode="v" glyph-name="gid428" horiz-adv-x="481" d="M441,500h18L249,0H232L22,500H40L241,20L441,500Z" />
      <glyph unicode="w" glyph-name="gid429" horiz-adv-x="779" d="M733,500h17L584,0H568L390,477L211,0H195L29,500H46L203,23L381,500h17L576,23L733,500Z" />
      <glyph unicode="x" glyph-name="gid434" horiz-adv-x="472" d="M50,500L237,273l4-5L462,0H438L231,251l-4,5L26,500H50Zm383,0L244,259l-7-9L41,0H19L227,265l3,4L411,500h22Z" />
      <glyph unicode="y" glyph-name="gid435" horiz-adv-x="481" d="M459,500L210-101q-18-43-37.5-68T129-204.5T74-215q-26,0-46.5,8T-4-183l9,13q11-17 30-24t40-7q39,0 67,21.5T195-98L235-1L180,128L22,500H40L225,60l18-42l17,43L441,500h18Z" />
      <glyph unicode="z" glyph-name="gid445" horiz-adv-x="472" d="M39,0V14L370,437l40,49H342H31v14H429V486L117,83L60,14h82H445V0H39Z" />
      <glyph unicode="{" glyph-name="gid555" horiz-adv-x="259" d="M239-170q-36,0-62.5,13.5T136-118T122-58V185q0,44-30.5,69T8,279v13q53,0 83.5,25T122,386V628q0,35 14,60t40.5,38.5T239,740V726q-47,0-74-26t-27-72V386q0-38-20.5-64T60,286q37-10 57.5-36.5T138,185V-58q0-46 27-72t74-26v-14Z" />
      <glyph unicode="|" glyph-name="gid639" horiz-adv-x="167" d="M91,730V-168H76V730H91Z" />
      <glyph unicode="}" glyph-name="gid556" horiz-adv-x="259" d="M20,740q37,0 63-13.5T123,688t14-60V385q0-44 30.5-69T251,291V278q-53,0-83.5-25T137,184V-58q0-35-14-60T83-156.5T20-170v14q47,0 74,26t27,72V184q0,38 20.5,64T199,284q-37,11-57.5,37T121,385V628q0,46-27,72T20,726v14Z" />
      <glyph unicode="~" glyph-name="gid622" horiz-adv-x="479" d="M436,395q-7-47-30.5-70.5T341,301q-33,0-58,11t-47,26t-45,26t-53,11q-35,0-53.5-19.5T59,295H43q7,47 30.5,70.5T138,389q33,0 58-11t47-26t45-26t53-11q35,0 53.5,20T420,395h16Z" />
      <glyph unicode="&#xa0;" glyph-name="gid577" horiz-adv-x="281" />
      <glyph unicode="&#xa1;" glyph-name="gid537" horiz-adv-x="174" d="M79-160V198V330H95V198V-160H79Zm8,621q-10,0-16,6t-6,16t6,16t16,6t16-6t6-16t-6-16t-16-6Z" />
      <glyph unicode="&#xa2;" glyph-name="gid583" horiz-adv-x="537" d="M283-10q-72,0-123,31T82.5,110.5T56,250T83.5,389.5t79,89.5T286,510q50,0 90-16t67.5-46.5T483,373l-14-7q-16,62-64,96T286,496q-101,0-157.5-65.5T72,250q0-76 24.5-131.5t72-85T283,4q47,0 87.5,17t68,48T473,142l14-5q-8-45-37.5-78T377,8T283-10Zm-13-90V600h14V-100H270Z" />
      <glyph unicode="&#xa3;" glyph-name="gid601" horiz-adv-x="573" d="M94,303v14H447V303H94ZM134-4Q91-4 66,14T41,62q0,21 12,36.5t33,24t47,8.5q40,0 67.5-12t50-30T296,52.5T348,22t70-12q49,0 76.5,28.5T523,121h14q0-44-16-71.5T478,9T418-4Q375-4 344.5,8t-54,30t-46,36.5t-49,30.5T132,117q-32,0-53.5-15T57,62q0-24 20.5-38T134,10q43,0 70.5,17.5t41,48T259,144q0,39-14,79.5T201,316q-21,38-34,65.5T148.5,434T143,488q0,55 24,96t67.5,63.5T335,670q74,0 120-39.5T508,525l-15-6q-6,62-49.5,99.5T335,656q-81,0-128.5-45.5T159,488q0-26 5.5-49.5t18-50.5T216,322q29-53 43.5-95T274,147q0-33-9-61T238,38T194,7T134-4Z" />
      <glyph unicode="&#xa4;" glyph-name="gid585" horiz-adv-x="602" d="M301,516q53,0 92.5-22.5T455,430t22-97t-22-97.5T393.5,171T301,148q-54,0-93.5,23T146,235.5T124,333t22,97t61.5,63.5T301,516Zm0-14q-73,0-117-46T140,333q0-79 44-125t117-46q74,0 117,46t43,125q0,77-43,123T301,502ZM74,569L180,462l-12-11L62,557l12,12Zm96-358l12-12L74,91L62,103L170,211Zm261,0L540,102L529,91L421,199l10,12Zm98,358l11-11L433,450l-11,13L529,569Z" />
      <glyph unicode="&#xa5;" glyph-name="gid603" horiz-adv-x="568" d="M276,0V133H70v14H276V256H70v14H233h37L44,660H63L269,297l14-24h2l14,24L505,660h19L298,270h37H499V256H292V147H499V133H292V0H276Z" />
      <glyph unicode="&#xa6;" glyph-name="gid640" horiz-adv-x="167" d="M91,730V364H76V730H91Zm0-532V-168H76V198H91Z" />
      <glyph unicode="&#xa7;" glyph-name="gid632" horiz-adv-x="536" d="M345,139l-7,9q35,5 69.5,19t57,38.5T487,266q0,47-30.5,70T355,375l-95,21q-60,13-95,30t-50.5,42T99,531t20.5,69.5t61,50.5T280,670q66,0 112-20.5T455,585l-13-9q-14,43-57,61.5T280,656q-79,0-122-35.5T115,532q0-35 13.5-57.5t46-37.5T262,410l94-20q50-10 82.5-25.5t48.5-39T503,266q0-37-21.5-63.5T424,160t-79-21ZM272-110q-66,0-112,20.5T97-25l13,9q14-43 57-61.5T272-96q80,0 122.5,35.5T437,28t-34.5,80.5T297,149l-82,16q-63,13-99.5,29.5T64,235T49,294q0,37 21.5,63.5T128,400t79,21l7-9q-35-5-69.5-19t-57-38T65,294q0-46 33-71t121-43l83-17q76-16 113.5-45.5T453,29q0-37-20.5-69T372-91T272-110Z" />
      <glyph unicode="&#xa8;" glyph-name="gid675" horiz-adv-x="550" d="M183,642q10,0 16-6t6-16t-6-16t-16-6t-16,6t-6,16t6,16t16,6Zm184,0q10,0 16-6t6-16t-6-16t-16-6t-16,6t-6,16t6,16t16,6Z" />
      <glyph unicode="&#xa9;" glyph-name="gid633" horiz-adv-x="784" d="M393-10Q293-10 218,34.5T101.5,156T60,330t41.5,174T218,625.5T392,670q100,0 174.5-44.5T682.5,504T724,330T682.5,156T566.5,34.5T393-10ZM392,4q95,0 166,43T668.5,163.5T708,330T668,496.5T557,613T392,656T226.5,613t-111-116.5T76,330t39.5-166.5T226.5,47T392,4Zm12,139q-85,0-133.5,49T222,328t48.5,136T404,513q57,0 95-25t54-75l-14-7q-14,47-48.5,70T403,499q-77,0-121-45.5T238,328t44-125.5T403,157q53,0 91,28t49,74l15-6q-13-50-55.5-80T404,143Z" />
      <glyph unicode="&#xaa;" glyph-name="gid475" horiz-adv-x="376" d="M151,326q-44,0-72,22.5T51,410q0,38 25,60t80,32l134,23V511L163,489q-53-9-75-28.5T66,409q0-31 23-50t62-19q28,0 59.5,10.5t54,35.5T287,453V556q0,44-26,69.5T185,651q-46,0-75-17.5T67,579l-13,5q13,39 47,60t84,21q55,0 86.5-27T303,558V383q0-22 8.5-32.5T336,340t25,6V332q-5-3-11-4.5T335,326q-17,0-32.5,11.5T287,385v28l6,7q-8-34-31.5-55t-53-30T151,326ZM52,223v14H349V223H52Z" />
      <glyph unicode="&#xab;" glyph-name="gid570" horiz-adv-x="379" d="M211,461L66,265L211,69H190L46,265L190,461h21Zm118,0L184,265L329,69H308L164,265L308,461h21Z" />
      <glyph unicode="&#xac;" glyph-name="gid623" horiz-adv-x="604" d="M527,317V176H511V317h16Zm0,6V309H77v14H527Z" />
      <glyph unicode="&#xad;" glyph-name="gid560" horiz-adv-x="417" d="M349,278V262H68v16H349Z" />
      <glyph unicode="&#xae;" glyph-name="gid634" horiz-adv-x="784" d="M392-10q-99,0-174,44.5T101.5,156T60,330t41.5,174T218,625.5T392,670q100,0 174.5-44.5T682.5,504T724,330T682.5,156T566.5,34.5T392-10ZM537,143L426,316l14,6L555,143H537ZM392,4q95,0 166,43T668.5,163.5T708,330T668,496.5T557,613T392,656T226.5,613t-111-116.5T76,330t39.5-166.5T226.5,47T392,4ZM275,143V513H430q40,0 66-11.5T535.5,468T549,412q0-49-30-75t-89-26H291V143H275Zm16,181H430q52,0 78,22.5T534,412q0,44-26,65.5T430,499H291V324Z" />
      <glyph unicode="&#xaf;" glyph-name="gid683" horiz-adv-x="550" d="M419,619V605H131v14H419Z" />
      <glyph unicode="&#xb0;" glyph-name="gid636" horiz-adv-x="370" d="M185,400q-40,0-70.5,17t-47,47.5T51,535t16.5,70.5t47,47.5T185,670q41,0 71-17t46.5-47.5T319,535t-16.5-70.5T256,417t-71-17Zm0,14q54,0 86,34t32,87t-32,87t-86,34T99,622T67,535t32-87t86-34Z" />
      <glyph unicode="&#xb1;" glyph-name="gid621" horiz-adv-x="604" d="M310,622V106H295V622h15ZM527,374V360H77v14H527Zm0-360V0H77V14H527Z" />
      <glyph unicode="&#xb2;" glyph-name="gid519" horiz-adv-x="349" d="M47,333v15q29,24 57.5,48.5T161,445q30,26 56,53.5T259.5,556T276,617q0,47-28.5,75.5T169,721q-51,0-81-30T55,609l-15,3q5,53 38,88t91,35q38,0 65.5-14.5t42.5-41T292,616q0-32-18-65t-46-63t-58-55q-25-21-50-42.5T69,348v-1q7,0 13,0t13,0H308V333H47Z" />
      <glyph unicode="&#xb3;" glyph-name="gid520" horiz-adv-x="326" d="M152,735q55,0 85-30t30-75q0-24-8-43t-24.5-32.5T194,534v-2q26-3 44.5-16.5T267,482t10-44q0-34-16.5-59T216,340.5T152,327q-52,0-84,24.5T24,418l13,8q9-38 37-61.5T154,341q47,0 77,25t30,71q0,47-29.5,68.5T152,527q-3,0-7.5,0T134,526v14q7-1 11.5-1t8.5,0q41,0 69,24t28,67q0,42-25.5,66.5T153,721q-42,0-68.5-20T50,648l-14,7q11,36 42,58t74,22Z" />
      <glyph unicode="&#xb4;" glyph-name="gid677" horiz-adv-x="600" d="M334,730h18L264,583H249l85,147Z" />
      <glyph unicode="&#xb5;" glyph-name="gid625" horiz-adv-x="570" d="M85-210V500h16V169q0-79 45.5-122T263,4q60,0 106.5,27t73,71.5T469,199V500h16V0H469V133Q452,72 396,31T260-10q-55,0-97.5,27T101,94V-210H85Z" />
      <glyph unicode="&#xb6;" glyph-name="gid631" horiz-adv-x="516" d="M264-100V254q-70,0-123,25.5t-82,71T30,457T58.5,563.5t80,71T259,660H435V-100H419V646H280V-100H264Zm0,368V646q-65,0-114.5-23.5T73,556.5T46,457t27-99.5t76.5-66T264,268Z" />
      <glyph unicode="&#xb7;" glyph-name="gid540" horiz-adv-x="192" d="M96,382q10,0 16-6t6-16t-6-16t-16-6t-16,6t-6,16t6,16t16,6Z" />
      <glyph unicode="&#xb8;" glyph-name="gid684" horiz-adv-x="600" d="M278,3h21q51-25 71.5-53.5T391-114q0-40-24.5-64T303-202q-30,0-52.5,10T209-160l8,12q20-22 40.5-31.5T303-189q32,0 52.5,20T376-115q0,32-20.5,59T278,3Z" />
      <glyph unicode="&#xb9;" glyph-name="gid518" horiz-adv-x="214" d="M133,730h13V333H130V643q0,17 0.5,33t1.5,32q-19-26-50-44.5T21,633v13q18,6 40,18.5T103,694t30,36Z" />
      <glyph unicode="&#xba;" glyph-name="gid476" horiz-adv-x="364" d="M182,327q-72,0-105.5,40.5T43,496T76.5,624.5T182,665t105.5-40.5T321,496T287.5,367.5T182,327ZM49,223v14H315V223H49ZM182,341q64,0 93.5,37.5T305,496T275.5,613.5T182,651T88.5,613.5T59,496T88.5,378.5T182,341Z" />
      <glyph unicode="&#xbb;" glyph-name="gid571" horiz-adv-x="379" d="M168,69L313,265L168,461h21L333,265L189,69H168ZM50,69L195,265L50,461H71L215,265L71,69H50Z" />
      <glyph unicode="&#xbc;" glyph-name="gid529" horiz-adv-x="675" d="M133,665h13V268H130V578q0,17 0.5,33t1.5,32q-19-26-50-44.5T21,568v13q18,6 40,18.5T103,629t30,36ZM73,0L538,660h19L92,0H73ZM646,130V116H565V-4H549V116H351v14L543,393h22V130h81Zm-278,0H549V335q0,11 0,21.5t0,20.5h-1q-8-11-16-22.5T516,332L368,130Z" />
      <glyph unicode="&#xbd;" glyph-name="gid528" horiz-adv-x="765" d="M133,665h13V268H130V578q0,17 0.5,33t1.5,32q-19-26-50-44.5T21,568v13q18,6 40,18.5T103,629t30,36ZM73,0L538,660h19L92,0H73ZM463-4V11q29,24 57.5,48.5T577,108q30,26 56,53.5T675.5,219T692,280q0,47-28.5,75.5T585,384q-51,0-81-30t-33-82l-15,3q5,53 38,88t91,35q38,0 65.5-14.5t42.5-41T708,279q0-32-18-65t-46-63T586,96q-25-21-50-42.5T485,11V10q7,0 13,0t13,0H724V-4H463Z" />
      <glyph unicode="&#xbe;" glyph-name="gid530" horiz-adv-x="787" d="M152,670q55,0 85-30t30-75q0-24-8-43t-24.5-32.5T194,469v-2q26-3 44.5-16.5T267,417t10-44q0-34-16.5-59T216,275.5T152,262q-52,0-84,24.5T24,353l13,8q9-38 37-61.5T154,276q47,0 77,25t30,71q0,47-29.5,68.5T152,462q-3,0-7.5,0T134,461v14q7-1 11.5-1t8.5,0q41,0 69,24t28,67q0,42-25.5,66.5T153,656q-42,0-68.5-20T50,583l-14,7q11,36 42,58t74,22ZM185,0L650,660h19L204,0H185ZM758,130V116H677V-4H661V116H463v14L655,393h22V130h81Zm-278,0H661V335q0,11 0,21.5t0,20.5h-1q-8-11-16-22.5T628,332L480,130Z" />
      <glyph unicode="&#xbf;" glyph-name="gid539" horiz-adv-x="469" d="M235-175q-60,0-104,24T63-85T39,10q0,56 20.5,94t64,64T237,214V345h16V205q-75-23-118-47.5t-61.5-59T55,10q0-48 22-87t62.5-61.5T235-161q88,0 135,42.5T427,0l14-6q-8-53-33.5-91t-68-58T235-175Zm10,631q-10,0-16,6t-6,16t6,16t16,6t16-6t6-16t-6-16t-16-6Z" />
      <glyph unicode="&#xc0;" glyph-name="gid7" horiz-adv-x="586" d="M574,0H557L460,234H126L29,0H12L284,660h18L574,0ZM132,248H454L293,642L132,248Zm93,643l75-148H285L207,891h18Z" />
      <glyph unicode="&#xc1;" glyph-name="gid2" horiz-adv-x="586" d="M574,0H557L460,234H126L29,0H12L284,660h18L574,0ZM132,248H454L293,642L132,248ZM362,891h18L302,743H287l75,148Z" />
      <glyph unicode="&#xc2;" glyph-name="gid4" horiz-adv-x="586" d="M574,0H557L460,234H126L29,0H12L284,660h18L574,0ZM132,248H454L293,642L132,248ZM412,743H395L293,872L191,743H174L283,885h20L412,743Z" />
      <glyph unicode="&#xc3;" glyph-name="gid13" horiz-adv-x="586" d="M574,0H557L460,234H126L29,0H12L284,660h18L574,0ZM132,248H454L293,642L132,248ZM452,843q-5-28-16.5-47t-28-28T369,759q-26,0-44.5,10.5t-34,24t-31.5,24T222,828q-29,0-46-18t-25-52H136q8,43 31.5,63.5T223,842q24,0 42-10.5t33.5-24t32-24T369,773q30,0 45.5,18T437,843h15Z" />
      <glyph unicode="&#xc4;" glyph-name="gid6" horiz-adv-x="586" d="M574,0H557L460,234H126L29,0H12L284,660h18L574,0ZM132,248H454L293,642L132,248Zm68,554q10,0 16-6t6-16t-6-16t-16-6t-16,6t-6,16t6,16t16,6Zm184,0q10,0 16-6t6-16t-6-16t-16-6t-16,6t-6,16t6,16t16,6Z" />
      <glyph unicode="&#xc5;" glyph-name="gid11" horiz-adv-x="586" d="M574,0H557L460,234H126L29,0H12L284,660h18L574,0ZM132,248H454L293,642L132,248ZM291,806q35,0 58.5-23T373,726t-23.5-57T291,646t-58.5,23T209,726t23.5,57T291,806Zm0-14q-28,0-47-19t-19-47t19-47t47-19t47,19t19,47t-19,47t-47,19Z" />
      <glyph unicode="&#xc6;" glyph-name="gid14" horiz-adv-x="885" d="M454,14H855V0H438V254H174L15,0H-8L412,660H839V646H454V342H762V328H454V14ZM183,268H438V646H420L183,268Z" />
      <glyph unicode="&#xc7;" glyph-name="gid20" horiz-adv-x="649" d="M610,165q-16-55-52.5-94.5t-89-60T349-10q-87,0-153,41.5T93,149T56,330T92.5,511T195,628.5T349,670q70,0 121-19.5t85-58T605,496l-15-7q-25,84-84.5,125.5T349,656q-83,0-145.5-40t-97-113T72,330t35-173T204.5,44T349,4q95,0 159,44t87,123l15-6ZM303,3h21q51-25 71.5-53.5T416-114q0-40-24.5-64T328-202q-30,0-52.5,10T234-160l8,12q20-22 40.5-31.5T328-189q32,0 52.5,20T401-115q0,32-20.5,59T303,3Z" />
      <glyph unicode="&#xc8;" glyph-name="gid43" horiz-adv-x="583" d="M99,0V660H536V646H115V344H453V330H115V14H553V0H99ZM250,891l75-148H310L232,891h18Z" />
      <glyph unicode="&#xc9;" glyph-name="gid35" horiz-adv-x="583" d="M99,0V660H536V646H115V344H453V330H115V14H553V0H99ZM386,891h18L326,743H311l75,148Z" />
      <glyph unicode="&#xca;" glyph-name="gid39" horiz-adv-x="583" d="M99,0V660H536V646H115V344H453V330H115V14H553V0H99ZM437,743H420L318,872L216,743H199L308,885h20L437,743Z" />
      <glyph unicode="&#xcb;" glyph-name="gid41" horiz-adv-x="583" d="M99,0V660H536V646H115V344H453V330H115V14H553V0H99ZM225,802q10,0 16-6t6-16t-6-16t-16-6t-16,6t-6,16t6,16t16,6Zm184,0q10,0 16-6t6-16t-6-16t-16-6t-16,6t-6,16t6,16t16,6Z" />
      <glyph unicode="&#xcc;" glyph-name="gid73" horiz-adv-x="214" d="M115,660V0H99V660h16ZM39,891l75-148H99L21,891H39Z" />
      <glyph unicode="&#xcd;" glyph-name="gid66" horiz-adv-x="214" d="M115,660V0H99V660h16Zm61,231h18L116,743H101l75,148Z" />
      <glyph unicode="&#xce;" glyph-name="gid68" horiz-adv-x="214" d="M115,660V0H99V660h16Zm111,83H209L107,872L5,743H-12L97,885h20L226,743Z" />
      <glyph unicode="&#xcf;" glyph-name="gid70" horiz-adv-x="214" d="M48,802q10,0 16-6t6-16t-6-16t-16-6t-16,6t-6,16t6,16t16,6Zm118,0q10,0 16-6t6-16t-6-16t-16-6t-16,6t-6,16t6,16t16,6ZM115,660V0H99V660h16Z" />
      <glyph unicode="&#xd0;" glyph-name="gid27" horiz-adv-x="691" d="M5,327v14H330V327H5ZM310,660q161,0 243-81t82-239q0-167-82-253.5T310,0H107V660H310Zm0-646q152,0 230.5,83T619,340q0,151-78.5,228.5T310,646H123V14H310Z" />
      <glyph unicode="&#xd1;" glyph-name="gid104" horiz-adv-x="694" d="M595,660V0H573L140,605l-26,39l1-57V0H99V660h22L554,55l26-39l-1,57V660h16ZM512,843q-5-28-16.5-47t-28-28T429,759q-26,0-44.5,10.5t-34,24t-31.5,24T282,828q-29,0-46-18t-25-52H196q8,43 31.5,63.5T283,842q24,0 42-10.5t33.5-24t32-24T429,773q30,0 45.5,18T497,843h15Z" />
      <glyph unicode="&#xd2;" glyph-name="gid113" horiz-adv-x="714" d="M357,670q93,0 160.5-41.5T621.5,511T658,330T621.5,149T517.5,31.5T357-10q-92,0-160,41.5T92.5,149T56,330T92.5,511T197,628.5T357,670Zm0-14q-87,0-151-40T107,503T72,330t35-173T206,44T357,4q88,0 151.5,40T607,157t35,173T607,503T508.5,616T357,656ZM289,891l75-148H349L271,891h18Z" />
      <glyph unicode="&#xd3;" glyph-name="gid106" horiz-adv-x="714" d="M357,670q93,0 160.5-41.5T621.5,511T658,330T621.5,149T517.5,31.5T357-10q-92,0-160,41.5T92.5,149T56,330T92.5,511T197,628.5T357,670Zm0-14q-87,0-151-40T107,503T72,330t35-173T206,44T357,4q88,0 151.5,40T607,157t35,173T607,503T508.5,616T357,656Zm69,235h18L366,743H351l75,148Z" />
      <glyph unicode="&#xd4;" glyph-name="gid108" horiz-adv-x="714" d="M357,670q93,0 160.5-41.5T621.5,511T658,330T621.5,149T517.5,31.5T357-10q-92,0-160,41.5T92.5,149T56,330T92.5,511T197,628.5T357,670Zm0-14q-87,0-151-40T107,503T72,330t35-173T206,44T357,4q88,0 151.5,40T607,157t35,173T607,503T508.5,616T357,656Zm119,87H459L357,872L255,743H238L347,885h20L476,743Z" />
      <glyph unicode="&#xd5;" glyph-name="gid123" horiz-adv-x="714" d="M357,670q93,0 160.5-41.5T621.5,511T658,330T621.5,149T517.5,31.5T357-10q-92,0-160,41.5T92.5,149T56,330T92.5,511T197,628.5T357,670Zm0-14q-87,0-151-40T107,503T72,330t35-173T206,44T357,4q88,0 151.5,40T607,157t35,173T607,503T508.5,616T357,656ZM516,843q-5-28-16.5-47t-28-28T433,759q-26,0-44.5,10.5t-34,24t-31.5,24T286,828q-29,0-46-18t-25-52H200q8,43 31.5,63.5T287,842q24,0 42-10.5t33.5-24t32-24T433,773q30,0 45.5,18T501,843h15Z" />
      <glyph unicode="&#xd6;" glyph-name="gid110" horiz-adv-x="714" d="M357,670q93,0 160.5-41.5T621.5,511T658,330T621.5,149T517.5,31.5T357-10q-92,0-160,41.5T92.5,149T56,330T92.5,511T197,628.5T357,670Zm0-14q-87,0-151-40T107,503T72,330t35-173T206,44T357,4q88,0 151.5,40T607,157t35,173T607,503T508.5,616T357,656ZM264,802q10,0 16-6t6-16t-6-16t-16-6t-16,6t-6,16t6,16t16,6Zm184,0q10,0 16-6t6-16t-6-16t-16-6t-16,6t-6,16t6,16t16,6Z" />
      <glyph unicode="&#xd7;" glyph-name="gid616" horiz-adv-x="604" d="M467,134l13,13L137,490l-13-13L467,134Zm-330,0L480,477l-13,13L124,147l13-13Z" />
      <glyph unicode="&#xd8;" glyph-name="gid121" horiz-adv-x="714" d="M170,59L160,71L542,599l13-9L170,59ZM86-30L160,71l10-12L106-30H86ZM555,590l-13,9l66,91h20L555,590ZM357,670q93,0 160.5-41.5T621.5,511T658,330T621.5,149T517.5,31.5T357-10q-92,0-160,41.5T92.5,149T56,330T92.5,511T197,628.5T357,670Zm0-14q-87,0-151-40T107,503T72,330t35-173T206,44T357,4q88,0 151.5,40T607,157t35,173T607,503T508.5,616T357,656Z" />
      <glyph unicode="&#xd9;" glyph-name="gid165" horiz-adv-x="664" d="M581,660V235q0-118-66-181.5T332-10T149,53.5T83,235V660H99V235q0-110 62-170.5T332,4Q442,4 503.5,64.5T565,235V660h16ZM314,891l75-148H374L296,891h18Z" />
      <glyph unicode="&#xda;" glyph-name="gid160" horiz-adv-x="664" d="M581,660V235q0-118-66-181.5T332-10T149,53.5T83,235V660H99V235q0-110 62-170.5T332,4Q442,4 503.5,64.5T565,235V660h16ZM401,851h18L341,703H326l75,148Z" />
      <glyph unicode="&#xdb;" glyph-name="gid162" horiz-adv-x="664" d="M581,660V235q0-118-66-181.5T332-10T149,53.5T83,235V660H99V235q0-110 62-170.5T332,4Q442,4 503.5,64.5T565,235V660h16ZM451,703H434L332,832L230,703H213L322,845h20L451,703Z" />
      <glyph unicode="&#xdc;" glyph-name="gid164" horiz-adv-x="664" d="M581,660V235q0-118-66-181.5T332-10T149,53.5T83,235V660H99V235q0-110 62-170.5T332,4Q442,4 503.5,64.5T565,235V660h16ZM239,762q10,0 16-6t6-16t-6-16t-16-6t-16,6t-6,16t6,16t16,6Zm184,0q10,0 16-6t6-16t-6-16t-16-6t-16,6t-6,16t6,16t16,6Z" />
      <glyph unicode="&#xdd;" glyph-name="gid183" horiz-adv-x="512" d="M496,660L264,256V0H248V256L16,660H35L164,434l92-161l92,161L477,660h19ZM325,851h18L265,703H250l75,148Z" />
      <glyph unicode="&#xde;" glyph-name="gid129" horiz-adv-x="567" d="M294,525q117,0 175-46.5T527,340q0-91-58-138T294,155H108v14H303q208,0 208,171q0,85-52,128T303,511H108v14H294ZM115,660V0H99V660h16Z" />
      <glyph unicode="&#xdf;" glyph-name="gid402" horiz-adv-x="555" d="M326,378q57-3 97.5-27T485,285.5T506,185q0-58-21.5-102T424,14.5T330-10q-40,0-70,10T209,28l10,12q23-19 50-28t61-9q75,0 117.5,50T490,185q0,96-55.5,140.5T292,370H248v14h44q74,0 121.5,47T461,563q0,74-45,116T293,721q-94,0-143.5-54.5T100,505V0H85V516q0,72 23.5,120.5t70,73.5T293,735q57,0 98-20.5T454.5,655T477,561q0-54-20.5-94.5t-54.5-63T326,379v-1Z" />
      <glyph unicode="&#xe0;" glyph-name="gid259" horiz-adv-x="517" d="M407,336q0,74-41,117T248,496q-63,0-109.5-27.5T69,378L56,388q23,62 72.5,92T248,510q56,0 95-20.5T402.5,430T423,336V78q0-72 59-72q22,0 34,8L515,0q-14-8-36-8q-15,0-32,7T418.5,25.5T407,84v46l7,6q-7-49-38.5-81.5T299.5,6T209-10q-50,0-86,14.5T68,46T49,112q0,56 37.5,88T193,245l217,42V273L204,233q-70-13-104.5-42.5T65,114q0-53 37.5-81.5T211,4q30,0 63.5,9t64,28.5t49.5,50T407,165V336ZM168,730l85-147H238L150,730h18Z" />
      <glyph unicode="&#xe1;" glyph-name="gid254" horiz-adv-x="517" d="M407,336q0,74-41,117T248,496q-63,0-109.5-27.5T69,378L56,388q23,62 72.5,92T248,510q56,0 95-20.5T402.5,430T423,336V78q0-72 59-72q22,0 34,8L515,0q-14-8-36-8q-15,0-32,7T418.5,25.5T407,84v46l7,6q-7-49-38.5-81.5T299.5,6T209-10q-50,0-86,14.5T68,46T49,112q0,56 37.5,88T193,245l217,42V273L204,233q-70-13-104.5-42.5T65,114q0-53 37.5-81.5T211,4q30,0 63.5,9t64,28.5t49.5,50T407,165V336ZM320,730h18L250,583H235l85,147Z" />
      <glyph unicode="&#xe2;" glyph-name="gid256" horiz-adv-x="517" d="M407,336q0,74-41,117T248,496q-63,0-109.5-27.5T69,378L56,388q23,62 72.5,92T248,510q56,0 95-20.5T402.5,430T423,336V78q0-72 59-72q22,0 34,8L515,0q-14-8-36-8q-15,0-32,7T418.5,25.5T407,84v46l7,6q-7-49-38.5-81.5T299.5,6T209-10q-50,0-86,14.5T68,46T49,112q0,56 37.5,88T193,245l217,42V273L204,233q-70-13-104.5-42.5T65,114q0-53 37.5-81.5T211,4q30,0 63.5,9t64,28.5t49.5,50T407,165V336ZM359,583H342L242,712L142,583H125L233,725h18L359,583Z" />
      <glyph unicode="&#xe3;" glyph-name="gid265" horiz-adv-x="517" d="M407,336q0,74-41,117T248,496q-63,0-109.5-27.5T69,378L56,388q23,62 72.5,92T248,510q56,0 95-20.5T402.5,430T423,336V78q0-72 59-72q22,0 34,8L515,0q-14-8-36-8q-15,0-32,7T418.5,25.5T407,84v46l7,6q-7-49-38.5-81.5T299.5,6T209-10q-50,0-86,14.5T68,46T49,112q0,56 37.5,88T193,245l217,42V273L204,233q-70-13-104.5-42.5T65,114q0-53 37.5-81.5T211,4q30,0 63.5,9t64,28.5t49.5,50T407,165V336Zm-6,347q-5-28-16.5-47t-28-28T318,599q-26,0-44.5,10.5t-34,24t-31.5,24T171,668q-29,0-46-18t-25-52H85q8,43 31.5,63.5T172,682q24,0 42-10.5t33.5-24t32-24T318,613q30,0 45.5,18T386,683h15Z" />
      <glyph unicode="&#xe4;" glyph-name="gid258" horiz-adv-x="517" d="M407,336q0,74-41,117T248,496q-63,0-109.5-27.5T69,378L56,388q23,62 72.5,92T248,510q56,0 95-20.5T402.5,430T423,336V78q0-72 59-72q22,0 34,8L515,0q-14-8-36-8q-15,0-32,7T418.5,25.5T407,84v46l7,6q-7-49-38.5-81.5T299.5,6T209-10q-50,0-86,14.5T68,46T49,112q0,56 37.5,88T193,245l217,42V273L204,233q-70-13-104.5-42.5T65,114q0-53 37.5-81.5T211,4q30,0 63.5,9t64,28.5t49.5,50T407,165V336ZM149,642q10,0 16-6t6-16t-6-16t-16-6t-16,6t-6,16t6,16t16,6Zm184,0q10,0 16-6t6-16t-6-16t-16-6t-16,6t-6,16t6,16t16,6Z" />
      <glyph unicode="&#xe5;" glyph-name="gid263" horiz-adv-x="517" d="M407,336q0,74-41,117T248,496q-63,0-109.5-27.5T69,378L56,388q23,62 72.5,92T248,510q56,0 95-20.5T402.5,430T423,336V78q0-72 59-72q22,0 34,8L515,0q-14-8-36-8q-15,0-32,7T418.5,25.5T407,84v46l7,6q-7-49-38.5-81.5T299.5,6T209-10q-50,0-86,14.5T68,46T49,112q0,56 37.5,88T193,245l217,42V273L204,233q-70-13-104.5-42.5T65,114q0-53 37.5-81.5T211,4q30,0 63.5,9t64,28.5t49.5,50T407,165V336ZM240,735q35,0 58.5-23T322,655t-23.5-57T240,575t-58.5,23T158,655t23.5,57T240,735Zm0-14q-28,0-47-19t-19-47t19-47t47-19t47,19t19,47t-19,47t-47,19Z" />
      <glyph unicode="&#xe6;" glyph-name="gid266" horiz-adv-x="873" d="M209-10q-50,0-86,14.5T68,46T49,112q0,56 37.5,88T193,245l214,39v52q0,74-41,117T248,496q-63,0-109.5-27.5T69,378L56,388q16,42 43,69t65,40t84,13q80,0 127-44.5T422,332l-3,3q10,54 40,93t73,60.5T624,510q63,0 108-29t68.5-81.5T824,278q0-1 0-3t0-4H422V250q0-115 54-180.5T632,4q56,0 105.5,30T812,116l13-7q-17-37-47-63.5t-67.5-41T632-10q-85,0-142.5,47.5T418,167l2,1q-2-50-22-84.5t-51.5-55T279-1t-70-9Zm2,14q33,0 67.5,9.5T342,43t47,53t18,79v95L204,233q-70-13-104.5-42.5T65,114q0-53 37.5-81.5T211,4ZM424,286H810q-1,59-23,106.5T724.5,468T624,496q-81,0-136-55.5T424,286Z" />
      <glyph unicode="&#xe7;" glyph-name="gid272" horiz-adv-x="524" d="M281,510q50,0 90-16t67.5-46.5T478,373l-14-7q-16,62-64,96T281,496q-61,0-109.5-29.5T95,382T67,250q0-76 27.5-131.5t75-85T278,4q47,0 87.5,17t68,48T468,142l14-5q-8-45-37.5-78T372,8T278-10q-66,0-117,31T80.5,110.5T51,250T81,389.5T163,479t118,31ZM241,3h21q51-25 71.5-53.5T354-114q0-40-24.5-64T266-202q-30,0-52.5,10T172-160l8,12q20-22 40.5-31.5T266-189q32,0 52.5,20T339-115q0,32-20.5,59T241,3Z" />
      <glyph unicode="&#xe8;" glyph-name="gid293" horiz-adv-x="534" d="M283-10q-66,0-118.5,31t-83,89.5T51,250q0,82 30,140t80.5,89T275,510q66,0 113-30t72.5-85.5T486,262q0-1 0-3t0-4H59v15H479l-7-6q-1,103-51.5,167.5T275,496q-58,0-105.5-29.5T94.5,382T67,250T95,118t77-84.5T283,4q61,0 111,30t75,82l13-7q-17-37-47-63.5t-69-41T283-10ZM197,730l85-147H267L179,730h18Z" />
      <glyph unicode="&#xe9;" glyph-name="gid285" horiz-adv-x="534" d="M283-10q-66,0-118.5,31t-83,89.5T51,250q0,82 30,140t80.5,89T275,510q66,0 113-30t72.5-85.5T486,262q0-1 0-3t0-4H59v15H479l-7-6q-1,103-51.5,167.5T275,496q-58,0-105.5-29.5T94.5,382T67,250T95,118t77-84.5T283,4q61,0 111,30t75,82l13-7q-17-37-47-63.5t-69-41T283-10Zm66,740h18L279,583H264l85,147Z" />
      <glyph unicode="&#xea;" glyph-name="gid289" horiz-adv-x="534" d="M283-10q-66,0-118.5,31t-83,89.5T51,250q0,82 30,140t80.5,89T275,510q66,0 113-30t72.5-85.5T486,262q0-1 0-3t0-4H59v15H479l-7-6q-1,103-51.5,167.5T275,496q-58,0-105.5-29.5T94.5,382T67,250T95,118t77-84.5T283,4q61,0 111,30t75,82l13-7q-17-37-47-63.5t-69-41T283-10ZM388,583H371L271,712L171,583H154L262,725h18L388,583Z" />
      <glyph unicode="&#xeb;" glyph-name="gid291" horiz-adv-x="534" d="M283-10q-66,0-118.5,31t-83,89.5T51,250q0,82 30,140t80.5,89T275,510q66,0 113-30t72.5-85.5T486,262q0-1 0-3t0-4H59v15H479l-7-6q-1,103-51.5,167.5T275,496q-58,0-105.5-29.5T94.5,382T67,250T95,118t77-84.5T283,4q61,0 111,30t75,82l13-7q-17-37-47-63.5t-69-41T283-10ZM178,642q10,0 16-6t6-16t-6-16t-16-6t-16,6t-6,16t6,16t16,6Zm184,0q10,0 16-6t6-16t-6-16t-16-6t-16,6t-6,16t6,16t16,6Z" />
      <glyph unicode="&#xec;" glyph-name="gid324" horiz-adv-x="186" d="M101,500V0H85V500h16ZM19,730l85-147H89L1,730H19Z" />
      <glyph unicode="&#xed;" glyph-name="gid317" horiz-adv-x="186" d="M101,500V0H85V500h16Zm70,230h18L101,583H86l85,147Z" />
      <glyph unicode="&#xee;" glyph-name="gid319" horiz-adv-x="186" d="M101,500V0H85V500h16Zm109,83H193L93,712L-7,583H-24L84,725h18L210,583Z" />
      <glyph unicode="&#xef;" glyph-name="gid321" horiz-adv-x="186" d="M143,598q-10,0-16,6t-6,16t6,16t16,6t16-6t6-16t-6-16t-16-6ZM43,598q-10,0-16,6t-6,16t6,16t16,6t16-6t6-16t-6-16t-16-6Zm58-98V0H85V500h16Z" />
      <glyph unicode="&#xf0;" glyph-name="gid277" horiz-adv-x="577" d="M287-10q-73,0-126,30.5T79.5,107T51,237q0,76 28.5,131.5t80,86T279,485q95,0 153.5-49T502,304l-5-10q0,91-20.5,163t-56,125.5t-82,90.5T239,730h31q48-22 91.5-57t77-88t53-127.5T511,283q0-99-27.5-164T406,22T287-10Zm0,14q71,0 117,34t68.5,92T495,259q0,66-29,113.5t-77.5,73T279,471q-64,0-111.5-29t-74-81.5T67,237q0-106 58.5-169.5T287,4ZM228,574l-4,13l182,38l8-12L228,574Zm186,39l-8,12l120,26l4-13L414,613Z" />
      <glyph unicode="&#xf1;" glyph-name="gid356" horiz-adv-x="574" d="M85,0V500h16V360l-1,3q11,42 40,75.5T212,491t97,19q58,0 99.5-21.5t64-61.5T495,329V0H479V327q0,80-46.5,124.5T306,496q-58,0-104.5-27T128,397.5T101,301V0H85ZM452,683q-5-28-16.5-47t-28-28T369,599q-26,0-44.5,10.5t-34,24t-31.5,24T222,668q-29,0-46-18t-25-52H136q8,43 31.5,63.5T223,682q24,0 42-10.5t33.5-24t32-24T369,613q30,0 45.5,18T437,683h15Z" />
      <glyph unicode="&#xf2;" glyph-name="gid365" horiz-adv-x="569" d="M285,510q69,0 121.5-31t82-89.5T518,250T488.5,110.5T406.5,21T285-10T163.5,21T81,110.5T51,250T81,389.5T163.5,479T285,510Zm0-14q-64,0-113-29.5T95,382T67,250q0-76 28-131.5t77-85T285,4T398,33.5t76.5,85T502,250q0,77-27.5,132T398,466.5T285,496ZM211,726l85-147H281L193,726h18Z" />
      <glyph unicode="&#xf3;" glyph-name="gid358" horiz-adv-x="569" d="M285,510q69,0 121.5-31t82-89.5T518,250T488.5,110.5T406.5,21T285-10T163.5,21T81,110.5T51,250T81,389.5T163.5,479T285,510Zm0-14q-64,0-113-29.5T95,382T67,250q0-76 28-131.5t77-85T285,4T398,33.5t76.5,85T502,250q0,77-27.5,132T398,466.5T285,496Zm78,230h18L293,579H278l85,147Z" />
      <glyph unicode="&#xf4;" glyph-name="gid360" horiz-adv-x="569" d="M285,510q69,0 121.5-31t82-89.5T518,250T488.5,110.5T406.5,21T285-10T163.5,21T81,110.5T51,250T81,389.5T163.5,479T285,510Zm0-14q-64,0-113-29.5T95,382T67,250q0-76 28-131.5t77-85T285,4T398,33.5t76.5,85T502,250q0,77-27.5,132T398,466.5T285,496Zm117,83H385L285,708L185,579H168L276,721h18L402,579Z" />
      <glyph unicode="&#xf5;" glyph-name="gid375" horiz-adv-x="569" d="M285,510q69,0 121.5-31t82-89.5T518,250T488.5,110.5T406.5,21T285-10T163.5,21T81,110.5T51,250T81,389.5T163.5,479T285,510Zm0-14q-64,0-113-29.5T95,382T67,250q0-76 28-131.5t77-85T285,4T398,33.5t76.5,85T502,250q0,77-27.5,132T398,466.5T285,496ZM444,679q-5-28-16.5-47t-28-28T361,595q-26,0-44.5,10.5t-34,24t-31.5,24T214,664q-29,0-46-18t-25-52H128q8,43 31.5,63.5T215,678q24,0 42-10.5t33.5-24t32-24T361,609q30,0 45.5,18T429,679h15Z" />
      <glyph unicode="&#xf6;" glyph-name="gid362" horiz-adv-x="569" d="M285,510q69,0 121.5-31t82-89.5T518,250T488.5,110.5T406.5,21T285-10T163.5,21T81,110.5T51,250T81,389.5T163.5,479T285,510Zm0-14q-64,0-113-29.5T95,382T67,250q0-76 28-131.5t77-85T285,4T398,33.5t76.5,85T502,250q0,77-27.5,132T398,466.5T285,496ZM192,638q10,0 16-6t6-16t-6-16t-16-6t-16,6t-6,16t6,16t16,6Zm184,0q10,0 16-6t6-16t-6-16t-16-6t-16,6t-6,16t6,16t16,6Z" />
      <glyph unicode="&#xf7;" glyph-name="gid617" horiz-adv-x="604" d="M527,323V309H77v14H527ZM302,154q10,0 16-6t6-16t-6-16t-16-6t-16,6t-6,16t6,16t16,6Zm0,370q10,0 16-6t6-16t-6-16t-16-6t-16,6t-6,16t6,16t16,6Z" />
      <glyph unicode="&#xf8;" glyph-name="gid373" horiz-adv-x="569" d="M285,510q69,0 121.5-31t82-89.5T518,250T488.5,110.5T406.5,21T285-10T163.5,21T81,110.5T51,250T81,389.5T163.5,479T285,510Zm0-14q-64,0-113-29.5T95,382T67,250q0-76 28-131.5t77-85T285,4T398,33.5t76.5,85T502,250q0,77-27.5,132T398,466.5T285,496ZM52-30L498,530h19L71-30H52Z" />
      <glyph unicode="&#xf9;" glyph-name="gid418" horiz-adv-x="564" d="M254-10q-55,0-94.5,20.5T99.5,71T79,167V500H95V169q0-79 42.5-122T257,4q54,0 93,19t64,49t37,63t12,61V500h16V0H463V133Q446,72 390,31T254-10ZM206,710l85-147H276L188,710h18Z" />
      <glyph unicode="&#xfa;" glyph-name="gid413" horiz-adv-x="564" d="M254-10q-55,0-94.5,20.5T99.5,71T79,167V500H95V169q0-79 42.5-122T257,4q54,0 93,19t64,49t37,63t12,61V500h16V0H463V133Q446,72 390,31T254-10ZM358,710h18L288,563H273l85,147Z" />
      <glyph unicode="&#xfb;" glyph-name="gid415" horiz-adv-x="564" d="M254-10q-55,0-94.5,20.5T99.5,71T79,167V500H95V169q0-79 42.5-122T257,4q54,0 93,19t64,49t37,63t12,61V500h16V0H463V133Q446,72 390,31T254-10ZM397,563H380L280,692L180,563H163L271,705h18L397,563Z" />
      <glyph unicode="&#xfc;" glyph-name="gid417" horiz-adv-x="564" d="M254-10q-55,0-94.5,20.5T99.5,71T79,167V500H95V169q0-79 42.5-122T257,4q54,0 93,19t64,49t37,63t12,61V500h16V0H463V133Q446,72 390,31T254-10ZM187,622q10,0 16-6t6-16t-6-16t-16-6t-16,6t-6,16t6,16t16,6Zm184,0q10,0 16-6t6-16t-6-16t-16-6t-16,6t-6,16t6,16t16,6Z" />
      <glyph unicode="&#xfd;" glyph-name="gid436" horiz-adv-x="481" d="M459,500L210-101q-18-43-37.5-68T129-204.5T74-215q-26,0-46.5,8T-4-183l9,13q11-17 30-24t40-7q39,0 67,21.5T195-98L235-1L180,128L22,500H40L225,60l18-42l17,43L441,500h18ZM322,710h18L252,563H237l85,147Z" />
      <glyph unicode="&#xfe;" glyph-name="gid381" horiz-adv-x="585" d="M85-210V730h16V341l-1,2q17,80 74,123.5T308,510q69,0 119.5-31T506,390t28-140q0-81-28-139.5T427.5,21T308-10q-76,0-132.5,43T100,155l1,2V-210H85ZM305,4q97,0 155,65t58,181T460,431T305,496q-58,0-104-30t-73-85T101,250q0-75 26.5-130.5t73-85.5T305,4Z" />
      <glyph unicode="&#xff;" glyph-name="gid438" horiz-adv-x="481" d="M459,500L210-101q-18-43-37.5-68T129-204.5T74-215q-26,0-46.5,8T-4-183l9,13q11-17 30-24t40-7q39,0 67,21.5T195-98L235-1L180,128L22,500H40L225,60l18-42l17,43L441,500h18ZM151,622q10,0 16-6t6-16t-6-16t-16-6t-16,6t-6,16t6,16t16,6Zm184,0q10,0 16-6t6-16t-6-16t-16-6t-16,6t-6,16t6,16t16,6Z" />
      <glyph unicode="&#x2013;" glyph-name="gid561" horiz-adv-x="609" d="M541,278V262H68v16H541Z" />
      <glyph unicode="&#x2014;" glyph-name="gid562" horiz-adv-x="939" d="M871,278V262H68v16H871Z" />
      <glyph unicode="&#x2018;" glyph-name="gid568" horiz-adv-x="173" d="M87,544q-11,0-18.5,6t-11,16T54,589q0,19 6.5,38.5t20,36T113,690l12-9q-20-8-35-27T69,614t1-38h2q2,6 6,9t11,3q6,0 11-3t7.5-8t2.5-11t-3-11t-8-8t-12-3Z" />
      <glyph unicode="&#x2019;" glyph-name="gid569" horiz-adv-x="172" d="M91,688q11,0 18.5-6t11-16t3.5-23q0-19-6.5-38.5T98,569T65,542l-12,9q21,9 35.5,27.5t20.5,40T108,656h-2q-2-6-6-9t-11-3q-6,0-11,3t-7.5,8T68,666t3,11t8,8t12,3Z" />
      <glyph unicode="&#x201a;" glyph-name="gid564" horiz-adv-x="172" d="M91,39q11,0 18.5-6t11-16T124-6q0-19-6.5-38.5T98-80T65-107L53-98q21,9 35.5,27.5t20.5,40T108,7h-2q-2-6-6-9T89-5Q83-5 78-2T70.5,6T68,17t3,11t8,8t12,3Z" />
      <glyph unicode="&#x201c;" glyph-name="gid566" horiz-adv-x="271" d="M87,544q-11,0-18.5,6t-11,16T54,589q0,19 6.5,38.5t20,36T113,690l12-9q-20-8-35-27T69,614t1-38h2q2,6 6,9t11,3q6,0 11-3t7.5-8t2.5-11t-3-11t-8-8t-12-3Zm98,0q-11,0-18.5,6t-11,16T152,589q0,19 6.5,38.5t20,36T211,690l12-9q-20-8-35-27t-21-40t1-38h2q2,6 6,9t11,3q6,0 11-3t7.5-8t2.5-11t-3-11t-8-8t-12-3Z" />
      <glyph unicode="&#x201d;" glyph-name="gid567" horiz-adv-x="270" d="M91,688q11,0 18.5-6t11-16t3.5-23q0-19-6.5-38.5T98,569T65,542l-12,9q21,9 35.5,27.5t20.5,40T108,656h-2q-2-6-6-9t-11-3q-6,0-11,3t-7.5,8T68,666t3,11t8,8t12,3Zm98,0q11,0 18.5-6t11-16t3.5-23q0-19-6.5-38.5T196,569t-33-27l-12,9q21,9 35.5,27.5t20.5,40T206,656h-2q-2-6-6-9t-11-3q-6,0-11,3t-7.5,8T166,666t3,11t8,8t12,3Z" />
      <glyph unicode="&#x201e;" glyph-name="gid565" horiz-adv-x="270" d="M91,39q11,0 18.5-6t11-16T124-6q0-19-6.5-38.5T98-80T65-107L53-98q21,9 35.5,27.5t20.5,40T108,7h-2q-2-6-6-9T89-5Q83-5 78-2T70.5,6T68,17t3,11t8,8t12,3Zm98,0q11,0 18.5-6t11-16T222-6q0-19-6.5-38.5T196-80t-33-27l-12,9q21,9 35.5,27.5t20.5,40T206,7h-2q-2-6-6-9T187-5q-6,0-11,3t-7.5,8T166,17t3,11t8,8t12,3Z" />
      <glyph unicode="&#x2022;" glyph-name="gid541" horiz-adv-x="430" d="M215,279q-26,0-43,17t-17,43t17,43t43,17t43-17t17-43t-17-43t-43-17Z" />
      <glyph unicode="&#x2039;" glyph-name="gid572" horiz-adv-x="261" d="M211,461L66,265L211,69H190L46,265L190,461h21Z" />
      <glyph unicode="&#x203a;" glyph-name="gid573" horiz-adv-x="261" d="M50,69L195,265L50,461H71L215,265L71,69H50Z" />
    </font>
</defs>
</svg>
