<?xml version="1.0" standalone="no"?>
<!DOCTYPE svg PUBLIC "-//W3C//DTD SVG 1.1//EN" "http://www.w3.org/Graphics/SVG/1.1/DTD/svg11.dtd">
<svg xmlns="http://www.w3.org/2000/svg">
  <defs>
    <font id="WorkSans" horiz-adv-x="612">
      <font-face font-family="Work Sans Black" units-per-em="1000" panose-1="0 0 0 0 0 0 0 0 0 0" ascent="930" descent="-243" alphabetic="0" />
      <glyph unicode=" " glyph-name="gid505" horiz-adv-x="250" />
      <glyph unicode="!" glyph-name="gid465" horiz-adv-x="321" d="M57,220L97,496l38,164H375L337,496L249,220H57ZM121-7Q69-7 39,13T9,74q0,51 32,81.5T132,186q51,0 81-20.5T243,104q0-51-31.5-81T121-7Z" />
      <glyph unicode="&quot;" glyph-name="gid503" horiz-adv-x="486" d="M553,670L452,373H299l69,297H553Zm-221,0L231,373H78l69,297H332Z" />
      <glyph unicode="#" glyph-name="gid472" horiz-adv-x="721" d="M326,0L533,660H685L477,0H326ZM35,142V271H654V142H35ZM73,0L280,660H432L225,0H73Zm31,389V518H723V389H104Z" />
      <glyph unicode="$" glyph-name="gid515" horiz-adv-x="643" d="M333-3Q264-3 198,11.5T74.5,57T-25,137L96,272q26-36 66.5-62.5T250,168t92-15q23,0 37,4t20.5,12t6.5,19q0,14-12,23.5T344,233L240,265q-50,16-86.5,40.5T97.5,365T78,447q0,73 38.5,120t105,70T370,660q55,0 113.5-13.5t112-42.5T688,530L573,405q-33,34-65,56t-67.5,33.5T360,506q-39,0-59-10.5T281,470q0-8 4-15t13.5-12.5T324,432l143-42q65-19 102-62.5T606,224q0-77-36.5-127.5T471,21.5T333-3ZM185-80L375,740H505L315-80H185Z" />
      <glyph unicode="%" glyph-name="gid555" horiz-adv-x="1077" d="M147,0L786,661H966L327,0H147ZM272,286q-56,0-99.5,22t-68,63T80,467q0,60 28,105.5T184,644t108,26q56,0 99.5-22t68-62.5T484,489q0-59-28-105t-76-72T272,286Zm6,148q13,0 23,6.5T317,458t6,26q0,18-11,28t-26,10q-14,0-24-6t-15.5-17.5T241,472q0-18 11-28t26-10ZM822-9q-56,0-99.5,22t-68,63T630,172q0,60 28,105.5T734,349t108,26q56,0 99.5-22t68-62.5T1034,194q0-59-28-105T930,17T822-9Zm6,148q13,0 23,6t16,17.5t6,26.5q0,18-11,28t-26,10q-14,0-24-6t-15.5-17.5T791,177q0-18 11-28t26-10Z" />
      <glyph unicode="&amp;" glyph-name="gid559" horiz-adv-x="668" d="M228-11q-68,0-118.5,23.5T32,77.5T5,171q0,65 29.5,111.5t82,74T238,389l54,26q38,3 67,8.5T404.5,444T421,487q0,18-11,29t-29,11q-31,0-42-18.5T328,470q0-12 2.5-26t12-34.5t29.5-53T426,274q32-46 61-79.5T550,145t81-10L590-10H561q-55,0-96.5,18T383,65.5T295,171q-57,78-87,129.5T166.5,390T155,465q0,59 28.5,105.5t81,73T390,670q92,0 146-38.5T590,526q0-60-33-103.5t-90-69T337,321l-7-31q-34-5-62.5-16.5t-45.5-30T205,198q0-34 23-52t63-18q32,0 56,15t48,39l25,13q22,16 35.5,44.5T480,312H627q-21-73-54.5-128.5T494,98L472,85q-30-25-64-47T330.5,2.5T228-11Z" />
      <glyph unicode="&apos;" glyph-name="gid504" horiz-adv-x="265" d="M332,670L231,373H78l69,297H332Z" />
      <glyph unicode="(" glyph-name="gid482" horiz-adv-x="427" d="M224-193Q151-116 112-22.5T73,192q0,89 25.5,170T171,512.5t112.5,124T428,726l80-100q-80-57-133.5-127T295,343.5T269,151q0-76 19-134T342-93L224-193Z" />
      <glyph unicode=")" glyph-name="gid483" horiz-adv-x="427" d="M211,726q73-77 112-170t39-215q0-89-25.5-170T264,20.5t-112-124T7-193L-73-93Q8-35 61,34.5T140,190t26,192q0,77-19,134.5T93,626L211,726Z" />
      <glyph unicode="*" glyph-name="gid471" horiz-adv-x="599" d="M381,210L328,342l-2,12l-10-15L208,226L101,336L217,441l15,9l-13,3L88,509l79,141l123-68l14-11v20l26,139H489L447,575l-8-16l16,7l148,36l14-154L468,423l-19,1l11-14l63-126L381,210Z" />
      <glyph unicode="+" glyph-name="gid543" horiz-adv-x="604" d="M472,606L345,55H170L297,606H472ZM595,407L560,254H46L81,407H595Z" />
      <glyph unicode="," glyph-name="gid461" horiz-adv-x="302" d="M115,206q67,0 94-32.5T236,93q0-57-30-110t-83.5-92.5T-3-166L-52-89q37,10 69.5,25.5T74-30T111,4l-3,4q-7-3-13.5-4.5T77,2Q44,2 17,27.5T-10,92q0,53 34.5,83.5T115,206Z" />
      <glyph unicode="-" glyph-name="gid488" horiz-adv-x="540" d="M490,359L450,184H60l40,175H490Z" />
      <glyph unicode="." glyph-name="gid460" horiz-adv-x="302" d="M111-7Q57-7 25.5,15.5T-6,83q0,56 33.5,89.5T122,206q54,0 85.5-22.5T239,116q0-56-33-89.5T111-7Z" />
      <glyph unicode="/" glyph-name="gid473" horiz-adv-x="488" d="M592,700L151-70H-74L367,700H592Z" />
      <glyph unicode="0" glyph-name="gid406" horiz-adv-x="651" d="M314-11q-88,0-147.5,32t-89,91.5T48,253q0,24 2.5,50T58,356q12,62 34,119t58,101t90.5,69.5T373,671q89,0 148-32.5T610,547t30-141q0-24-2.5-49.5T630,304q-12-62-34-119T537.5,84t-91-69.5T314-11Zm-1,177q23,0 38,14.5T379,229t28,92q11,38 15.5,66.5T427,436q0,29-12.5,44T373,495q-22,0-37.5-14.5t-28-48T279,340q-10-37-15-66t-5-49q0-19 5.5-32.5t17.5-20t31-6.5Z" />
      <glyph unicode="1" glyph-name="gid407" horiz-adv-x="453" d="M116,0l72,310q7,29 14.5,60.5T220,436q-25-19-53.5-34.5t-56.5-26T56,361L90,553q31,6 71,23t80.5,39.5T311,660H492L339,0H116Z" />
      <glyph unicode="2" glyph-name="gid408" horiz-adv-x="588" d="M-11,0L22,140q57,29 117.5,67T252,286.5T336.5,369T369,445q0,20-12,35t-37,15q-34,0-52.5-28T245,383L47,440q13,73 49.5,124.5t98,78.5T344,670q91,0 147.5-30T574,565t26-90q0-51-18.5-92.5t-50-74t-72-58.5T375,203t-87-38v-2q24,3 63,4.5t82,1.5H554L515,0H-11Z" />
      <glyph unicode="3" glyph-name="gid409" horiz-adv-x="595" d="M295-10Q162-10 88,47.5T9,199l210,40q0-43 16.5-60.5T287,161q15,0 27.5,6.5t20,18.5t7.5,29q0,32-22,41t-51,9q-6,0-11-0.5T246,263l31,132q6-2 16.5-3t21.5-1q23,0 38,7.5t22,21t7,30.5q0,16-7,26t-18.5,15.5T330,497q-28,0-45-14t-23-48L68,496q29,87 98,130.5T341,670q85,0 143.5-22T573,586t30-95q0-46-18.5-82T533,351t-79-25l-1-4q27-4 52.5-19.5t41.5-43T563,191q0-65-36.5-110T429,13T295-10Z" />
      <glyph unicode="4" glyph-name="gid410" horiz-adv-x="673" d="M296,0l29,126H14L49,277q21,29 45,56.5T143,390L380,660H649L560,277H669L634,126H525L496,0H296ZM220,277H360l56,224L294,357q-17-21-35.5-40.5T220,277Z" />
      <glyph unicode="5" glyph-name="gid411" horiz-adv-x="570" d="M275-10Q208-10 152,9.5t-96,56T-3,152l204,77q3-21 11.5-37.5t25-26T280,156q25,0 41.5,9.5T347,191t9,36q0,17-9.5,29.5t-27,20T277,284q-22,0-38-5.5T207,265L44,299L159,660H614L574,489H290L251,377q21,23 52,35.5T377,425q56,0 97.5-23T539,339t23-92q0-81-38-138.5t-102.5-88T275-10Z" />
      <glyph unicode="6" glyph-name="gid412" horiz-adv-x="611" d="M336-12q-83,0-147.5,32.5T87.5,115T51,264q0,85 23,157.5t67.5,127t109.5,85T400,664q102,0 164.5-46.5T640,497L450,420q0,29-15.5,49T385,489q-27,0-47.5-13.5t-35-36t-23-49.5T268,336q22,29 61.5,44.5T412,396q80,0 131.5-45.5T595,225q0-70-33.5-123.5T470,18T336-12Zm-9,161q20,0 33.5,8.5t20.5,23t7,32.5q0,26-17.5,38T330,263q-18,0-32-8t-22-22t-8-31q0-12 4.5-22t12-16.5T303,153t24-4Z" />
      <glyph unicode="7" glyph-name="gid413" horiz-adv-x="638" d="M130,660H702L665,501q-94-75-151-155T425.5,179.5T375,0H149q19,107 64,203.5t123,184T531,553l35-68H89l41,175Z" />
      <glyph unicode="8" glyph-name="gid414" horiz-adv-x="645" d="M334-13Q274-13 217.5-1t-101,36.5T46,97T20,184q0,51 20,85t56.5,53.5T181,351v1q-26,14-44.5,33T109,428t-9,51q0,64 33.5,105.5t90,62.5T349,668q77,0 143-21t107-62.5T640,479q0-67-37.5-109T495,312v-1q31-14 52.5-33.5T581,233t12-54q0-64-34.5-107T465,8T334-13ZM314,148q20,0 33.5,8T368,177.5t7,29.5q0,17-9,29t-25,19t-38,7q-19,0-32.5-8t-20-21T244,204t8-28.5t24-20t38-7.5Zm56,248q19,0 31.5,8T421,425.5t7,28.5q0,24-17.5,39T364,508q-20,0-33.5-8t-20-20.5T304,452q0-16 8-28.5t22.5-20T370,396Z" />
      <glyph unicode="9" glyph-name="gid415" horiz-adv-x="606" d="M262-10q-63,0-116.5,20T58,68.5T17,163l205,49q1-17 8-29t20-18.5t30-6.5q22,0 37.5,11T344,199t18,43.5T374,294q-12-17-30-28.5T303.5,249T255,244q-57,0-102,23.5T82.5,334T57,433q0,72 36.5,125.5t98,82.5T328,670q81,0 140-28.5t91.5-88T592,402q0-80-20-154T511.5,116t-103-92T262-10Zm59,400q17,0 31.5,6.5t24,20.5t9.5,35q0,16-8.5,27t-22,17.5T326,503q-20,0-34.5-8.5T270,472t-7-31q0-14 7.5-26t21-18.5T321,390Z" />
      <glyph unicode=":" glyph-name="gid462" horiz-adv-x="296" d="M128-7Q74-7 42.5,15.5T11,83q0,56 33.5,89.5T139,206q54,0 85.5-22.5T256,116q0-56-33-89.5T128-7Zm90,390q-54,0-85.5,22.5T101,473q0,56 33.5,89.5T229,596q54,0 85.5-22.5T346,506q0-56-33-89.5T218,383Z" />
      <glyph unicode=";" glyph-name="gid463" horiz-adv-x="302" d="M192,510q54,0 85.5-22.5T309,420q0-56-33-89.5T181,297q-54,0-85.5,22.5T64,387q0,56 33.5,89.5T192,510ZM115,206q67,0 94-32.5T236,93q0-57-30-110t-83.5-92.5T-3-166L-52-89q37,10 69.5,25.5T74-30T111,4l-3,4q-7-3-13.5-4.5T77,2Q44,2 17,27.5T-10,92q0,53 34.5,83.5T115,206Z" />
      <glyph unicode="&lt;" glyph-name="gid549" horiz-adv-x="604" d="M638,599L586,379L256,292L541,183L497-10L46,203L88,386L638,599Z" />
      <glyph unicode="=" glyph-name="gid547" horiz-adv-x="604" d="M599,511L566,366H92l33,145H599ZM547,284L513,139H39L73,284H547Z" />
      <glyph unicode="&gt;" glyph-name="gid548" horiz-adv-x="605" d="M-13-10L39,210l330,87L84,406l44,193L579,386L537,203L-13-10Z" />
      <glyph unicode="?" glyph-name="gid467" horiz-adv-x="640" d="M192,218l34,157q49,1 90,7.5t66.5,24T408,456q0,18-12,28t-35,10q-27,0-43.5-18T291,420L75,490q14,48 50.5,89T227,645t163,25q80,0 138.5-21.5t91-62T652,490q0-62-26.5-106t-81-69.5T407,280l-21-62H192ZM262-6q-51,0-81,20T151,75q0,50 31.5,80T273,185q51,0 81-20t30-61q0-50-31.5-80T262-6Z" />
      <glyph unicode="@" glyph-name="gid558" horiz-adv-x="923" d="M454-179q-121,0-216.5,43.5T86.5-6.5T31,205q0,104 34,189t96.5,146.5t147,95T494,669q85,0 157-24.5T776,573t82.5-115.5T888,301q0-91-22.5-151T807,56T730,8T653-6q-51,0-87.5,16.5t-56,48T490,133q-22-55-63-87T336,14q-38,0-69,21T218,97.5T200,199q0,48 13.5,95t40,86.5t65.5,63T408,467q23,0 46.5-8.5t42-29T521,371l20,87H738L679,200q-3-14-5-26t-2-23q0-26 11.5-39T719,99q16,0 31,10.5T776.5,143t18,60t6.5,90q0,73-22.5,127.5t-64,91t-97.5,55T494,585q-82,0-149-26.5t-115.5-76T154.5,363T128,205q0-77 26.5-133.5T228-22T336-77T466-95q43,0 80,8t63,18l23-77q-21-9-48-16.5t-59-12T454-179ZM432,155q22,0 36,22t21,51.5t7,51.5q0,15-3.5,25t-11,15T462,325q-18,0-30.5-13.5t-21-33t-12-39.5T395,205q0-15 4-26.5T411,161t21-6Z" />
      <glyph unicode="A" glyph-name="gid1" horiz-adv-x="689" d="M-68,0L301,660H581L641,0H422l-3,132H235L170,0H-68ZM307,277H415l-3,220L307,277Z" />
      <glyph unicode="B" glyph-name="gid16" horiz-adv-x="708" d="M-8,0L145,660H499q98,0 155.5-41.5T712,503q0-53-23.5-90T627,354.5T543,326v-1q59-4 96.5-38T677,197q0-67-32.5-110.5T553,21.5T416,0H-8ZM250,152H367q35,0 55.5,12.5T443,205q0,14-6.5,23.5t-19,14.5T386,248H273l-23-96Zm59,252h92q24,0 40.5,6.5t25,18.5t8.5,28q0,21-14.5,32T420,500H331l-22-96Z" />
      <glyph unicode="C" glyph-name="gid17" horiz-adv-x="698" d="M352-10q-91,0-160.5,35.5t-109,100T43,276q0,91 25.5,163.5t73.5,124t117,79T415,670q82,0 145.5-28t103-80.5T712,435L492,392q2,50-16.5,76.5T413,495q-37,0-63.5-23T306,413.5T281.5,338T274,263q0-30 9.5-52T313,177t53-12q41,0 64.5,26T470,258l205-75Q631,92 551.5,41T352-10Z" />
      <glyph unicode="D" glyph-name="gid24" horiz-adv-x="709" d="M-8,0L145,660H406q100,0 166-33.5t99-94T704,390q0-89-24-161T608.5,106T493,27.5T336,0H-8ZM264,166h55q41,0 70.5,21T437,242t26.5,74.5T472,396q0,32-10,54t-30,33t-51,11H339L264,166Z" />
      <glyph unicode="E" glyph-name="gid34" horiz-adv-x="626" d="M-8,0L145,660H699L659,489H338l-19-82H573L537,249H283l-18-78H592L552,0H-8Z" />
      <glyph unicode="F" glyph-name="gid50" horiz-adv-x="609" d="M647,489H338l-21-92H568L528,226H277L225,0H-8L145,660H687L647,489Z" />
      <glyph unicode="G" glyph-name="gid51" horiz-adv-x="720" d="M308-10q-76,0-136,35T77,124.5T42,278q0,82 25,153t73,125t118,84t160,30q82,0 145-27.5T664.5,564T709,444L493,412q0,35-18.5,59T415,495q-29,0-54.5-14.5t-45-41T285,376t-11-82q0-41 11-72t36-48t67-17q26,0 45,7t32,19.5T485,211l8,17H367l32,140H705L611,0H463l38,171l19-20q-17-52-44.5-88T407,8.5T308-10Z" />
      <glyph unicode="H" glyph-name="gid59" horiz-adv-x="747" d="M792,660L639,0H406L559,660H792Zm-414,0L225,0H-8L145,660H378ZM632,417L592,246H161l40,171H632Z" />
      <glyph unicode="I" glyph-name="gid64" horiz-adv-x="333" d="M378,660L225,0H-8L145,660H378Z" />
      <glyph unicode="J" glyph-name="gid78" horiz-adv-x="649" d="M294-10q-88,0-148,26.5T53.5,88T17,190.5T38,310l234,9q-23-57-23-91t16.5-48.5T309,165q35,0 50.5,29T390,289l86,371H709L615,252q-18-79-55-138T459,22.5T294-10Z" />
      <glyph unicode="K" glyph-name="gid80" horiz-adv-x="717" d="M-8,0L145,660H378L326,437L557,660H808L522,382L663,0H427L343,236l-81-75L225,0H-8Z" />
      <glyph unicode="L" glyph-name="gid82" horiz-adv-x="615" d="M265,171H574L534,0H-8L145,660H378L265,171Z" />
      <glyph unicode="M" glyph-name="gid92" horiz-adv-x="948" d="M-8,0L145,660H430l21-260l5-169h1l80,170L669,660H993L840,0H637l53,229l48,208h-2L505,0H330L288,430h-2L248,229L195,0H-8Z" />
      <glyph unicode="N" glyph-name="gid94" horiz-adv-x="746" d="M-8,0L145,660H387l89-311l23-93h2l31,159l57,245H791L638,0H399L306,300l-25,94h-2L251,245L194,0H-8Z" />
      <glyph unicode="O" glyph-name="gid105" horiz-adv-x="725" d="M351-10q-88,0-158,34.5T83,124.5T43,281q0,86 25,157.5T140.5,562t116,80T411,670q89,0 158.5-34.5T679,536t40-157q0-86-25-157.5T621.5,98t-116-80T351-10Zm4,175q34,0 58.5,22.5t41,58.5T479,323.5t8,78.5q0,31-8.5,51.5t-26,31T407,495q-34,0-58.5-22.5t-41-58.5T283,336.5T275,258q0-30 8.5-51T310,175.5T355,165Z" />
      <glyph unicode="P" glyph-name="gid128" horiz-adv-x="700" d="M-8,0L145,660H430q131,0 204.5-54.5T708,450q0-76-36-134.5T568.5,224T406,191H158l37,165H386q30,0 50.5,10.5t31.5,28T479,433q0,29-17,45.5T402,495H339L225,0H-8Z" />
      <glyph unicode="Q" glyph-name="gid130" horiz-adv-x="725" d="M466-210q-41,0-82,9t-74.5,28.5t-54,51T235-44q0,11 1,25.5T243,17H384q-3-6-4-11.5T379-5q0-25 30.5-34T484-48q36,0 63,5.5T593-29V-182q-22-12-52.5-20T466-210ZM351-10q-88,0-158,34.5T83,124.5T43,281q0,86 25,157.5T140.5,562t116,80T411,670q89,0 158.5-34.5T679,536t40-157q0-86-25-157.5T621.5,98t-116-80T351-10Zm4,175q34,0 58.5,22.5t41,58.5T479,323.5t8,78.5q0,31-8.5,51.5t-26,31T407,495q-34,0-58.5-22.5t-41-58.5T283,336.5T275,258q0-30 8.5-51T310,175.5T355,165Z" />
      <glyph unicode="R" glyph-name="gid131" horiz-adv-x="704" d="M-8,0L145,660H473q110,0 174-51t64-143q0-82-38.5-136.5T566.5,248T411,221l-29-10H255l35,153h99q29,0 50,9t33,26t12,39q0,31-20.5,43.5T414,494H334L220,0H-8ZM423,0L318,289l205,34L654,0H423Z" />
      <glyph unicode="S" glyph-name="gid139" horiz-adv-x="640" d="M328-13Q261-13 197.5,2.5T79,50t-99,81L96,269q28-32 67-57t81-39.5T323,158q19,0 29.5,4.5T368,174t5,16q0,11-10.5,18.5T328,224l-93,33q-41,15-78,39.5T97,359T74,450q0,75 38,123.5T215,646t146,24q108,0 183-34.5T677,545L554,411q-25,25-56,44.5T433,486t-69,11q-16,0-26.5-3T322,485t-5-15q0-12 15-20.5T372,432l85-30q77-27 118.5-70.5T617,214q0-72-38-123T476,13.5T328-13Z" />
      <glyph unicode="T" glyph-name="gid152" horiz-adv-x="686" d="M761,660L721,489H515L402,0H169L282,489H75l40,171H761Z" />
      <glyph unicode="U" glyph-name="gid159" horiz-adv-x="711" d="M332-10Q225-10 153.5,27T53.5,133T47,297l85,363H366L277,270q-7-33 0-56.5t26.5-36T353,165q38,0 59,22t32,72l93,401H770L678,266Q644,123 563,56.5T332-10Z" />
      <glyph unicode="V" glyph-name="gid175" horiz-adv-x="687" d="M793,660L427,0H150L90,660H309l11-355l2-129l56,128L558,660H793Z" />
      <glyph unicode="W" glyph-name="gid176" horiz-adv-x="1021" d="M121,0L87,660H317L300,187L490,660H690l1-473L867,660h256L782,0H530l4,248l15,177h-3L476,248L374,0H121Z" />
      <glyph unicode="X" glyph-name="gid181" horiz-adv-x="708" d="M-62,0L246,341L100,660H353l58-157L527,660H788L493,332L654,0H400L341,158L218,0H-62Z" />
      <glyph unicode="Y" glyph-name="gid182" horiz-adv-x="713" d="M182,0l55,237L104,660H323l41-151l25-117l68,117l99,151H799L466,221L415,0H182Z" />
      <glyph unicode="Z" glyph-name="gid192" horiz-adv-x="644" d="M-26,0L13,169L414,494H77l39,166H706L667,491L267,166H609L570,0H-26Z" />
      <glyph unicode="[" glyph-name="gid486" horiz-adv-x="420" d="M468,550H348L217-17H337L302-168H-13L188,701H503L468,550Z" />
      <glyph unicode="\" glyph-name="gid474" horiz-adv-x="464" d="M104,700H305L390-70H189L104,700Z" />
      <glyph unicode="]" glyph-name="gid487" horiz-adv-x="420" d="M-41-17H79L210,550H90l35,151H440L239-168H-76L-41-17Z" />
      <glyph unicode="^" glyph-name="gid553" horiz-adv-x="647" d="M47,355L338,720H527L648,355H459L399,578L250,355H47Z" />
      <glyph unicode="_" glyph-name="gid492" horiz-adv-x="539" d="M471-45L430-220H-109L-68-45H471Z" />
      <glyph unicode="`" glyph-name="gid605" horiz-adv-x="500" d="M435,730l19-177H300L228,730H435Z" />
      <glyph unicode="a" glyph-name="gid198" horiz-adv-x="619" d="M174-10q-44,0-80.5,20.5T36,72.5T15,178q0,59 16,118T78,403.5T154,481t103,29q26,0 53-10t48-33.5T386,400l23,100H639L523,0H313l17,95q-25-49-65.5-77T174-10ZM284,152q18,0 32,14.5T339.5,204t14,47.5T358,295q0,17-4.5,28.5t-13,17.5T319,347q-21,0-35.5-15.5t-23.5-38t-13.5-46T242,209q0-17 4.5-30T260,159t24-7Z" />
      <glyph unicode="b" glyph-name="gid213" horiz-adv-x="619" d="M456,510q45,0 78-20.5T585.5,428T604,325q0-58-15.5-117.5T544,99T473,20T378-10q-30,0-61.5,9.5t-55,33T230,98L202,0H-20L142,700H372L308,420q26,43 64,66.5T456,510ZM300,153q21,0 35.5,15.5t23.5,38t13.5,46T377,291q0,18-4,30.5T359.5,341T335,348q-18,0-32-14.5T279.5,296t-14-47T261,205q0-25 10-38.5T300,153Z" />
      <glyph unicode="c" glyph-name="gid214" horiz-adv-x="579" d="M292-10q-85,0-146.5,28.5t-94,80T19,218q0,78 34,144.5t101.5,107T323,510q77,0 134.5-24.5t89-69.5T575,308L359,278q7,36 0,56t-36,20q-21,0-36-17t-25-42.5t-15-53T242,193q0-18 6-29t16.5-15.5T288,144q20,0 35.5,17T346,204l201-63Q517,72 451.5,31T292-10Z" />
      <glyph unicode="d" glyph-name="gid221" horiz-adv-x="619" d="M174-10q-44,0-80.5,20.5T36,72.5T15,178q0,59 16,118T78,403.5T154,481t103,29q26,0 53-10t48-33.5T386,400l69,300H685L523,0H313l17,95q-25-49-65.5-77T174-10ZM284,152q18,0 32,14.5T339.5,204t14,47.5T358,295q0,17-4.5,28.5t-13,17.5T319,347q-21,0-35.5-15.5t-23.5-38t-13.5-46T242,209q0-17 4.5-30T260,159t24-7Z" />
      <glyph unicode="e" glyph-name="gid229" horiz-adv-x="588" d="M286-9Q209-9 148.5,18T54,96.5T20,219q0,88 36.5,153.5T159.5,474T315,510q81,0 138-28.5T539.5,403T569,287q0-19-2-40t-8-41H177l-1,85H400l-55-21q5,14 5.5,23t0.5,17q0,19-5.5,29.5t-14.5,15T311,359q-26,0-42.5-15t-25-39T232,254t-3-50t8-37t22.5-20t32.5-6q26,0 40.5,13.5T353,186l192-62q-15-42-53-72T401,6.5T286-9Z" />
      <glyph unicode="f" glyph-name="gid246" horiz-adv-x="433" d="M24,0L144,520q18,78 56,121.5t91.5,61T410,720q44,0 78-7t56-18L499,556q-9,4-22,7t-36,3q-36,0-54-11t-25-40l-16-65l5-29L254,0H24Zm0,345L60,500H486L450,345H24Z" />
      <glyph unicode="g" glyph-name="gid247" horiz-adv-x="618" d="M208-215q-46,0-90,11T39-169t-54,61.5T-31-18L200-6q-4-33 2-52.5T238-78q15,0 26.5,9.5t20,28.5T300,10l45,192l6-9q-16-89-59-134T179,14q-44,0-80,20T42,95T21,199q0,57 16,112.5T84,412t75,71.5T260,510q31,0 61.5-15T372,444.5T389,349l-23-36l43,187H639L533,40q-22-97-64-152.5t-106.5-79T208-215Zm82,388q24,0 39,20t22.5,48.5T359,296q0,16-5,27.5T340,341t-21,6q-26,0-42-21.5t-23-49T247,230q0-26 9.5-41.5T290,173Z" />
      <glyph unicode="h" glyph-name="gid255" horiz-adv-x="618" d="M-20,0L142,700H372L297,376l-17-34q12,43 36,81t64,62.5T477,510q45,0 77.5-22T600,427t1-91L523,0H293l68,290q5,23-3.5,36.5T329,340q-14,0-25-7.5t-18.5-22T273,274L210,0H-20Z" />
      <glyph unicode="i" glyph-name="gid260" horiz-adv-x="308" d="M229,532q-57,0-87.5,21T119,625q8,56 39.5,77.5T251,724q59,0 89.5-21.5T363,634q-8-61-40.5-81.5T229,532Zm98-32L211,0H-19L97,500H327Z" />
      <glyph unicode="j" glyph-name="gid275" horiz-adv-x="308" d="M229,532q-57,0-87.5,21T119,625q8,56 39.5,77.5T251,724q59,0 89.5-21.5T363,634q-8-61-40.5-81.5T229,532ZM-16-215q-42,0-83.5,7T-170-182l45,135q11-6 22-9.5T-80-60q31,0 42.5,15.5T-17,9L97,500H327L208-13q-25-106-76.5-154T-16-215Z" />
      <glyph unicode="k" glyph-name="gid278" horiz-adv-x="657" d="M708,500L404,228l-23-8L209,65l15,201L454,500H708ZM372,700L210,0H-20L142,700H372Zm91-334L618,0H397L308,234L463,366Z" />
      <glyph unicode="l" glyph-name="gid281" horiz-adv-x="345" d="M191-10Q88-10 45,44.5T24,193L142,700H372L256,199q-7-29 2-44t36-15q10,0 17.5,1t11.5,2L286,3Q270-4 247-7t-56-3Z" />
      <glyph unicode="m" glyph-name="gid290" horiz-adv-x="932" d="M-20,0L96,500H301L271,309l-8,20q21,86 74,133.5T467,510q51,0 85-22.5T599,424t0-98L523,0H293l68,290q5,23-3.5,36.5T329,340q-14,0-25-7.5t-18.5-22T273,274L210,0H-20ZM607,0l68,290q5,23-3.5,36.5T643,340q-14,0-25-7.5t-18.5-22T587,274l-10,55q21,86 73,133.5T776,510q53,0 88-22.5T912.5,424t0.5-98L837,0H607Z" />
      <glyph unicode="n" glyph-name="gid292" horiz-adv-x="618" d="M-20,0L96,500H301L271,309l-8,20q21,86 74,133.5T467,510q51,0 85-22.5T599,424t0-98L523,0H293l68,290q5,23-3.5,36.5T329,340q-14,0-25-7.5t-18.5-22T273,274L210,0H-20Z" />
      <glyph unicode="o" glyph-name="gid302" horiz-adv-x="603" d="M280-10q-79,0-137.5,29t-91,80.5T19,218q0,78 34,144.5t101.5,107T323,510q79,0 137.5-29t91-80.5T584,282q0-77-34-144T448.5,30.5T280-10Zm2,154q19,0 33.5,17T340,204.5t15,54t5,48.5q0,19-5.5,29.5t-14.5,15T320,356q-19,0-33.5-17T262,295.5t-15-54T242,193q0-18 5.5-29T262,148.5t20-4.5Z" />
      <glyph unicode="p" glyph-name="gid325" horiz-adv-x="619" d="M-68-210L96,500H306L270,298l-9,19q11,60 39.5,103t69,66.5T456,510q45,0 78-20.5T585.5,428T604,325q0-58-15-117.5T544.5,99T474,20T380-10q-34,0-69,12.5t-58.5,45T229,138l24,49L162-210H-68ZM300,153q21,0 35.5,15.5t23.5,38t13.5,46T377,291q0,18-4,30.5T359.5,341T335,348q-18,0-32-14.5T279.5,296t-14-47T261,205q0-25 10-38.5T300,153Z" />
      <glyph unicode="q" glyph-name="gid327" horiz-adv-x="619" d="M252-210l95,412l11-19Q342,94 293,42T174-10q-44,0-80.5,20.5T36,72.5T15,178q0,59 16,118T78,403.5T154,481t103,29q31,0 62.5-14t52-50.5T389,343l-23-30l43,187H639L474-210H252Zm32,362q18,0 32,14.5T339.5,204t14,47.5T358,295q0,17-4.5,28.5t-13,17.5T319,347q-21,0-35.5-15.5t-23.5-38t-13.5-46T242,209q0-17 4.5-30T260,159t24-7Z" />
      <glyph unicode="r" glyph-name="gid328" horiz-adv-x="447" d="M-20,0L96,500H303L260,274l-5,23q16,63 41,111t64.5,75T457,510q17,0 28-2.5t18-6.5L450,313q-10,5-24,8t-37,3q-27,0-53.5-11.5t-47-37.5T257,204L210,0H-20Z" />
      <glyph unicode="s" glyph-name="gid336" horiz-adv-x="527" d="M255-10Q204-10 150,3T50,40.5T-27,101L69,207q31-31 74.5-54T224,130q17,0 25.5,4.5T258,147q0,7-5.5,12.5T233,169l-42,14q-83,28-117,63T40,338t30.5,95T154,490.5T274,510q83,0 147-25t107-66L439,309q-16,16-41,30t-53,22.5T289,370q-13,0-19-4t-6-11t5.5-12t18.5-9l90-29q54-17 83.5-51T491,169q0-55-27.5-95t-80-62T255-10Z" />
      <glyph unicode="t" glyph-name="gid349" horiz-adv-x="458" d="M270-10q-71,0-120,23.5t-68.5,71T78,204l93,402l245,64L310,213q-10-34 7.5-53.5T375,140q22,0 33.5,2t21.5,5L402,9Q374-1 339.5-5.5T270-10ZM24,345L60,500H501L465,345H24Z" />
      <glyph unicode="u" glyph-name="gid357" horiz-adv-x="618" d="M153-10q-52,0-86.5,22T19,74t-1,95L95,500H325L258,210q-6-25 4-37.5T292,160q15,0 24.5,7.5T333,190t12,36l63,274H638L522,0H317l30,191l8-22Q333,84 280.5,37T153-10Z" />
      <glyph unicode="v" glyph-name="gid373" horiz-adv-x="588" d="M398,500H656L379,0H93L48,500H274L262,24l-42,7L398,500Z" />
      <glyph unicode="w" glyph-name="gid374" horiz-adv-x="932" d="M58,0L49,500H274L254,165L402,500H628V165L756,500H999L751,0H468V248L350,0H58Z" />
      <glyph unicode="x" glyph-name="gid379" horiz-adv-x="630" d="M-69,0L186,281l76-29L432,500H697L447,224l-89,25L203,0H-69ZM336,0L267,249l-90-18L56,500H302l51-248l101,22L581,0H336Z" />
      <glyph unicode="y" glyph-name="gid380" horiz-adv-x="594" d="M66-215q-47,0-88.5,10T-87-180L-30-25Q5-54 62-54q25,0 44.5,7T135-26l3,5L50,500H284l-6-258l-6-120l47,121L422,500H662L378-4q-43-77-87.5-123.5t-98.5-67T66-215Z" />
      <glyph unicode="z" glyph-name="gid390" horiz-adv-x="511" d="M-30,0L1,132L184,304l58,48l-73-4H47L82,500H539L508,368L328,198l-60-50l82,4H472L437,0H-30Z" />
      <glyph unicode="{" glyph-name="gid484" horiz-adv-x="466" d="M344-193q-133,0-195.5,51T111,26l13,59q14,60-7.5,86.5T48,198H38L70,335h30q38,0 64.5,19.5T201,420l29,124q23,98 82,140t164,42h87L531,589H494q-32,0-59.5-23.5T394,489L368,374q-10-46-38-72.5T256,267q41-13 56-42t4-76L292,45q-13-54 7.5-77.5T362-56h20L351-193h-7Z" />
      <glyph unicode="|" glyph-name="gid568" horiz-adv-x="372" d="M392,701L191-168H-13L188,701H392Z" />
      <glyph unicode="}" glyph-name="gid485" horiz-adv-x="466" d="M-89-193L-57-56h36q40,0 65,24.5T80,44l26,115q11,46 38.5,72.5T218,266q-40,13-55,42t-5,76l24,104q13,54-6,77.5T122,589H92l31,137h58q63,0 110.5-21.5t69-65.5T367,527l-17-79q-13-60 8.5-86.5T429,335h7L404,198H374q-38,0-64-19.5T273,113L244-11q-22-98-80-140T8-193H-89Z" />
      <glyph unicode="~" glyph-name="gid551" horiz-adv-x="627" d="M629,452q-14-89-45.5-138T511,246.5T429,228q-35,0-60,9t-44.5,21t-36,21T253,288q-15,0-27-12.5T207,236H42q12,85 44,133.5T161.5,439T251,460q28,0 50.5-9t42-21t37-21t36.5-9q15,0 27.5,12.5T464,452H629Z" />
      <glyph unicode="&#xa0;" glyph-name="gid506" horiz-adv-x="250" />
      <glyph unicode="&#xa1;" glyph-name="gid466" horiz-adv-x="321" d="M264,280L224,4L186-160H-54L-16,4L72,280H264ZM200,507q52,0 82-20t30-61q0-51-32-81.5T189,314q-51,0-81,20.5T78,396q0,51 31.5,81T200,507Z" />
      <glyph unicode="&#xa2;" glyph-name="gid512" horiz-adv-x="581" d="M281-10q-78,0-137,29.5t-92,82T19,223q0,88 35.5,152T155,474.5T308,510q84,0 142-26.5t89-72T571,309L386,287q5,41-14,65t-59,24q-37,0-60.5-24.5T218,289t-11-79q0-27 8.5-46.5t26-29.5T285,124q32,0 51,18t31,61l178-55Q521,77 451,33.5T281-10ZM149-100L309,600H439L279-100H149Z" />
      <glyph unicode="&#xa3;" glyph-name="gid530" horiz-adv-x="641" d="M55,267l19,83H508l-19-83H55ZM420-11q-43,0-77,13T280.5,34t-54,37.5T176,103t-54,13q-13,0-22.5-8T90,88q0-13 9-21t22-8q27,0 39.5,17T177,118.5t4,48.5q0,44-8.5,79.5t-19,66.5t-19,63T126,446q0,67 32,117t90,78.5T382,670q72,0 127.5-23T596,577.5T623,460L435,424q2,41-10.5,64T379,511q-17,0-31-7.5t-22.5-23T317,442q0-24 5.5-51.5t10.5-58t5-65.5q0-52-15-102T279,75T210.5,11.5T121-12Q70-12 38,14T6,83q0,50 35.5,75T126,183q27,0 57.5-5T245,165.5t59.5-15T358,138t43-5q25,0 40.5,16.5T461,206l137-21q4-64-22-107.5t-68-66T420-11Z" />
      <glyph unicode="&#xa4;" glyph-name="gid514" horiz-adv-x="654" d="M346,536q64,0 112-26t75-72t27-108T533,221.5T458,149T346,123q-65,0-113.5,26T157,221.5T130,330t27,108t75.5,72T346,536Zm0-152q-25,0-39-14t-14-40q0-25 14-39.5T346,276q24,0 37.5,14.5T397,330q0,26-13.5,40T346,384ZM171,632L310,466L208,364L42,503L171,632Zm37-337L310,193L171,27L42,156L208,295Zm280-5L648,156L518,27L384,187L488,290Zm30,342L648,503L488,368L384,472L518,632Z" />
      <glyph unicode="&#xa5;" glyph-name="gid532" horiz-adv-x="697" d="M174,0l31,131H34l13,59H218l14,61H61l14,59h90l70-4L92,660H304l44-182l26-104h2l56,105l88,181H771L482,306l72,4h90l-14-59H459l-14-61H616l-13-59H432L401,0H174Z" />
      <glyph unicode="&#xa6;" glyph-name="gid569" horiz-adv-x="372" d="M392,701L302,310H98l90,391H392ZM282,223L191-168H-13L78,223H282Z" />
      <glyph unicode="&#xa7;" glyph-name="gid561" horiz-adv-x="643" d="M288-111q-57,0-114,15T70.5-50.5T-2,26l122,82q29-42 78.5-65T296,20q25,0 42.5,7T356,49q0,11-12,20T306,87L177,133q-68,24-109,59T27,294q0,58 31,93.5t84.5,51T263,452l35-92q-66-4-91-12t-25-31q0-18 15.5-27.5T241,271l140-45q65-21 102-55t37-84q0-60-30.5-104.5t-83-69T288-111Zm95,213l-38,94q30-1 57,1t44,11t17,26q0,15-15,23.5T416,271L237,330q-32,11-56,31.5t-37,49T131,474q0,62 30.5,105.5T245,646t119,23q61,0 112.5-13t93-40.5T640,543L514,456q-23,38-61,55.5T365,529q-22,0-35-5.5T311.5,510T306,492q0-11 11.5-23T376,444l73-20q83-22 126-60.5T618,268q0-61-31-102.5t-84-58T383,102Z" />
      <glyph unicode="&#xa8;" glyph-name="gid604" horiz-adv-x="500" d="M449,537q-44,0-71,16.5T351,609q0,59 31.5,83.5T469,717q44,0 70-16.5T565,646q0-60-31-84.5T449,537Zm-241,0q-44,0-71,16.5T110,609q0,59 31.5,83.5T228,717q44,0 70-16.5T324,646q0-60-31-84.5T208,537Z" />
      <glyph unicode="&#xa9;" glyph-name="gid562" horiz-adv-x="759" d="M398-10q-99,0-177.5,42.5T97,151.5T52,330q0,103 45,179T220.5,627.5T398,670q100,0 178-42.5T699,509t45-179q0-102-45-178.5T576,32.5T398-10Zm0,96q74,0 129.5,30.5T614,202t31,128q0,74-31,128.5t-86.5,85T398,574T268.5,543.5t-86.5-85T151,330q0-73 31-128t86.5-85.5T398,86Zm5,49q-94,0-145.5,53.5T206,330q0,89 51.5,142T403,525q74,0 121-33t63-88L462,345q-9,17-21,22t-29,5q-21,0-34-10.5T365,330t13-31.5T413,288q15,0 28.5,4.5T463,318l120-60q-27-68-68-95.5T403,135Z" />
      <glyph unicode="&#xaa;" glyph-name="gid404" horiz-adv-x="476" d="M182,292q-47,0-80,33T69,425q0,42 11.5,83.5t33.5,76t54,55T241,660q22,0 44-10t36.5-35.5T334,542l-16-21l30,132H511L429,299H280l26,143l6-13q-11-63-45.5-100T182,292ZM8,117L34,230H430L404,117H8ZM260,407q17,0 28.5,17.5T306,466t6,42q0,17-7,27t-21,10q-19,0-31-18.5T235.5,485T230,447q0-19 7-29.5T260,407Z" />
      <glyph unicode="&#xab;" glyph-name="gid499" horiz-adv-x="637" d="M385,461L180,218l3,122L292,69H107L27,265L196,461H385Zm276,0L456,218l3,122L568,69H383L303,265L472,461H661Z" />
      <glyph unicode="&#xac;" glyph-name="gid552" horiz-adv-x="604" d="M558,310L504,75H329l54,235H558Zm22,97L545,254H61L96,407H580Z" />
      <glyph unicode="&#xad;" glyph-name="gid489" horiz-adv-x="540" d="M490,359L450,184H60l40,175H490Z" />
      <glyph unicode="&#xae;" glyph-name="gid563" horiz-adv-x="761" d="M399,670q105,0 182.5-42.5T702,509t43-179q0-102-43-178.5T581.5,32.5T399-10Q295-10 217,32.5T96,151.5T53,330q0,103 43,179T217,627.5T399,670ZM371,517V157H247V517H371ZM471,320L572,157H420L362,297l109,23ZM399,574q-74,0-129-30.5t-85.5-85T154,330q0-73 30.5-128T270,116.5T399,86t129,30.5T613.5,202T644,330q0,74-30.5,128.5t-85.5,85T399,574Zm39-57q35,0 63-16t45-43t17-62q0-58-39-89.5T418,275H317v82h82q16,0 26.5,5.5T436,384t-10.5,21.5T399,411H317V517H438Z" />
      <glyph unicode="&#xaf;" glyph-name="gid612" horiz-adv-x="500" d="M544,681L513,551H125l31,130H544Z" />
      <glyph unicode="&#xb0;" glyph-name="gid565" horiz-adv-x="500" d="M301,270q-70,0-120,24t-77,69T77,470t27,107t77,69t120,24t119.5-24T497,577t27-107T497,363t-76.5-69T301,270Zm0,138q29,0 46.5,17.5T365,471t-17.5,45T301,533t-47-17t-18-45t18-45.5T301,408Z" />
      <glyph unicode="&#xb1;" glyph-name="gid550" horiz-adv-x="604" d="M475,660L370,206H215L320,660H475ZM618,506L584,360H70l34,146H618ZM534,141L502,1H-12L20,141H534Z" />
      <glyph unicode="&#xb2;" glyph-name="gid448" horiz-adv-x="398" d="M44,334L67,435q37,14 76.5,32.5t74,39t56,41.5T295,590q0,15-6,20.5T272,616q-19,0-28-14t-11-40L83,590q12,70 60,108t142,38q83,0 126-31t43-81q0-42-17-70t-45-46t-61-30t-65-23v-1q19,2 40.5,2.5T353,457h75L400,334H44Z" />
      <glyph unicode="&#xb3;" glyph-name="gid449" horiz-adv-x="396" d="M245,327q-91,0-140,35.5T53,454l144,25q0-23 11-32.5t28-9.5q15,0 24,7t9,22q0,14-9,20t-24,6q-9,0-14.5-0.5T211,490l19,77q7-1 13.5-2t13.5-1q21,0 28,8.5t7,20.5t-7.5,18T263,617t-23.5-7T225,587L91,628q12,47 57.5,78T279,737q71,0 119.5-28T447,628q0-40-24.5-69.5T354,527l-1-3q29-2 50.5-18.5T425,454q0-42-24.5-70.5T335,341t-90-14Z" />
      <glyph unicode="&#xb4;" glyph-name="gid606" horiz-adv-x="600" d="M337,730H546L396,553H235L337,730Z" />
      <glyph unicode="&#xb5;" glyph-name="gid554" horiz-adv-x="619" d="M-67-210L96,500H326L259,210q-5-22 2.5-36T293,160q15,0 24.5,7.5T334,190t12,36l63,274H639L523,0H318l18,112q-28-57-72.5-89T158-9q-22,0-46,4T62,9L236,98L163-210H-67Z" />
      <glyph unicode="&#xb6;" glyph-name="gid560" horiz-adv-x="812" d="M221-100l60,261q-27,0-63.5,11.5t-72,38T87,282T64,394q0,83 40.5,142.5T218,628t170,32H857L681-100H498L634,488H540L404-100H221Zm94,440l34,148H331q-29,0-49-9.5T251.5,450T241,402q0-28 19-45t55-17Z" />
      <glyph unicode="&#xb7;" glyph-name="gid469" horiz-adv-x="302" d="M169,246q-54,0-85.5,22.5T52,336q0,56 33.5,89.5T180,459q54,0 85.5-22.5T297,369q0-56-33-89.5T169,246Z" />
      <glyph unicode="&#xb8;" glyph-name="gid613" horiz-adv-x="500" d="M119,6l46,23q63-6 97.5-35T297-81q0-41-19-72t-52.5-48T147-218q-40,0-69.5,10T25-178L77-89q11-9 28-13.5t28-4.5q23,0 38.5,16T187-55q0,18-16.5,34.5T119,6Z" />
      <glyph unicode="&#xb9;" glyph-name="gid447" horiz-adv-x="307" d="M130,334l42,180q2,8 6,22.5t8,27t4,13.5q-25-13-60-22t-58-9l28,120q29,6 58.5,16T214,704.5T257,730H380L288,334H130Z" />
      <glyph unicode="&#xba;" glyph-name="gid405" horiz-adv-x="464" d="M270,292q-91,0-138.5,45T84,453q0,55 24,102t71.5,76T299,660q90,0 137-45t47-116q0-55-23-102t-70.5-76T270,292ZM5,117L31,230H423L397,117H5ZM270,401q18,0 30,20.5t18.5,48T325,516q0,20-8.5,27.5T297,551q-18,0-30.5-20.5T248,483t-6-47q0-19 8-27t20-8Z" />
      <glyph unicode="&#xbb;" glyph-name="gid500" horiz-adv-x="637" d="M-17,69L173,302l13-119L75,461H256l84-196L175,69H-17Zm276,0L449,302l13-119L351,461H532l84-196L451,69H259Z" />
      <glyph unicode="&#xbc;" glyph-name="gid458" horiz-adv-x="922" d="M115,269l42,180q2,8 6,22.5t8,27t4,13.5q-25-13-60-22t-58-9L85,601q29,6 58.5,16T199,639.5T242,665H365L273,269H115ZM75,0L702,661H857L230,0H75ZM652-3l17,74H480l24,93q12,15 22.5,28.5t22,27T573,248L697,393H882L832,174h66L875,71H809L792-3H652ZM634,174h59l29,121l-58-83q-8-11-15.5-20.5T634,174Z" />
      <glyph unicode="&#xbd;" glyph-name="gid457" horiz-adv-x="986" d="M115,269l42,180q2,8 6,22.5t8,27t4,13.5q-25-13-60-22t-58-9L85,601q29,6 58.5,16T199,639.5T242,665H365L273,269H115ZM75,0L702,661H857L230,0H75ZM554-3L577,98q37,14 76.5,32.5t74,39t56,41.5T805,253q0,15-6,20.5T782,279q-19,0-28-14t-11-40L593,253q12,70 60,108t142,38q83,0 126-31t43-81q0-42-17-70t-45-46t-61-30t-65-23v-1q19,2 40.5,2.5T863,120h75L910-3H554Z" />
      <glyph unicode="&#xbe;" glyph-name="gid459" horiz-adv-x="1011" d="M230,262q-91,0-140,35.5T38,389l144,25q0-23 11-32.5t28-9.5q15,0 24,7t9,22q0,14-9,20t-24,6q-9,0-14.5-0.5T196,425l19,77q7-1 13.5-2t13.5-1q21,0 28,8.5t7,20.5t-7.5,18T248,552t-23.5-7T210,522L76,563q12,47 57.5,78T264,672q71,0 119.5-28T432,563q0-40-24.5-69.5T339,462l-1-3q29-2 50.5-18.5T410,389q0-42-24.5-70.5T320,276t-90-14ZM164,0L791,661H946L319,0H164ZM741-3l17,74H569l24,93q12,15 22.5,28.5t22,27T662,248L786,393H971L921,174h66L964,71H898L881-3H741ZM723,174h59l29,121l-58-83q-8-11-15.5-20.5T723,174Z" />
      <glyph unicode="&#xbf;" glyph-name="gid468" horiz-adv-x="640" d="M448,283L414,126q-48-1-89.5-7.5T257.5,95T232,45q0-18 12.5-28T279,7q27,0 43.5,18T349,81L565,11q-14-48-50.5-89t-101-66T250-169q-79,0-138,21.5t-91.5,62T-12,11q0,62 26.5,106t81,70T233,221l21,62H448ZM378,507q51,0 81-20t30-61q0-50-31.5-80T367,316q-51,0-81,20t-30,61q0,50 31.5,80T378,507Z" />
      <glyph unicode="&#xc0;" glyph-name="gid7" horiz-adv-x="689" d="M-68,0L301,660H581L641,0H422l-3,132H235L170,0H-68ZM307,277H415l-3,220L307,277ZM502,876l26-167H380L311,876H502Z" />
      <glyph unicode="&#xc1;" glyph-name="gid2" horiz-adv-x="689" d="M-68,0L301,660H581L641,0H422l-3,132H235L170,0H-68ZM307,277H415l-3,220L307,277ZM463,876H663L533,709H366l97,167Z" />
      <glyph unicode="&#xc2;" glyph-name="gid4" horiz-adv-x="689" d="M-68,0L301,660H581L641,0H422l-3,132H235L170,0H-68ZM307,277H415l-3,220L307,277ZM600,876l55-167H513l-37,82l-73-82H249L382,876H600Z" />
      <glyph unicode="&#xc3;" glyph-name="gid13" horiz-adv-x="689" d="M-68,0L301,660H581L641,0H422l-3,132H235L170,0H-68ZM307,277H415l-3,220L307,277ZM682,879q-13-90-56.5-133T528,703q-27,0-45.5,8T450,729t-26.5,18T397,755t-23-13.5T360,705H244q14,90 54,133t98,43q21,0 39-8t33.5-18t30-18t28.5-8t23.5,12.5T566,879H682Z" />
      <glyph unicode="&#xc4;" glyph-name="gid6" horiz-adv-x="689" d="M-68,0L301,660H581L641,0H422l-3,132H235L170,0H-68ZM307,277H415l-3,220L307,277ZM574,697q-44,0-71,16.5T476,769q0,59 31.5,83.5T594,877q44,0 70-16.5T690,806q0-60-31-84.5T574,697Zm-241,0q-44,0-71,16.5T235,769q0,59 31.5,83.5T353,877q44,0 70-16.5T449,806q0-60-31-84.5T333,697Z" />
      <glyph unicode="&#xc5;" glyph-name="gid11" horiz-adv-x="689" d="M-68,0L301,660H581L641,0H422l-3,132H235L170,0H-68ZM307,277H415l-3,220L307,277ZM452,839q68,0 106.5-32T597,722q0-63-43.5-103.5T442,578q-67,0-106,31.5T297,694q0,63 43.5,104T452,839Zm-3-89q-18,0-31.5-12.5T404,702q0-16 11-25.5t30-9.5q18,0 31,12.5T489,714q0,17-10.5,26.5T449,750Z" />
      <glyph unicode="&#xc6;" glyph-name="gid14" horiz-adv-x="904" d="M-68,0L289,660H971L933,499H672l-22-96H850L816,254H616l-22-93H867L830,0H343l43,185H260L175,0H-68ZM322,321h95l43,186H407L322,321Z" />
      <glyph unicode="&#xc7;" glyph-name="gid20" horiz-adv-x="698" d="M352-10q-91,0-160.5,35.5t-109,100T43,276q0,91 25.5,163.5t73.5,124t117,79T415,670q82,0 145.5-28t103-80.5T712,435L492,392q2,50-16.5,76.5T413,495q-37,0-63.5-23T306,413.5T281.5,338T274,263q0-30 9.5-52T313,177t53-12q41,0 64.5,26T470,258l205-75Q631,92 551.5,41T352-10ZM235,6l46,23q63-6 97.5-35T413-81q0-41-19-72t-52.5-48T263-218q-40,0-69.5,10T141-178l52,89q11-9 28-13.5t28-4.5q23,0 38.5,16T303-55q0,18-16.5,34.5T235,6Z" />
      <glyph unicode="&#xc8;" glyph-name="gid43" horiz-adv-x="626" d="M-8,0L145,660H699L659,489H338l-19-82H573L537,249H283l-18-78H592L552,0H-8ZM480,876l26-167H358L289,876H480Z" />
      <glyph unicode="&#xc9;" glyph-name="gid35" horiz-adv-x="626" d="M-8,0L145,660H699L659,489H338l-19-82H573L537,249H283l-18-78H592L552,0H-8ZM430,876H630L500,709H333l97,167Z" />
      <glyph unicode="&#xca;" glyph-name="gid39" horiz-adv-x="626" d="M-8,0L145,660H699L659,489H338l-19-82H573L537,249H283l-18-78H592L552,0H-8ZM578,876l55-167H491l-37,82l-73-82H227L360,876H578Z" />
      <glyph unicode="&#xcb;" glyph-name="gid41" horiz-adv-x="626" d="M-8,0L145,660H699L659,489H338l-19-82H573L537,249H283l-18-78H592L552,0H-8ZM552,697q-44,0-71,16.5T454,769q0,59 31.5,83.5T572,877q44,0 70-16.5T668,806q0-60-31-84.5T552,697Zm-241,0q-44,0-71,16.5T213,769q0,59 31.5,83.5T331,877q44,0 70-16.5T427,806q0-60-31-84.5T311,697Z" />
      <glyph unicode="&#xcc;" glyph-name="gid73" horiz-adv-x="333" d="M378,660L225,0H-8L145,660H378ZM322,876l26-167H200L131,876H322Z" />
      <glyph unicode="&#xcd;" glyph-name="gid66" horiz-adv-x="333" d="M378,660L225,0H-8L145,660H378ZM283,876H483L353,709H186l97,167Z" />
      <glyph unicode="&#xce;" glyph-name="gid68" horiz-adv-x="333" d="M378,660L225,0H-8L145,660H378Zm42,216l55-167H333l-37,82l-73-82H69L202,876H420Z" />
      <glyph unicode="&#xcf;" glyph-name="gid70" horiz-adv-x="333" d="M394,697q-44,0-71,16.5T296,769q0,59 31.5,83.5T414,877q44,0 70-16.5T510,806q0-60-31-84.5T394,697Zm-241,0q-44,0-71,16.5T55,769q0,59 31.5,83.5T173,877q44,0 70-16.5T269,806q0-60-31-84.5T153,697Zm225-37L225,0H-8L145,660H378Z" />
      <glyph unicode="&#xd0;" glyph-name="gid27" horiz-adv-x="737" d="M5,253L39,403H432L398,253H5ZM20,0L173,660H434q100,0 166-33.5t99-94T732,390q0-89-24-161T636.5,106T521,27.5T364,0H20ZM292,166h55q41,0 70.5,21T465,242t26.5,74.5T500,396q0,32-10,54t-30,33t-51,11H367L292,166Z" />
      <glyph unicode="&#xd1;" glyph-name="gid104" horiz-adv-x="746" d="M-8,0L145,660H387l89-311l23-93h2l31,159l57,245H791L638,0H399L306,300l-25,94h-2L251,245L194,0H-8ZM709,879q-13-90-56.5-133T555,703q-27,0-45.5,8T477,729t-26.5,18T424,755t-23-13.5T387,705H271q14,90 54,133t98,43q21,0 39-8t33.5-18t30-18t28.5-8t23.5,12.5T593,879H709Z" />
      <glyph unicode="&#xd2;" glyph-name="gid113" horiz-adv-x="725" d="M351-10q-88,0-158,34.5T83,124.5T43,281q0,86 25,157.5T140.5,562t116,80T411,670q89,0 158.5-34.5T679,536t40-157q0-86-25-157.5T621.5,98t-116-80T351-10Zm4,175q34,0 58.5,22.5t41,58.5T479,323.5t8,78.5q0,31-8.5,51.5t-26,31T407,495q-34,0-58.5-22.5t-41-58.5T283,336.5T275,258q0-30 8.5-51T310,175.5T355,165ZM498,876l26-167H376L307,876H498Z" />
      <glyph unicode="&#xd3;" glyph-name="gid106" horiz-adv-x="725" d="M351-10q-88,0-158,34.5T83,124.5T43,281q0,86 25,157.5T140.5,562t116,80T411,670q89,0 158.5-34.5T679,536t40-157q0-86-25-157.5T621.5,98t-116-80T351-10Zm4,175q34,0 58.5,22.5t41,58.5T479,323.5t8,78.5q0,31-8.5,51.5t-26,31T407,495q-34,0-58.5-22.5t-41-58.5T283,336.5T275,258q0-30 8.5-51T310,175.5T355,165ZM459,876H659L529,709H362l97,167Z" />
      <glyph unicode="&#xd4;" glyph-name="gid108" horiz-adv-x="725" d="M351-10q-88,0-158,34.5T83,124.5T43,281q0,86 25,157.5T140.5,562t116,80T411,670q89,0 158.5-34.5T679,536t40-157q0-86-25-157.5T621.5,98t-116-80T351-10Zm4,175q34,0 58.5,22.5t41,58.5T479,323.5t8,78.5q0,31-8.5,51.5t-26,31T407,495q-34,0-58.5-22.5t-41-58.5T283,336.5T275,258q0-30 8.5-51T310,175.5T355,165ZM596,876l55-167H509l-37,82l-73-82H245L378,876H596Z" />
      <glyph unicode="&#xd5;" glyph-name="gid123" horiz-adv-x="725" d="M351-10q-88,0-158,34.5T83,124.5T43,281q0,86 25,157.5T140.5,562t116,80T411,670q89,0 158.5-34.5T679,536t40-157q0-86-25-157.5T621.5,98t-116-80T351-10Zm4,175q34,0 58.5,22.5t41,58.5T479,323.5t8,78.5q0,31-8.5,51.5t-26,31T407,495q-34,0-58.5-22.5t-41-58.5T283,336.5T275,258q0-30 8.5-51T310,175.5T355,165ZM678,879q-13-90-56.5-133T524,703q-27,0-45.5,8T446,729t-26.5,18T393,755t-23-13.5T356,705H240q14,90 54,133t98,43q21,0 39-8t33.5-18t30-18t28.5-8t23.5,12.5T562,879H678Z" />
      <glyph unicode="&#xd6;" glyph-name="gid110" horiz-adv-x="725" d="M351-10q-88,0-158,34.5T83,124.5T43,281q0,86 25,157.5T140.5,562t116,80T411,670q89,0 158.5-34.5T679,536t40-157q0-86-25-157.5T621.5,98t-116-80T351-10Zm4,175q34,0 58.5,22.5t41,58.5T479,323.5t8,78.5q0,31-8.5,51.5t-26,31T407,495q-34,0-58.5-22.5t-41-58.5T283,336.5T275,258q0-30 8.5-51T310,175.5T355,165ZM570,697q-44,0-71,16.5T472,769q0,59 31.5,83.5T590,877q44,0 70-16.5T686,806q0-60-31-84.5T570,697Zm-241,0q-44,0-71,16.5T231,769q0,59 31.5,83.5T349,877q44,0 70-16.5T445,806q0-60-31-84.5T329,697Z" />
      <glyph unicode="&#xd7;" glyph-name="gid545" horiz-adv-x="604" d="M126,66L24,199L516,598L618,465L126,66Zm292,0L92,494L223,598L549,170L418,66Z" />
      <glyph unicode="&#xd8;" glyph-name="gid121" horiz-adv-x="725" d="M263,148l-41,56L502,530l36-61L263,148ZM15-21L153,134l44-50L100-21H15ZM569,498l-11,85l89,97h85L569,498ZM351-10q-88,0-158,34.5T83,124.5T43,281q0,86 25,157.5T140.5,562t116,80T411,670q89,0 158.5-34.5T679,536t40-157q0-86-25-157.5T621.5,98t-116-80T351-10Zm4,175q34,0 58.5,22.5t41,58.5T479,323.5t8,78.5q0,31-8.5,51.5t-26,31T407,495q-34,0-58.5-22.5t-41-58.5T283,336.5T275,258q0-30 8.5-51T310,175.5T355,165Z" />
      <glyph unicode="&#xd9;" glyph-name="gid165" horiz-adv-x="711" d="M332-10Q225-10 153.5,27T53.5,133T47,297l85,363H366L277,270q-7-33 0-56.5t26.5-36T353,165q38,0 59,22t32,72l93,401H770L678,266Q644,123 563,56.5T332-10ZM512,876l26-167H390L321,876H512Z" />
      <glyph unicode="&#xda;" glyph-name="gid160" horiz-adv-x="711" d="M332-10Q225-10 153.5,27T53.5,133T47,297l85,363H366L277,270q-7-33 0-56.5t26.5-36T353,165q38,0 59,22t32,72l93,401H770L678,266Q644,123 563,56.5T332-10ZM473,876H673L543,709H376l97,167Z" />
      <glyph unicode="&#xdb;" glyph-name="gid162" horiz-adv-x="711" d="M332-10Q225-10 153.5,27T53.5,133T47,297l85,363H366L277,270q-7-33 0-56.5t26.5-36T353,165q38,0 59,22t32,72l93,401H770L678,266Q644,123 563,56.5T332-10ZM610,876l55-167H523l-37,82l-73-82H259L392,876H610Z" />
      <glyph unicode="&#xdc;" glyph-name="gid164" horiz-adv-x="711" d="M332-10Q225-10 153.5,27T53.5,133T47,297l85,363H366L277,270q-7-33 0-56.5t26.5-36T353,165q38,0 59,22t32,72l93,401H770L678,266Q644,123 563,56.5T332-10ZM584,697q-44,0-71,16.5T486,769q0,59 31.5,83.5T604,877q44,0 70-16.5T700,806q0-60-31-84.5T584,697Zm-241,0q-44,0-71,16.5T245,769q0,59 31.5,83.5T363,877q44,0 70-16.5T459,806q0-60-31-84.5T343,697Z" />
      <glyph unicode="&#xdd;" glyph-name="gid183" horiz-adv-x="713" d="M182,0l55,237L104,660H323l41-151l25-117l68,117l99,151H799L466,221L415,0H182ZM455,876H655L525,709H358l97,167Z" />
      <glyph unicode="&#xde;" glyph-name="gid129" horiz-adv-x="704" d="M150,102l37,165H374q30,0 50.5,10.5t31.5,28T467,344q0,29-17,45.5T390,406H215l38,165H418q131,0 204.5-54.5T696,361q0-76-36-134.5T556.5,135T394,102H150ZM-8,0L145,660H378L225,0H-8Z" />
      <glyph unicode="&#xdf;" glyph-name="gid347" horiz-adv-x="665" d="M395-10q-52,0-91.5,8T244,20l58,142q12-7 25-10.5t30-3.5q22,0 37,8t23,22.5t8,32.5q0,29-20,41.5T347,265q-9,0-17.5-0.5T310,263l49,154q10-1 18.5-1.5T393,415q23,0 38.5,10.5t23.5,28t8,36.5q0,22-8,35t-21.5,19T403,550q-37,0-56.5-22T316,459L210,0H-20L89,473q26,116 106,174t225,58q86,0 144-23.5T652,618t30-91q0-63-24-102.5T592,365t-98-25v-2q41-2 73.5-18t51-45.5T637,201q0-62-30.5-109.5T522,17T395-10Z" />
      <glyph unicode="&#xe0;" glyph-name="gid204" horiz-adv-x="619" d="M174-10q-44,0-80.5,20.5T36,72.5T15,178q0,59 16,118T78,403.5T154,481t103,29q26,0 53-10t48-33.5T386,400l23,100H639L523,0H313l17,95q-25-49-65.5-77T174-10ZM284,152q18,0 32,14.5T339.5,204t14,47.5T358,295q0,17-4.5,28.5t-13,17.5T319,347q-21,0-35.5-15.5t-23.5-38t-13.5-46T242,209q0-17 4.5-30T260,159t24-7ZM421,730l19-177H286L214,730H421Z" />
      <glyph unicode="&#xe1;" glyph-name="gid199" horiz-adv-x="619" d="M174-10q-44,0-80.5,20.5T36,72.5T15,178q0,59 16,118T78,403.5T154,481t103,29q26,0 53-10t48-33.5T386,400l23,100H639L523,0H313l17,95q-25-49-65.5-77T174-10ZM284,152q18,0 32,14.5T339.5,204t14,47.5T358,295q0,17-4.5,28.5t-13,17.5T319,347q-21,0-35.5-15.5t-23.5-38t-13.5-46T242,209q0-17 4.5-30T260,159t24-7Zm80,578H573L423,553H262L364,730Z" />
      <glyph unicode="&#xe2;" glyph-name="gid201" horiz-adv-x="619" d="M174-10q-44,0-80.5,20.5T36,72.5T15,178q0,59 16,118T78,403.5T154,481t103,29q26,0 53-10t48-33.5T386,400l23,100H639L523,0H313l17,95q-25-49-65.5-77T174-10ZM284,152q18,0 32,14.5T339.5,204t14,47.5T358,295q0,17-4.5,28.5t-13,17.5T319,347q-21,0-35.5-15.5t-23.5-38t-13.5-46T242,209q0-17 4.5-30T260,159t24-7ZM145,547L292,724H506l65-177H421l-41,71l-73-71H145Z" />
      <glyph unicode="&#xe3;" glyph-name="gid210" horiz-adv-x="619" d="M174-10q-44,0-80.5,20.5T36,72.5T15,178q0,59 16,118T78,403.5T154,481t103,29q26,0 53-10t48-33.5T386,400l23,100H639L523,0H313l17,95q-25-49-65.5-77T174-10ZM284,152q18,0 32,14.5T339.5,204t14,47.5T358,295q0,17-4.5,28.5t-13,17.5T319,347q-21,0-35.5-15.5t-23.5-38t-13.5-46T242,209q0-17 4.5-30T260,159t24-7ZM594,719q-13-90-56.5-133T440,543q-27,0-45.5,8T362,569t-26.5,18T309,595t-23-13.5T272,545H156q14,90 54,133t98,43q21,0 39-8t33.5-18t30-18t28.5-8t23.5,12.5T478,719H594Z" />
      <glyph unicode="&#xe4;" glyph-name="gid203" horiz-adv-x="619" d="M174-10q-44,0-80.5,20.5T36,72.5T15,178q0,59 16,118T78,403.5T154,481t103,29q26,0 53-10t48-33.5T386,400l23,100H639L523,0H313l17,95q-25-49-65.5-77T174-10ZM284,152q18,0 32,14.5T339.5,204t14,47.5T358,295q0,17-4.5,28.5t-13,17.5T319,347q-21,0-35.5-15.5t-23.5-38t-13.5-46T242,209q0-17 4.5-30T260,159t24-7ZM486,537q-44,0-71,16.5T388,609q0,59 31.5,83.5T506,717q44,0 70-16.5T602,646q0-60-31-84.5T486,537Zm-241,0q-44,0-71,16.5T147,609q0,59 31.5,83.5T265,717q44,0 70-16.5T361,646q0-60-31-84.5T245,537Z" />
      <glyph unicode="&#xe5;" glyph-name="gid208" horiz-adv-x="619" d="M174-10q-44,0-80.5,20.5T36,72.5T15,178q0,59 16,118T78,403.5T154,481t103,29q26,0 53-10t48-33.5T386,400l23,100H639L523,0H313l17,95q-25-49-65.5-77T174-10ZM284,152q18,0 32,14.5T339.5,204t14,47.5T358,295q0,17-4.5,28.5t-13,17.5T319,347q-21,0-35.5-15.5t-23.5-38t-13.5-46T242,209q0-17 4.5-30T260,159t24-7Zm95,644q68,0 106.5-32T524,679q0-63-43.5-103.5T369,535q-67,0-106,31.5T224,651q0,63 43.5,104T379,796Zm-3-89q-18,0-31.5-12.5T331,659q0-16 11-25.5t30-9.5q18,0 31,12.5T416,671q0,17-10.5,26.5T376,707Z" />
      <glyph unicode="&#xe6;" glyph-name="gid211" horiz-adv-x="884" d="M173-10Q97-10 49.5,26.5T2,129q0,49 24,79t61.5,45.5T165,273l170,19l-19-81l-61-9q-24-4-37.5-15T204,155q0-15 10-24.5t29-9.5q18,0 29.5,8.5T288,156l31,137q2,8 2.5,14.5T322,319q0,21-10.5,32.5T277,363q-23,0-34.5-17T226,300L35,330q11,80 70.5,130T280,510q55,0 94-14.5T435,454t25-67l-42,17q25,31 53.5,55t67,37.5T631,510q71,0 123.5-28.5T836,403t29-116q0-19-2-40t-8-41H509l11,85H646q1,5 1,10t0,9q0,19-5.5,29.5t-14.5,15T607,359q-25,0-41-15t-25-39t-12.5-51T525,204t8-37t22.5-20t32.5-6q26,0 40.5,13.5T649,186l192-62q-15-42-52-72T701.5,6.5T594-9Q536-9 488.5,9.5T409,64t-45,86l49-7q-10-40-38.5-75T296,11.5T173-10Z" />
      <glyph unicode="&#xe7;" glyph-name="gid217" horiz-adv-x="579" d="M292-10q-85,0-146.5,28.5t-94,80T19,218q0,78 34,144.5t101.5,107T323,510q77,0 134.5-24.5t89-69.5T575,308L359,278q7,36 0,56t-36,20q-21,0-36-17t-25-42.5t-15-53T242,193q0-18 6-29t16.5-15.5T288,144q20,0 35.5,17T346,204l201-63Q517,72 451.5,31T292-10ZM201,9l46,23q63-6 97.5-35T379-78q0-41-19-72t-52.5-48T229-215q-40,0-69.5,10T107-175l52,89q11-9 28-13.5t28-4.5q23,0 38.5,16T269-52q0,18-16.5,34.5T201,9Z" />
      <glyph unicode="&#xe8;" glyph-name="gid238" horiz-adv-x="588" d="M286-9Q209-9 148.5,18T54,96.5T20,219q0,88 36.5,153.5T159.5,474T315,510q81,0 138-28.5T539.5,403T569,287q0-19-2-40t-8-41H177l-1,85H400l-55-21q5,14 5.5,23t0.5,17q0,19-5.5,29.5t-14.5,15T311,359q-26,0-42.5-15t-25-39T232,254t-3-50t8-37t22.5-20t32.5-6q26,0 40.5,13.5T353,186l192-62q-15-42-53-72T401,6.5T286-9ZM406,730l19-177H271L199,730H406Z" />
      <glyph unicode="&#xe9;" glyph-name="gid230" horiz-adv-x="588" d="M286-9Q209-9 148.5,18T54,96.5T20,219q0,88 36.5,153.5T159.5,474T315,510q81,0 138-28.5T539.5,403T569,287q0-19-2-40t-8-41H177l-1,85H400l-55-21q5,14 5.5,23t0.5,17q0,19-5.5,29.5t-14.5,15T311,359q-26,0-42.5-15t-25-39T232,254t-3-50t8-37t22.5-20t32.5-6q26,0 40.5,13.5T353,186l192-62q-15-42-53-72T401,6.5T286-9Zm63,739H558L408,553H247L349,730Z" />
      <glyph unicode="&#xea;" glyph-name="gid234" horiz-adv-x="588" d="M286-9Q209-9 148.5,18T54,96.5T20,219q0,88 36.5,153.5T159.5,474T315,510q81,0 138-28.5T539.5,403T569,287q0-19-2-40t-8-41H177l-1,85H400l-55-21q5,14 5.5,23t0.5,17q0,19-5.5,29.5t-14.5,15T311,359q-26,0-42.5-15t-25-39T232,254t-3-50t8-37t22.5-20t32.5-6q26,0 40.5,13.5T353,186l192-62q-15-42-53-72T401,6.5T286-9ZM130,547L277,724H491l65-177H406l-41,71l-73-71H130Z" />
      <glyph unicode="&#xeb;" glyph-name="gid236" horiz-adv-x="588" d="M286-9Q209-9 148.5,18T54,96.5T20,219q0,88 36.5,153.5T159.5,474T315,510q81,0 138-28.5T539.5,403T569,287q0-19-2-40t-8-41H177l-1,85H400l-55-21q5,14 5.5,23t0.5,17q0,19-5.5,29.5t-14.5,15T311,359q-26,0-42.5-15t-25-39T232,254t-3-50t8-37t22.5-20t32.5-6q26,0 40.5,13.5T353,186l192-62q-15-42-53-72T401,6.5T286-9ZM471,537q-44,0-71,16.5T373,609q0,59 31.5,83.5T491,717q44,0 70-16.5T587,646q0-60-31-84.5T471,537Zm-241,0q-44,0-71,16.5T132,609q0,59 31.5,83.5T250,717q44,0 70-16.5T346,646q0-60-31-84.5T230,537Z" />
      <glyph unicode="&#xec;" glyph-name="gid269" horiz-adv-x="308" d="M327,500L211,0H-19L97,500H327ZM280,730l19-177H145L73,730H280Z" />
      <glyph unicode="&#xed;" glyph-name="gid262" horiz-adv-x="308" d="M327,500L211,0H-19L97,500H327ZM223,730H432L282,553H121L223,730Z" />
      <glyph unicode="&#xee;" glyph-name="gid264" horiz-adv-x="308" d="M327,500L211,0H-19L97,500H327ZM4,547L151,724H365l65-177H280l-41,71l-73-71H4Z" />
      <glyph unicode="&#xef;" glyph-name="gid266" horiz-adv-x="308" d="M345,537q-44,0-71,16.5T247,609q0,59 31.5,83.5T365,717q44,0 70-16.5T461,646q0-60-31-84.5T345,537Zm-241,0q-44,0-71,16.5T6,609q0,59 31.5,83.5T124,717q44,0 70-16.5T220,646q0-60-31-84.5T104,537Zm223-37L211,0H-19L97,500H327Z" />
      <glyph unicode="&#xf0;" glyph-name="gid222" horiz-adv-x="599" d="M276-10q-73,0-129.5,28.5T58,100T26,224q0,81 33,144.5T151,469t138,37q50,0 82-15.5t48-45T435,372l-9-22q3,17 4.5,33t1.5,32q0,65-22,117t-60,97t-86,88H446q25-21 51-51t48.5-68t36-85T595,409q0-89-21.5-165.5T511,110T410.5,21.5T276-10Zm12,154q19,0 33.5,16.5t25,42.5t16,55t5.5,54q0,16-4,26.5t-12,16T330,360q-19,0-34.5-18t-26-45.5T253,240t-6-51q0-15 4.5-25T265,149t23-5ZM249,546l-7,60l149,19l26-55L249,546Zm241,35l-13,56l166,25l8-59L490,581Z" />
      <glyph unicode="&#xf1;" glyph-name="gid301" horiz-adv-x="618" d="M-20,0L96,500H301L271,309l-8,20q21,86 74,133.5T467,510q51,0 85-22.5T599,424t0-98L523,0H293l68,290q5,23-3.5,36.5T329,340q-14,0-25-7.5t-18.5-22T273,274L210,0H-20ZM607,719q-13-90-56.5-133T453,543q-27,0-45.5,8T375,569t-26.5,18T322,595t-23-13.5T285,545H169q14,90 54,133t98,43q21,0 39-8t33.5-18t30-18t28.5-8t23.5,12.5T491,719H607Z" />
      <glyph unicode="&#xf2;" glyph-name="gid310" horiz-adv-x="603" d="M280-10q-79,0-137.5,29t-91,80.5T19,218q0,78 34,144.5t101.5,107T323,510q79,0 137.5-29t91-80.5T584,282q0-77-34-144T448.5,30.5T280-10Zm2,154q19,0 33.5,17T340,204.5t15,54t5,48.5q0,19-5.5,29.5t-14.5,15T320,356q-19,0-33.5-17T262,295.5t-15-54T242,193q0-18 5.5-29T262,148.5t20-4.5ZM423,730l19-177H288L216,730H423Z" />
      <glyph unicode="&#xf3;" glyph-name="gid303" horiz-adv-x="603" d="M280-10q-79,0-137.5,29t-91,80.5T19,218q0,78 34,144.5t101.5,107T323,510q79,0 137.5-29t91-80.5T584,282q0-77-34-144T448.5,30.5T280-10Zm2,154q19,0 33.5,17T340,204.5t15,54t5,48.5q0,19-5.5,29.5t-14.5,15T320,356q-19,0-33.5-17T262,295.5t-15-54T242,193q0-18 5.5-29T262,148.5t20-4.5Zm84,586H575L425,553H264L366,730Z" />
      <glyph unicode="&#xf4;" glyph-name="gid305" horiz-adv-x="603" d="M280-10q-79,0-137.5,29t-91,80.5T19,218q0,78 34,144.5t101.5,107T323,510q79,0 137.5-29t91-80.5T584,282q0-77-34-144T448.5,30.5T280-10Zm2,154q19,0 33.5,17T340,204.5t15,54t5,48.5q0,19-5.5,29.5t-14.5,15T320,356q-19,0-33.5-17T262,295.5t-15-54T242,193q0-18 5.5-29T262,148.5t20-4.5ZM147,547L294,724H508l65-177H423l-41,71l-73-71H147Z" />
      <glyph unicode="&#xf5;" glyph-name="gid320" horiz-adv-x="603" d="M280-10q-79,0-137.5,29t-91,80.5T19,218q0,78 34,144.5t101.5,107T323,510q79,0 137.5-29t91-80.5T584,282q0-77-34-144T448.5,30.5T280-10Zm2,154q19,0 33.5,17T340,204.5t15,54t5,48.5q0,19-5.5,29.5t-14.5,15T320,356q-19,0-33.5-17T262,295.5t-15-54T242,193q0-18 5.5-29T262,148.5t20-4.5ZM596,719q-13-90-56.5-133T442,543q-27,0-45.5,8T364,569t-26.5,18T311,595t-23-13.5T274,545H158q14,90 54,133t98,43q21,0 39-8t33.5-18t30-18t28.5-8t23.5,12.5T480,719H596Z" />
      <glyph unicode="&#xf6;" glyph-name="gid307" horiz-adv-x="603" d="M280-10q-79,0-137.5,29t-91,80.5T19,218q0,78 34,144.5t101.5,107T323,510q79,0 137.5-29t91-80.5T584,282q0-77-34-144T448.5,30.5T280-10Zm2,154q19,0 33.5,17T340,204.5t15,54t5,48.5q0,19-5.5,29.5t-14.5,15T320,356q-19,0-33.5-17T262,295.5t-15-54T242,193q0-18 5.5-29T262,148.5t20-4.5ZM488,537q-44,0-71,16.5T390,609q0,59 31.5,83.5T508,717q44,0 70-16.5T604,646q0-60-31-84.5T488,537Zm-241,0q-44,0-71,16.5T149,609q0,59 31.5,83.5T267,717q44,0 70-16.5T363,646q0-60-31-84.5T247,537Z" />
      <glyph unicode="&#xf7;" glyph-name="gid546" horiz-adv-x="636" d="M612,407L577,254H61L96,407H612ZM279,11q-42,0-66.5,19.5T188,89q0,48 26,77t74,29q42,0 66.5-19.5T379,117q0-48-26-77T279,11ZM385,467q-42,0-66.5,19.5T294,545q0,48 26,77t74,29q42,0 66.5-19.5T485,573q0-48-26-77t-74-29Z" />
      <glyph unicode="&#xf8;" glyph-name="gid318" horiz-adv-x="603" d="M280-10q-79,0-137.5,29t-91,80.5T19,218q0,78 34,144.5t101.5,107T323,510q79,0 137.5-29t91-80.5T584,282q0-77-34-144T448.5,30.5T280-10Zm2,154q19,0 33.5,17T340,204.5t15,54t5,48.5q0,19-5.5,29.5t-14.5,15T320,356q-19,0-33.5-17T262,295.5t-15-54T242,193q0-18 5.5-29T262,148.5t20-4.5ZM-22-21L549,520h76L54-21H-22Z" />
      <glyph unicode="&#xf9;" glyph-name="gid363" horiz-adv-x="618" d="M153-10q-52,0-86.5,22T19,74t-1,95L95,500H325L258,210q-6-25 4-37.5T292,160q15,0 24.5,7.5T333,190t12,36l63,274H638L522,0H317l30,191l8-22Q333,84 280.5,37T153-10ZM429,730l19-177H294L222,730H429Z" />
      <glyph unicode="&#xfa;" glyph-name="gid358" horiz-adv-x="618" d="M153-10q-52,0-86.5,22T19,74t-1,95L95,500H325L258,210q-6-25 4-37.5T292,160q15,0 24.5,7.5T333,190t12,36l63,274H638L522,0H317l30,191l8-22Q333,84 280.5,37T153-10ZM372,730H581L431,553H270L372,730Z" />
      <glyph unicode="&#xfb;" glyph-name="gid360" horiz-adv-x="618" d="M153-10q-52,0-86.5,22T19,74t-1,95L95,500H325L258,210q-6-25 4-37.5T292,160q15,0 24.5,7.5T333,190t12,36l63,274H638L522,0H317l30,191l8-22Q333,84 280.5,37T153-10Zm0,557L300,724H514l65-177H429l-41,71l-73-71H153Z" />
      <glyph unicode="&#xfc;" glyph-name="gid362" horiz-adv-x="618" d="M153-10q-52,0-86.5,22T19,74t-1,95L95,500H325L258,210q-6-25 4-37.5T292,160q15,0 24.5,7.5T333,190t12,36l63,274H638L522,0H317l30,191l8-22Q333,84 280.5,37T153-10ZM494,537q-44,0-71,16.5T396,609q0,59 31.5,83.5T514,717q44,0 70-16.5T610,646q0-60-31-84.5T494,537Zm-241,0q-44,0-71,16.5T155,609q0,59 31.5,83.5T273,717q44,0 70-16.5T369,646q0-60-31-84.5T253,537Z" />
      <glyph unicode="&#xfd;" glyph-name="gid381" horiz-adv-x="594" d="M66-215q-47,0-88.5,10T-87-180L-30-25Q5-54 62-54q25,0 44.5,7T135-26l3,5L50,500H284l-6-258l-6-120l47,121L422,500H662L378-4q-43-77-87.5-123.5t-98.5-67T66-215ZM392,730H601L451,553H290L392,730Z" />
      <glyph unicode="&#xfe;" glyph-name="gid326" horiz-adv-x="619" d="M-68-210L142,700H372L283,313l-12,4q16,89 65.5,141T456,510q45,0 78-20.5T585.5,428T604,325q0-58-15-117.5T544.5,99T474,20T380-10q-34,0-69,12.5t-58.5,45T229,138l24,49L162-210H-68ZM300,153q21,0 35.5,15.5t23.5,38t13.5,46T377,291q0,18-4,30.5T359.5,341T335,348q-18,0-32-14.5T279.5,296t-14-47T261,205q0-25 10-38.5T300,153Z" />
      <glyph unicode="&#xff;" glyph-name="gid383" horiz-adv-x="594" d="M66-215q-47,0-88.5,10T-87-180L-30-25Q5-54 62-54q25,0 44.5,7T135-26l3,5L50,500H284l-6-258l-6-120l47,121L422,500H662L378-4q-43-77-87.5-123.5t-98.5-67T66-215ZM514,537q-44,0-71,16.5T416,609q0,59 31.5,83.5T534,717q44,0 70-16.5T630,646q0-60-31-84.5T514,537Zm-241,0q-44,0-71,16.5T175,609q0,59 31.5,83.5T293,717q44,0 70-16.5T389,646q0-60-31-84.5T273,537Z" />
      <glyph unicode="&#x2013;" glyph-name="gid490" horiz-adv-x="710" d="M660,359L620,184H60l40,175H660Z" />
      <glyph unicode="&#x2014;" glyph-name="gid491" horiz-adv-x="1000" d="M950,359L910,184H60l40,175H950Z" />
      <glyph unicode="&#x2018;" glyph-name="gid497" horiz-adv-x="312" d="M202,314q-60,0-93,33T76,432q0,60 33,112t87,89.5T314,686l49-77q-37-10-69-25.5t-56.5-33T200,516l3-4q8,2 14,3.5t16,1.5q38,0 63-24.5T321,427q0-50-32.5-81.5T202,314Z" />
      <glyph unicode="&#x2019;" glyph-name="gid498" horiz-adv-x="312" d="M232,683q67,0 94-32.5T353,570q0-57-30-110t-83.5-92.5T114,311L65,388q37,10 69.5,25.5T191,447t37,34l-3,4q-7-3-13.5-4.5T194,479q-33,0-60,25.5T107,569q0,53 34.5,83.5T232,683Z" />
      <glyph unicode="&#x201a;" glyph-name="gid493" horiz-adv-x="312" d="M122,206q67,0 94-32.5T243,93q0-57-30-110t-83.5-92.5T4-166L-45-89Q-8-79 24.5-63.5T81-30T118,4l-3,4q-7-3-13.5-4.5T84,2Q51,2 24,27.5T-3,92q0,53 34.5,83.5T122,206Z" />
      <glyph unicode="&#x201c;" glyph-name="gid495" horiz-adv-x="590" d="M202,314q-60,0-93,33T76,432q0,60 33,112t87,89.5T314,686l49-77q-37-10-69-25.5t-56.5-33T200,516l3-4q8,2 14,3.5t16,1.5q38,0 63-24.5T321,427q0-50-32.5-81.5T202,314Zm278,0q-60,0-93,33t-33,85q0,60 33,112t87,89.5T592,686l49-77q-37-10-69-25.5t-56.5-33T478,516l3-4q8,2 14,3.5t16,1.5q38,0 63-24.5T599,427q0-50-32.5-81.5T480,314Z" />
      <glyph unicode="&#x201d;" glyph-name="gid496" horiz-adv-x="590" d="M232,683q67,0 94-32.5T353,570q0-57-30-110t-83.5-92.5T114,311L65,388q37,10 69.5,25.5T191,447t37,34l-3,4q-7-3-13.5-4.5T194,479q-33,0-60,25.5T107,569q0,53 34.5,83.5T232,683Zm278,0q67,0 94-32.5T631,570q0-57-30-110t-83.5-92.5T392,311l-49,77q37,10 69.5,25.5T469,447t37,34l-3,4q-7-3-13.5-4.5T472,479q-33,0-60,25.5T385,569q0,53 34.5,83.5T510,683Z" />
      <glyph unicode="&#x201e;" glyph-name="gid494" horiz-adv-x="590" d="M122,206q67,0 94-32.5T243,93q0-57-30-110t-83.5-92.5T4-166L-45-89Q-8-79 24.5-63.5T81-30T118,4l-3,4q-7-3-13.5-4.5T84,2Q51,2 24,27.5T-3,92q0,53 34.5,83.5T122,206Zm278,0q67,0 94-32.5T521,93q0-57-30-110t-83.5-92.5T282-166L233-89q37,10 69.5,25.5T359-30T396,4l-3,4q-7-3-13.5-4.5T362,2q-33,0-60,25.5T275,92q0,53 34.5,83.5T400,206Z" />
      <glyph unicode="&#x2022;" glyph-name="gid470" horiz-adv-x="430" d="M226,164q-74,0-119.5,35.5T61,299q0,91 47,144t138,53q75,0 117.5-36T406,361q0-90-46-143.5T226,164Z" />
      <glyph unicode="&#x2039;" glyph-name="gid501" horiz-adv-x="361" d="M385,461L180,218l3,122L292,69H107L27,265L196,461H385Z" />
      <glyph unicode="&#x203a;" glyph-name="gid502" horiz-adv-x="361" d="M-17,69L173,302l13-119L75,461H256l84-196L175,69H-17Z" />
    </font>
</defs>
</svg>
