<?xml version="1.0" standalone="no"?>
<!DOCTYPE svg PUBLIC "-//W3C//DTD SVG 1.1//EN" "http://www.w3.org/Graphics/SVG/1.1/DTD/svg11.dtd">
<svg xmlns="http://www.w3.org/2000/svg">
  <defs>
    <font id="WorkSans" horiz-adv-x="617">
      <font-face font-family="Work Sans" units-per-em="1000" panose-1="0 0 0 0 0 0 0 0 0 0" ascent="930" descent="-243" alphabetic="0" />
      <glyph unicode=" " glyph-name="gid576" horiz-adv-x="286" />
      <glyph unicode="!" glyph-name="gid536" horiz-adv-x="301" d="M239,660V447L220,215H81L62,447V660H239ZM150,159q46,0 71.5-22T247,75q0-39-25.5-61T150-8Q106-8 80,14T54,75q0,40 26,62t70,22Z" />
      <glyph unicode="&quot;" glyph-name="gid574" horiz-adv-x="447" d="M403,678L374,401H261V678H403Zm-198,0L176,401H63V678H205Z" />
      <glyph unicode="#" glyph-name="gid543" horiz-adv-x="688" d="M572,660L465,0H350L456,660H572Zm47-399V159H26V261H619ZM327,660L221,0H105L211,660H327ZM662,501V399H69V501H662Z" />
      <glyph unicode="$" glyph-name="gid586" horiz-adv-x="641" d="M327,0Q262,0 204.5,14.5T100,55T21,115l81,112q24-33 62.5-56t84-35T336,124q53,0 83,16t30,48q0,21-18,35t-62,24L234,279q-54,13-95.5,35t-65,56.5T50,452q0,61 33,108t95,73.5T327,660q89,0 157.5-27T603,551L525,450q-41,44-91.5,66.5T318,539q-40,0-65-8.5t-37-23T204,475q0-15 7.5-27t29-21.5T304,407l109-24q95-21 140-61.5T598,210q0-68-35-115T466.5,24T327,0ZM275-88V748H380V-88H275Z" />
      <glyph unicode="%" glyph-name="gid626" horiz-adv-x="938" d="M175,0L634,661H764L305,0H175Zm41,670q57,0 98.5-23.5T379,581t23-99t-23-99t-64.5-65.5T216,294q-56,0-97.5,23.5T53.5,383T30,482t23.5,99t65,65.5T216,670Zm0-114q-19,0-32-8.5t-20-25T157,482q0-23 7-40t20-25.5t32-8.5q20,0 33,8.5T269,442t7,40q0,24-7,40.5t-20,25T216,556ZM721,366q56,0 98-23.5T884,277t23-99T884,79T819,13.5T721-10T623,13.5T558,79t-23,99t23,99t65,65.5T721,366Zm0-114q-19,0-32.5-8.5t-20.5-25T661,178q0-23 7-40t20.5-25.5T721,104q20,0 33,8.5T774,138t7,40q0,24-7,40.5t-20,25T721,252Z" />
      <glyph unicode="&amp;" glyph-name="gid630" horiz-adv-x="646" d="M257-10q-69,0-121,21T55,72.5T25,172q0,27 8.5,56.5t29.5,57t58.5,48T217,364l31,9q43,26 66.5,46.5t33,40T357,503q0,26-15.5,40.5T299,558q-29,0-45-17t-16-45q0-16 5.5-31t22-37T313,371t81-91q50-54 84-89.5T537.5,136T587,111.5t55-2.5L627-10q-41,0-73,6T489,21.5T414,79T311,181q-69,72-112,119.5T133,381t-31.5,61T93,501q0,42 21.5,80.5T181,645t117,25q67,0 109.5-22t63-57.5T491,515q0-45-21-83t-65-66.5T290,318l-31-17q-34-20-53.5-37t-27-35.5T171,185t14-44t38.5-29.5T280,101q47,0 82,15t68,39l14,21q19,32 30.5,71t9.5,92l114-3q0-64-20.5-119.5T517,120L487,96q-33-49-91-77.5T257-10Z" />
      <glyph unicode="&apos;" glyph-name="gid575" horiz-adv-x="250" d="M205,678L176,401H63V678H205Z" />
      <glyph unicode="(" glyph-name="gid553" horiz-adv-x="391" d="M301,736l80-78q-56-51-92-108T236.5,425.5T220,273t16.5-153.5T289-5.5T381-113l-80-78Q186-114 126.5,1.5T67,273q0,154 59.5,270T301,736Z" />
      <glyph unicode=")" glyph-name="gid554" horiz-adv-x="391" d="M90-191L10-113Q67-62 102.5-5.5t51.5,125T170,272q0,85-16,153T102.5,550T10,658l80,78q114-77 174-193t60-271T264,1.5T90-191Z" />
      <glyph unicode="*" glyph-name="gid542" horiz-adv-x="588" d="M322,502l84-78l83-109l-98-71L313,357L266,460l28,21l28,21Zm-56,0l28-21l28-21L274,357L196,244L99,315l83,109l84,78ZM76,615l129-45l100-56l-11-33l-11-33L169,461L39,500L76,615ZM354,730l-3-137L329,481H294H259L237,593l-4,137H354ZM513,615l37-115L418,461L305,448l-11,33l-11,33l100,56l130,45Z" />
      <glyph unicode="+" glyph-name="gid614" horiz-adv-x="604" d="M370,589V60H235V589H370ZM553,386V264H51V386H553Z" />
      <glyph unicode="," glyph-name="gid532" horiz-adv-x="290" d="M142,172q37,0 61-17t35.5-44.5T250,49q0-45-19.5-86.5t-51-73T111-158L42-107Q70-96 93.5-79t41,37T161-1l-5,3q-5-4-13-6T122-6Q104-6 85.5,3t-31,27T42,76q0,32 14,53t37,32t49,11Z" />
      <glyph unicode="-" glyph-name="gid559" horiz-adv-x="528" d="M447,337V198H81V337H447Z" />
      <glyph unicode="." glyph-name="gid531" horiz-adv-x="290" d="M145,172q47,0 73.5-24T245,81q0-42-26.5-66T145-9Q99-9 72,15T45,81q0,43 27,67t73,24Z" />
      <glyph unicode="/" glyph-name="gid544" horiz-adv-x="468" d="M453,712L173-70H15L295,712H453Z" />
      <glyph unicode="0" glyph-name="gid477" horiz-adv-x="644" d="M322-10Q187-10 117.5,76T48,330t69.5,254T322,670t204.5-86T596,330T526.5,76T322-10Zm0,134q37,0 60,20.5t33.5,66T426,330T415.5,449.5t-33.5,66T322,536q-36,0-59.5-20.5t-34-66T218,330t10.5-119.5t34-66T322,124Z" />
      <glyph unicode="1" glyph-name="gid478" horiz-adv-x="431" d="M191,0V380q0,26 0.5,53.5T192,490q-33-30-73-52.5T35,407L19,549q26,2 55.5,13T133,589t52,34.5T220,660H357V0H191Z" />
      <glyph unicode="2" glyph-name="gid479" horiz-adv-x="596" d="M60,0V110q85,53 145,99t97.5,87T358,374t18,72q0,38-22.5,63.5T287,535q-47,0-73-34.5T186,400L39,445q2,74 35.5,124T166,644.5T298,670q65,0 112.5-18.5t77.5-49t44.5-68T547,458q0-64-33-119.5t-95.5-107T267,128v-1q17,1 40,2t48,1.5t45,0.5H555V0H60Z" />
      <glyph unicode="3" glyph-name="gid480" horiz-adv-x="593" d="M301-10Q195-10 124.5,31.5T27,153l158,68q5-36 18.5-57.5t36.5-31t54-9.5q28,0 47.5,9.5T372,160t11,43q0,26-10.5,42t-30,23T295,275q-13,0-24-0.5T246,272V384q8-1 16-1.5t19-0.5q47,0 67.5,19.5T369,463q0,36-20.5,55T291,537q-39,0-64-20.5T195,447L44,499q11,55 47,93t90.5,58T302,670q76,0 128-22t79-63t27-96q0-43-13.5-72t-34-47T447,343.5T412,333v-3q18,0 41-7t45-22.5T534.5,258T549,191q0-62-32.5-107T428,14.5T301-10Z" />
      <glyph unicode="4" glyph-name="gid481" horiz-adv-x="646" d="M365,0V145H43V253q9,16 23.5,39T101,345L316,660H517V263H618V145H517V0H365ZM181,263H367V463q0,20 1,41.5t2,43.5h-2q-10-21-23.5-43.5T319,464L202,293q-5-8-10-15t-11-15Z" />
      <glyph unicode="5" glyph-name="gid482" horiz-adv-x="583" d="M286-10q-86,0-149.5,33.5T30,133l151,75q11-40 35.5-64T290,120q31,0 53,11t34.5,32.5T390,216q0,30-11.5,50T345,296.5T290,307q-24,0-43-4.5t-34.5-13T184,268L54,292L96,660H512V527H221L204,395l-3-16h1q20,23 56,35t80,12q65,0 111-26t71-71t25-103q0-61-20.5-105.5T467.5,47t-83-43T286-10Z" />
      <glyph unicode="6" glyph-name="gid483" horiz-adv-x="616" d="M342,670q53,0 98.5-14T520,610t51-86L431,458q-10,35-34.5,55.5T331,534q-28,0-51.5-13.5T239,482t-25.5-61T205,340q0-3 0-6.5t0-9.5l2-6q12,30 37.5,50.5T303,400t66,11q61,0 109-24t75.5-68.5T581,211q0-68-31-117.5T464,17T333-10q-85,0-149.5,37.5t-100,112T48,324q0,118 39,194T192.5,632T342,670ZM330,295q-26,0-47.5-10.5t-34-30.5T236,207q0-26 13-46t34-31t47-11q45,0 69.5,23T424,207q0,28-11,47.5t-31.5,30T330,295Z" />
      <glyph unicode="7" glyph-name="gid484" horiz-adv-x="608" d="M33,660H576V538q-82-81-129.5-166.5T379.5,194T360,0H190q0,109 27.5,207.5t86,188.5T455,570l36-45H33V660Z" />
      <glyph unicode="8" glyph-name="gid485" horiz-adv-x="627" d="M313,668q75,0 130-22t85.5-62.5T559,487q0-53-26-91t-77-58v-1q60-20 93-58.5T582,180q0-58-32.5-100.5T457,13.5T313-10q-83,0-143,23.5t-92.5,66T45,180q0,60 33,98.5T171,337v1q-50,19-77,57.5T67,487q0,56 30.5,96.5T184,646t129,22Zm1-125q-40,0-64-20t-24-56q0-35 24-55.5T314,391t63.5,20.5T401,467q0,36-23.5,56T314,543Zm0-428q32,0 54.5,9.5T403,153t12,44q0,26-12,44.5t-35,28T314,279t-54.5-9.5t-35.5-28T212,197q0-25 12-44t35-28.5t55-9.5Z" />
      <glyph unicode="9" glyph-name="gid486" horiz-adv-x="616" d="M293,670q91,0 152.5-38.5T538,518t31-186q0-120-35.5-195.5T436,25.5T293-10q-86,0-149.5,34.5T49,134l154,61q8-35 30.5-55T296,120q31,0 54,12.5T387.5,169T409,227.5t7,79.5q0,4 0,7.5t0,8.5h-3q-11-30-36-49t-57-28.5T254,236q-62,0-110.5,25.5T68,333.5T41,442q0,71 31.5,121.5t88,78.5T293,670Zm0-132q-43,0-68.5-24T199,446q0-40 26-62.5T293,361q27,0 48.5,11T375,402.5T387,449q0,28-12,47.5T341.5,527T293,538Z" />
      <glyph unicode=":" glyph-name="gid533" horiz-adv-x="302" d="M151,510q47,0 73.5-24T251,419q0-42-26.5-66T151,329q-46,0-73,24T51,419q0,43 27,67t73,24Zm0-338q47,0 73.5-24T251,81q0-42-26.5-66T151-9Q105-9 78,15T51,81q0,43 27,67t73,24Z" />
      <glyph unicode=";" glyph-name="gid534" horiz-adv-x="302" d="M148,172q37,0 61-17t35.5-44.5T256,49q0-45-19.5-86.5t-51-73T117-158L48-107Q76-96 99.5-79t41,37T167-1l-5,3q-5-4-13-6T128-6Q110-6 91.5,3t-31,27T48,76q0,32 14,53t37,32t49,11Zm3,338q47,0 73.5-24T251,419q0-42-26.5-66T151,329q-46,0-73,24T51,419q0,43 27,67t73,24Z" />
      <glyph unicode="&lt;" glyph-name="gid620" horiz-adv-x="604" d="M553,5L63,223V370L553,588V427L195,297L553,167V5Z" />
      <glyph unicode="=" glyph-name="gid618" horiz-adv-x="604" d="M539,483V366H65V483H539Zm0-216V150H65V267H539Z" />
      <glyph unicode="&gt;" glyph-name="gid619" horiz-adv-x="604" d="M51,588L541,370V223L51,5V166L409,296L51,426V588Z" />
      <glyph unicode="?" glyph-name="gid538" horiz-adv-x="607" d="M308,670q74,0 132-20.5t91.5-62T565,484T539.5,383.5t-69-58T375,300l-10-86H215l1,152q63,6 99.5,18.5T367,416t15,45q0,23-9.5,39t-28,24T296,532q-43,0-68-25.5T196,431L32,488q13,52 45.5,93.5t89,65T308,670ZM292,159q45,0 70.5-22T388,75q0-39-25.5-61T292-8q-44,0-69.5,22T197,75q0,40 25.5,62T292,159Z" />
      <glyph unicode="@" glyph-name="gid629" horiz-adv-x="931" d="M466-185q-92,0-169.5,27t-135,80T72.5,52.5T41,229q0,96 33.5,176T168,543.5t141.5,90T488,665q89,0 162-27.5T776,559t81.5-121.5T886,281q0-78-20-133T812.5,59t-72-50T665-7Q596-7 560.5,27.5T527,117q-22-51-64-80T372,8q-44,0-78.5,22.5T239.5,96T220,198q0,51 15,98.5t43,86T346,443t90,22q29,0 55.5-10.5t46-32.5T564,364l22,92H732L667,171q-3-12-5-22.5T660,128q0-27 13-38t34-11q27,0 50.5,20.5t38,64T810,275q0,73-23,131.5t-66,100t-102,63T489,591q-80,0-146-25T228.5,493T154,378T128,229q0-85 27-148.5t74.5-106t110-64T473-111T589.5-93.5T669-54l37-62q-29-19-62-34.5t-76-25T466-185ZM438,117q30,0 52.5,24t35,61T538,276q0,25-8,42.5t-23,27T470,355q-25,0-44-14t-33-37t-21-50t-7-52q0-27 8.5-46t25-29T438,117Z" />
      <glyph unicode="A" glyph-name="gid1" horiz-adv-x="677" d="M673,0H496L450,149H224L177,0H4L236,660H442L673,0ZM256,266H418L337,533L256,266Z" />
      <glyph unicode="B" glyph-name="gid16" horiz-adv-x="684" d="M73,0V660H394q122-1 180-46.5T632,482q0-56-33-96.5T498,334v-1q76-10 113.5-52.5T649,178q0-85-60-131.5T409,0H73ZM239,121H380q47,0 70,19t23,55q0,35-23,53.5T380,267H239V121Zm0,269H364q92,0 92,72t-92,72H239V390Z" />
      <glyph unicode="C" glyph-name="gid17" horiz-adv-x="681" d="M658,189q-19-69-61-113.5t-100-65T369-10Q269-10 196,30.5T84,147T45,330T84,513T196,629.5T368,670q69,0 127-19.5T593,591t57-103L499,427q-14,62-45.5,85T374,535q-47,0-81.5-23t-53-68.5T221,330q0-67 17-113t51.5-69T375,125q48,0 81.5,26.5T502,233l156-44Z" />
      <glyph unicode="D" glyph-name="gid24" horiz-adv-x="718" d="M353,660q155,0 237.5-86T673,330T590.5,86T353,0H73V660H353ZM336,130q84,0 122.5,50.5T497,330T458.5,479.5T336,530H245V130h91Z" />
      <glyph unicode="E" glyph-name="gid34" horiz-adv-x="631" d="M73,0V660H587V527H245V393H517V268H245V133H600V0H73Z" />
      <glyph unicode="F" glyph-name="gid50" horiz-adv-x="612" d="M586,527H245V387H517V254H245V0H73V660H586V527Z" />
      <glyph unicode="G" glyph-name="gid51" horiz-adv-x="723" d="M346-10q-88,0-156.5,39T83,144T45,329q0,107 40,183T199.5,629T375,670q112,0 181-40.5T663,501L504,438q-13,51-46,74t-82,23t-84-23.5t-53-69T221,330q0-70 18.5-117t55-69.5T385,121q29,0 53,7t42,20.5t28,34T518,231v10H367V356H664V0H547L534,155l28-24Q541,63 486.5,26.5T346-10Z" />
      <glyph unicode="H" glyph-name="gid59" horiz-adv-x="742" d="M669,660V0H497V660H669Zm-424,0V0H73V660H245ZM589,399V266H157V399H589Z" />
      <glyph unicode="I" glyph-name="gid64" horiz-adv-x="318" d="M245,660V0H73V660H245Z" />
      <glyph unicode="J" glyph-name="gid78" horiz-adv-x="618" d="M557,660V254q0-125-72-194.5T281-10q-97,0-156,34.5t-81,96T35,261l168,30q-12-91 8.5-128.5T287,125q54,0 76,36t22,111V660H557Z" />
      <glyph unicode="K" glyph-name="gid80" horiz-adv-x="693" d="M672,660L362,289l-11,26L194,124L161,263L481,660H672Zm-427,0V0H73V660H245ZM418,442L684,0H489L289,346l129,96Z" />
      <glyph unicode="L" glyph-name="gid82" horiz-adv-x="602" d="M245,133H576V0H73V660H245V133Z" />
      <glyph unicode="M" glyph-name="gid92" horiz-adv-x="910" d="M837,660V0H685V303l5,203h-2L525,0H386L223,506h-2l5-203V0H73V660H318L422,324l37-140h2l38,139L602,660H837Z" />
      <glyph unicode="N" glyph-name="gid94" horiz-adv-x="741" d="M668,660V0H477L272,357l-50,98h-1l4-122V0H73V660H264L469,303l50-98h1l-4,122V660H668Z" />
      <glyph unicode="O" glyph-name="gid105" horiz-adv-x="737" d="M369,670q100,0 172.5-40.5T653,513t39-183T653,147T541.5,30.5T369-10T196,30.5T84,147T45,330T84,513T196,629.5T369,670Zm0-135q-48,0-81-23t-50-68.5T221,330q0-67 17-113t50-69t81-23t80.5,23T499,217t17,113q0,68-17,113.5T449.5,512T369,535Z" />
      <glyph unicode="P" glyph-name="gid128" horiz-adv-x="668" d="M376,660q81,0 138-26t87-75t30-119T601,321t-87-75T376,220H245V0H73V660H376ZM349,349q54,0 81.5,22.5T458,440t-27.5,68.5T349,531H245V349H349Z" />
      <glyph unicode="Q" glyph-name="gid130" horiz-adv-x="737" d="M536-203q-66,0-116,22t-78,64T314-13q0,20 5.5,42T337,72L437,95q-10-22-15-40t-5-33q0-39 16-60.5t43-30T537-77q43,0 72.5,9T658-43l26-119q-26-20-67-30.5T536-203ZM369,670q100,0 172.5-40.5T653,513t39-183T653,147T541.5,30.5T369-10T196,30.5T84,147T45,330T84,513T196,629.5T369,670Zm0-135q-48,0-81-23t-50-68.5T221,330q0-67 17-113t50-69t81-23t80.5,23T499,217t17,113q0,68-17,113.5T449.5,512T369,535Z" />
      <glyph unicode="R" glyph-name="gid131" horiz-adv-x="689" d="M388,660q118,0 183.5-55.5T637,457q0-101-65-154T389,250l-16-9H242V0H73V660H388ZM364,363q50,0 75,20t25,64q0,43-25,63t-75,20H242V363H364Zm101-36L676,0H486L317,289l148,38Z" />
      <glyph unicode="S" glyph-name="gid139" horiz-adv-x="645" d="M331,670q92,0 162.5-28.5T616,558L533,447q-43,45-92.5,67.5T328,537q-37,0-60-8t-33-22t-10-32q0-21 19.5-35.5T308,415l111-25q99-23 145-67t46-117q0-70-36-118.5t-99-73T331-10Q265-10 205,4.5T97,46T16,108L99,223q25-29 61.5-51.5t80-35.5T329,123q35,0 58.5,7T422,151t11,33q0,21-15,35.5T361,244L239,271q-56,13-99.5,34.5T71,363.5T46,455q0,62 34,110.5T178,642t153,28Z" />
      <glyph unicode="T" glyph-name="gid152" horiz-adv-x="653" d="M628,660V527H413V0H241V527H25V660H628Z" />
      <glyph unicode="U" glyph-name="gid159" horiz-adv-x="710" d="M650,660V269q0-140-74.5-209.5T355-10Q210-10 135,59.5T60,269V660H233V266q0-71 30.5-106T355,125q62,0 92.5,35T478,266V660H650Z" />
      <glyph unicode="V" glyph-name="gid175" horiz-adv-x="683" d="M677,660L443,0H241L6,660H187L308,261l36-130l35,128L502,660H677Z" />
      <glyph unicode="W" glyph-name="gid176" horiz-adv-x="997" d="M200,0L10,660H193L305,139L423,660H579L700,140L810,660H987L796,0H609L531,320L501,481h-2L470,320L393,0H200Z" />
      <glyph unicode="X" glyph-name="gid181" horiz-adv-x="663" d="M655,0H450L326,211L206,0H11L235,332L24,660H227L340,458L454,660H641L430,337L655,0Z" />
      <glyph unicode="Y" glyph-name="gid182" horiz-adv-x="657" d="M647,660L414,241V0H242V241L9,660H187l93-181l49-110l50,110l93,181H647Z" />
      <glyph unicode="Z" glyph-name="gid192" horiz-adv-x="634" d="M172,72l-30,58H603V0H37V124L458,588l30-58H44V660H591V536L172,72Z" />
      <glyph unicode="[" glyph-name="gid557" horiz-adv-x="391" d="M365,594H232V-49H365V-168H85V713H365V594Z" />
      <glyph unicode="\" glyph-name="gid545" horiz-adv-x="468" d="M15,712H173L453-70H295L15,712Z" />
      <glyph unicode="]" glyph-name="gid558" horiz-adv-x="391" d="M26-49H159V594H26V713H306V-168H26V-49Z" />
      <glyph unicode="^" glyph-name="gid624" horiz-adv-x="612" d="M25,355L234,724H378L588,355H438L306,612L175,355H25Z" />
      <glyph unicode="_" glyph-name="gid563" horiz-adv-x="539" d="M539-66V-201H0V-66H539Z" />
      <glyph unicode="`" glyph-name="gid676" horiz-adv-x="500" d="M296,738l67-173H239L138,738H296Z" />
      <glyph unicode="a" glyph-name="gid253" horiz-adv-x="579" d="M340,317q0,35-19.5,55.5T268,393t-56.5-16.5T179,318L35,352q14,72 74,115t169,43q73,0 124.5-21.5t79-64T509,320V137q0-39 35-39q18,0 29,4L563,5Q533-9 490-9Q451-9 421,3.5t-47,38T357,106v6l19,7q0-43-25.5-72t-66-43T200-10q-51,0-89,16T52.5,52.5T32,128q0,54 32.5,89.5T167,267l189,39l-1-90l-96-20q-30-6-44.5-17.5T200,144q0-22 16-33t38-11q17,0 32.5,5T314,120.5T333,147t7,38V317Z" />
      <glyph unicode="b" glyph-name="gid268" horiz-adv-x="627" d="M382-10q-49,0-86.5,22T234,72.5T203,160l16,21L210,0H61V712H231V343l-16,24q14,62 57,102.5T388,510q58,0 103.5-31t71-89.5T588,248q0-81-26-139T490,20.5T382-10ZM323,115q44,0 69,32.5T417,250T392,352.5T323,385q-29,0-49.5-16.5T242,322t-11-73t11-73t32-45.5T323,115Z" />
      <glyph unicode="c" glyph-name="gid269" horiz-adv-x="567" d="M298,510q76,0 126.5-21.5t79-57T539,355L382,303q-7,43-25.5,64.5T303,389q-32,0-53.5-14.5t-32.5-46T206,248t12-79.5t34-44T304,111q25,0 41.5,9.5T373,148t14,44l153-49q-7-44-37.5-78.5T422,10T305-10q-82,0-143,30.5t-94,89T35,250T68,390.5t92.5,89T298,510Z" />
      <glyph unicode="d" glyph-name="gid276" horiz-adv-x="627" d="M245-10q-62,0-108.5,30.5T64.5,109T39,248q0,84 26.5,142t74,89T249,510q68,0 109.5-41.5T412,363l-16-21V712H566V0H414L403,170l20-15q-6-50-30.5-87t-62-57.5T245-10Zm59,125q29,0 49.5,15.5T385,177t11,76q0,42-10.5,71.5t-31,45T305,385q-44,0-69.5-32.5T210,250t25-102.5T304,115Z" />
      <glyph unicode="e" glyph-name="gid284" horiz-adv-x="579" d="M305-10q-83,0-143.5,31T68,110T35,250T68,390t92.5,89T297,510q79,0 134.5-30.5t84.5-84T545,273q0-18-1-36t-3-30H145v91H466l-81-31q0,60-21.5,92T297,391q-32,0-54.5-15t-34-47T197,247q0-49 13-79.5t37-44T305,110q38,0 60.5,15T399,167l136-45q-14-43-48.5-72.5T404.5,5T305-10Z" />
      <glyph unicode="f" glyph-name="gid301" horiz-adv-x="415" d="M294,726q41,0 72-8.5T412,698L395,592q-11,7-25,11t-35,4q-35,0-57.5-16T255,535V470l10-28V0H95V546q0,48 15.5,82T154,684t64,32t76,10ZM407,500V379H15V500H407Z" />
      <glyph unicode="g" glyph-name="gid302" horiz-adv-x="560" d="M545,634l14-114q-6,2-12,2.5T535,523q-44,0-65.5-21.5T448,448l-60,22q0,41 15,79t46.5,62T529,635q3,0 7.5,0t8.5-1ZM373,111q87,0 133.5-36.5T553-30q0-62-34-103t-95.5-61.5T278-215q-136,0-196,34T22-89q0,42 34,68T169,7L165-9Q104-1 74,27T44,103t38,78t101,33l62-29H229q-39-2-55-13t-16-27q0-17 14-25.5t42-8.5H373ZM279-105q48,0 79.5,6.5t47.5,18T422-54T411-30.5T371-22H192q-19,0-30.5-10T150-57q0-23 34-35.5T279-105Zm6,615q76,0 130-20t82.5-57.5T526,340q0-54-28.5-92T415,190.5T285,171q-119,0-180.5,44T43,340q0,55 28.5,92.5T154,490t131,20Zm0-97q-33,0-53.5-19T211,340q0-34 20.5-53T285,268q32,0 53,19t21,53q0,35-21,54t-53,19Z" />
      <glyph unicode="h" glyph-name="gid310" horiz-adv-x="620" d="M61,0V712H231V409q22,50 63,75.5T389,510q52,0 90.5-20T540,431t22-98V0H392V286q0,54-19.5,74.5T321,381q-24,0-45-12t-33-38t-12-68V0H61Z" />
      <glyph unicode="i" glyph-name="gid315" horiz-adv-x="291" d="M146,558q-52,0-75.5,19.5T47,639q0,43 23.5,62.5T146,721q51,0 75-19.5T245,639q0-42-24-61.5T146,558Zm85-58V0H61V500H231Z" />
      <glyph unicode="j" glyph-name="gid330" horiz-adv-x="291" d="M146,558q-52,0-75.5,19.5T47,639q0,43 23.5,62.5T146,721q51,0 75-19.5T245,639q0-42-24-61.5T146,558Zm85-58V-28q0-68-23.5-109T141-196.5T37-215q-40,0-73,8.5T-94-183L-70-73q11-8 27-13.5T-6-92q30,0 48.5,17.5T61-13V500H231Z" />
      <glyph unicode="k" glyph-name="gid333" horiz-adv-x="622" d="M610,500L370,244l-32-9L195,75l-1,174L421,500H610ZM231,712V0H61V712H231ZM396,350L621,0H433L285,250L396,350Z" />
      <glyph unicode="l" glyph-name="gid336" horiz-adv-x="327" d="M229,712V170q0-33 11-47t37-14q15,0 25,2t24,6L315,15Q297,4 268-3t-57-7Q131-10 95,27T59,148V712H229Z" />
      <glyph unicode="m" glyph-name="gid345" horiz-adv-x="941" d="M61,0V500H213l5-97q24,53 67.5,80T386,510q56,0 97-25t61-74q16,33 41.5,55T644,499t68,11q50,0 88-19.5t60.5-59T883,333V0H713V294q0,48-18.5,67T645,380q-25,0-45.5-12.5T568,330t-11-63V0H387V294q0,48-19,67t-49,19q-23,0-43.5-12T243,330.5T231,264V0H61Z" />
      <glyph unicode="n" glyph-name="gid347" horiz-adv-x="620" d="M61,0V500H213l9-172l-19,19q10,54 35.5,90t64,54.5T389,510q52,0 90.5-20T540,431t22-98V0H392V288q0,52-20,72t-51,20q-24,0-45-11.5T243,332t-12-67V0H61Z" />
      <glyph unicode="o" glyph-name="gid357" horiz-adv-x="599" d="M299,510q79,0 138.5-30.5t93-89T564,250T530.5,109.5t-93-89T299-10q-77,0-137,30.5t-93.5,89T35,250T68.5,390.5t93.5,89T299,510Zm0-121q-29,0-50-14t-32-45t-11-80t11-79.5t32-45T299,111q30,0 51,14.5t32,45T393,250t-11,80t-32,45t-51,14Z" />
      <glyph unicode="p" glyph-name="gid380" horiz-adv-x="627" d="M61-210V500H214l9-181l-20,21q7,50 31,88t62,60t87,22q62,0 108-30.5t71.5-88T588,252T562,111T489.5,21T381-10q-68,0-110,40.5T215,133l16,24V-210H61ZM323,115q44,0 69,32.5T417,250T392.5,352.5T324,385q-28,0-49-15.5T242.5,324T231,250q0-42 10.5-72.5T273,131t50-16Z" />
      <glyph unicode="q" glyph-name="gid382" horiz-adv-x="627" d="M396-210V167l18-22q-6-46-29-81T327,9.5T245-10q-61,0-107.5,31T65,111T39,252T65.5,391.5t74,88T248,510q49,0 86.5-22t61-61T424,337l-20-16l9,179H566V-210H396ZM304,115q29,0 49.5,16T385,177.5T396,251q0,45-11,74.5T353.5,370T305,385q-44,0-69.5-32.5T210,250t25-102.5T304,115Z" />
      <glyph unicode="r" glyph-name="gid383" horiz-adv-x="430" d="M61,0V500H211l7-108q19,56 56.5,87T370,510q19,0 32.5-3t21.5-8L407,359q-10,4-25.5,6.5T344,368q-30,0-56-13t-41.5-38.5T231,252V0H61Z" />
      <glyph unicode="s" glyph-name="gid391" horiz-adv-x="533" d="M271-10q-75,0-139.5,24.5T25,85l80,94q25-32 66.5-53.5T264,104q31,0 51,9t20,28q0,14-10,22.5T285,178l-70,14q-94,19-133.5,56.5T42,347q0,41 25,78.5t77,61T277,510q76,0 134-22t92-64l-81-92q-24,30-62,47t-76,17q-24,0-40.5-4.5T219,379t-8-20q0-13 12.5-22.5T270,320l91-18q77-14 111-51t34-89q0-49-26-88T402,12.5T271-10Z" />
      <glyph unicode="t" glyph-name="gid404" horiz-adv-x="437" d="M270,659V178q0-36 17.5-51.5T336,111q24,0 41.5,5.5T409,133L427,28Q402,10 364,0T286-10q-57,0-98.5,16t-64,51T100,150V612l170,47ZM419,500V379H14V500H419Z" />
      <glyph unicode="u" glyph-name="gid412" horiz-adv-x="619" d="M230-10q-51,0-89.5,17.5T80,64T58,166V500H228V206q0-48 19-67t54-19q18,0 34,6.5t28,20t18.5,35T388,232V500H558V0H406l-5,94q-24-53-67-78.5T230-10Z" />
      <glyph unicode="v" glyph-name="gid428" horiz-adv-x="561" d="M386,500H562L382,0H179L-1,500H178L281,119L386,500Z" />
      <glyph unicode="w" glyph-name="gid429" horiz-adv-x="900" d="M716,500H894L743,0H539L448,307L360,0H157L5,500H184l84-369l98,369H534l97-369l85,369Z" />
      <glyph unicode="x" glyph-name="gid434" horiz-adv-x="589" d="M208,500L330,275l56,5L583,0H388L262,228H203L12,500H208Zm371,0L390,230l-63,4L196,0H5L206,282l58-8L388,500H579Z" />
      <glyph unicode="y" glyph-name="gid435" horiz-adv-x="563" d="M564,500L382,0q-28-79-61-126t-78-68T135-215q-42,0-77,9T-3-181L31-66Q49-79 69-84.5T120-90q29,0 47.5,10T197-42l13,31L152,125L2,500H189l77-285l24-106l28,110l77,281H564Z" />
      <glyph unicode="z" glyph-name="gid445" horiz-adv-x="516" d="M35,0V104L234,330l53,53l-79-2H37V500H475V396L279,172l-55-55l88,2H484V0H35Z" />
      <glyph unicode="{" glyph-name="gid555" horiz-adv-x="420" d="M393-191q-86,0-139,16.5T177-120T153-21V113q0,56-25.5,80T41,217V327q61,0 86.5,24T153,431V566q0,62 24,99t77,54t139,17V628q-55,0-79.5-19.5T289,547V396q0-50-24.5-80T192,273q48-14 72.5-44T289,149V-1q0-44 24.5-63T393-83V-191Z" />
      <glyph unicode="|" glyph-name="gid639" horiz-adv-x="320" d="M235,713V-168H85V713H235Z" />
      <glyph unicode="}" glyph-name="gid556" horiz-adv-x="420" d="M27,736q86,0 139-17t77-54t24-99V431q0-56 25.5-80T379,327V217q-61,0-86.5-24T267,113V-22q0-61-24-98.5t-77-54T27-191V-83q55,0 79.5,19T131-2V149q0,50 25,80t72,43q-47,14-72,44t-25,80V546q0,43-24.5,62.5T27,628V736Z" />
      <glyph unicode="~" glyph-name="gid622" horiz-adv-x="597" d="M554,425q-5-95-45-144.5T393,231q-35,0-59.5,9.5T291,263t-33.5,22.5T223,295q-21,0-32-15t-16-44H43q5,95 45,144.5T204,430q35,0 59.5-9.5T306,398t34-22.5t34-9.5q21,0 32,14.5T422,425H554Z" />
      <glyph unicode="&#xa0;" glyph-name="gid577" horiz-adv-x="286" />
      <glyph unicode="&#xa1;" glyph-name="gid537" horiz-adv-x="298" d="M61-160V53L80,285H219L238,53V-160H61Zm88,501q-44,0-70,22T53,425q0,39 26,61t70,22q46,0 71.5-22T246,425q0-40-25.5-62T149,341Z" />
      <glyph unicode="&#xa2;" glyph-name="gid583" horiz-adv-x="575" d="M314-10q-85,0-146,30.5t-93.5,89T42,250T74.5,390.5t92.5,89T308,510q75,0 124-21t76.5-56.5T546,355L419,309q-9,46-35.5,70.5T315,404q-57,0-91-36.5T190,248q0-55 16.5-88.5t45-48.5T315,96q31,0 52.5,10.5T403,137t20,50l125-43q-10-46-40.5-80.5T428,9.5T314-10Zm-58-90V600H361V-100H256Z" />
      <glyph unicode="&#xa3;" glyph-name="gid601" horiz-adv-x="621" d="M52,270v78H483V270H52ZM152-10q-51,0-85.5,24T32,83q0,30 17,50.5T95,165t65,11q43,0 74-7t54.5-17.5T332,130t41.5-18t49.5-7q34,0 50,20t15,63l108-12q6-56-10-97.5t-50.5-65T454-10q-42,0-74.5,12t-60,30t-53,36.5T214.5,99T157,111q-20,0-30.5-7T116,83t11.5-21.5T156,54q26,0 40,12t19.5,36t5.5,58q0,43-15,78.5T158,324q-20,33-32,57.5T109,429t-5,47q0,55 29,99t82.5,69.5T342,670q94,0 152.5-43.5T572,495L435,442q-12,54-35.5,79.5T335,547q-38,0-62.5-21T248,467q0-14 4-28.5T265,405t23-47q22-39 35.5-79.5T337,201q0-39-11.5-76.5T291,56.5T233.5,8T152-10Z" />
      <glyph unicode="&#xa4;" glyph-name="gid585" horiz-adv-x="646" d="M324,537q63,0 110.5-26.5t74.5-73T536,330q0-62-27-109t-74.5-73.5T324,121T212.5,147.5T137,221T110,330q0,61 27,107.5t75.5,73T324,537Zm0-120q-38,0-61-24t-23-63q0-40 23-64t61-24q37,0 60,24t23,64q0,39-23,63t-60,24ZM134,616L265,469l-81-81L36,518l98,98Zm49-345l81-81L134,43L36,140L183,271Zm283-4L610,140L512,43L384,185l82,82Zm46,349l98-98L468,389l-83,83L512,616Z" />
      <glyph unicode="&#xa5;" glyph-name="gid603" horiz-adv-x="666" d="M251,0V121H60v58H251v66H60v60H177l60-4L19,660H195l94-197l43-102h2l44,103l93,196H647L429,301l60,4H607V245H415V179H607V121H415V0H251Z" />
      <glyph unicode="&#xa6;" glyph-name="gid640" horiz-adv-x="320" d="M235,713V333H85V713H235Zm0-501V-168H85V212H235Z" />
      <glyph unicode="&#xa7;" glyph-name="gid632" horiz-adv-x="623" d="M422,99l-59,82q40,6 65,14.5T465,217t12,31q0,23-19,36.5T402,305L230,337q-46,9-78.5,30.5T102,420T85,487q0,55 29,96t82,64t125,23q81,0 135.5-24.5T552,573l-90-80q-28,34-66,51t-83,17q-51,0-74.5-15.5T215,506q0-14 7.5-24.5t28.5-19T311,446l99-18q67-12 108.5-32.5t60-49.5T597,277q0-50-21.5-87T515,130.5T422,99ZM304-110q-84,0-150.5,26T51-12l89,82q24-34 69-53.5T307-3q46,0 76,13.5T413,51q0,19-17,29.5T336,99L184,131q-54,11-89.5,31T41,213.5T23,288q0,49 22,81t59.5,52T189,451l53-81q-34-8-56-17t-32.5-20.5T143,305q0-23 20-37t64-22l155-29q79-15 117.5-51.5T538,67q0-55-28-95T429.5-89T304-110Z" />
      <glyph unicode="&#xa8;" glyph-name="gid675" horiz-adv-x="500" d="M139,710q41,0 63.5-20T225,633q0-36-22.5-56.5T139,556q-39,0-61.5,20.5T55,633q0,37 22.5,57T139,710Zm220,0q40,0 63-20t23-57q0-36-23-56.5T359,556q-39,0-61.5,20.5T275,633q0,37 22.5,57T359,710Z" />
      <glyph unicode="&#xa9;" glyph-name="gid633" horiz-adv-x="772" d="M386-10Q286-10 208,33.5T86,153.5T42,330q0,101 44,177T208,626.5T386,670q101,0 178.5-43.5T686,507t44-177q0-100-44-176.5T564.5,33.5T386-10Zm0,84q77,0 134.5,32.5t90,90.5T643,330T610.5,463t-90,90.5T386,586q-76,0-134-32.5T161.5,463T129,330t32.5-133T252,106.5T386,74Zm6,64q-91,0-141,52T201,329q0,88 50,139.5T392,520q68,0 111.5-30T565,410l-99-47q-10,23-27,32t-42,9q-34,0-54-19.5T323,329t20-55.5T397,254q25,0 44,9.5T470,299l94-45q-24-60-64.5-88T392,138Z" />
      <glyph unicode="&#xaa;" glyph-name="gid475" horiz-adv-x="438" d="M141,306q-55,0-85,25.5T26,397q0,44 27.5,66T142,497l110,22V468l-61-15q-23-5-33.5-15T147,412q0-15 10.5-23t26.5-8q13,0 26,5t21,16.5t8,31.5v95q0,23-12,35.5T193,577q-21,0-38-11.5T131,525L29,549q8,51 51,82t117,31q84,0 126-33.5T365,527V412q0-16 7.5-23t19.5-7q14,0 20,3l-9-67q-11-6-24-9t-32-3q-41,0-65.5,21T257,390v19l16-5q-4-26-21-48.5t-45-36T141,306ZM34,151v89H399V151H34Z" />
      <glyph unicode="&#xab;" glyph-name="gid570" horiz-adv-x="585" d="M308,461L187,265L308,69H160L35,265L160,461H308Zm242,0L429,265L550,69H402L277,265L402,461H550Z" />
      <glyph unicode="&#xac;" glyph-name="gid623" horiz-adv-x="604" d="M544,314V97H407V314H544Zm0,72V264H60V386H544Z" />
      <glyph unicode="&#xad;" glyph-name="gid560" horiz-adv-x="528" d="M447,337V198H81V337H447Z" />
      <glyph unicode="&#xae;" glyph-name="gid634" horiz-adv-x="772" d="M386-10Q286-10 208,33.5T86,153.5T42,330q0,101 44,177T208,626.5T386,670q101,0 178.5-43.5T686,507t44-177q0-100-44-176.5T564.5,33.5T386-10Zm46,161L357,295l87,23L553,151H432ZM386,74q77,0 134.5,32.5t90,90.5T643,330T610.5,463t-90,90.5T386,586q-76,0-134-32.5T161.5,463T129,330t32.5-133T252,106.5T386,74ZM238,151V515H414q38,0 67-15t46.5-42T545,396q0-57-39-88.5T402,276H340V151H238ZM340,345h50q24,0 38,10t14,33q0,24-14,33.5T390,431H340V345Z" />
      <glyph unicode="&#xaf;" glyph-name="gid683" horiz-adv-x="500" d="M432,674V569H68V674H432Z" />
      <glyph unicode="&#xb0;" glyph-name="gid636" horiz-adv-x="495" d="M248,298q-62,0-107,23T71,386T46,484t25,98t70,65t107,23t107-23t70-65t25-98t-25-98t-70-65T248,298Zm0,109q35,0 56.5,22T326,485t-21.5,55.5T248,562t-57-21.5T169,485t22-56t57-22Z" />
      <glyph unicode="&#xb1;" glyph-name="gid621" horiz-adv-x="604" d="M364,652V185H241V652H364ZM553,477V360H51V477H553Zm0-362V1H51V115H553Z" />
      <glyph unicode="&#xb2;" glyph-name="gid519" horiz-adv-x="392" d="M29,333v77q24,14 46,26.5T118,462q42,29 68,52t37.5,43T235,595q0,21-11.5,33T188,640q-27,0-40.5-19.5T134,564L15,589q2,67 49.5,106.5T191,735q63,0 101-19.5t55.5-49T365,605q0-25-11-48.5t-32.5-46T268,466q-17-11-36.5-20.5T191,428v-2q15,2 42,3t49,1h88V333H29Z" />
      <glyph unicode="&#xb3;" glyph-name="gid520" horiz-adv-x="379" d="M194,735q72,0 112.5-29.5T347,622q0-26-10.5-46T307,545.5T263,533v-3q29,0 49.5-10T344,491.5T355,445q0-35-23-62t-62-41.5T180,327q-72,0-114.5,28.5T9,434l114,35q3-27 18.5-40T183,416q24,0 37,11.5T233,459q0,21-14,29t-42,8q-4,0-8,0t-9-1v65q4-1 8-1t7,0q25,0 38,10.5T226,600q0,21-11.5,31T182,641q-22,0-36-12t-18-38L19,623q10,55 57.5,83.5T194,735Z" />
      <glyph unicode="&#xb4;" glyph-name="gid677" horiz-adv-x="540" d="M225,738H383L282,565H158l67,173Z" />
      <glyph unicode="&#xb5;" glyph-name="gid625" horiz-adv-x="621" d="M61-210V500H231V209q0-48 18.5-68.5T303,120q26,0 45.5,12t31,38T391,238V500H561V0H411l-6,91q-21-50-58.5-75T261-9q-21,0-40,5T187,13l44,62V-210H61Z" />
      <glyph unicode="&#xb6;" glyph-name="gid631" horiz-adv-x="748" d="M297-100V177q-75,1-134.5,28.5t-94,81T34,418q0,79 36,133t100,81.5T318,660H682V-100H544V530H436V-100H297Zm-3,407V530q-40,0-67.5-13.5t-42-38.5T170,419q0-35 14.5-60t42-38.5T294,307Z" />
      <glyph unicode="&#xb7;" glyph-name="gid540" horiz-adv-x="274" d="M137,444q47,0 73.5-24T237,353q0-42-26.5-66T137,263q-46,0-73,24T37,353q0,43 27,67t73,24Z" />
      <glyph unicode="&#xb8;" glyph-name="gid684" horiz-adv-x="500" d="M178,10l41,27Q297,26 334-5.5T371-90q0-56-37.5-90.5T231-215q-39,0-62,8.5T128-186l28,81q12-7 26-12.5t34-5.5q26,0 42,15t16,42q0,23-21,41T178,10Z" />
      <glyph unicode="&#xb9;" glyph-name="gid518" horiz-adv-x="298" d="M152,730H256V333H133V549q0,12 1,29.5t2,35.5q-24-18-53.5-31T19,565V666q22,3 48.5,13t50,23.5T152,730Z" />
      <glyph unicode="&#xba;" glyph-name="gid476" horiz-adv-x="422" d="M212,306q-83,0-132.5,47T30,484T79.5,615T212,662q82,0 131.5-47T393,484T343.5,353T212,306ZM36,151v89H386V151H36ZM212,388q29,0 41.5,23T266,484t-12.5,73T212,580q-30,0-43-23t-13-73t13-73t43-23Z" />
      <glyph unicode="&#xbb;" glyph-name="gid571" horiz-adv-x="585" d="M278,69L398,265L278,461H425L551,265L425,69H278ZM35,69L156,265L35,461H183L308,265L183,69H35Z" />
      <glyph unicode="&#xbc;" glyph-name="gid529" horiz-adv-x="872" d="M152,665H256V268H133V484q0,12 1,29.5t2,35.5q-24-18-53.5-31T19,500V601q22,3 48.5,13t50,23.5T152,665ZM125,0L602,661H722L245,0H125ZM858,162V81H797V-4H690V81H489v56L651,394H797V162h61Zm-263,0h95v78q0,20 1,41t2,39h-3q-6-13-14-29.5T660,261l-65-99Z" />
      <glyph unicode="&#xbd;" glyph-name="gid528" horiz-adv-x="941" d="M152,665H256V268H133V484q0,12 1,29.5t2,35.5q-24-18-53.5-31T19,500V601q22,3 48.5,13t50,23.5T152,665ZM125,0L602,661H722L245,0H125ZM578-4V73q24,14 46,26.5T667,125q42,29 68,52t37.5,43T784,258q0,21-11.5,33T737,303q-27,0-40.5-19.5T683,227L564,252q2,67 49.5,106.5T740,398q63,0 101-19.5t55.5-49T914,268q0-25-11-48.5t-32.5-46T817,129q-17-11-36.5-20.5T740,91V89q15,2 42,3t49,1h88V-4H578Z" />
      <glyph unicode="&#xbe;" glyph-name="gid530" horiz-adv-x="954" d="M194,670q72,0 112.5-29.5T347,557q0-26-10.5-46T307,480.5T263,468v-3q29,0 49.5-10T344,426.5T355,380q0-35-23-62t-62-41.5T180,262q-72,0-114.5,28.5T9,369l114,35q3-27 18.5-40T183,351q24,0 37,11.5T233,394q0,21-14,29t-42,8q-4,0-8,0t-9-1v65q4-1 8-1t7,0q25,0 38,10.5T226,535q0,21-11.5,31T182,576q-22,0-36-12t-18-38L19,558q10,55 57.5,83.5T194,670ZM206,0L683,661H803L326,0H206ZM940,162V81H879V-4H772V81H571v56L733,394H879V162h61Zm-263,0h95v78q0,20 1,41t2,39h-3q-6-13-14-29.5T742,261l-65-99Z" />
      <glyph unicode="&#xbf;" glyph-name="gid539" horiz-adv-x="605" d="M298-169q-74,0-132,20.5t-91.5,62T41,17T67,117.5T136,176t95,25l11,86H391V134q-64-5-100-17.5T240,85T225,40q0-23 9-39t28-24t48-8q44,0 69,25.5T410,69L574,13q-12-53-45-94t-89.5-64.5T298-169Zm16,511q-45,0-70.5,22T218,425t25.5,61.5T314,509t70.5-22.5T410,425t-25.5-61T314,342Z" />
      <glyph unicode="&#xc0;" glyph-name="gid7" horiz-adv-x="677" d="M673,0H496L450,149H224L177,0H4L236,660H442L673,0ZM256,266H418L337,533L256,266Zm91,620l61-163H284L195,886H347Z" />
      <glyph unicode="&#xc1;" glyph-name="gid2" horiz-adv-x="677" d="M673,0H496L450,149H224L177,0H4L236,660H442L673,0ZM256,266H418L337,533L256,266Zm71,620H479L390,723H266l61,163Z" />
      <glyph unicode="&#xc2;" glyph-name="gid4" horiz-adv-x="677" d="M673,0H496L450,149H224L177,0H4L236,660H442L673,0ZM256,266H418L337,533L256,266ZM521,723H403l-65,92l-65-92H155L255,886H421L521,723Z" />
      <glyph unicode="&#xc3;" glyph-name="gid13" horiz-adv-x="677" d="M673,0H496L450,149H224L177,0H4L236,660H442L673,0ZM256,266H418L337,533L256,266ZM536,878q-2-53-18.5-88.5t-44-53T413,719q-28,0-48.5,8.5t-35.5,20t-28,20T273,776q-17,0-26-14t-12-42H139q3,80 39,119.5T270,879q27,0 46-8.5t33-20t26.5-20T402,822q18,0 26.5,14T440,878h96Z" />
      <glyph unicode="&#xc4;" glyph-name="gid6" horiz-adv-x="677" d="M673,0H496L450,149H224L177,0H4L236,660H442L673,0ZM256,266H418L337,533L256,266ZM227,870q41,0 63.5-20T313,793q0-36-22.5-56.5T227,716q-39,0-61.5,20.5T143,793q0,37 22.5,57T227,870Zm220,0q40,0 63-20t23-57q0-36-23-56.5T447,716q-39,0-61.5,20.5T363,793q0,37 22.5,57T447,870Z" />
      <glyph unicode="&#xc5;" glyph-name="gid11" horiz-adv-x="677" d="M673,0H496L450,149H224L177,0H4L236,660H442L673,0ZM256,266H418L337,533L256,266Zm82,576q63,0 101-34t38-91q0-58-38-92T338,591T236.5,625T198,717q0,57 38.5,91T338,842Zm0-73q-24,0-39-14t-15-38t15-38.5T338,664t38.5,14.5T391,717t-14.5,38T338,769Z" />
      <glyph unicode="&#xc6;" glyph-name="gid14" horiz-adv-x="924" d="M581,127H894V0H421V196H246L169,0H-4L279,660H880V533H581V391H810V271H581V127ZM283,308H421V538H379L283,308Z" />
      <glyph unicode="&#xc7;" glyph-name="gid20" horiz-adv-x="681" d="M658,189q-19-69-61-113.5t-100-65T369-10Q269-10 196,30.5T84,147T45,330T84,513T196,629.5T368,670q69,0 127-19.5T593,591t57-103L499,427q-14,62-45.5,85T374,535q-47,0-81.5-23t-53-68.5T221,330q0-67 17-113t51.5-69T375,125q48,0 81.5,26.5T502,233l156-44ZM283,10l41,27Q402,26 439-5.5T476-90q0-56-37.5-90.5T336-215q-39,0-62,8.5T233-186l28,81q12-7 26-12.5t34-5.5q26,0 42,15t16,42q0,23-21,41T283,10Z" />
      <glyph unicode="&#xc8;" glyph-name="gid43" horiz-adv-x="631" d="M73,0V660H587V527H245V393H517V268H245V133H600V0H73ZM341,886l61-163H278L189,886H341Z" />
      <glyph unicode="&#xc9;" glyph-name="gid35" horiz-adv-x="631" d="M73,0V660H587V527H245V393H517V268H245V133H600V0H73ZM313,886H465L376,723H252l61,163Z" />
      <glyph unicode="&#xca;" glyph-name="gid39" horiz-adv-x="631" d="M73,0V660H587V527H245V393H517V268H245V133H600V0H73ZM513,723H395l-65,92l-65-92H147L247,886H413L513,723Z" />
      <glyph unicode="&#xcb;" glyph-name="gid41" horiz-adv-x="631" d="M73,0V660H587V527H245V393H517V268H245V133H600V0H73ZM219,870q41,0 63.5-20T305,793q0-36-22.5-56.5T219,716q-39,0-61.5,20.5T135,793q0,37 22.5,57T219,870Zm220,0q40,0 63-20t23-57q0-36-23-56.5T439,716q-39,0-61.5,20.5T355,793q0,37 22.5,57T439,870Z" />
      <glyph unicode="&#xcc;" glyph-name="gid73" horiz-adv-x="318" d="M245,660V0H73V660H245ZM166,886l61-163H103L14,886H166Z" />
      <glyph unicode="&#xcd;" glyph-name="gid66" horiz-adv-x="318" d="M245,660V0H73V660H245ZM152,886H304L215,723H91l61,163Z" />
      <glyph unicode="&#xce;" glyph-name="gid68" horiz-adv-x="318" d="M245,660V0H73V660H245Zm97,63H224l-65,92L94,723H-24L76,886H242L342,723Z" />
      <glyph unicode="&#xcf;" glyph-name="gid70" horiz-adv-x="318" d="M56,870q39,0 61.5-20T140,793q0-36-22.5-56.5T56,716q-38,0-60,20.5T-26,793q0,37 22,57t60,20Zm204,0q39,0 61.5-20T344,793q0-36-22.5-56.5T260,716q-38,0-60,20.5T178,793q0,37 22,57t60,20ZM245,660V0H73V660H245Z" />
      <glyph unicode="&#xd0;" glyph-name="gid27" horiz-adv-x="741" d="M13,270V390H399V270H13ZM376,660q155,0 238-86t83-244T614,86T376,0H96V660H376ZM359,130q85,0 123,50.5T520,330T482,479.5T359,530H268V130h91Z" />
      <glyph unicode="&#xd1;" glyph-name="gid104" horiz-adv-x="741" d="M668,660V0H477L272,357l-50,98h-1l4-122V0H73V660H264L469,303l50-98h1l-4,122V660H668ZM570,878q-2-53-18.5-88.5t-44-53T447,719q-28,0-48.5,8.5t-35.5,20t-28,20T307,776q-17,0-26-14t-12-42H173q3,80 39,119.5T304,879q27,0 46-8.5t33-20t26.5-20T436,822q18,0 26.5,14T474,878h96Z" />
      <glyph unicode="&#xd2;" glyph-name="gid113" horiz-adv-x="737" d="M369,670q100,0 172.5-40.5T653,513t39-183T653,147T541.5,30.5T369-10T196,30.5T84,147T45,330T84,513T196,629.5T369,670Zm0-135q-48,0-81-23t-50-68.5T221,330q0-67 17-113t50-69t81-23t80.5,23T499,217t17,113q0,68-17,113.5T449.5,512T369,535Zm7,351l61-163H313L224,886H376Z" />
      <glyph unicode="&#xd3;" glyph-name="gid106" horiz-adv-x="737" d="M369,670q100,0 172.5-40.5T653,513t39-183T653,147T541.5,30.5T369-10T196,30.5T84,147T45,330T84,513T196,629.5T369,670Zm0-135q-48,0-81-23t-50-68.5T221,330q0-67 17-113t50-69t81-23t80.5,23T499,217t17,113q0,68-17,113.5T449.5,512T369,535ZM358,886H510L421,723H297l61,163Z" />
      <glyph unicode="&#xd4;" glyph-name="gid108" horiz-adv-x="737" d="M369,670q100,0 172.5-40.5T653,513t39-183T653,147T541.5,30.5T369-10T196,30.5T84,147T45,330T84,513T196,629.5T369,670Zm0-135q-48,0-81-23t-50-68.5T221,330q0-67 17-113t50-69t81-23t80.5,23T499,217t17,113q0,68-17,113.5T449.5,512T369,535ZM552,723H434l-65,92l-65-92H186L286,886H452L552,723Z" />
      <glyph unicode="&#xd5;" glyph-name="gid123" horiz-adv-x="737" d="M369,670q100,0 172.5-40.5T653,513t39-183T653,147T541.5,30.5T369-10T196,30.5T84,147T45,330T84,513T196,629.5T369,670Zm0-135q-48,0-81-23t-50-68.5T221,330q0-67 17-113t50-69t81-23t80.5,23T499,217t17,113q0,68-17,113.5T449.5,512T369,535ZM567,878q-2-53-18.5-88.5t-44-53T444,719q-28,0-48.5,8.5t-35.5,20t-28,20T304,776q-17,0-26-14t-12-42H170q3,80 39,119.5T301,879q27,0 46-8.5t33-20t26.5-20T433,822q18,0 26.5,14T471,878h96Z" />
      <glyph unicode="&#xd6;" glyph-name="gid110" horiz-adv-x="737" d="M369,670q100,0 172.5-40.5T653,513t39-183T653,147T541.5,30.5T369-10T196,30.5T84,147T45,330T84,513T196,629.5T369,670Zm0-135q-48,0-81-23t-50-68.5T221,330q0-67 17-113t50-69t81-23t80.5,23T499,217t17,113q0,68-17,113.5T449.5,512T369,535ZM258,870q41,0 63.5-20T344,793q0-36-22.5-56.5T258,716q-39,0-61.5,20.5T174,793q0,37 22.5,57T258,870Zm220,0q40,0 63-20t23-57q0-36-23-56.5T478,716q-39,0-61.5,20.5T394,793q0,37 22.5,57T478,870Z" />
      <glyph unicode="&#xd7;" glyph-name="gid616" horiz-adv-x="604" d="M458,78l92,92L146,574L54,482L458,78ZM146,78L550,482l-92,92L54,170l92-92Z" />
      <glyph unicode="&#xd8;" glyph-name="gid121" horiz-adv-x="737" d="M252,113l-49,41L472,524l51-38L252,113ZM62-27L186,135l53-40L142-27H62ZM548,515l-53,40L595,681h80L548,515ZM369,670q100,0 172.5-40.5T653,513t39-183T653,147T541.5,30.5T369-10T196,30.5T84,147T45,330T84,513T196,629.5T369,670Zm0-135q-48,0-81-23t-50-68.5T221,330q0-67 17-113t50-69t81-23t80.5,23T499,217t17,113q0,68-17,113.5T449.5,512T369,535Z" />
      <glyph unicode="&#xd9;" glyph-name="gid165" horiz-adv-x="710" d="M650,660V269q0-140-74.5-209.5T355-10Q210-10 135,59.5T60,269V660H233V266q0-71 30.5-106T355,125q62,0 92.5,35T478,266V660H650ZM366,876l61-163H303L214,876H366Z" />
      <glyph unicode="&#xda;" glyph-name="gid160" horiz-adv-x="710" d="M650,660V269q0-140-74.5-209.5T355-10Q210-10 135,59.5T60,269V660H233V266q0-71 30.5-106T355,125q62,0 92.5,35T478,266V660H650ZM344,876H496L407,713H283l61,163Z" />
      <glyph unicode="&#xdb;" glyph-name="gid162" horiz-adv-x="710" d="M650,660V269q0-140-74.5-209.5T355-10Q210-10 135,59.5T60,269V660H233V266q0-71 30.5-106T355,125q62,0 92.5,35T478,266V660H650ZM538,713H420l-65,92l-65-92H172L272,876H438L538,713Z" />
      <glyph unicode="&#xdc;" glyph-name="gid164" horiz-adv-x="710" d="M650,660V269q0-140-74.5-209.5T355-10Q210-10 135,59.5T60,269V660H233V266q0-71 30.5-106T355,125q62,0 92.5,35T478,266V660H650ZM244,860q41,0 63.5-20T330,783q0-36-22.5-56.5T244,706q-39,0-61.5,20.5T160,783q0,37 22.5,57T244,860Zm220,0q40,0 63-20t23-57q0-36-23-56.5T464,706q-39,0-61.5,20.5T380,783q0,37 22.5,57T464,860Z" />
      <glyph unicode="&#xdd;" glyph-name="gid183" horiz-adv-x="657" d="M647,660L414,241V0H242V241L9,660H187l93-181l49-110l50,110l93,181H647ZM317,878H469L380,715H256l61,163Z" />
      <glyph unicode="&#xde;" glyph-name="gid129" horiz-adv-x="674" d="M374,559q126,0 193.5-56.5T635,337T567.5,171.5T374,115H159V243H355q107,0 107,95q0,48-27.5,70T355,430H159V559H374ZM245,660V0H73V660H245Z" />
      <glyph unicode="&#xdf;" glyph-name="gid402" horiz-adv-x="646" d="M437,362q57,0 96-23t59.5-62.5T613,187q0-53-22-97.5t-68.5-72T403-10q-45,0-79.5,9T269,22l28,112q13-9 30-15.5t43-6.5q38,0 60.5,26T453,207q0,45-27,68.5T349,299H294l17,119h30q45,0 67.5,26.5T431,510q0,42-25.5,63T339,594q-60,0-84-35T231,448V0H61V461q0,80 27.5,137t90,88T345,717q82,0 138-24.5t84.5-67T596,529q0-41-18.5-78.5t-54-61.5T437,364v-2Z" />
      <glyph unicode="&#xe0;" glyph-name="gid259" horiz-adv-x="579" d="M340,317q0,35-19.5,55.5T268,393t-56.5-16.5T179,318L35,352q14,72 74,115t169,43q73,0 124.5-21.5t79-64T509,320V137q0-39 35-39q18,0 29,4L563,5Q533-9 490-9Q451-9 421,3.5t-47,38T357,106v6l19,7q0-43-25.5-72t-66-43T200-10q-51,0-89,16T52.5,52.5T32,128q0,54 32.5,89.5T167,267l189,39l-1-90l-96-20q-30-6-44.5-17.5T200,144q0-22 16-33t38-11q17,0 32.5,5T314,120.5T333,147t7,38V317ZM277,738l67-173H220L119,738H277Z" />
      <glyph unicode="&#xe1;" glyph-name="gid254" horiz-adv-x="579" d="M340,317q0,35-19.5,55.5T268,393t-56.5-16.5T179,318L35,352q14,72 74,115t169,43q73,0 124.5-21.5t79-64T509,320V137q0-39 35-39q18,0 29,4L563,5Q533-9 490-9Q451-9 421,3.5t-47,38T357,106v6l19,7q0-43-25.5-72t-66-43T200-10q-51,0-89,16T52.5,52.5T32,128q0,54 32.5,89.5T167,267l189,39l-1-90l-96-20q-30-6-44.5-17.5T200,144q0-22 16-33t38-11q17,0 32.5,5T314,120.5T333,147t7,38V317ZM267,738H425L324,565H200l67,173Z" />
      <glyph unicode="&#xe2;" glyph-name="gid256" horiz-adv-x="579" d="M340,317q0,35-19.5,55.5T268,393t-56.5-16.5T179,318L35,352q14,72 74,115t169,43q73,0 124.5-21.5t79-64T509,320V137q0-39 35-39q18,0 29,4L563,5Q533-9 490-9Q451-9 421,3.5t-47,38T357,106v6l19,7q0-43-25.5-72t-66-43T200-10q-51,0-89,16T52.5,52.5T32,128q0,54 32.5,89.5T167,267l189,39l-1-90l-96-20q-30-6-44.5-17.5T200,144q0-22 16-33t38-11q17,0 32.5,5T314,120.5T333,147t7,38V317ZM468,559H346l-69,88l-69-88H86L195,732H359L468,559Z" />
      <glyph unicode="&#xe3;" glyph-name="gid265" horiz-adv-x="579" d="M340,317q0,35-19.5,55.5T268,393t-56.5-16.5T179,318L35,352q14,72 74,115t169,43q73,0 124.5-21.5t79-64T509,320V137q0-39 35-39q18,0 29,4L563,5Q533-9 490-9Q451-9 421,3.5t-47,38T357,106v6l19,7q0-43-25.5-72t-66-43T200-10q-51,0-89,16T52.5,52.5T32,128q0,54 32.5,89.5T167,267l189,39l-1-90l-96-20q-30-6-44.5-17.5T200,144q0-22 16-33t38-11q17,0 32.5,5T314,120.5T333,147t7,38V317ZM475,718q-2-53-18.5-88.5t-44-53T352,559q-28,0-48.5,8.5t-35.5,20t-28,20T212,616q-17,0-26-14t-12-42H78q3,80 39,119.5T209,719q27,0 46-8.5t33-20t26.5-20T341,662q18,0 26.5,14T379,718h96Z" />
      <glyph unicode="&#xe4;" glyph-name="gid258" horiz-adv-x="579" d="M340,317q0,35-19.5,55.5T268,393t-56.5-16.5T179,318L35,352q14,72 74,115t169,43q73,0 124.5-21.5t79-64T509,320V137q0-39 35-39q18,0 29,4L563,5Q533-9 490-9Q451-9 421,3.5t-47,38T357,106v6l19,7q0-43-25.5-72t-66-43T200-10q-51,0-89,16T52.5,52.5T32,128q0,54 32.5,89.5T167,267l189,39l-1-90l-96-20q-30-6-44.5-17.5T200,144q0-22 16-33t38-11q17,0 32.5,5T314,120.5T333,147t7,38V317ZM166,710q41,0 63.5-20T252,633q0-36-22.5-56.5T166,556q-39,0-61.5,20.5T82,633q0,37 22.5,57T166,710Zm220,0q40,0 63-20t23-57q0-36-23-56.5T386,556q-39,0-61.5,20.5T302,633q0,37 22.5,57T386,710Z" />
      <glyph unicode="&#xe5;" glyph-name="gid263" horiz-adv-x="579" d="M340,317q0,35-19.5,55.5T268,393t-56.5-16.5T179,318L35,352q14,72 74,115t169,43q73,0 124.5-21.5t79-64T509,320V137q0-39 35-39q18,0 29,4L563,5Q533-9 490-9Q451-9 421,3.5t-47,38T357,106v6l19,7q0-43-25.5-72t-66-43T200-10q-51,0-89,16T52.5,52.5T32,128q0,54 32.5,89.5T167,267l189,39l-1-90l-96-20q-30-6-44.5-17.5T200,144q0-22 16-33t38-11q17,0 32.5,5T314,120.5T333,147t7,38V317ZM276,802q63,0 101-34t38-91q0-58-38-92T276,551T174.5,585T136,677q0,57 38.5,91T276,802Zm0-73q-24,0-39-14t-15-38t15-38.5T276,624t38.5,14.5T329,677t-14.5,38T276,729Z" />
      <glyph unicode="&#xe6;" glyph-name="gid266" horiz-adv-x="878" d="M208-10q-55,0-94.5,16T53,52.5T32,128q0,55 36.5,91T169,268l170,34v13q0,37-20,57.5T264,393q-30,0-52.5-16.5T179,318L34,352q6,45 36.5,80.5T151,489t114,21q82,0 134.5-27.5T465,399l-55-2q20,36 50,61t68,38.5T610,510q76,0 128-30.5t79-84T844,273q0-17-1-33.5T840,207H503q0-47 33.5-72T613,110q35,0 54.5,15T698,167l137-45q-14-43-46.5-72.5T711.5,5T615-10q-87,0-144.5,40T392,148l36-6q-6-32-23-59.5T360.5,34t-66-32.5T208-10ZM254,99q17,0 32,5.5t27,17T332,149t7,37v29l-82-18q-31-7-44.5-18T199,144q0-19 14-32t41-13ZM503,298H683q-1,29-11.5,50t-29,32T599,391q-40,0-64-23t-32-70Z" />
      <glyph unicode="&#xe7;" glyph-name="gid272" horiz-adv-x="567" d="M298,510q76,0 126.5-21.5t79-57T539,355L382,303q-7,43-25.5,64.5T303,389q-32,0-53.5-14.5t-32.5-46T206,248t12-79.5t34-44T304,111q25,0 41.5,9.5T373,148t14,44l153-49q-7-44-37.5-78.5T422,10T305-10q-82,0-143,30.5t-94,89T35,250T68,390.5t92.5,89T298,510ZM222,10l41,27Q341,26 378-5.5T415-90q0-56-37.5-90.5T275-215q-39,0-62,8.5T172-186l28,81q12-7 26-12.5t34-5.5q26,0 42,15t16,42q0,23-21,41T222,10Z" />
      <glyph unicode="&#xe8;" glyph-name="gid293" horiz-adv-x="579" d="M305-10q-83,0-143.5,31T68,110T35,250T68,390t92.5,89T297,510q79,0 134.5-30.5t84.5-84T545,273q0-18-1-36t-3-30H145v91H466l-81-31q0,60-21.5,92T297,391q-32,0-54.5-15t-34-47T197,247q0-49 13-79.5t37-44T305,110q38,0 60.5,15T399,167l136-45q-14-43-48.5-72.5T404.5,5T305-10ZM294,738l67-173H237L136,738H294Z" />
      <glyph unicode="&#xe9;" glyph-name="gid285" horiz-adv-x="579" d="M305-10q-83,0-143.5,31T68,110T35,250T68,390t92.5,89T297,510q79,0 134.5-30.5t84.5-84T545,273q0-18-1-36t-3-30H145v91H466l-81-31q0,60-21.5,92T297,391q-32,0-54.5-15t-34-47T197,247q0-49 13-79.5t37-44T305,110q38,0 60.5,15T399,167l136-45q-14-43-48.5-72.5T404.5,5T305-10ZM284,738H442L341,565H217l67,173Z" />
      <glyph unicode="&#xea;" glyph-name="gid289" horiz-adv-x="579" d="M305-10q-83,0-143.5,31T68,110T35,250T68,390t92.5,89T297,510q79,0 134.5-30.5t84.5-84T545,273q0-18-1-36t-3-30H145v91H466l-81-31q0,60-21.5,92T297,391q-32,0-54.5-15t-34-47T197,247q0-49 13-79.5t37-44T305,110q38,0 60.5,15T399,167l136-45q-14-43-48.5-72.5T404.5,5T305-10ZM485,559H363l-69,88l-69-88H103L212,732H376L485,559Z" />
      <glyph unicode="&#xeb;" glyph-name="gid291" horiz-adv-x="579" d="M305-10q-83,0-143.5,31T68,110T35,250T68,390t92.5,89T297,510q79,0 134.5-30.5t84.5-84T545,273q0-18-1-36t-3-30H145v91H466l-81-31q0,60-21.5,92T297,391q-32,0-54.5-15t-34-47T197,247q0-49 13-79.5t37-44T305,110q38,0 60.5,15T399,167l136-45q-14-43-48.5-72.5T404.5,5T305-10ZM183,710q41,0 63.5-20T269,633q0-36-22.5-56.5T183,556q-39,0-61.5,20.5T99,633q0,37 22.5,57T183,710Zm220,0q40,0 63-20t23-57q0-36-23-56.5T403,556q-39,0-61.5,20.5T319,633q0,37 22.5,57T403,710Z" />
      <glyph unicode="&#xec;" glyph-name="gid324" horiz-adv-x="291" d="M231,500V0H61V500H231ZM146,738l67-173H89L-12,738H146Z" />
      <glyph unicode="&#xed;" glyph-name="gid317" horiz-adv-x="291" d="M231,500V0H61V500H231ZM136,738H294L193,565H69l67,173Z" />
      <glyph unicode="&#xee;" glyph-name="gid319" horiz-adv-x="291" d="M231,500V0H61V500H231Zm106,59H215l-69,88L77,559H-45L64,732H228L337,559Z" />
      <glyph unicode="&#xef;" glyph-name="gid321" horiz-adv-x="291" d="M242,554q-39,0-60,20.5T161,633q0,39 21,59t60,20t59.5-20T322,633q0-38-20.5-58.5T242,554ZM49,554q-38,0-59,20.5T-31,633q0,39 21,59t59,20q40,0 60.5-20T130,633q0-38-20.5-58.5T49,554Zm182-54V0H61V500H231Z" />
      <glyph unicode="&#xf0;" glyph-name="gid277" horiz-adv-x="604" d="M298-10q-80,0-137.5,30T72,106.5T41,243T71.5,379.5t84.5,86T279,495t108-31t54-82l-8-4q-7,59-26.5,106t-51,87T279,647.5T176,722H331q45-24 86-61.5t73.5-90t52-119T562,303q0-100-33-170T437,26.5T298-10Zm6,121q34,0 55,15.5t31.5,45T401,243q0,49-10.5,79.5T359,368t-53,15q-30,0-51-15t-31.5-45.5T213,243q0-67 23-99.5T304,111ZM192,539l-12,61l177,34l27-54L192,539Zm227,47l-23,54l158,33l14-58L419,586Z" />
      <glyph unicode="&#xf1;" glyph-name="gid356" horiz-adv-x="620" d="M61,0V500H213l9-172l-19,19q10,54 35.5,90t64,54.5T389,510q52,0 90.5-20T540,431t22-98V0H392V288q0,52-20,72t-51,20q-24,0-45-11.5T243,332t-12-67V0H61ZM511,718q-2-53-18.5-88.5t-44-53T388,559q-28,0-48.5,8.5t-35.5,20t-28,20T248,616q-17,0-26-14t-12-42H114q3,80 39,119.5T245,719q27,0 46-8.5t33-20t26.5-20T377,662q18,0 26.5,14T415,718h96Z" />
      <glyph unicode="&#xf2;" glyph-name="gid365" horiz-adv-x="599" d="M299,510q79,0 138.5-30.5t93-89T564,250T530.5,109.5t-93-89T299-10q-77,0-137,30.5t-93.5,89T35,250T68.5,390.5t93.5,89T299,510Zm0-121q-29,0-50-14t-32-45t-11-80t11-79.5t32-45T299,111q30,0 51,14.5t32,45T393,250t-11,80t-32,45t-51,14Zm0,349l67-173H242L141,738H299Z" />
      <glyph unicode="&#xf3;" glyph-name="gid358" horiz-adv-x="599" d="M299,510q79,0 138.5-30.5t93-89T564,250T530.5,109.5t-93-89T299-10q-77,0-137,30.5t-93.5,89T35,250T68.5,390.5t93.5,89T299,510Zm0-121q-29,0-50-14t-32-45t-11-80t11-79.5t32-45T299,111q30,0 51,14.5t32,45T393,250t-11,80t-32,45t-51,14ZM289,738H447L346,565H222l67,173Z" />
      <glyph unicode="&#xf4;" glyph-name="gid360" horiz-adv-x="599" d="M299,510q79,0 138.5-30.5t93-89T564,250T530.5,109.5t-93-89T299-10q-77,0-137,30.5t-93.5,89T35,250T68.5,390.5t93.5,89T299,510Zm0-121q-29,0-50-14t-32-45t-11-80t11-79.5t32-45T299,111q30,0 51,14.5t32,45T393,250t-11,80t-32,45t-51,14ZM490,559H368l-69,88l-69-88H108L217,732H381L490,559Z" />
      <glyph unicode="&#xf5;" glyph-name="gid375" horiz-adv-x="599" d="M299,510q79,0 138.5-30.5t93-89T564,250T530.5,109.5t-93-89T299-10q-77,0-137,30.5t-93.5,89T35,250T68.5,390.5t93.5,89T299,510Zm0-121q-29,0-50-14t-32-45t-11-80t11-79.5t32-45T299,111q30,0 51,14.5t32,45T393,250t-11,80t-32,45t-51,14ZM497,718q-2-53-18.5-88.5t-44-53T374,559q-28,0-48.5,8.5t-35.5,20t-28,20T234,616q-17,0-26-14t-12-42H100q3,80 39,119.5T231,719q27,0 46-8.5t33-20t26.5-20T363,662q18,0 26.5,14T401,718h96Z" />
      <glyph unicode="&#xf6;" glyph-name="gid362" horiz-adv-x="599" d="M299,510q79,0 138.5-30.5t93-89T564,250T530.5,109.5t-93-89T299-10q-77,0-137,30.5t-93.5,89T35,250T68.5,390.5t93.5,89T299,510Zm0-121q-29,0-50-14t-32-45t-11-80t11-79.5t32-45T299,111q30,0 51,14.5t32,45T393,250t-11,80t-32,45t-51,14ZM188,710q41,0 63.5-20T274,633q0-36-22.5-56.5T188,556q-39,0-61.5,20.5T104,633q0,37 22.5,57T188,710Zm220,0q40,0 63-20t23-57q0-36-23-56.5T408,556q-39,0-61.5,20.5T324,633q0,37 22.5,57T408,710Z" />
      <glyph unicode="&#xf7;" glyph-name="gid617" horiz-adv-x="623" d="M564,386V264H60V386H564ZM311,191q39,0 61.5-22T395,109T372.5,49.5T311,28T250,49.5T228,109t22,60t61,22Zm0,430q39,0 61.5-22T395,539t-22.5-59.5T311,458t-61,21.5T228,539t22,60t61,22Z" />
      <glyph unicode="&#xf8;" glyph-name="gid373" horiz-adv-x="599" d="M299,510q79,0 138.5-30.5t93-89T564,250T530.5,109.5t-93-89T299-10q-77,0-137,30.5t-93.5,89T35,250T68.5,390.5t93.5,89T299,510Zm0-121q-29,0-50-14t-32-45t-11-80t11-79.5t32-45T299,111q30,0 51,14.5t32,45T393,250t-11,80t-32,45t-51,14ZM44-25L487,524h67L111-25H44Z" />
      <glyph unicode="&#xf9;" glyph-name="gid418" horiz-adv-x="619" d="M230-10q-51,0-89.5,17.5T80,64T58,166V500H228V206q0-48 19-67t54-19q18,0 34,6.5t28,20t18.5,35T388,232V500H558V0H406l-5,94q-24-53-67-78.5T230-10Zm75,744l67-173H248L147,734H305Z" />
      <glyph unicode="&#xfa;" glyph-name="gid413" horiz-adv-x="619" d="M230-10q-51,0-89.5,17.5T80,64T58,166V500H228V206q0-48 19-67t54-19q18,0 34,6.5t28,20t18.5,35T388,232V500H558V0H406l-5,94q-24-53-67-78.5T230-10Zm65,744H453L352,561H228l67,173Z" />
      <glyph unicode="&#xfb;" glyph-name="gid415" horiz-adv-x="619" d="M230-10q-51,0-89.5,17.5T80,64T58,166V500H228V206q0-48 19-67t54-19q18,0 34,6.5t28,20t18.5,35T388,232V500H558V0H406l-5,94q-24-53-67-78.5T230-10ZM496,555H374l-69,88l-69-88H114L223,728H387L496,555Z" />
      <glyph unicode="&#xfc;" glyph-name="gid417" horiz-adv-x="619" d="M230-10q-51,0-89.5,17.5T80,64T58,166V500H228V206q0-48 19-67t54-19q18,0 34,6.5t28,20t18.5,35T388,232V500H558V0H406l-5,94q-24-53-67-78.5T230-10ZM194,706q41,0 63.5-20T280,629q0-36-22.5-56.5T194,552q-39,0-61.5,20.5T110,629q0,37 22.5,57T194,706Zm220,0q40,0 63-20t23-57q0-36-23-56.5T414,552q-39,0-61.5,20.5T330,629q0,37 22.5,57T414,706Z" />
      <glyph unicode="&#xfd;" glyph-name="gid436" horiz-adv-x="563" d="M564,500L382,0q-28-79-61-126t-78-68T135-215q-42,0-77,9T-3-181L31-66Q49-79 69-84.5T120-90q29,0 47.5,10T197-42l13,31L152,125L2,500H189l77-285l24-106l28,110l77,281H564ZM287,734H445L344,561H220l67,173Z" />
      <glyph unicode="&#xfe;" glyph-name="gid381" horiz-adv-x="627" d="M61-210V712H231V361l-16,6q14,62 57,102.5T388,510q58,0 103.5-31t71-89.5T588,248q0-80-26-138.5t-72.5-89T381-10q-68,0-110,40.5T215,133l16,24V-210H61ZM323,115q44,0 69,32.5T417,250T392.5,352.5T324,385q-28,0-49-15.5T242.5,324T231,250q0-42 10.5-72.5T273,131t50-16Z" />
      <glyph unicode="&#xff;" glyph-name="gid438" horiz-adv-x="563" d="M564,500L382,0q-28-79-61-126t-78-68T135-215q-42,0-77,9T-3-181L31-66Q49-79 69-84.5T120-90q29,0 47.5,10T197-42l13,31L152,125L2,500H189l77-285l24-106l28,110l77,281H564ZM186,706q41,0 63.5-20T272,629q0-36-22.5-56.5T186,552q-39,0-61.5,20.5T102,629q0,37 22.5,57T186,706Zm220,0q40,0 63-20t23-57q0-36-23-56.5T406,552q-39,0-61.5,20.5T322,629q0,37 22.5,57T406,706Z" />
      <glyph unicode="&#x2013;" glyph-name="gid561" horiz-adv-x="692" d="M614,335V200H78V335H614Z" />
      <glyph unicode="&#x2014;" glyph-name="gid562" horiz-adv-x="1006" d="M928,335V200H78V335H928Z" />
      <glyph unicode="&#x2018;" glyph-name="gid568" horiz-adv-x="294" d="M149,362q-36,0-60.5,17t-36,45T41,484q0,46 19.5,87t51,72.5T180,692l69-51q-27-12-51-28.5T156.5,576T130,535l5-3q6,4 13.5,6t20.5,2q18,0 36.5-9t31-27T249,458q0-31-14-52.5T198,373t-49-11Z" />
      <glyph unicode="&#x2019;" glyph-name="gid569" horiz-adv-x="294" d="M150,690q37,0 61-17t35.5-44.5T258,567q0-45-19.5-86.5t-51-73T119,360L50,411q28,11 51.5,28t41,37T169,517l-5,3q-5-4-13-6t-21-2q-18,0-36.5,9t-31,27T50,594q0,32 14,53t37,32t49,11Z" />
      <glyph unicode="&#x201a;" glyph-name="gid564" horiz-adv-x="286" d="M141,172q37,0 61-17t35.5-44.5T249,49q0-45-19.5-86.5t-51-73T110-158L41-107Q69-96 92.5-79t41,37T160-1l-5,3q-5-4-13-6T121-6Q103-6 84.5,3t-31,27T41,76q0,32 14,53t37,32t49,11Z" />
      <glyph unicode="&#x201c;" glyph-name="gid566" horiz-adv-x="539" d="M149,362q-36,0-60.5,17t-36,45T41,484q0,46 19.5,87t51,72.5T180,692l69-51q-27-12-51-28.5T156.5,576T130,535l5-3q6,4 13.5,6t20.5,2q18,0 36.5-9t31-27T249,458q0-31-14-52.5T198,373t-49-11Zm245,0q-36,0-60.5,17t-36,45T286,484q0,46 19.5,87t51,72.5T425,692l69-51q-27-12-51-28.5T401.5,576T375,535l5-3q6,4 13.5,6t20.5,2q18,0 36.5-9t31-27T494,458q0-31-14-52.5T443,373t-49-11Z" />
      <glyph unicode="&#x201d;" glyph-name="gid567" horiz-adv-x="539" d="M150,690q37,0 61-17t35.5-44.5T258,567q0-45-19.5-86.5t-51-73T119,360L50,411q28,11 51.5,28t41,37T169,517l-5,3q-5-4-13-6t-21-2q-18,0-36.5,9t-31,27T50,594q0,32 14,53t37,32t49,11Zm245,0q37,0 61-17t35.5-44.5T503,567q0-45-19.5-86.5t-51-73T364,360l-69,51q28,11 51.5,28t41,37T414,517l-5,3q-5-4-13-6t-21-2q-18,0-36.5,9t-31,27T295,594q0,32 14,53t37,32t49,11Z" />
      <glyph unicode="&#x201e;" glyph-name="gid565" horiz-adv-x="526" d="M141,172q37,0 61-17t35.5-44.5T249,49q0-45-19.5-86.5t-51-73T110-158L41-107Q69-96 92.5-79t41,37T160-1l-5,3q-5-4-13-6T121-6Q103-6 84.5,3t-31,27T41,76q0,32 14,53t37,32t49,11Zm240,0q37,0 61-17t35.5-44.5T489,49q0-45-19.5-86.5t-51-73T350-158l-69,51q28,11 51.5,28t41,37T400-1l-5,3q-5-4-13-6T361-6q-18,0-36.5,9t-31,27T281,76q0,32 14,53t37,32t49,11Z" />
      <glyph unicode="&#x2022;" glyph-name="gid541" horiz-adv-x="430" d="M215,184q-71,0-112.5,40.5T61,333q0,69 41.5,108.5T215,481q72,0 113-39.5T369,333q0-68-41-108.5T215,184Z" />
      <glyph unicode="&#x2039;" glyph-name="gid572" horiz-adv-x="343" d="M308,461L187,265L308,69H160L35,265L160,461H308Z" />
      <glyph unicode="&#x203a;" glyph-name="gid573" horiz-adv-x="343" d="M35,69L156,265L35,461H183L308,265L183,69H35Z" />
    </font>
</defs>
</svg>
