<?xml version="1.0" standalone="no"?>
<!DOCTYPE svg PUBLIC "-//W3C//DTD SVG 1.1//EN" "http://www.w3.org/Graphics/SVG/1.1/DTD/svg11.dtd">
<svg xmlns="http://www.w3.org/2000/svg">
  <defs>
    <font id="WorkSans" horiz-adv-x="604">
      <font-face font-family="Work Sans ExtraBold" units-per-em="1000" panose-1="0 0 0 0 0 0 0 0 0 0" ascent="930" descent="-243" alphabetic="0" />
      <glyph unicode=" " glyph-name="gid505" horiz-adv-x="266" />
      <glyph unicode="!" glyph-name="gid465" horiz-adv-x="311" d="M64,218l37,255l43,187H355L312,473L231,218H64ZM114-8Q67-8 39.5,11.5T12,69q0,48 30,76.5T125,174q46,0 73.5-19.5T226,97q0-48-29.5-76.5T114-8Z" />
      <glyph unicode="&quot;" glyph-name="gid503" horiz-adv-x="470" d="M532,674L434,386H298l66,288H532Zm-211,0L223,386H87l66,288H321Z" />
      <glyph unicode="#" glyph-name="gid472" horiz-adv-x="706" d="M322,0L532,660H669L458,0H322ZM34,150V266H641V150H34ZM72,0L282,660H419L209,0H72Zm30,394V510H709V394H102Z" />
      <glyph unicode="$" glyph-name="gid515" horiz-adv-x="639" d="M331-2Q261-2 196.5,13.5T78,62.5T-14,147L98,263q24-40 63-67.5t85.5-43T339,137q28,0 45.5,6.5t26,18T419,188q0,18-14,29.5T352,241L247,273q-50,15-86,39.5t-55,59T87,451q0,69 36.5,115.5t100,70T367,660q57,0 113.5-14T587,601.5T672,525L565,417q-29,37-60.5,60t-67,34T359,522q-46,0-69.5-15T266,472q0-11 5.5-20t17-16.5T319,422l138-40q65-19 102-61.5T596,219q0-73-35.5-122.5t-96-74T331-2ZM188-84L379,744H498L306-84H188Z" />
      <glyph unicode="%" glyph-name="gid555" horiz-adv-x="1042" d="M143,0L773,661H935L305,0H143ZM265,290q-54,0-95.5,21.5t-64.5,61T82,465q0,59 27,105t74,73t106,27q54,0 95-21.5T448.5,588T472,495q0-58-27-105t-74-73.5T265,290Zm6,132q17,0 29.5,9.5t19.5,25t7,34.5q0,22-12.5,34.5T283,538q-18,0-30.5-9T233,504t-7-35q0-22 13-34.5T271,422ZM790-9q-54,0-95.5,21.5T630,73.5T607,166q0,59 27,105t74,73t106,27q54,0 95-21.5T973,289t23-93q0-58-27-105T895.5,17.5T790-9Zm6,132q17,0 29.5,9T845,157t7,35q0,22-12.5,34.5T808,239q-18,0-30.5-9T758,205t-7-35q0-22 12.5-34.5T796,123Z" />
      <glyph unicode="&amp;" glyph-name="gid559" horiz-adv-x="656" d="M229-10q-68,0-118,23T34.5,77.5T8,172q0,64 29,109.5t80.5,73T237,389l51,24q39,5 69,12.5T404,450t17,47q0,21-12.5,33T376,542q-32,0-45.5-20T317,475q0-14 3-31t12.5-39.5T361,349t50-80q31-48 61.5-83.5T538,132t81-13L583-10H560q-55,0-98,20T378.5,71T294,177q-52,73-80,124.5T174,393t-12,78q0,58 27.5,103t77,70.5T385,670q86,0 136-37.5T571,531q0-60-32-102.5t-87-68T325,325l-7-25q-37-7-67.5-20.5t-48-34T185,194q0-38 25.5-58.5T280,115q36,0 62,15.5T394,171l23,12q24,20 40,52t27,78l132-1q-19-71-52.5-127.5T484,95L463,82q-30-25-63-46T325.5,2.5T229-10Z" />
      <glyph unicode="&apos;" glyph-name="gid504" horiz-adv-x="259" d="M321,674L223,386H87l66,288H321Z" />
      <glyph unicode="(" glyph-name="gid482" horiz-adv-x="411" d="M213-192Q144-115 107.5-20.5T71,190q0,89 24.5,170T166,511.5T276.5,638T420,731l71-91q-82-57-137-129.5T272,350T245,155q0-78 19.5-141.5T319-105L213-192Z" />
      <glyph unicode=")" glyph-name="gid483" horiz-adv-x="411" d="M207,731q69-77 106-171.5T350,348q0-88-25-169.5t-71-152T144-99.5T0-192l-71,90Q12-44 66.5,28.5t82,161T176,383q0,79-19.5,142T101,643l106,88Z" />
      <glyph unicode="*" glyph-name="gid471" horiz-adv-x="592" d="M385,223L333,349l-6,24l-19-25L203,240l-95,98L219,440l26,17l-25,7L94,519l70,126l120-65l24-17l1,32l26,135H477L438,581l-12-28l28,10l143,34l12-137L466,435l-32-1l17-24l60-122L385,223Z" />
      <glyph unicode="+" glyph-name="gid543" horiz-adv-x="604" d="M461,598L336,57H180L304,598H461ZM590,397L559,259H50L81,397H590Z" />
      <glyph unicode="," glyph-name="gid461" horiz-adv-x="293" d="M111,190q60,0 85.5-30.5T222,83q0-54-28-104t-78.5-88T-3-163L-48-91q37,9 68.5,24t54,33.5T109,3l-2,3q-7-3-13.5-4.5T76,0Q45,0 20.5,24T-4,84q0,49 32,77.5T111,190Z" />
      <glyph unicode="-" glyph-name="gid488" horiz-adv-x="534" d="M479,349L443,191H64l36,158H479Z" />
      <glyph unicode="." glyph-name="gid460" horiz-adv-x="295" d="M105-8Q57-8 28,13.5T-1,76q0,52 31,83t86,31q49,0 77.5-21T222,106q0-52-30.5-83T105-8Z" />
      <glyph unicode="/" glyph-name="gid473" horiz-adv-x="475" d="M576,706L129-70H-69L377,706H576Z" />
      <glyph unicode="0" glyph-name="gid406" horiz-adv-x="647" d="M311-10q-85,0-142.5,31.5T82,112T53,251q0,27 3,54.5T64,362q13,61 35.5,117T158,578t89,68t127,25q85,0 142-32.5t86-91T631,408q0-26-3-53t-8-56q-13-61-35.5-117T526,82.5t-89-68T311-10Zm0,157q28,0 47.5,17.5t35,55T423,315q11,37 15,66t4,51q0,42-17,62t-52,20q-28,0-48-17.5T289.5,442T259,346q-10-36-14.5-65.5T240,229q0-28 8-46.5t24-27t39-8.5Z" />
      <glyph unicode="1" glyph-name="gid407" horiz-adv-x="440" d="M119,0l79,339q7,29 14.5,59.5T229,460q-24-19-53.5-34.5t-59-27T60,383L87,554q33,6 73.5,23T241,616.5T308,660H468L315,0H119Z" />
      <glyph unicode="2" glyph-name="gid408" horiz-adv-x="584" d="M-4,0L26,128q62,34 124.5,74.5T266,286t85,85.5T383,453q0,26-16,43t-46,17q-40,0-63-30.5T228,395L56,451q13,68 49,117.5T200,644t142,26q85,0 139-28.5t80-72T587,480q0-52-19.5-95T515,307.5t-75.5-63t-88-52.5T263,148v-2q21,3 57,4t73,1H542L507,0H-4Z" />
      <glyph unicode="3" glyph-name="gid409" horiz-adv-x="589" d="M290-10Q165-10 94,46T15,194l187,37q1-46 21.5-67T285,143q20,0 36,9t25,24t9,35q0,37-24.5,48.5T273,271q-7,0-12-0.5T249,269l28,122q7-2 17.5-3t21.5-1q26,0 44,9t26.5,25t8.5,37q0,20-8.5,32.5t-23,18.5T331,515q-34,0-54-16.5T249,446L78,504q29,82 96,124t167,42q80,0 135.5-21.5t84.5-61T590,494q0-47-19-83.5T519,352t-79-25l-1-4q29-4 54.5-19.5t41-43T550,193q0-65-35.5-110.5t-95-69T290-10Z" />
      <glyph unicode="4" glyph-name="gid410" horiz-adv-x="653" d="M292,0l31,135H14L46,270q20,28 42.5,54.5T135,378L382,660H622L532,270H644L613,135H501L469,0H292ZM199,270H355l60,247L274,352q-18-22-36.5-41.5T199,270Z" />
      <glyph unicode="5" glyph-name="gid411" horiz-adv-x="570" d="M274-10q-66,0-120,20.5T62,68T7,154l182,66q3-22 12.5-40.5T230,150t50-11q29,0 48.5,12T358,183t10,44q0,23-11,38t-31,23.5T279,297q-25,0-43-6t-36-17L56,306L169,660H604L568,507H286L242,379q21,22 52,34t73,12q55,0 96.5-22.5t64.5-63T551,246q0-79-36-136.5T416.5,21T274-10Z" />
      <glyph unicode="6" glyph-name="gid412" horiz-adv-x="607" d="M331-12q-82,0-144,32.5T90.5,114T56,260q0,84 22,157t65,129t107,87.5T398,665q96,0 157-44t75-120L460,434q-1,33-20.5,54T384,509q-32,0-56-16t-41-42t-26.5-58T247,329q21,34 63,52.5T398,400q82,0 133.5-47T583,226q0-70-32.5-123.5t-89-84T331-12Zm-7,145q24,0 41,11t25.5,29t8.5,41q0,31-20.5,47.5T326,278q-23,0-40.5-10.5t-27-28T249,201q0-16 6-28.5t15.5-21T294,138t30-5Z" />
      <glyph unicode="7" glyph-name="gid413" horiz-adv-x="619" d="M129,660H681L647,517q-91-75-149.5-156.5T404.5,189T350,0H150q20,108 65.5,206.5T338,394.5T528,563l28-59H92l37,156Z" />
      <glyph unicode="8" glyph-name="gid414" horiz-adv-x="638" d="M327-12Q268-12 214,0T117.5,36.5T50,97.5T25,183q0,51 21,86t58.5,55.5T192,353l-1-2q-26,14-44.5,33t-28,43T109,479q0,63 32.5,104.5T229,647t123,22q74,0 136.5-21t101-61.5T628,484q0-67-38.5-110.5T481,315v2q31-14 53-34t34.5-45.5T581,182q0-64-34-107.5t-91.5-65T327-12ZM312,133q24,0 41,9t26,25t9,36q0,21-11.5,36T345,262.5T299,271q-23,0-40.5-9.5T232,236t-9-36t11-35t31-23.5t47-8.5Zm56,260q23,0 38.5,9T431,427t9,35q0,28-20.5,45.5T364,525q-24,0-40.5-9.5t-25-24.5T290,457q0-18 9.5-32.5t27-23T368,393Z" />
      <glyph unicode="9" glyph-name="gid415" horiz-adv-x="607" d="M261-10q-62,0-113.5,20.5T63,69.5T22,164l183,45q2-20 10.5-35.5t24-24T277,141q28,0 48,13t34,36.5T382,244t14,62q-12-20-31.5-34T320,251.5T267,245q-58,0-103.5,23.5T93,335T68,434q0,71 35,124t94.5,82.5T331,670q81,0 138-29t88-88t31-148q0-80-20-154.5t-60-133t-101.5-93T261-10Zm63,387q22,0 40,9t28.5,26.5T403,454q0,21-10,35.5T366.5,512T329,520q-24,0-42-10t-27-27.5T251,443q0-18 9-33.5t25.5-24T324,377Z" />
      <glyph unicode=":" glyph-name="gid462" horiz-adv-x="296" d="M122-8Q74-8 45,13.5T16,76q0,52 31,83t86,31q49,0 77.5-21T239,106q0-52-30.5-83T122-8Zm90,390q-48,0-77,21.5T106,466q0,52 31,83t86,31q49,0 77.5-21T329,496q0-52-30.5-83T212,382Z" />
      <glyph unicode=";" glyph-name="gid463" horiz-adv-x="301" d="M193,510q49,0 77.5-21T299,426q0-52-30.5-83T182,312q-48,0-77,21.5T76,396q0,52 31,83t86,31ZM114,190q60,0 85-30.5T224,83q0-54-28-104t-78-88T-1-163L-45-91q37,9 68.5,24t54,33.5T112,3l-3,3q-7-3-13-4.5T79,0Q48,0 23.5,24T-1,84q0,49 32,77.5T114,190Z" />
      <glyph unicode="&lt;" glyph-name="gid549" horiz-adv-x="604" d="M635,594L589,399L235,293L536,168L497-3L51,212L89,379L635,594Z" />
      <glyph unicode="=" glyph-name="gid547" horiz-adv-x="604" d="M596,498L566,366H92l30,132H596ZM545,276L514,144H40L71,276H545Z" />
      <glyph unicode="&gt;" glyph-name="gid548" horiz-adv-x="605" d="M-9-3L37,192L391,298L89,422l40,172L575,379L536,212L-9-3Z" />
      <glyph unicode="?" glyph-name="gid467" horiz-adv-x="621" d="M194,216l34,155q53,1 95.5,8.5t68,27.5T417,463q0,24-16.5,36.5T355,512q-34,0-55.5-20.5T266,431L78,497q15,46 51,85.5T226.5,646T379,670q76,0 132.5-21.5t88-61.5T631,491q0-62-27.5-106T522,316T388,283l-21-67H194ZM252-7q-46,0-73.5,19.5T151,70q0,47 29,75t83,28q46,0 73.5-19T364,97q0-47-29.5-75.5T252-7Z" />
      <glyph unicode="@" glyph-name="gid558" horiz-adv-x="928" d="M457-182q-120,0-215,44.5T92.5-7.5T38,203q0,104 33.5,189T167,538.5t146,95T498,667q86,0 157.5-25t124-72t81-115T889,300q0-86-21.5-145t-56-94.5t-75-51T659-6q-47,0-81,16T526,55.5T509,126q-22-53-63.5-83.5T354,12q-40,0-72.5,21.5T230,97T211,199q0,49 14,96.5T266.5,382t67,62T423,467q26,0 51-9.5t43.5-31T543,368l21,90H737L675,187q-3-13-5-24.5T668,140q0-26 12-38t35-12q18,0 34.5,11.5T779,138t20.5,63.5T807,294q0,72-22.5,127t-64,92T622,569T496,588q-81,0-148.5-27T231,484T155.5,363T129,203q0-77 26.5-134.5T229-27T337-84t130-19q48,0 87,9.5T620-73l23-72q-22-10-49.5-18.5t-61-13.5T457-182ZM437,138q25,0 43,23t27.5,56t9.5,62q0,19-5.5,32.5t-16.5,21T468,340q-22,0-37.5-14T404,291t-16-44.5T383,204q0-20 6-35t18-23t30-8Z" />
      <glyph unicode="A" glyph-name="gid1" horiz-adv-x="680" d="M-62,0L313,660H560L626,0H433l-7,143H222L149,0H-62ZM290,275H421L410,511L290,275Z" />
      <glyph unicode="B" glyph-name="gid16" horiz-adv-x="696" d="M2,0L155,660H487q95,0 150.5-41.5T693,504q0-51-22.5-88.5t-59-59.5T530,326v-1q57-4 92.5-38.5T658,198q0-67-32-110.5T535.5,22T399,0H2ZM230,138H360q43,0 67.5,16.5T452,204q0,17-7.5,28.5T422,250t-38,6H258L230,138Zm61,259H397q28,0 47.5,8.5t30,24T485,465q0,26-18,38.5T419,516H318L291,397Z" />
      <glyph unicode="C" glyph-name="gid17" horiz-adv-x="694" d="M354-10q-88,0-156.5,35t-108,99T50,275q0,88 25,160.5t72,125t115,81T416,670q79,0 139.5-26.5t99-77T704,444L509,404q-1,55-24,82.5T413,514q-41,0-71-24t-50-61t-29-80t-9-82q0-37 13-64t37.5-42T366,146q46,0 72,26.5T482,241l181-68Q620,87 544.5,38.5T354-10Z" />
      <glyph unicode="D" glyph-name="gid24" horiz-adv-x="708" d="M2,0L155,660H403q97,0 162-34t98-94.5T696,390q0-88-24.5-160T599,107T483,28T327,0H2ZM242,149h74q45,0 78.5,21.5t54.5,57t31.5,79T491,393q0,37-12,63.5T443,497t-62,14H325L242,149Z" />
      <glyph unicode="E" glyph-name="gid34" horiz-adv-x="626" d="M2,0L155,660H690L655,507H324L299,400H560L528,258H267L243,153H581L545,0H2Z" />
      <glyph unicode="F" glyph-name="gid50" horiz-adv-x="605" d="M642,507H324L298,392H557L522,239H262L207,0H2L155,660H678L642,507Z" />
      <glyph unicode="G" glyph-name="gid51" horiz-adv-x="718" d="M315-10q-75,0-135,35T85,124T50,277q0,82 24.5,152.5t71.5,125t116,85T420,670q78,0 138.5-25.5t99-74T705,453L514,422q-4,42-27.5,67T416,514q-35,0-64.5-17T300,450t-34-70t-12-88q0-46 13.5-80t42-53T383,140q31,0 54,9.5t38.5,26T499,213l8,20H366l29,128H696L604,0H472l36,164l17-19q-17-50-45-84.5T411.5,8T315-10Z" />
      <glyph unicode="H" glyph-name="gid59" horiz-adv-x="742" d="M777,660L624,0H419L572,660H777Zm-417,0L207,0H2L155,660H360ZM626,409L590,256H160l36,153H626Z" />
      <glyph unicode="I" glyph-name="gid64" horiz-adv-x="325" d="M360,660L207,0H2L155,660H360Z" />
      <glyph unicode="J" glyph-name="gid78" horiz-adv-x="630" d="M279-10q-81,0-137.5,25.5t-87,68T20,181.5T39,297l205,8q-22-56-21-91t19.5-51.5T293,146q40,0 58.5,30.5T386,277l89,383H679L583,244q-17-76-52-133T435.5,22T279-10Z" />
      <glyph unicode="K" glyph-name="gid80" horiz-adv-x="702" d="M2,0L155,660H360L303,416L563,660H788L497,383L642,0H434L339,254l-93-85L207,0H2Z" />
      <glyph unicode="L" glyph-name="gid82" horiz-adv-x="610" d="M242,153H563L527,0H2L155,660H360L242,153Z" />
      <glyph unicode="M" glyph-name="gid92" horiz-adv-x="927" d="M2,0L155,660H409l26-288l6-166h1l81,166L674,660H962L809,0H630l61,264l47,201h-1L484,0H329L281,460h-2L243,264L182,0H2Z" />
      <glyph unicode="N" glyph-name="gid94" horiz-adv-x="741" d="M2,0L155,660H370L473,325l27-100h2l29,149l66,286H776L623,0H411L304,327L276,427h-2L247,286L181,0H2Z" />
      <glyph unicode="O" glyph-name="gid105" horiz-adv-x="728" d="M352-10q-85,0-153.5,34.5T90.5,124T51,281q0,84 24.5,155.5t71,124t114,81T413,670q86,0 154-34.5T674.5,536T714,379q0-84-24-155T619.5,100t-114-81.5T352-10Zm5,157q39,0 67.5,23T472,230.5T500.5,312t9.5,85q0,38-11.5,64t-34,39T408,513q-39,0-67.5-23T293,429.5T264.5,348T255,263q0-37 11.5-63.5T301,160t56-13Z" />
      <glyph unicode="P" glyph-name="gid128" horiz-adv-x="683" d="M2,0L155,660H423q125,0 195.5-53.5T689,455q0-74-35.5-131T552,235T395,203H157l33,148H382q34,0 57,12.5T474.5,396T487,441q0,33-20.5,52T399,512H325L207,0H2Z" />
      <glyph unicode="Q" glyph-name="gid130" horiz-adv-x="728" d="M467-207q-40,0-79.5,9.5t-71.5,29T264.5-118T245-43q0,12 1.5,26.5T253,18l129,3q-3-8-4.5-15.5T376-8q0-29 30.5-41T483-61q36,0 62.5,6T592-40l2-139q-24-13-54.5-20.5T467-207ZM352-10q-85,0-153.5,34.5T90.5,124T51,281q0,84 24.5,155.5t71,124t114,81T413,670q86,0 154-34.5T674.5,536T714,379q0-84-24-155T619.5,100t-114-81.5T352-10Zm5,157q39,0 67.5,23T472,230.5T500.5,312t9.5,85q0,38-11.5,64t-34,39T408,513q-39,0-67.5-23T293,429.5T264.5,348T255,263q0-37 11.5-63.5T301,160t56-13Z" />
      <glyph unicode="R" glyph-name="gid131" horiz-adv-x="691" d="M2,0L155,660H462q106,0 168-50.5T692,469q0-77-36-129.5t-98.5-80T414,231l-33-10H240l31,139H385q34,0 57.5,11T479,401.5T492,447q0,34-23,49t-58,15H321L203,0H2ZM432,0L325,288l182,29L636,0H432Z" />
      <glyph unicode="S" glyph-name="gid139" horiz-adv-x="640" d="M330-12Q261-12 198.5,5T83.5,56T-9,141L100,261q26-37 64-64t80.5-41.5T327,141q25,0 39.5,6.5T388,165t7,24q0,16-13,26t-41,19l-95,32q-43,15-79.5,39.5t-59,61.5T85,454q0,72 36.5,119.5t99.5,72T363,670q106,0 179-35.5T668,538L553,422q-23,30-53.5,51t-65,31.5T365,515q-23,0-37.5-5t-22-14.5T298,473q0-16 17-28t46-22l91-31q77-26 117-68.5T609,211T572,90.5T472,14T330-12Z" />
      <glyph unicode="T" glyph-name="gid152" horiz-adv-x="668" d="M741,660L706,507H496L379,0H175L292,507H81l36,153H741Z" />
      <glyph unicode="U" glyph-name="gid159" horiz-adv-x="708" d="M331-10Q227-10 158,26.5t-96,105T57,295l85,365H348L258,269q-8-39 0.5-66.5t32-42T349,146q46,0 71.5,27.5T458,257l94,403H756L663,259Q630,122 551.5,56T331-10Z" />
      <glyph unicode="V" glyph-name="gid175" horiz-adv-x="676" d="M776,660L403,0H161L95,660H288l20-374l4-129l58,128L568,660H776Z" />
      <glyph unicode="W" glyph-name="gid176" horiz-adv-x="1006" d="M129,0L95,660H296l-9-492L493,660H674l4-493L876,660h224L759,0H535V282l12,171h-3L475,282L353,0H129Z" />
      <glyph unicode="X" glyph-name="gid181" horiz-adv-x="686" d="M-57,0L251,342L108,660H330l66-175L532,660H761L469,333L625,0H403L334,180L189,0H-57Z" />
      <glyph unicode="Y" glyph-name="gid182" horiz-adv-x="685" d="M182,0l56,241L105,660H299l47-166l25-113l70,115L554,660H770L439,227L387,0H182Z" />
      <glyph unicode="Z" glyph-name="gid192" horiz-adv-x="634" d="M-22,0L13,151L431,511H87l35,149H691L656,509L238,149H591L556,0H-22Z" />
      <glyph unicode="[" glyph-name="gid486" horiz-adv-x="406" d="M457,571H331L191-32H318L286-168H-13L189,706H488L457,571Z" />
      <glyph unicode="\" glyph-name="gid474" horiz-adv-x="465" d="M110,706H287L386-70H209L110,706Z" />
      <glyph unicode="]" glyph-name="gid487" horiz-adv-x="406" d="M-42-32H84L223,571H97l31,135H427L225-168H-74L-42-32Z" />
      <glyph unicode="^" glyph-name="gid553" horiz-adv-x="631" d="M48,355L341,722H509L631,355H463L395,594L229,355H48Z" />
      <glyph unicode="_" glyph-name="gid492" horiz-adv-x="539" d="M469-55L432-211H-107L-70-55H469Z" />
      <glyph unicode="`" glyph-name="gid605" horiz-adv-x="500" d="M421,734l24-175H309L238,734H421Z" />
      <glyph unicode="a" glyph-name="gid198" horiz-adv-x="618" d="M188-10q-46,0-84,22T44,77T22,184q0,60 17,118T87.5,407T164,482t103,28q29,0 57.5-11t50-35T403,398l24,102H629L513,0H329l17,95q-25-49-66-77T188-10Zm94,145q21,0 38,15t29.5,39.5t19,52.5t6.5,53q0,22-7,37.5t-19.5,24T318,365q-24,0-42-16t-30-40t-18-51t-6-48q0-23 6.5-40T248,144t34-9Z" />
      <glyph unicode="b" glyph-name="gid213" horiz-adv-x="618" d="M440,510q47,0 82-21.5T576.5,424T596,318q0-59-16.5-117.5T533,94.5t-72.5-76T365-10q-33,0-65.5,11T244,36t-31,65L185,0H-10L153,706H355L289,420q26,42 65,66t86,24ZM301,135q24,0 41.5,16T372,191t18.5,51t6.5,48q0,25-6.5,41t-20,25T338,365q-22,0-40-15t-30-39.5t-18-52T244,205q0-32 14.5-51T301,135Z" />
      <glyph unicode="c" glyph-name="gid214" horiz-adv-x="571" d="M289-10q-82,0-141,29T57.5,99.5T26,218q0,79 34,145.5T160,470t162,40q74,0 128.5-24t85-67T565,317L374,289q5,37-6.5,59T322,370q-25,0-43-17t-30.5-43t-19-56T223,198q0-23 8-39t22.5-23.5T287,128q24,0 43,17.5T357,192l178-57Q506,68 442.5,29T289-10Z" />
      <glyph unicode="d" glyph-name="gid221" horiz-adv-x="618" d="M188-10q-46,0-84,22T44,77T22,184q0,60 17,118T87.5,407T164,482t103,28q29,0 57.5-11t50-35T403,398l71,308H676L513,0H329l17,95q-25-49-66-77T188-10Zm94,145q21,0 38.5,15T350,189.5T368.5,242t6.5,53q0,22-7,37.5t-19.5,24T318,365q-24,0-42-16t-30-40t-18-51t-6-48q0-23 6.5-40T248,144t34-9Z" />
      <glyph unicode="e" glyph-name="gid229" horiz-adv-x="585" d="M284-9Q209-9 150.5,18.5t-91,79T27,218q0,87 35.5,152.5T163,473t153,37q78,0 132-28t82.5-78T559,287q0-20-2-40.5T549,206H162l-1,88H413l-52-23q5,13 5.5,22.5T367,312q0,22-7,35.5t-19.5,20T312,374q-30,0-50-16t-31-41.5t-15-55T212,206q0-27 10-45t28-26.5t41-8.5q30,0 48,15t27,36l168-58q-16-41-53-69.5T393.5,6T284-9Z" />
      <glyph unicode="f" glyph-name="gid246" horiz-adv-x="424" d="M33,0L156,534q17,72 52,113.5T293,706t111,17q41,0 73.5-7T530,698L488,573q-9,4-22.5,7.5T430,584q-38,0-56.5-12.5T347,526l-16-67l3-28L235,0H33ZM32,361L64,500H474L441,361H32Z" />
      <glyph unicode="g" glyph-name="gid247" horiz-adv-x="617" d="M209-215q-46,0-88.5,11T44-169.5T-8.5-110T-26-25L176-10q-1-37 10-59t48-22q20,0 35.5,10.5t27.5,32T317,10l41,177l7-5q-15-82-59-125.5T193,13q-47,0-84.5,22T49,99.5T27,204q0,58 16.5,113t48,98.5t76,69T268,510q35,0 67-16t52.5-51.5T406,350l-21-31l41,181H628L520,33q-21-94-62-148T355.5-192T209-215Zm78,371q28,0 47.5,21.5t30,53.5T375,296q0,21-7,36.5t-20,24T317,365q-31,0-51-22.5t-30-54T226,230q0-33 14.5-53.5T287,156Z" />
      <glyph unicode="h" glyph-name="gid255" horiz-adv-x="615" d="M-10,0L153,706H355L280,380l-17-28q12,42 37,77.5t64.5,58T458,510q47,0 81-22.5t47.5-63T588,329L511,0H309l69,292q7,31-5,49t-40,18q-20,0-35.5-10t-26-29T254,272L192,0H-10Z" />
      <glyph unicode="i" glyph-name="gid260" horiz-adv-x="299" d="M227,544q-51,0-78.5,20T127,629q7,52 36,73t84,21q52,0 79.5-20.5T348,640q-7-56-37-76t-84-20Zm81-44L192,0H-10L106,500H308Z" />
      <glyph unicode="j" glyph-name="gid275" horiz-adv-x="299" d="M227,544q-51,0-78.5,20T127,629q7,52 36,73t84,21q52,0 79.5-20.5T348,640q-7-56-37-76t-84-20ZM-23-215q-40,0-79,7.5T-168-181l42,123q11-7 24-11.5T-76-74q30,0 43,15.5T-11-3L106,500H308L187-25q-24-100-73.5-145T-23-215Z" />
      <glyph unicode="k" glyph-name="gid278" horiz-adv-x="636" d="M682,500L386,238l-22-8L188,73l15,183L454,500H682ZM355,706L192,0H-10L153,706H355Zm82-348L589,0H393L298,243L437,358Z" />
      <glyph unicode="l" glyph-name="gid281" horiz-adv-x="337" d="M187-9Q90-9 50,43T31,184L152,706H354L234,188q-7-31 3-46.5T277,126q11,0 19,1t13,2L275,3q-16-7-37-9.5T187-9Z" />
      <glyph unicode="m" glyph-name="gid290" horiz-adv-x="932" d="M-10,0L106,500H285L257,324l-8,17q21,81 73.5,125T449,510q52,0 87-23t48.5-65T584,321L509,0H307l69,292q7,31-5,49t-38,18q-20,0-35.5-10t-26-29T254,272L192,0H-10ZM626,0l68,292q7,31-4.5,49T652,359q-20,0-35.5-10T590,320t-17-48l-10,64q22,84 75,129t126,45q53,0 89-23t49.5-65T903,321L828,0H626Z" />
      <glyph unicode="n" glyph-name="gid292" horiz-adv-x="615" d="M-10,0L106,500H285L257,324l-8,17q21,81 74,125t127,44q52,0 87-23t49-65t0-101L511,0H309l69,292q7,31-5,49t-40,18q-20,0-35.5-10t-26-29T254,272L192,0H-10Z" />
      <glyph unicode="o" glyph-name="gid302" horiz-adv-x="602" d="M280-10q-77,0-134,29.5t-88.5,81T26,218q0,79 34,145.5T159.5,470T321,510q78,0 135-29.5T544.5,400T576,283q0-79-34-146T442.5,30T280-10Zm3,138q22,0 39.5,17t30,44t19,57t6.5,56q0,24-7,39t-20.5,23T318,372q-22,0-39.5-17t-30-44T229,254t-7-56q0-23 7.5-38.5t21-23.5t32.5-8Z" />
      <glyph unicode="p" glyph-name="gid325" horiz-adv-x="618" d="M-58-210L106,500H289L256,313l-10,13q11,57 39.5,98t69,63.5T441,510t81-21.5t54.5-64T596,318q0-59-16-117.5t-46.5-106T461,18.5T366-10q-37,0-72.5,14t-59,47T211,140l22,41L144-210H-58ZM301,135q24,0 41.5,16T372,191t18.5,51t6.5,49q0,23-6.5,39.5t-20,25.5T337,365q-21,0-38.5-15t-30-39.5t-18.5-52T244,205q0-32 14.5-51T301,135Z" />
      <glyph unicode="q" glyph-name="gid327" horiz-adv-x="618" d="M269-210l91,395l10-15Q353,87 304.5,38.5T188-10q-46,0-84,22T44,77T22,184q0,60 17,118T87.5,407t77,75T267,510q35,0 67.5-15t53-51T406,347l-20-26l41,179H629L464-210H269Zm13,345q21,0 38.5,15T350,189.5T368.5,242t6.5,53q0,22-7,37.5t-19.5,24T318,365q-24,0-42-16t-30-40t-18-51t-6-48q0-23 6.5-40T248,144t34-9Z" />
      <glyph unicode="r" glyph-name="gid328" horiz-adv-x="436" d="M-10,0L106,500H286L249,295l-6,20q16,58 41.5,102t64,68.5T440,510q17,0 28.5-2.5T487,501L440,334q-10,5-24,8t-36,3q-29,0-56.5-13t-49-40.5T242,217L192,0H-10Z" />
      <glyph unicode="s" glyph-name="gid336" horiz-adv-x="525" d="M255-10Q202-10 150,4T54,44t-72,64l93,94q28-36 71-60t84-24q24,0 36.5,6.5T279,144q0,10-7.5,18T246,174l-50,17q-80,25-113,60.5T50,342q0,54 29,91.5t80,57T276,510q80,0 142.5-26T520,414l-87-99q-15,19-38.5,34T343,373t-56,9q-22,0-32.5-6.5T244,357q0-11 9.5-17.5T278,329l92-30q54-16 83-50t29-83q0-54-27-93.5t-77.5-61T255-10Z" />
      <glyph unicode="t" glyph-name="gid349" horiz-adv-x="448" d="M263-10q-66,0-112.5,23t-65,68T82,194l96,413l215,56L286,201q-10-36 8.5-55.5T351,126q23,0 36,2.5t24,7.5L391,11Q363,0 330.5-5T263-10ZM32,361L64,500H485L453,361H32Z" />
      <glyph unicode="u" glyph-name="gid357" horiz-adv-x="614" d="M167-10q-52,0-88,22.5t-50,64T28,175l75,325H305L238,208q-8-33 5.5-49.5T284,142q21,0 35,9.5t24.5,29T360,228l63,272H625L509,0H329l28,176l8-19Q344,77 292,33.5T167-10Z" />
      <glyph unicode="v" glyph-name="gid373" horiz-adv-x="570" d="M409,500H635L352,0H104L51,500H250l3-469l-38,6L409,500Z" />
      <glyph unicode="w" glyph-name="gid374" horiz-adv-x="908" d="M71,0L54,500H251l-9-347L402,500H601l9-348L755,500H968L715,0H470L460,276L324,0H71Z" />
      <glyph unicode="x" glyph-name="gid379" horiz-adv-x="609" d="M-62,0L195,280l65-20L433,500H667L417,225l-76,17L178,0H-62ZM338,0L261,244l-75-12L63,500H280l61-241l83,16L554,0H338Z" />
      <glyph unicode="y" glyph-name="gid380" horiz-adv-x="577" d="M56-215q-45,0-84,10t-61,25L-37-42Q-2-71 52-71q26,0 46.5,9T131-34l11,18L54,500H259l4-263l-1-121l51,120L430,500H642L341-22q-40-70-81.5-112.5T169-196T56-215Z" />
      <glyph unicode="z" glyph-name="gid390" horiz-adv-x="511" d="M-24,0L4,119L214,319l57,48l-75-4H56L88,500H533L505,380L302,187l-63-54l87,4H464L433,0H-24Z" />
      <glyph unicode="{" glyph-name="gid484" horiz-adv-x="441" d="M314-192q-122,0-179,48T101,9l19,87q14,59-7,85T45,207H36L65,331H92q39,0 65.5,19.5T194,416l34,145q21,90 76,130t154,40h75L504,608H474q-36,0-62-22t-38-72L343,378q-10-47-39-74.5T229,268q42-12 57-42t4-77L262,25q-12-50 7.5-72.5T332-70h16L320-192h-6Z" />
      <glyph unicode="|" glyph-name="gid568" horiz-adv-x="347" d="M368,706L166-168H-13L189,706H368Z" />
      <glyph unicode="}" glyph-name="gid485" horiz-adv-x="441" d="M-83-192L-54-70h29q42,0 66.5,23.5T76,24l31,137q11,46 39.5,73.5T221,270q-41,13-56,42.5T160,389l28,124q12,50-6.5,72.5T126,608H102l28,123h47q61,0 105.5-20.5T347,649t6-103L330,443q-13-59 8-85.5T408,331h7L386,207H359q-39,0-65.5-19T256,122L223-23q-20-89-74.5-129T0-192H-83Z" />
      <glyph unicode="~" glyph-name="gid551" horiz-adv-x="611" d="M610,439q-14-82-44.5-128T496,247t-79-18q-35,0-59,9.5t-43,22t-36,22T242,292q-17,0-30.5-14T190,236H42q12,78 42.5,124t72,66T242,446q29,0 51.5-9.5t41.5-22t36.5-22T409,383q17,0 31,13.5T462,439H610Z" />
      <glyph unicode="&#xa0;" glyph-name="gid506" horiz-adv-x="266" />
      <glyph unicode="&#xa1;" glyph-name="gid466" horiz-adv-x="310" d="M246,282L209,27L165-160H-46L-3,27L79,282H246ZM195,508q47,0 74.5-19.5T297,431q0-48-29.5-76.5T184,326q-46,0-73.5,19.5T83,403q0,48 29.5,76.5T195,508Z" />
      <glyph unicode="&#xa2;" glyph-name="gid512" horiz-adv-x="578" d="M281-10q-76,0-133,29.5t-89,82T27,222q0,87 35,151.5T161,474t150,36q79,0 134-25.5t85.5-69T563,318L398,296q3,42-18.5,67.5T314,389q-39,0-66-25.5t-40.5-66T194,211q0-30 10.5-52.5t31-35T286,111q33,0 55.5,19T376,191l159-50Q511,73 443.5,31.5T281-10ZM156-100L316,600H434L274-100H156Z" />
      <glyph unicode="&#xa3;" glyph-name="gid530" horiz-adv-x="633" d="M61,269l18,80H501l-19-80H61ZM419-11q-44,0-77.5,13T280,33.5T227,70t-49.5,31T124,114q-14,0-23.5-8T91,85t9-21t23-8q27,0 41,18.5T184,121t6,55q0,41-8,75.5t-17.5,65T147,379t-8,68q0,67 31.5,116.5t88,78T387,670q68,0 121-22.5T591,580t27-112L452,435q0,42-15.5,67T384,527q-22,0-39-10t-27-29t-10-45q0-27 5.5-56t11-60.5T330,258q0-50-14.5-98.5T273,72.5t-66-61T121-11Q72-11 41,14T10,81q0,47 34.5,72.5T128,179q29,0 59-6t59.5-15T303,140t52.5-15t46.5-6q28,0 44,17.5T468,197l123-21q1-61-24-102.5t-64.5-63T419-11Z" />
      <glyph unicode="&#xa4;" glyph-name="gid514" horiz-adv-x="656" d="M347,537q63,0 111-26.5T533,438t27-108T533,221.5t-75-73T347,122q-64,0-112.5,26.5t-75.5,73T132,330t27,108t75.5,72.5T347,537Zm0-138q-31,0-49.5-18.5T279,330t18.5-51T347,260q30,0 48,19t18,51t-18,50.5T347,399ZM165,624L300,467l-92-92L51,510L165,624Zm42-340l93-92L165,34L51,149L207,284Zm282-5L641,149L526,34L395,186l94,93Zm37,345L641,510L490,378l-94,94L526,624Z" />
      <glyph unicode="&#xa5;" glyph-name="gid532" horiz-adv-x="679" d="M180,0l30,127H39l13,58H223l15,63H66l14,60h94l66-4L99,660H286l52-193l26-103h2l57,104L529,660H750L461,303l66,5h94l-14-60H435l-14-63H592l-13-58H408L378,0H180Z" />
      <glyph unicode="&#xa6;" glyph-name="gid569" horiz-adv-x="347" d="M368,706L279,321H101l88,385H368ZM256,218L166-168H-13L77,218H256Z" />
      <glyph unicode="&#xa7;" glyph-name="gid561" horiz-adv-x="633" d="M282-111q-57,0-112,15T70.5-50.5T1,26l113,74q27-42 75.5-67T291,8q32,0 52.5,10.5T364,49q0,15-13.5,25.5T307,95L180,139q-70,23-110.5,58T29,297q0,54 28.5,88T135,434.5T246,449l35-81q-63-3-87.5-14T169,318q0-20 17-32t50-22l137-43q66-21 102.5-54T512,84q0-58-29-102T402-86.5T282-111ZM390,106l-35,84q30-1 56,2.5t42,14T469,236q0,17-15.5,27.5T414,281L245,336q-34,11-59,31t-38,48t-13,64q0,59 29,101.5T245,646t119,23q57,0 107-12.5t91-40T632,543L517,465q-25,41-63.5,59T363,542q-25,0-40.5-6.5t-23-16.5T292,496q0-16 13-29.5T366,440l82-23q79-21 119.5-58T608,267q0-56-28-95.5T503,115t-113-9Z" />
      <glyph unicode="&#xa8;" glyph-name="gid604" horiz-adv-x="500" d="M446,545q-40,0-64.5,16T357,613q0,54 29,77t78,23q40,0 64-16t24-51q0-54-28.5-77.5T446,545Zm-232,0q-40,0-64.5,16T125,613q0,54 29,77t78,23q40,0 64-16t24-51q0-54-29-77.5T214,545Z" />
      <glyph unicode="&#xa9;" glyph-name="gid562" horiz-adv-x="768" d="M402-10q-99,0-177.5,43t-123,119.5T57,330q0,102 44.5,178t123,119T402,670q101,0 178.5-43T703,508t45-178q0-101-45-177.5T580.5,33T402-10Zm0,90q76,0 132.5,31.5t88,88T654,330q0,75-31.5,131t-88,87.5T402,580q-75,0-131.5-31.5t-88-87.5T151,330q0-74 31.5-130.5t88-88T402,80Zm6,56q-92,0-143,53T214,330t51,140.5T408,523q71,0 116.5-31.5T587,407L474,353q-10,20-24,27t-35,7q-27,0-43.5-14.5T355,330t16.5-43T416,272q19,0 35,7t25,30l108-53q-25-64-66-92T408,136Z" />
      <glyph unicode="&#xaa;" glyph-name="gid404" horiz-adv-x="453" d="M182,299q-47,0-80,34T69,433q0,42 11.5,82.5t34,73.5t54,52.5T240,661q23,0 45-10.5T321,615t12-71l-16-22l31,132H493L412,306H280l28,147l4-22q-12-62-47-97t-83-35ZM11,133L35,234H409L386,133H11ZM250,402q20,0 33.5,18.5t20.5,44t7,46.5t-9,33.5T275,557q-22,0-35.5-19T219,494.5T212,451q0-23 9.5-36T250,402Z" />
      <glyph unicode="&#xab;" glyph-name="gid499" horiz-adv-x="610" d="M371,461L168,222l3,110L277,69H112L32,265L201,461H371Zm258,0L426,222l3,110L535,69H370L290,265L459,461H629Z" />
      <glyph unicode="&#xac;" glyph-name="gid552" horiz-adv-x="604" d="M559,312L507,85H349l52,227H559Zm19,85L546,259H62L94,397H578Z" />
      <glyph unicode="&#xad;" glyph-name="gid489" horiz-adv-x="534" d="M479,349L443,191H64l36,158H479Z" />
      <glyph unicode="&#xae;" glyph-name="gid563" horiz-adv-x="770" d="M403,670q105,0 182.5-42.5T706,509t43-179q0-102-43-178.5T585.5,32.5T403-10Q299-10 221.5,32.5T101,151.5T58,330q0,103 43,179T221.5,627.5T403,670ZM369,516V154H256V516H369ZM471,319L576,154H438L372,296l99,23ZM403,580q-75,0-131-31.5t-87-87T154,330q0-75 31-131t87-87.5T403,80q76,0 132,31.5T622,199t31,131q0,76-31,131.5t-87,87T403,580Zm36-64q37,0 65.5-15.5T550,458t17-62q0-58-39-89.5T423,275H320v77h88q19,0 31,7.5T451,386t-12,27t-31,8H320v95H439Z" />
      <glyph unicode="&#xaf;" glyph-name="gid612" horiz-adv-x="500" d="M536,678L508,559H134l28,119H536Z" />
      <glyph unicode="&#xb0;" glyph-name="gid565" horiz-adv-x="490" d="M297,283q-66,0-114,23.5t-74,67T83,477q0,59 26,102.5t74,67T297,670q67,0 114-23.5t73-67T510,477q0-60-26-103.5t-73-67T297,283Zm0,124q32,0 51.5,20T368,477q0,31-19.5,50T297,546q-31,0-51-19t-20-50q0-30 20-50t51-20Z" />
      <glyph unicode="&#xb1;" glyph-name="gid550" horiz-adv-x="604" d="M467,656L360,196H220L327,656H467ZM612,493L581,360H73l30,133H612ZM529,129L499,1H-10L20,129H529Z" />
      <glyph unicode="&#xb2;" glyph-name="gid448" horiz-adv-x="392" d="M50,334l21,92q39,17 79,37.5t74.5,42t56,44T302,594q0,19-8.5,26T271,627q-22,0-34-15.5T222,567L89,596q12,66 58.5,103T282,736q79,0 120.5-31.5T444,624q0-42-17.5-71T380,504t-63-34t-67-27v-1q17,1 38,1.5t43,0.5h87L393,334H50Z" />
      <glyph unicode="&#xb3;" glyph-name="gid449" horiz-adv-x="387" d="M239,327q-85,0-132.5,34.5T55,452l130,23q1-25 13.5-36.5T232,427q19,0 30,9.5T273,464q0,16-11,23.5T233,495q-8,0-13.5-0.5T209,493l18,73q7-1 13.5-2t13.5-1q23,0 32.5,10t9.5,25q0,16-9.5,23T260,628t-28.5-8.5T215,593L94,632q13,46 57,75.5T274,737q69,0 115-28t46-80q0-40-24.5-69.5T342,528l-1-3q30-2 51-19.5T413,453q0-41-23.5-69.5t-63-42.5T239,327Z" />
      <glyph unicode="&#xb4;" glyph-name="gid606" horiz-adv-x="600" d="M350,734H538L390,559H245L350,734Z" />
      <glyph unicode="&#xb5;" glyph-name="gid554" horiz-adv-x="617" d="M-58-210L106,500H308L240,208q-7-30 4.5-48T286,142q21,0 35.5,9.5t24.5,29T362,228l63,272H627L511,0H331l17,105q-27-54-71-84T174-9q-24,0-50,6T73,16L215,89L144-210H-58Z" />
      <glyph unicode="&#xb6;" glyph-name="gid560" horiz-adv-x="783" d="M220-100l61,267q-31,0-67.5,12.5t-70.5,39t-55,70T67,394q0,84 39.5,143.5t111.5,91T385,660H820L644-100H483L623,508H522L382-100H220Zm91,425l42,183H332q-33,0-57-12t-37.5-35T224,402q0-34 23-55.5T311,325Z" />
      <glyph unicode="&#xb7;" glyph-name="gid469" horiz-adv-x="287" d="M162,254q-48,0-77,21.5T56,338q0,52 31,83t86,31q49,0 77.5-21T279,368q0-52-30.5-83T162,254Z" />
      <glyph unicode="&#xb8;" glyph-name="gid613" horiz-adv-x="500" d="M123,6l46,23q59-8 91.5-37T293-83q0-41-19-71.5T222.5-201T147-217q-39,0-68.5,10.5T28-177L77-95q11-10 28.5-15t30.5-5q24,0 40,16.5T192-61T175-23T123,6Z" />
      <glyph unicode="&#xb9;" glyph-name="gid447" horiz-adv-x="297" d="M133,334l45,194q3,9 7,23.5t7.5,26.5t3.5,13q-24-14-59-24T78,556l24,110q27,6 56,16t55,22.5T255,730H367L275,334H133Z" />
      <glyph unicode="&#xba;" glyph-name="gid405" horiz-adv-x="444" d="M260,299q-85,0-131,43.5T83,456q0,54 23.5,101T176,632.5T290,661q85,0 130.5-43.5T466,504q0-54-22.5-101T375,327.5T260,299ZM9,133L32,234H404L380,133H9ZM261,397q21,0 35,21t21.5,49.5T325,518q0,23-10.5,33.5T288,562q-21,0-35.5-20.5T231,493t-7-51t10-34t27-11Z" />
      <glyph unicode="&#xbb;" glyph-name="gid500" horiz-adv-x="610" d="M-12,69L179,300l10-107L81,461H243l84-196L160,69H-12Zm258,0L437,300l10-107L339,461H501l84-196L418,69H246Z" />
      <glyph unicode="&#xbc;" glyph-name="gid458" horiz-adv-x="898" d="M118,269l45,194q3,9 7,23.5t7.5,26.5t3.5,13q-24-14-59-24T63,491L87,601q27,6 56,16t55,22.5T240,665H352L260,269H118ZM71,0L696,661H838L213,0H71ZM640-3l18,78H472l21,86q12,14 21.5,26.5t20,25T558,239L689,393H855L804,169h68L851,75H783L765-3H640ZM611,169h69l32,132l-72-97q-8-10-15-19t-14-16Z" />
      <glyph unicode="&#xbd;" glyph-name="gid457" horiz-adv-x="967" d="M118,269l45,194q3,9 7,23.5t7.5,26.5t3.5,13q-24-14-59-24T63,491L87,601q27,6 56,16t55,22.5T240,665H352L260,269H118ZM71,0L696,661H838L213,0H71ZM547-3l21,92q39,17 79,37.5t74.5,42t56,44T799,257q0,19-8.5,26T768,290q-22,0-34-15.5T719,230L586,259q12,66 58.5,103T779,399q79,0 120.5-31.5T941,287q0-42-17.5-71T877,167t-63-34t-67-27v-1q17,1 38,1.5t43,0.5h87L890-3H547Z" />
      <glyph unicode="&#xbe;" glyph-name="gid459" horiz-adv-x="988" d="M224,262q-85,0-132.5,34.5T40,387l130,23q1-25 13.5-36.5T217,362q19,0 30,9.5T258,399q0,16-11,23.5T218,430q-8,0-13.5-0.5T194,428l18,73q7-1 13.5-2t13.5-1q23,0 32.5,10t9.5,25q0,16-9.5,23T245,563t-28.5-8.5T200,528L79,567q13,46 57,75.5T259,672q69,0 115-28t46-80q0-40-24.5-69.5T327,463l-1-3q30-2 51-19.5T398,388q0-41-23.5-69.5t-63-42.5T224,262ZM161,0L786,661H928L303,0H161ZM730-3l18,78H562l21,86q12,14 21.5,26.5t20,25T648,239L779,393H945L894,169h68L941,75H873L855-3H730ZM701,169h69l32,132l-72-97q-8-10-15-19t-14-16Z" />
      <glyph unicode="&#xbf;" glyph-name="gid468" horiz-adv-x="619" d="M427,285L393,130q-52-1-95-9T229.5,93.5T204,38q0-24 17-37t45-13q34,0 55.5,20.5T355,70L542,4q-14-47-50-86t-97.5-63T242-169q-75,0-132,21.5T21.5-86T-10,9q0,63 27,107t81.5,69.5T232,218l21,67H427ZM369,508q46,0 73.5-19.5T470,431q0-47-29-75t-83-28q-46,0-73.5,19T257,404q0,47 29.5,75.5T369,508Z" />
      <glyph unicode="&#xc0;" glyph-name="gid7" horiz-adv-x="680" d="M-62,0L313,660H560L626,0H433l-7,143H222L149,0H-62ZM290,275H421L410,511L290,275ZM489,881l29-166H387L319,881H489Z" />
      <glyph unicode="&#xc1;" glyph-name="gid2" horiz-adv-x="680" d="M-62,0L313,660H560L626,0H433l-7,143H222L149,0H-62ZM290,275H421L410,511L290,275ZM465,881H645L517,715H368l97,166Z" />
      <glyph unicode="&#xc2;" glyph-name="gid4" horiz-adv-x="680" d="M-62,0L313,660H560L626,0H433l-7,143H222L149,0H-62ZM290,275H421L410,511L290,275ZM583,881l58-166H513l-41,87l-79-87H253L389,881H583Z" />
      <glyph unicode="&#xc3;" glyph-name="gid13" horiz-adv-x="680" d="M-62,0L313,660H560L626,0H433l-7,143H222L149,0H-62ZM290,275H421L410,511L290,275ZM671,879q-12-86-54-127.5T523,710q-27,0-45.5,8.5t-32,19.5t-26,19.5T393,766q-15,0-25-14.5T352,712H246q14,85 53,126.5T393,880q22,0 40-8.5t33-19t29-19t28-8.5q15,0 25.5,13.5T565,879H671Z" />
      <glyph unicode="&#xc4;" glyph-name="gid6" horiz-adv-x="680" d="M-62,0L313,660H560L626,0H433l-7,143H222L149,0H-62ZM290,275H421L410,511L290,275ZM566,705q-40,0-64.5,16T477,773q0,54 29,77t78,23q40,0 64-16t24-51q0-54-28.5-77.5T566,705Zm-232,0q-40,0-64.5,16T245,773q0,54 29,77t78,23q40,0 64-16t24-51q0-54-29-77.5T334,705Z" />
      <glyph unicode="&#xc5;" glyph-name="gid11" horiz-adv-x="680" d="M-62,0L313,660H560L626,0H433l-7,143H222L149,0H-62ZM290,275H421L410,511L290,275ZM448,840q64,0 101.5-32T587,725q0-62-42-101.5T437,584q-64,0-101.5,31.5T298,698q0,62 42,102t108,40Zm-3-82q-20,0-35-13.5T395,706q0-18 12.5-29.5T440,665t34.5,14T489,717q0,19-11.5,30T445,758Z" />
      <glyph unicode="&#xc6;" glyph-name="gid14" horiz-adv-x="910" d="M-65,0L323,660H970L935,515H659L631,397H843L812,262H601L573,145H863L829,0H351l44,190H251L150,0H-65ZM312,315H423l48,207H425L312,315Z" />
      <glyph unicode="&#xc7;" glyph-name="gid20" horiz-adv-x="694" d="M354-10q-88,0-156.5,35t-108,99T50,275q0,88 25,160.5t72,125t115,81T416,670q79,0 139.5-26.5t99-77T704,444L509,404q-1,55-24,82.5T413,514q-41,0-71-24t-50-61t-29-80t-9-82q0-37 13-64t37.5-42T366,146q46,0 72,26.5T482,241l181-68Q620,87 544.5,38.5T354-10ZM247,6l46,23q59-8 91.5-37T417-83q0-41-19-71.5T346.5-201T271-217q-39,0-68.5,10.5T152-177l49,82q11-10 28.5-15t30.5-5q24,0 40,16.5T316-61T299-23T247,6Z" />
      <glyph unicode="&#xc8;" glyph-name="gid43" horiz-adv-x="626" d="M2,0L155,660H690L655,507H324L299,400H560L528,258H267L243,153H581L545,0H2ZM471,881l29-166H369L301,881H471Z" />
      <glyph unicode="&#xc9;" glyph-name="gid35" horiz-adv-x="626" d="M2,0L155,660H690L655,507H324L299,400H560L528,258H267L243,153H581L545,0H2ZM440,881H620L492,715H343l97,166Z" />
      <glyph unicode="&#xca;" glyph-name="gid39" horiz-adv-x="626" d="M2,0L155,660H690L655,507H324L299,400H560L528,258H267L243,153H581L545,0H2ZM567,881l58-166H497l-41,87l-79-87H237L373,881H567Z" />
      <glyph unicode="&#xcb;" glyph-name="gid41" horiz-adv-x="626" d="M2,0L155,660H690L655,507H324L299,400H560L528,258H267L243,153H581L545,0H2ZM550,705q-40,0-64.5,16T461,773q0,54 29,77t78,23q40,0 64-16t24-51q0-54-28.5-77.5T550,705Zm-232,0q-40,0-64.5,16T229,773q0,54 29,77t78,23q40,0 64-16t24-51q0-54-29-77.5T318,705Z" />
      <glyph unicode="&#xcc;" glyph-name="gid73" horiz-adv-x="325" d="M360,660L207,0H2L155,660H360ZM308,881l29-166H206L138,881H308Z" />
      <glyph unicode="&#xcd;" glyph-name="gid66" horiz-adv-x="325" d="M360,660L207,0H2L155,660H360ZM290,881H470L342,715H193l97,166Z" />
      <glyph unicode="&#xce;" glyph-name="gid68" horiz-adv-x="325" d="M360,660L207,0H2L155,660H360Zm45,221l58-166H335l-41,87l-79-87H75L211,881H405Z" />
      <glyph unicode="&#xcf;" glyph-name="gid70" horiz-adv-x="325" d="M386,705q-40,0-64.5,16T297,773q0,54 29,77t79,23q40,0 63.5-16T492,806q0-54-28.5-77.5T386,705Zm-228,0q-40,0-64.5,16T69,773q0,54 29,77t78,23q40,0 64-16t24-51q0-54-29-77.5T158,705Zm202-45L207,0H2L155,660H360Z" />
      <glyph unicode="&#xd0;" glyph-name="gid27" horiz-adv-x="735" d="M9,261L40,397H430L399,261H9ZM29,0L182,660H430q97,0 161.5-34T689,531.5T722,390q0-88-24.5-160t-72-123T510,28T354,0H29ZM268,149h74q45,0 78.5,21.5t55,57t32,79T518,393q0,37-12.5,63.5T469,497t-62,14H351L268,149Z" />
      <glyph unicode="&#xd1;" glyph-name="gid104" horiz-adv-x="741" d="M2,0L155,660H370L473,325l27-100h2l29,149l66,286H776L623,0H411L304,327L276,427h-2L247,286L181,0H2ZM700,879q-12-86-54-127.5T552,710q-27,0-45.5,8.5t-32,19.5t-26,19.5T422,766q-15,0-25-14.5T381,712H275q14,85 53,126.5T422,880q22,0 40-8.5t33-19t29-19t28-8.5q15,0 25.5,13.5T594,879H700Z" />
      <glyph unicode="&#xd2;" glyph-name="gid113" horiz-adv-x="728" d="M352-10q-85,0-153.5,34.5T90.5,124T51,281q0,84 24.5,155.5t71,124t114,81T413,670q86,0 154-34.5T674.5,536T714,379q0-84-24-155T619.5,100t-114-81.5T352-10Zm5,157q39,0 67.5,23T472,230.5T500.5,312t9.5,85q0,38-11.5,64t-34,39T408,513q-39,0-67.5-23T293,429.5T264.5,348T255,263q0-37 11.5-63.5T301,160t56-13ZM489,881l29-166H387L319,881H489Z" />
      <glyph unicode="&#xd3;" glyph-name="gid106" horiz-adv-x="728" d="M352-10q-85,0-153.5,34.5T90.5,124T51,281q0,84 24.5,155.5t71,124t114,81T413,670q86,0 154-34.5T674.5,536T714,379q0-84-24-155T619.5,100t-114-81.5T352-10Zm5,157q39,0 67.5,23T472,230.5T500.5,312t9.5,85q0,38-11.5,64t-34,39T408,513q-39,0-67.5-23T293,429.5T264.5,348T255,263q0-37 11.5-63.5T301,160t56-13ZM467,881H647L519,715H370l97,166Z" />
      <glyph unicode="&#xd4;" glyph-name="gid108" horiz-adv-x="728" d="M352-10q-85,0-153.5,34.5T90.5,124T51,281q0,84 24.5,155.5t71,124t114,81T413,670q86,0 154-34.5T674.5,536T714,379q0-84-24-155T619.5,100t-114-81.5T352-10Zm5,157q39,0 67.5,23T472,230.5T500.5,312t9.5,85q0,38-11.5,64t-34,39T408,513q-39,0-67.5-23T293,429.5T264.5,348T255,263q0-37 11.5-63.5T301,160t56-13ZM585,881l58-166H515l-41,87l-79-87H255L391,881H585Z" />
      <glyph unicode="&#xd5;" glyph-name="gid123" horiz-adv-x="728" d="M352-10q-85,0-153.5,34.5T90.5,124T51,281q0,84 24.5,155.5t71,124t114,81T413,670q86,0 154-34.5T674.5,536T714,379q0-84-24-155T619.5,100t-114-81.5T352-10Zm5,157q39,0 67.5,23T472,230.5T500.5,312t9.5,85q0,38-11.5,64t-34,39T408,513q-39,0-67.5-23T293,429.5T264.5,348T255,263q0-37 11.5-63.5T301,160t56-13ZM673,879q-12-86-54-127.5T525,710q-27,0-45.5,8.5t-32,19.5t-26,19.5T395,766q-15,0-25-14.5T354,712H248q14,85 53,126.5T395,880q22,0 40-8.5t33-19t29-19t28-8.5q15,0 25.5,13.5T567,879H673Z" />
      <glyph unicode="&#xd6;" glyph-name="gid110" horiz-adv-x="728" d="M352-10q-85,0-153.5,34.5T90.5,124T51,281q0,84 24.5,155.5t71,124t114,81T413,670q86,0 154-34.5T674.5,536T714,379q0-84-24-155T619.5,100t-114-81.5T352-10Zm5,157q39,0 67.5,23T472,230.5T500.5,312t9.5,85q0,38-11.5,64t-34,39T408,513q-39,0-67.5-23T293,429.5T264.5,348T255,263q0-37 11.5-63.5T301,160t56-13ZM568,705q-40,0-64.5,16T479,773q0,54 29,77t78,23q40,0 64-16t24-51q0-54-28.5-77.5T568,705Zm-232,0q-40,0-64.5,16T247,773q0,54 29,77t78,23q40,0 64-16t24-51q0-54-29-77.5T336,705Z" />
      <glyph unicode="&#xd7;" glyph-name="gid545" horiz-adv-x="604" d="M119,72L28,191L516,587l91-119L119,72Zm300,0L97,494l118,93L536,165L419,72Z" />
      <glyph unicode="&#xd8;" glyph-name="gid121" horiz-adv-x="728" d="M254,138l-41,53L513,537l36-58L254,138ZM20-19L157,134l44-48L104-19H20ZM575,502l-16,78l90,99h84L575,502ZM352-10q-85,0-153.5,34.5T90.5,124T51,281q0,84 24.5,155.5t71,124t114,81T413,670q86,0 154-34.5T674.5,536T714,379q0-84-24-155T619.5,100t-114-81.5T352-10Zm5,157q39,0 67.5,23T472,230.5T500.5,312t9.5,85q0,38-11.5,64t-34,39T408,513q-39,0-67.5-23T293,429.5T264.5,348T255,263q0-37 11.5-63.5T301,160t56-13Z" />
      <glyph unicode="&#xd9;" glyph-name="gid165" horiz-adv-x="708" d="M331-10Q227-10 158,26.5t-96,105T57,295l85,365H348L258,269q-8-39 0.5-66.5t32-42T349,146q46,0 71.5,27.5T458,257l94,403H756L663,259Q630,122 551.5,56T331-10ZM499,877l29-166H397L329,877H499Z" />
      <glyph unicode="&#xda;" glyph-name="gid160" horiz-adv-x="708" d="M331-10Q227-10 158,26.5t-96,105T57,295l85,365H348L258,269q-8-39 0.5-66.5t32-42T349,146q46,0 71.5,27.5T458,257l94,403H756L663,259Q630,122 551.5,56T331-10ZM477,877H657L529,711H380l97,166Z" />
      <glyph unicode="&#xdb;" glyph-name="gid162" horiz-adv-x="708" d="M331-10Q227-10 158,26.5t-96,105T57,295l85,365H348L258,269q-8-39 0.5-66.5t32-42T349,146q46,0 71.5,27.5T458,257l94,403H756L663,259Q630,122 551.5,56T331-10ZM595,877l58-166H525l-41,87l-79-87H265L401,877H595Z" />
      <glyph unicode="&#xdc;" glyph-name="gid164" horiz-adv-x="708" d="M331-10Q227-10 158,26.5t-96,105T57,295l85,365H348L258,269q-8-39 0.5-66.5t32-42T349,146q46,0 71.5,27.5T458,257l94,403H756L663,259Q630,122 551.5,56T331-10ZM578,701q-40,0-64.5,16T489,769q0,54 29,77t78,23q40,0 64-16t24-51q0-54-28.5-77.5T578,701Zm-232,0q-40,0-64.5,16T257,769q0,54 29,77t78,23q40,0 64-16t24-51q0-54-29-77.5T346,701Z" />
      <glyph unicode="&#xdd;" glyph-name="gid183" horiz-adv-x="685" d="M182,0l56,241L105,660H299l47-166l25-113l70,115L554,660H770L439,227L387,0H182ZM449,877H629L501,711H352l97,166Z" />
      <glyph unicode="&#xde;" glyph-name="gid129" horiz-adv-x="687" d="M146,108l34,148H369q34,0 57,12.5t35.5,33T474,347q0,32-20.5,51T386,417H213l35,148H410q125,0 195-53.5T675,360q0-74-35-131T539.5,140T383,108H146ZM2,0L155,660H360L207,0H2Z" />
      <glyph unicode="&#xdf;" glyph-name="gid347" horiz-adv-x="652" d="M381-10q-50,0-88,8.5T234,21l52,128q13-8 29-12.5t36-4.5q26,0 44,11t27,29t9,40q0,35-23,52t-67,17q-9,0-17-0.5T306,279l43,139q10-1 18.5-1.5T383,416q29,0 48.5,11.5t29,32T470,503q0,24-9,38.5t-25,22T400,571q-41,0-64.5-25T299,465L192,0H-10L101,483q26,114 103,171t211,57q81,0 136-23t83.5-62.5T663,535q0-60-24-100.5T573.5,373T478,348v-2q39-3 71-19.5t50.5-47T618,205q0-64-30-112.5T505,17T381-10Z" />
      <glyph unicode="&#xe0;" glyph-name="gid204" horiz-adv-x="618" d="M188-10q-46,0-84,22T44,77T22,184q0,60 17,118T87.5,407T164,482t103,28q29,0 57.5-11t50-35T403,398l24,102H629L513,0H329l17,95q-25-49-66-77T188-10Zm94,145q21,0 38,15t29.5,39.5t19,52.5t6.5,53q0,22-7,37.5t-19.5,24T318,365q-24,0-42-16t-30-40t-18-51t-6-48q0-23 6.5-40T248,144t34-9ZM406,734l24-175H294L223,734H406Z" />
      <glyph unicode="&#xe1;" glyph-name="gid199" horiz-adv-x="618" d="M188-10q-46,0-84,22T44,77T22,184q0,60 17,118T87.5,407T164,482t103,28q29,0 57.5-11t50-35T403,398l24,102H629L513,0H329l17,95q-25-49-66-77T188-10Zm94,145q21,0 38,15t29.5,39.5t19,52.5t6.5,53q0,22-7,37.5t-19.5,24T318,365q-24,0-42-16t-30-40t-18-51t-6-48q0-23 6.5-40T248,144t34-9Zm92,599H562L414,559H269L374,734Z" />
      <glyph unicode="&#xe2;" glyph-name="gid201" horiz-adv-x="618" d="M188-10q-46,0-84,22T44,77T22,184q0,60 17,118T87.5,407T164,482t103,28q29,0 57.5-11t50-35T403,398l24,102H629L513,0H329l17,95q-25-49-66-77T188-10Zm94,145q21,0 38,15t29.5,39.5t19,52.5t6.5,53q0,22-7,37.5t-19.5,24T318,365q-24,0-42-16t-30-40t-18-51t-6-48q0-23 6.5-40T248,144t34-9ZM153,552L301,728H492l67-176H424l-45,79l-80-79H153Z" />
      <glyph unicode="&#xe3;" glyph-name="gid210" horiz-adv-x="618" d="M188-10q-46,0-84,22T44,77T22,184q0,60 17,118T87.5,407T164,482t103,28q29,0 57.5-11t50-35T403,398l24,102H629L513,0H329l17,95q-25-49-66-77T188-10Zm94,145q21,0 38,15t29.5,39.5t19,52.5t6.5,53q0,22-7,37.5t-19.5,24T318,365q-24,0-42-16t-30-40t-18-51t-6-48q0-23 6.5-40T248,144t34-9ZM585,719q-12-86-54-127.5T437,550q-27,0-45.5,8.5t-32,19.5t-26,19.5T307,606q-15,0-25-14.5T266,552H160q14,85 53,126.5T307,720q22,0 40-8.5t33-19t29-19t28-8.5q15,0 25.5,13.5T479,719H585Z" />
      <glyph unicode="&#xe4;" glyph-name="gid203" horiz-adv-x="618" d="M188-10q-46,0-84,22T44,77T22,184q0,60 17,118T87.5,407T164,482t103,28q29,0 57.5-11t50-35T403,398l24,102H629L513,0H329l17,95q-25-49-66-77T188-10Zm94,145q21,0 38,15t29.5,39.5t19,52.5t6.5,53q0,22-7,37.5t-19.5,24T318,365q-24,0-42-16t-30-40t-18-51t-6-48q0-23 6.5-40T248,144t34-9ZM480,545q-40,0-64.5,16T391,613q0,54 29,77t78,23q40,0 64-16t24-51q0-54-28.5-77.5T480,545Zm-232,0q-40,0-64.5,16T159,613q0,54 29,77t78,23q40,0 64-16t24-51q0-54-29-77.5T248,545Z" />
      <glyph unicode="&#xe5;" glyph-name="gid208" horiz-adv-x="618" d="M188-10q-46,0-84,22T44,77T22,184q0,60 17,118T87.5,407T164,482t103,28q29,0 57.5-11t50-35T403,398l24,102H629L513,0H329l17,95q-25-49-66-77T188-10Zm94,145q21,0 38,15t29.5,39.5t19,52.5t6.5,53q0,22-7,37.5t-19.5,24T318,365q-24,0-42-16t-30-40t-18-51t-6-48q0-23 6.5-40T248,144t34-9Zm97,664q64,0 101.5-32T518,684q0-62-42-101.5T368,543q-64,0-101.5,31.5T229,657q0,62 42,102t108,40Zm-3-82q-20,0-35-13.5T326,665q0-18 12.5-29.5T371,624t34.5,14T420,676q0,19-11.5,30T376,717Z" />
      <glyph unicode="&#xe6;" glyph-name="gid211" horiz-adv-x="884" d="M179-10Q101-10 55.5,27T10,129q0,48 23.5,78.5T95,255t81,21l174,21l-16-84l-80-12q-30-4-47.5-15T189,151q0-19 12.5-29.5T237,111q27,0 43.5,12.5T303,163l31,133q2,8 2,15t0,12q0,26-13.5,40.5T279,378q-29,0-45-18t-25-51L43,341q14,76 73,122.5T283,510q53,0 91-15t60-41t25-64l-37,14q24,32 53,55.5t67.5,37T634,510q69,0 119-28t77.5-76.5T858,293q0-21-2-43t-9-44H497l10,89H665q1,5 1,10t0,9q0,21-7,34.5T640,368t-27,6q-29,0-49-16t-31-42t-16-55.5T512,205q0-27 10-44.5t28-26t40-8.5q30,0 48,14.5T665,177l168-59q-17-40-53-68.5T696,6T593-9Q536-9 489,10.5t-77.5,56T370,151l44-5q-10-40-38-76T299,12T179-10Z" />
      <glyph unicode="&#xe7;" glyph-name="gid217" horiz-adv-x="571" d="M289-10q-82,0-141,29T57.5,99.5T26,218q0,79 34,145.5T160,470t162,40q74,0 128.5-24t85-67T565,317L374,289q5,37-6.5,59T322,370q-25,0-43-17t-30.5-43t-19-56T223,198q0-23 8-39t22.5-23.5T287,128q24,0 43,17.5T357,192l178-57Q506,68 442.5,29T289-10ZM200,8l46,23q59-8 91.5-37T370-81q0-41-19-71.5T299.5-199T224-215q-39,0-68.5,10.5T105-175l49,82q11-10 28.5-15t30.5-5q24,0 40,16.5T269-59T252-21T200,8Z" />
      <glyph unicode="&#xe8;" glyph-name="gid238" horiz-adv-x="585" d="M284-9Q209-9 150.5,18.5t-91,79T27,218q0,87 35.5,152.5T163,473t153,37q78,0 132-28t82.5-78T559,287q0-20-2-40.5T549,206H162l-1,88H413l-52-23q5,13 5.5,22.5T367,312q0,22-7,35.5t-19.5,20T312,374q-30,0-50-16t-31-41.5t-15-55T212,206q0-27 10-45t28-26.5t41-8.5q30,0 48,15t27,36l168-58q-16-41-53-69.5T393.5,6T284-9ZM392,734l24-175H280L209,734H392Z" />
      <glyph unicode="&#xe9;" glyph-name="gid230" horiz-adv-x="585" d="M284-9Q209-9 150.5,18.5t-91,79T27,218q0,87 35.5,152.5T163,473t153,37q78,0 132-28t82.5-78T559,287q0-20-2-40.5T549,206H162l-1,88H413l-52-23q5,13 5.5,22.5T367,312q0,22-7,35.5t-19.5,20T312,374q-30,0-50-16t-31-41.5t-15-55T212,206q0-27 10-45t28-26.5t41-8.5q30,0 48,15t27,36l168-58q-16-41-53-69.5T393.5,6T284-9Zm76,743H548L400,559H255L360,734Z" />
      <glyph unicode="&#xea;" glyph-name="gid234" horiz-adv-x="585" d="M284-9Q209-9 150.5,18.5t-91,79T27,218q0,87 35.5,152.5T163,473t153,37q78,0 132-28t82.5-78T559,287q0-20-2-40.5T549,206H162l-1,88H413l-52-23q5,13 5.5,22.5T367,312q0,22-7,35.5t-19.5,20T312,374q-30,0-50-16t-31-41.5t-15-55T212,206q0-27 10-45t28-26.5t41-8.5q30,0 48,15t27,36l168-58q-16-41-53-69.5T393.5,6T284-9ZM139,552L287,728H478l67-176H410l-45,79l-80-79H139Z" />
      <glyph unicode="&#xeb;" glyph-name="gid236" horiz-adv-x="585" d="M284-9Q209-9 150.5,18.5t-91,79T27,218q0,87 35.5,152.5T163,473t153,37q78,0 132-28t82.5-78T559,287q0-20-2-40.5T549,206H162l-1,88H413l-52-23q5,13 5.5,22.5T367,312q0,22-7,35.5t-19.5,20T312,374q-30,0-50-16t-31-41.5t-15-55T212,206q0-27 10-45t28-26.5t41-8.5q30,0 48,15t27,36l168-58q-16-41-53-69.5T393.5,6T284-9ZM466,545q-40,0-64.5,16T377,613q0,54 29,77t78,23q40,0 64-16t24-51q0-54-28.5-77.5T466,545Zm-232,0q-40,0-64.5,16T145,613q0,54 29,77t78,23q40,0 64-16t24-51q0-54-29-77.5T234,545Z" />
      <glyph unicode="&#xec;" glyph-name="gid269" horiz-adv-x="299" d="M308,500L192,0H-10L106,500H308ZM264,734l24-175H152L81,734H264Z" />
      <glyph unicode="&#xed;" glyph-name="gid262" horiz-adv-x="299" d="M308,500L192,0H-10L106,500H308ZM232,734H420L272,559H127L232,734Z" />
      <glyph unicode="&#xee;" glyph-name="gid264" horiz-adv-x="299" d="M308,500L192,0H-10L106,500H308ZM11,552L159,728H350l67-176H282l-45,79l-80-79H11Z" />
      <glyph unicode="&#xef;" glyph-name="gid266" horiz-adv-x="299" d="M336,545q-39,0-64,16t-25,52q0,54 29,77t79,23q40,0 63.5-16T442,646q0-54-28.5-77.5T336,545Zm-228,0q-40,0-64.5,16T19,613q0,54 29,77t78,23q40,0 64-16t24-51q0-54-28.5-77.5T108,545Zm200-45L192,0H-10L106,500H308Z" />
      <glyph unicode="&#xf0;" glyph-name="gid222" horiz-adv-x="599" d="M274-10q-72,0-127,29T61.5,100.5T31,222q0,80 33,143.5t91.5,100T291,502q50,0 83.5-15.5T425,441t18-74l-11-18q3,15 4,30t1,30q0,66-21.5,120t-61,100.5T262,719H428q30-21 58-52.5t50.5-72t35.5-89T585,401q0-86-20.5-161T504,108.5T406,21T274-10Zm13,138q22,0 40,17t30.5,43.5t19,57T383,304q0,22-7,37t-19.5,22.5T325,371q-23,0-41.5-18t-31-45.5t-19.5-58T226,194q0-21 7-35.5T253.5,136t33.5-8ZM250,544l-8,60l156,23l28-54L250,544Zm235,38l-17,55l165,28l10-59L485,582Z" />
      <glyph unicode="&#xf1;" glyph-name="gid301" horiz-adv-x="615" d="M-10,0L106,500H285L257,324l-8,17q21,81 74,125t127,44q52,0 87-23t49-65t0-101L511,0H309l69,292q7,31-5,49t-40,18q-20,0-35.5-10t-26-29T254,272L192,0H-10ZM601,719q-12-86-54-127.5T453,550q-27,0-45.5,8.5t-32,19.5t-26,19.5T323,606q-15,0-25-14.5T282,552H176q14,85 53,126.5T323,720q22,0 40-8.5t33-19t29-19t28-8.5q15,0 25.5,13.5T495,719H601Z" />
      <glyph unicode="&#xf2;" glyph-name="gid310" horiz-adv-x="602" d="M280-10q-77,0-134,29.5t-88.5,81T26,218q0,79 34,145.5T159.5,470T321,510q78,0 135-29.5T544.5,400T576,283q0-79-34-146T442.5,30T280-10Zm3,138q22,0 39.5,17t30,44t19,57t6.5,56q0,24-7,39t-20.5,23T318,372q-22,0-39.5-17t-30-44T229,254t-7-56q0-23 7.5-38.5t21-23.5t32.5-8ZM406,734l24-175H294L223,734H406Z" />
      <glyph unicode="&#xf3;" glyph-name="gid303" horiz-adv-x="602" d="M280-10q-77,0-134,29.5t-88.5,81T26,218q0,79 34,145.5T159.5,470T321,510q78,0 135-29.5T544.5,400T576,283q0-79-34-146T442.5,30T280-10Zm3,138q22,0 39.5,17t30,44t19,57t6.5,56q0,24-7,39t-20.5,23T318,372q-22,0-39.5-17t-30-44T229,254t-7-56q0-23 7.5-38.5t21-23.5t32.5-8Zm91,606H562L414,559H269L374,734Z" />
      <glyph unicode="&#xf4;" glyph-name="gid305" horiz-adv-x="602" d="M280-10q-77,0-134,29.5t-88.5,81T26,218q0,79 34,145.5T159.5,470T321,510q78,0 135-29.5T544.5,400T576,283q0-79-34-146T442.5,30T280-10Zm3,138q22,0 39.5,17t30,44t19,57t6.5,56q0,24-7,39t-20.5,23T318,372q-22,0-39.5-17t-30-44T229,254t-7-56q0-23 7.5-38.5t21-23.5t32.5-8ZM153,552L301,728H492l67-176H424l-45,79l-80-79H153Z" />
      <glyph unicode="&#xf5;" glyph-name="gid320" horiz-adv-x="602" d="M280-10q-77,0-134,29.5t-88.5,81T26,218q0,79 34,145.5T159.5,470T321,510q78,0 135-29.5T544.5,400T576,283q0-79-34-146T442.5,30T280-10Zm3,138q22,0 39.5,17t30,44t19,57t6.5,56q0,24-7,39t-20.5,23T318,372q-22,0-39.5-17t-30-44T229,254t-7-56q0-23 7.5-38.5t21-23.5t32.5-8ZM585,719q-12-86-54-127.5T437,550q-27,0-45.5,8.5t-32,19.5t-26,19.5T307,606q-15,0-25-14.5T266,552H160q14,85 53,126.5T307,720q22,0 40-8.5t33-19t29-19t28-8.5q15,0 25.5,13.5T479,719H585Z" />
      <glyph unicode="&#xf6;" glyph-name="gid307" horiz-adv-x="602" d="M280-10q-77,0-134,29.5t-88.5,81T26,218q0,79 34,145.5T159.5,470T321,510q78,0 135-29.5T544.5,400T576,283q0-79-34-146T442.5,30T280-10Zm3,138q22,0 39.5,17t30,44t19,57t6.5,56q0,24-7,39t-20.5,23T318,372q-22,0-39.5-17t-30-44T229,254t-7-56q0-23 7.5-38.5t21-23.5t32.5-8ZM480,545q-40,0-64.5,16T391,613q0,54 29,77t78,23q40,0 64-16t24-51q0-54-28.5-77.5T480,545Zm-232,0q-40,0-64.5,16T159,613q0,54 29,77t78,23q40,0 64-16t24-51q0-54-29-77.5T248,545Z" />
      <glyph unicode="&#xf7;" glyph-name="gid546" horiz-adv-x="630" d="M604,397L572,259H62L94,397H604ZM277,19q-39,0-62,19T192,93q0,45 25,72.5T286,193q39,0 62-18.5T371,119q0-45-25-72.5T277,19ZM380,463q-39,0-62,19t-23,55q0,45 25,72.5T389,637q39,0 62-19t23-55q0-45-25-72.5T380,463Z" />
      <glyph unicode="&#xf8;" glyph-name="gid318" horiz-adv-x="602" d="M280-10q-77,0-134,29.5t-88.5,81T26,218q0,79 34,145.5T159.5,470T321,510q78,0 135-29.5T544.5,400T576,283q0-79-34-146T442.5,30T280-10Zm3,138q22,0 39.5,17t30,44t19,57t6.5,56q0,24-7,39t-20.5,23T318,372q-22,0-39.5-17t-30-44T229,254t-7-56q0-23 7.5-38.5t21-23.5t32.5-8ZM-16-22L541,521h75L60-22H-16Z" />
      <glyph unicode="&#xf9;" glyph-name="gid363" horiz-adv-x="614" d="M167-10q-52,0-88,22.5t-50,64T28,175l75,325H305L238,208q-8-33 5.5-49.5T284,142q21,0 35,9.5t24.5,29T360,228l63,272H625L509,0H329l28,176l8-19Q344,77 292,33.5T167-10ZM415,732l24-175H303L232,732H415Z" />
      <glyph unicode="&#xfa;" glyph-name="gid358" horiz-adv-x="614" d="M167-10q-52,0-88,22.5t-50,64T28,175l75,325H305L238,208q-8-33 5.5-49.5T284,142q21,0 35,9.5t24.5,29T360,228l63,272H625L509,0H329l28,176l8-19Q344,77 292,33.5T167-10ZM383,732H571L423,557H278L383,732Z" />
      <glyph unicode="&#xfb;" glyph-name="gid360" horiz-adv-x="614" d="M167-10q-52,0-88,22.5t-50,64T28,175l75,325H305L238,208q-8-33 5.5-49.5T284,142q21,0 35,9.5t24.5,29T360,228l63,272H625L509,0H329l28,176l8-19Q344,77 292,33.5T167-10Zm-5,560L310,726H501l67-176H433l-45,79l-80-79H162Z" />
      <glyph unicode="&#xfc;" glyph-name="gid362" horiz-adv-x="614" d="M167-10q-52,0-88,22.5t-50,64T28,175l75,325H305L238,208q-8-33 5.5-49.5T284,142q21,0 35,9.5t24.5,29T360,228l63,272H625L509,0H329l28,176l8-19Q344,77 292,33.5T167-10ZM489,543q-40,0-64.5,16T400,611q0,54 29,77t78,23q40,0 64-16t24-51q0-54-28.5-77.5T489,543Zm-232,0q-40,0-64.5,16T168,611q0,54 29,77t78,23q40,0 64-16t24-51q0-54-29-77.5T257,543Z" />
      <glyph unicode="&#xfd;" glyph-name="gid381" horiz-adv-x="577" d="M56-215q-45,0-84,10t-61,25L-37-42Q-2-71 52-71q26,0 46.5,9T131-34l11,18L54,500H259l4-263l-1-121l51,120L430,500H642L341-22q-40-70-81.5-112.5T169-196T56-215ZM391,732H579L431,557H286L391,732Z" />
      <glyph unicode="&#xfe;" glyph-name="gid326" horiz-adv-x="618" d="M-58-210L153,706H355L268,328l-13-2q16,85 66,134.5T441,510q46,0 81-21.5t54.5-64T596,318q0-59-16-117.5t-46.5-106T461,18.5T366-10q-37,0-72.5,14t-59,47T211,140l22,41L144-210H-58ZM301,135q24,0 41.5,16T372,191t18.5,51t6.5,49q0,23-6.5,39.5t-20,25.5T337,365q-21,0-38.5-15t-30-39.5t-18.5-52T244,205q0-32 14.5-51T301,135Z" />
      <glyph unicode="&#xff;" glyph-name="gid383" horiz-adv-x="577" d="M56-215q-45,0-84,10t-61,25L-37-42Q-2-71 52-71q26,0 46.5,9T131-34l11,18L54,500H259l4-263l-1-121l51,120L430,500H642L341-22q-40-70-81.5-112.5T169-196T56-215ZM497,543q-40,0-64.5,16T408,611q0,54 29,77t78,23q40,0 64-16t24-51q0-54-28.5-77.5T497,543Zm-232,0q-40,0-64.5,16T176,611q0,54 29,77t78,23q40,0 64-16t24-51q0-54-29-77.5T265,543Z" />
      <glyph unicode="&#x2013;" glyph-name="gid490" horiz-adv-x="701" d="M647,348L612,191H63L99,348H647Z" />
      <glyph unicode="&#x2014;" glyph-name="gid491" horiz-adv-x="1003" d="M949,348L913,191H63L99,348H949Z" />
      <glyph unicode="&#x2018;" glyph-name="gid497" horiz-adv-x="299" d="M197,336q-54,0-84.5,31T82,446q0,57 31,107t82,86t112,50l44-72q-38-9-69-24.5T228.5,559T194,524l3-4q7,2 13,3.5t16,1.5q35,0 58-23t23-60q0-47-30.5-76.5T197,336Z" />
      <glyph unicode="&#x2019;" glyph-name="gid498" horiz-adv-x="299" d="M230,686q60,0 85.5-30.5T341,579q0-54-28-104t-78.5-88T116,333L71,405q37,9 68.5,24t54,33.5T228,499l-2,3q-7-3-13.5-4.5T195,496q-31,0-55.5,24T115,580q0,49 32,77.5T230,686Z" />
      <glyph unicode="&#x201a;" glyph-name="gid493" horiz-adv-x="299" d="M115,190q60,0 85.5-30.5T226,83q0-54-28-104t-78.5-88T1-163L-44-91q37,9 68.5,24t54,33.5T113,3l-2,3q-7-3-13.5-4.5T80,0Q49,0 24.5,24T0,84q0,49 32,77.5T115,190Z" />
      <glyph unicode="&#x201c;" glyph-name="gid495" horiz-adv-x="559" d="M197,336q-54,0-84.5,31T82,446q0,57 31,107t82,86t112,50l44-72q-38-9-69-24.5T228.5,559T194,524l3-4q7,2 13,3.5t16,1.5q35,0 58-23t23-60q0-47-30.5-76.5T197,336Zm260,0q-54,0-84.5,31T342,446q0,57 31,107t82,86t112,50l44-72q-38-9-69-24.5T488.5,559T454,524l3-4q7,2 13,3.5t16,1.5q35,0 58-23t23-60q0-47-30.5-76.5T457,336Z" />
      <glyph unicode="&#x201d;" glyph-name="gid496" horiz-adv-x="559" d="M230,686q60,0 85.5-30.5T341,579q0-54-28-104t-78.5-88T116,333L71,405q37,9 68.5,24t54,33.5T228,499l-2,3q-7-3-13.5-4.5T195,496q-31,0-55.5,24T115,580q0,49 32,77.5T230,686Zm260,0q60,0 85.5-30.5T601,579q0-54-28-104t-78.5-88T376,333l-45,72q37,9 68.5,24t54,33.5T488,499l-2,3q-7-3-13.5-4.5T455,496q-31,0-55.5,24T375,580q0,49 32,77.5T490,686Z" />
      <glyph unicode="&#x201e;" glyph-name="gid494" horiz-adv-x="559" d="M115,190q60,0 85.5-30.5T226,83q0-54-28-104t-78.5-88T1-163L-44-91q37,9 68.5,24t54,33.5T113,3l-2,3q-7-3-13.5-4.5T80,0Q49,0 24.5,24T0,84q0,49 32,77.5T115,190Zm261,0q60,0 85.5-30.5T487,83q0-54-28-104t-78.5-88T262-163L217-91q37,9 68.5,24t54,33.5T374,3l-2,3q-7-3-13.5-4.5T341,0q-31,0-55.5,24T261,84q0,49 32,77.5T376,190Z" />
      <glyph unicode="&#x2022;" glyph-name="gid470" horiz-adv-x="429" d="M226,174q-70,0-113,35T70,304q0,85 45,135t130,50q70,0 110.5-35.5T396,358q0-84-44-134T226,174Z" />
      <glyph unicode="&#x2039;" glyph-name="gid501" horiz-adv-x="352" d="M371,461L168,222l3,110L277,69H112L32,265L201,461H371Z" />
      <glyph unicode="&#x203a;" glyph-name="gid502" horiz-adv-x="352" d="M-12,69L179,300l10-107L81,461H243l84-196L160,69H-12Z" />
    </font>
</defs>
</svg>
