<?xml version="1.0" standalone="no"?>
<!DOCTYPE svg PUBLIC "-//W3C//DTD SVG 1.1//EN" "http://www.w3.org/Graphics/SVG/1.1/DTD/svg11.dtd">
<svg xmlns="http://www.w3.org/2000/svg">
  <defs>
    <font id="WorkSans" horiz-adv-x="625">
      <font-face font-family="Work Sans ExtraBold" units-per-em="1000" panose-1="0 0 0 0 0 0 0 0 0 0" ascent="930" descent="-243" alphabetic="0" />
      <glyph unicode=" " glyph-name="gid576" horiz-adv-x="267" />
      <glyph unicode="!" glyph-name="gid536" horiz-adv-x="312" d="M261,660V473L239,218H72L50,473V660H261ZM156,173q50,0 78.5-24T263,83q0-43-28.5-67T156-8Q105-8 76.5,16T48,83q0,42 28.5,66T156,173Z" />
      <glyph unicode="&quot;" glyph-name="gid574" horiz-adv-x="463" d="M426,674L395,386H264V674H426Zm-208,0L187,386H56V674H218Z" />
      <glyph unicode="#" glyph-name="gid543" horiz-adv-x="706" d="M589,660L483,0H351L456,660H589Zm46-394V150H28V266H635ZM340,660L235,0H102L207,660H340ZM678,510V394H71V510H678Z" />
      <glyph unicode="$" glyph-name="gid586" horiz-adv-x="647" d="M330,0Q268,0 208.5,13T99,49.5T14,106L99,237q26-32 68-53t88.5-31.5T342,142q45,0 70,12t25,37q0,18-17.5,28T363,238L234,269q-52,12-96,34T68.5,360T43,446q0,63 34,111.5T176,633t157,27q90,0 161.5-25T619,561L537,441q-44,37-96,58.5T323,521q-35,0-57.5-6t-33-17T222,472q0-12 7-21.5T257,433t62-17l99-22q97-22 144.5-61.5T610,219q0-73-37-122T473,24T330,0ZM273-84V744H392V-84H273Z" />
      <glyph unicode="%" glyph-name="gid626" horiz-adv-x="967" d="M173,0L646,661H796L322,0H173Zm50,670q58,0 102-23.5T393.5,580T418,480q0-58-24.5-100.5t-68.5-66T223,290q-59,0-103,23.5T51.5,380T27,480T51.5,580T120,646.5T223,670Zm-1-132q-15,0-26-6.5t-17-20T173,480t6-31.5t17-20t26-6.5q17,0 27.5,6.5t16.5,20t6,31.5t-6,31.5t-16.5,20T222,538ZM744,370q59,0 103-23.5T915.5,280T940,180T915.5,80T847,13.5T744-10T641,13.5T572.5,80T548,180q0,58 24.5,100.5t68.5,66T744,370Zm0-132q-16,0-27-6.5T700,212t-6-32q0-18 6-31.5t17-20t27-6.5t27,6.5t17,20t6,31.5q0,19-6,32t-17,19.5T744,238Z" />
      <glyph unicode="&amp;" glyph-name="gid630" horiz-adv-x="655" d="M257-10q-70,0-124.5,20T48,71T17,174q0,25 8,55t30,57.5T116.5,334T218,360l27,5q44,28 67,48.5T343.5,453t8.5,41q0,23-13.5,36T302,543q-24,0-38.5-15T249,486q0-14 6-28.5t22-35t46-53T402,286q47-48 80-81t58.5-51t50-23t56.5,0L634-10q-45,0-79.5,6T486,20T410.5,73.5T309,168q-74,73-120,121t-69.5,82t-32,62T79,494q0,43 23,83.5T173.5,644T298,670q77,0 123-24t67-61.5T509,507q0-48-24-88.5T412.5,350T290,308l-30-18q-29-19-44.5-34T194,225t-6-37t12-37t34-24.5t52-8.5q43,0 77,13t67,33l15,23q16,29 26.5,63.5T481,333l131-1q-2-64-23.5-117.5T526,124L491,99q-31-50-90.5-79.5T257-10Z" />
      <glyph unicode="&apos;" glyph-name="gid575" horiz-adv-x="255" d="M218,674L187,386H56V674H218Z" />
      <glyph unicode="(" glyph-name="gid553" horiz-adv-x="405" d="M310,731l92-90q-53-47-87.5-100.5T264,421T248,270q0-86 16-152T314.5-1T402-102l-92-90Q193-120 131-5.5T69,270q0,159 62,274T310,731Z" />
      <glyph unicode=")" glyph-name="gid554" horiz-adv-x="405" d="M95-192L3-102Q57-54 91-1t50,119t16,151T141,420.5t-50,120T3,641l92,90q118-72 179.5-187T336,269T274.5-6T95-192Z" />
      <glyph unicode="*" glyph-name="gid542" horiz-adv-x="594" d="M329,500l87-76l87-112L389,229L309,347L264,451l33,24l32,25Zm-65,0l33-25l32-24L284,347L204,229L90,312l88,112l86,76ZM77,622l134-49l98-58l-12-40l-13-38L170,448L33,487L77,622ZM367,730l-5-142L338,475H297H256L231,588l-5,142H367ZM517,622l43-135L423,448L309,437l-12,38l-13,40l98,58l135,49Z" />
      <glyph unicode="+" glyph-name="gid614" horiz-adv-x="604" d="M381,598V57H224V598H381ZM556,397V259H48V397H556Z" />
      <glyph unicode="," glyph-name="gid532" horiz-adv-x="299" d="M145,190q42,0 68.5-18.5t39-48.5T265,59q0-50-22-95t-56.5-78T115-162L37-107Q64-95 89-78t44.5,37T163,0l-5,4q-6-4-14.5-6.5T121-5Q101-5 81,5T47,34.5T33,84q0,37 16,60t42,34.5T145,190Z" />
      <glyph unicode="-" glyph-name="gid559" horiz-adv-x="534" d="M457,349V191H78V349H457Z" />
      <glyph unicode="." glyph-name="gid531" horiz-adv-x="299" d="M149,190q54,0 83-26t29-73T232,18T149-8Q97-8 67,18T37,91t30,73t82,26Z" />
      <glyph unicode="/" glyph-name="gid544" horiz-adv-x="478" d="M468,706L197-70H10L281,706H468Z" />
      <glyph unicode="0" glyph-name="gid477" horiz-adv-x="651" d="M326-10Q183-10 112,75.5T41,330t71,254.5T326,670t213.5-85.5T610,330T539.5,75.5T326-10Zm0,156q31,0 49,17t26,57.5T409,330t-8,109.5T375,497t-49,17t-49.5-17T250,439.5T242,330t8-109.5T276.5,163T326,146Z" />
      <glyph unicode="1" glyph-name="gid478" horiz-adv-x="446" d="M185,0V342q0,30 0,60.5t1,61.5q-33-29-71.5-50T34,386L20,552q28,2 58.5,13T137,591.5t50.5,33T221,660H382V0H185Z" />
      <glyph unicode="2" glyph-name="gid479" horiz-adv-x="601" d="M55,0V126q80,46 137.5,89T287,297.5t55,75T360,440q0,31-17,52.5T290,514q-41,0-61.5-31T208,388L33,435q1,79 36,131t96.5,78T303,670q71,0 120.5-19.5t80-51t44.5-69T562,456q0-65-34-119T434,236.5T295,148v-2q19,2 43,3t51,1.5t52,0.5H568V0H55Z" />
      <glyph unicode="3" glyph-name="gid480" horiz-adv-x="597" d="M305-10Q193-10 121.5,31.5T22,156l186,77q1-35 12-55t30.5-27.5T292,143t38.5,7.5T356,173t9,35q0,23-9.5,36T330,262.5T293,268q-14,0-24.5-1T244,264V388q8-1 16-1.5t20-0.5q37,0 54,16t17,52q0,30-16.5,46.5T289,517q-31,0-52.5-18.5T212,431L35,488q8,60 45.5,100t95,61T303,670q79,0 133.5-22t83-63T548,485q0-45-14.5-74T497,365t-42-24.5T424,333v-4q12,0 34.5-5t46-19t40-41.5T561,191q0-62-34-107.5T435,14T305-10Z" />
      <glyph unicode="4" glyph-name="gid481" horiz-adv-x="659" d="M365,0V135H43V260q12,22 31.5,53T121,385L305,660H543V270h94V135H543V0H365ZM199,270H368V454q0,17 0.5,36.5T370,531h-2q-10-19-21-38.5T325,457L227,311q-6-10-13-20t-15-21Z" />
      <glyph unicode="5" glyph-name="gid482" horiz-adv-x="583" d="M285-10q-85,0-151.5,31.5T18,130l177,87q10-35 31.5-56.5T290,139q26,0 44.5,9T363,175t10,44q0,24-9.5,40t-28,25T288,293q-21,0-37.5-4T221,278.5T197,262L46,290L89,660H520V507H234L220,401l-4-18h1q19,22 54,33t77,11q66,0 111.5-25.5t70-69.5T554,231q0-64-22-110T472,46.5T386,4T285-10Z" />
      <glyph unicode="6" glyph-name="gid483" horiz-adv-x="619" d="M348,670q54,0 101-14t83-46.5T585,521L421,444q-9,32-30,50t-55,18q-24,0-44-10.5T258,471t-22-51t-8-71q0-3 0-6.5t0-8.5l1-9q12,26 36.5,44.5t56,28.5T384,408q60,0 107-23t74.5-66.5T593,213q0-68-32-118.5T472,17T338-10q-86,0-153,35.5T79.5,134T41,322q0,120 41,196.5t110.5,114T348,670ZM334,279q-21,0-38-8.5T268,246t-11-38q0-21 11-37.5t28.5-25T334,137q37,0 56.5,18.5T410,208q0,23-9,38.5t-25.5,24T334,279Z" />
      <glyph unicode="7" glyph-name="gid484" horiz-adv-x="625" d="M30,660H594V521q-82-78-127.5-161t-64-172.5T384,0H184q0,109 27.5,204.5t87,182.5T454,557l45-53H30V660Z" />
      <glyph unicode="8" glyph-name="gid485" horiz-adv-x="631" d="M315,667q79,0 137-22t90-63t32-98q0-54-26.5-92T467,334v-1q61-19 94-56t33-97q0-58-33.5-100T465,14T315-10q-87,0-149,24T70.5,80T37,180q0,60 33,97t94,56v1q-53,20-80,58T57,484q0,57 32,98t90.5,63T315,667Zm1-142q-34,0-54-17.5T242,459q0-30 20-47.5T316,394t53.5,17.5T389,459q0,31-19.5,48.5T316,525Zm0-392q26,0 44,7.5T387.5,164t9.5,37t-9.5,36.5t-28,23.5T316,269t-44-8t-29-23.5T233,201t9.5-37T271,140.5t45-7.5Z" />
      <glyph unicode="9" glyph-name="gid486" horiz-adv-x="616" d="M291,670q94,0 157-37t95-111.5T575,333q0-123-37.5-198.5t-102-110T291-10q-87,0-152,33.5T41,132l181,68q6-29 23.5-44.5T294,140q24,0 42.5,9.5t31.5,28T387.5,224t6.5,65q0,5 0,9t0,10h-4q-10-24-33-40.5t-53-25T241,234q-61,0-108.5,25.5t-75,72T30,440q0,72 33,123t92,79t136,28Zm0-152q-34,0-55-19t-21-54q0-33 21.5-51T291,376q22,0 39,8.5T357.5,409T368,447t-10.5,38T330,509.5T291,518Z" />
      <glyph unicode=":" glyph-name="gid533" horiz-adv-x="304" d="M152,510q54,0 83-26t29-73t-29-73t-83-26q-52,0-82,26T40,411t30,73t82,26Zm0-320q54,0 83-26t29-73T235,18T152-8Q100-8 70,18T40,91t30,73t82,26Z" />
      <glyph unicode=";" glyph-name="gid534" horiz-adv-x="304" d="M148,190q42,0 68.5-18.5t39-48.5T268,59q0-50-22-95t-56.5-78T118-162L40-107Q67-95 92-78t44.5,37T166,0l-5,4q-6-4-14.5-6.5T124-5Q104-5 84,5T50,34.5T36,84q0,37 16,60t42,34.5T148,190Zm4,319q54,0 83-26t29-73t-29-73t-83-26q-52,0-82,26T40,410t30,73t82,26Z" />
      <glyph unicode="&lt;" glyph-name="gid620" horiz-adv-x="604" d="M555-3L60,212V379L555,594V405L216,296L555,186V-3Z" />
      <glyph unicode="=" glyph-name="gid618" horiz-adv-x="604" d="M539,498V366H65V498H539Zm0-222V144H65V276H539Z" />
      <glyph unicode="&gt;" glyph-name="gid619" horiz-adv-x="604" d="M49,594L544,379V212L49-3V186L388,295L49,405V594Z" />
      <glyph unicode="?" glyph-name="gid538" horiz-adv-x="631" d="M320,670q78,0 139-20.5t96.5-63T591,480q0-63-26-102t-69-58t-96-25l-14-79H213l1,153q60,4 94.5,15t49,28.5T372,452q0,19-7,32t-21,19.5T307,510q-35,0-54.5-22T227,422L30,484q13,52 46,94.5t92.5,67T320,670ZM303,173q51,0 79.5-24T411,83q0-43-28.5-67T303-8q-50,0-78,24T197,83q0,42 28,66t78,24Z" />
      <glyph unicode="@" glyph-name="gid629" horiz-adv-x="921" d="M460-182q-92,0-170,26.5T154.5-77T65,52.5T33,231q0,96 33,176t94,138.5t143,90T482,667q87,0 160-26.5T768.5,564T852,443t30-159q0-83-21.5-139t-56-89t-74-47.5T654-6Q580-6 540.5,31T504,127q-22-54-63.5-85T348,11q-40,0-72.5,22T224,97T205,198q0,50 14,97t41.5,86t67,62T417,466q26,0 51-9.5T512,426t25-58l21,89H731L669,187q-3-14-5-25t-2-22q0-26 12-38.5T709,89q24,0 44.5,19T787,168.5T800,276q0,74-23.5,132t-66,98t-101,61T483,588q-80,0-145-25T225,491T151.5,378T126,231q0-85 27-148T227.5-21T337-82.5T469-103q66,0 110,16.5T659-49l36-67q-28-18-61.5-33T558-173t-98-9ZM431,137q25,0 43,23t27.5,56t9.5,62q0,20-5.5,33.5T489,332t-27,7q-22,0-37.5-14T398,290t-16-44t-5-42q0-21 6-36t18-23t30-8Z" />
      <glyph unicode="A" glyph-name="gid1" horiz-adv-x="684" d="M687,0H477L440,137H239L201,0H-3L219,660H464L687,0ZM273,269H407L340,515L273,269Z" />
      <glyph unicode="B" glyph-name="gid16" horiz-adv-x="694" d="M61,0V660H412q124-1 183.5-45.5T655,483q0-57-34.5-98T513,333v-1q81-10 120-52t39-104q0-86-59.5-131T433,0H61ZM257,138H386q39,0 58,15.5T463,198t-19,44t-58,15H257V138Zm0,260H371q75,0 75,59t-75,59H257V398Z" />
      <glyph unicode="C" glyph-name="gid17" horiz-adv-x="679" d="M664,196q-18-73-60.5-119t-103-66.5T367-10Q265-10 190.5,30.5T76,147T36,330T76,513T190.5,629.5T366,670q72,0 132.5-20T601,588t57-109L481,408q-11,64-38.5,85T372,514q-40,0-68.5-20.5t-43-61T246,330q0-61 13.5-102t42-61.5T376,146q41,0 69,24t37,75l182-49Z" />
      <glyph unicode="D" glyph-name="gid24" horiz-adv-x="717" d="M364,660q155,0 236-86t81-244q0-157-81-243.5T364,0H61V660H364ZM339,149q74,0 103,44.5T471,330T442,466.5T339,511H265V149h74Z" />
      <glyph unicode="E" glyph-name="gid34" horiz-adv-x="628" d="M61,0V660H593V507H265V400H527V258H265V153H606V0H61Z" />
      <glyph unicode="F" glyph-name="gid50" horiz-adv-x="613" d="M592,507H265V392H527V239H265V0H61V660H592V507Z" />
      <glyph unicode="G" glyph-name="gid51" horiz-adv-x="722" d="M337-10q-87,0-155,38T75,142T36,328q0,108 40.5,184.5T193,629.5T373,670q117,0 188.5-42T672,495L482,424q-10,49-38,69.5T374,514q-43,0-71.5-20.5T260,432T246,330q0-66 15.5-108T309,160.5T388,141q24,0 44,5.5T467.5,163T491,190.5t8,38.5v5H369V365H671V0H534L518,167l32-32Q532,65 478,27.5T337-10Z" />
      <glyph unicode="H" glyph-name="gid59" horiz-adv-x="745" d="M684,660V0H479V660H684Zm-419,0V0H61V660H265ZM591,409V256H160V409H591Z" />
      <glyph unicode="I" glyph-name="gid64" horiz-adv-x="326" d="M265,660V0H61V660H265Z" />
      <glyph unicode="J" glyph-name="gid78" horiz-adv-x="637" d="M589,660V263q0-129-76-201T295-10Q191-10 127.5,27T41,129T31,277l201,34q-12-92 6.5-128.5T304,146q43,0 62,32.5T385,281V660H589Z" />
      <glyph unicode="K" glyph-name="gid80" horiz-adv-x="706" d="M688,660L371,263l-10,39L210,107L166,258L467,660H688Zm-423,0V0H61V660H265ZM444,451L704,0H473L293,338L444,451Z" />
      <glyph unicode="L" glyph-name="gid82" horiz-adv-x="604" d="M265,153H579V0H61V660H265V153Z" />
      <glyph unicode="M" glyph-name="gid92" horiz-adv-x="930" d="M870,660V0H690V264l4,213h-2L547,0H383L240,477h-3l4-213V0H61V660H349l89-313l33-131h2l33,131l89,313H870Z" />
      <glyph unicode="N" glyph-name="gid94" horiz-adv-x="744" d="M683,660V0H459L279,327l-42,89h-2l4-130V0H61V660H284L464,333l43-89h1l-4,130V660H683Z" />
      <glyph unicode="O" glyph-name="gid105" horiz-adv-x="733" d="M367,670q103,0 176.5-40.5T656.5,513T696,330T656.5,147T543.5,30.5T367-10Q265-10 190.5,30.5T76,147T36,330T76,513T190.5,629.5T367,670Zm0-156q-41,0-67.5-20.5t-40-60.5T246,330q0-62 13.5-102.5t40-61T367,146q40,0 67,20.5t40,61T487,330q0,63-13,103t-40,60.5T367,514Z" />
      <glyph unicode="P" glyph-name="gid128" horiz-adv-x="688" d="M389,660q85,0 144.5-26.5t91-77T656,433T624.5,309.5t-91-77T389,206H265V0H61V660H389ZM356,354q45,0 70,19.5T451,433t-25,59.5T356,512H265V354h91Z" />
      <glyph unicode="Q" glyph-name="gid130" horiz-adv-x="733" d="M536-206q-71,0-123,23t-79.5,64T306-23q0,24 7.5,50T336,79l111,31q-14-26-20.5-47.5T420,24q0-34 15.5-53t42-27T538-64q45,0 73.5,9T660-31l25-135q-27-19-67-29.5T536-206ZM367,670q103,0 176.5-40.5T656.5,513T696,330T656.5,147T543.5,30.5T367-10Q265-10 190.5,30.5T76,147T36,330T76,513T190.5,629.5T367,670Zm0-156q-41,0-67.5-20.5t-40-60.5T246,330q0-62 13.5-102.5t40-61T367,146q40,0 67,20.5t40,61T487,330q0,63-13,103t-40,60.5T367,514Z" />
      <glyph unicode="R" glyph-name="gid131" horiz-adv-x="698" d="M399,660q123,0 190.5-56.5T657,453q0-105-66-159T401,240l-20-11H261V0H61V660H399ZM366,368q43,0 64.5,16.5T452,439t-21.5,55T366,511H261V368H366Zm121-43L695,0H472L311,289l176,36Z" />
      <glyph unicode="S" glyph-name="gid139" horiz-adv-x="647" d="M335,670q94,0 167-25.5T630,567L541,436q-45,38-95.5,59.5T334,517q-31,0-50-6t-27.5-16.5T248,471q0-16 19.5-26T322,427l100-23q100-23 149-67.5T620,215q0-75-37.5-125T480,15T333-10Q268-10 206.5,3T94,40.5T6,99L94,234q27-26 66-46.5T243,155t85-12q29,0 47.5,5.5T402,164t8,24q0,17-13,27.5T348,234L238,259q-54,12-100,33T64.5,350.5T37,449q0,65 35,115t102,78t161,28Z" />
      <glyph unicode="T" glyph-name="gid152" horiz-adv-x="671" d="M648,660V507H438V0H234V507H22V660H648Z" />
      <glyph unicode="U" glyph-name="gid159" horiz-adv-x="711" d="M663,660V277q0-144-77-215.5T356-10Q202-10 125,61.5T48,277V660H253V266q0-60 26-90t77-30t77,30t26,90V660H663Z" />
      <glyph unicode="V" glyph-name="gid175" horiz-adv-x="696" d="M697,660L469,0H227L-1,660H212L318,281l34-129l32,127L491,660H697Z" />
      <glyph unicode="W" glyph-name="gid176" horiz-adv-x="1010" d="M189,0L0,660H220l93-498L417,660H597L706,165l91,495h212L820,0H600L536,282L509,447h-3L479,282L415,0H189Z" />
      <glyph unicode="X" glyph-name="gid181" horiz-adv-x="685" d="M686,0H440L336,190L238,0H6L228,330L17,660H258l94-182l95,182H669L459,336L686,0Z" />
      <glyph unicode="Y" glyph-name="gid182" horiz-adv-x="687" d="M677,660L446,234V0H241V234L9,660H216l80-165l49-115l48,115l81,165H677Z" />
      <glyph unicode="Z" glyph-name="gid192" horiz-adv-x="636" d="M187,81l-36,68H613V0H31V143L447,579l35-68H36V660H602V517L187,81Z" />
      <glyph unicode="[" glyph-name="gid557" horiz-adv-x="407" d="M383,571H257V-32H383V-168H85V706H383V571Z" />
      <glyph unicode="\" glyph-name="gid545" horiz-adv-x="478" d="M10,706H197L468-70H281L10,706Z" />
      <glyph unicode="]" glyph-name="gid558" horiz-adv-x="407" d="M23-32H149V571H23V706H322V-168H23V-32Z" />
      <glyph unicode="^" glyph-name="gid624" horiz-adv-x="631" d="M24,355L231,722H399L607,355H432L316,594L198,355H24Z" />
      <glyph unicode="_" glyph-name="gid563" horiz-adv-x="539" d="M539-55V-211H0V-55H539Z" />
      <glyph unicode="`" glyph-name="gid676" horiz-adv-x="500" d="M310,734l63-175H229L127,734H310Z" />
      <glyph unicode="a" glyph-name="gid253" horiz-adv-x="584" d="M324,315q0,28-14.5,44.5T267,376q-26,0-44.5-14T199,309L28,340q10,78 73,124t180,46q80,0 134.5-22.5T497,422t27-103V151q0-40 37-40q15,0 23,4L574,6q-33-16-82-16q-43,0-76,13.5T364,43t-19,68v8l20,3q0-40-24.5-70t-64-46T189-10q-52,0-89,16T43.5,52T24,125q0,55 33.5,90T159,263l181,38l-1-85l-74-17q-25-5-36.5-16.5T217,151q0-19 13-29.5T262,111q13,0 24,4t19.5,12T319,147t5,29V315Z" />
      <glyph unicode="b" glyph-name="gid268" horiz-adv-x="627" d="M397-10q-51,0-89,24.5t-61,67T219,178l18,24L226,0H49V706H251V327l-18,27q12,67 53.5,111.5T405,510q57,0 100-31t66.5-89.5T595,248q0-81-23.5-139t-68-88.5T397-10ZM320,134q34,0 53,26t19,90t-19,89.5T320,365q-22,0-37.5-13.5T259,312t-8-62q0-39 8.5-64.5t24-38.5T320,134Z" />
      <glyph unicode="c" glyph-name="gid269" horiz-adv-x="569" d="M298,510q84,0 138.5-23.5t82.5-61T551,347L364,290q-3,41-16.5,61T305,371q-25,0-42-12t-25-39t-8-72q0-46 9.5-72t27-36.5T306,129q20,0 32.5,8.5t20.5,25T369,202l181-57q-4-43-34.5-78T432,11T307-10q-86,0-149,30.5T61,109T27,250T61,391t95,88.5T298,510Z" />
      <glyph unicode="d" glyph-name="gid276" horiz-adv-x="627" d="M229-10q-61,0-105.5,30.5T55.5,109T32,248q0,83 24,141.5T125.5,479T232,510q71,0 111-44.5T394,352l-18-25V706H578V0H396L384,187l23-23q-6-51-29.5-90.5T316.5,12T229-10Zm78,144q22,0 37,13t23.5,39t8.5,65q0,37-7.5,62.5t-23,38.5T307,365q-33,0-52.5-25.5T235,250t19-90t53-26Z" />
      <glyph unicode="e" glyph-name="gid284" horiz-adv-x="580" d="M305-10q-86,0-148.5,30.5T60.5,109T27,250T61,391t95,88.5T297,510q82,0 139.5-30.5t88-84.5T555,269q0-17-1.5-34T550,206H157v88H462l-96-37q0,57-15.5,86.5T297,373q-26,0-43.5-12t-26-40T219,247t10.5-72.5T259,138t48-10q32,0 50,13t26,36l162-48q-12-46-48.5-77T410,5.5T305-10Z" />
      <glyph unicode="f" glyph-name="gid301" horiz-adv-x="423" d="M294,723q45,0 79.5-9.5T423,693L407,573q-10,6-24,10t-36,4q-33,0-54.5-14T271,521V459l13-28V0H82V532q0,53 17.5,89.5t48,59T216,713t78,10ZM417,500V361H8V500H417Z" />
      <glyph unicode="g" glyph-name="gid302" horiz-adv-x="569" d="M555,649l14-129q-9,2-16,2.5T539,523q-43,0-63-21.5T456,451l-63,21q0,42 14,83t45.5,68T536,650q4,0 9,0t10-1ZM377,127q93,0 141.5-37.5T567-22q0-66-34.5-109T434-194.5T280-215q-142,0-202.5,32T17-92q0,42 37,66.5T175,0l-3-17Q101-9 68.5,21.5T36,102q0,51 41,81t105,32l66-30H230q-36-1-50-9t-14-21q0-14 11.5-21t36.5-7H377ZM282-89q45,0 74.5,4.5t44,13.5T415-50q0,10-7,15.5T381-29H194q-14,0-22-7t-8-18q0-17 31.5-26T282-89Zm10,599q83,0 139.5-19.5t86-57T547,339q0-55-29.5-93t-86-57T292,170q-125,0-189.5,43T38,339q0,57 29,94.5t86,57T292,510Zm0-109q-26,0-41.5-15T235,340q0-30 15.5-45.5T292,279t41.5,15.5T349,340q0,31-15.5,46T292,401Z" />
      <glyph unicode="h" glyph-name="gid310" horiz-adv-x="620" d="M49,0V706H251V403q21,52 61.5,79.5T408,510q51,0 87.5-19.5t56.5-58T572,338V0H370V284q0,43-13.5,59T319,359q-20,0-35.5-10t-24-31.5T251,263V0H49Z" />
      <glyph unicode="i" glyph-name="gid315" horiz-adv-x="300" d="M150,544q-60,0-86.5,21T37,633q0,48 26.5,69T150,723t86.5-21T263,633q0-47-26.5-68T150,544Zm101-44V0H49V500H251Z" />
      <glyph unicode="j" glyph-name="gid330" horiz-adv-x="300" d="M150,544q-60,0-86.5,21T37,633q0,48 26.5,69T150,723t86.5-21T263,633q0-47-26.5-68T150,544Zm101-44V-20q0-69-23-112t-69-63T43-215q-44,0-79,8t-63,23L-73-61q10-7 24.5-11T-16-76q30,0 47.5,16.5T49-2V500H251Z" />
      <glyph unicode="k" glyph-name="gid333" horiz-adv-x="641" d="M638,500L389,230l-36-6L218,66l-3,200L418,500H638ZM251,706V0H49V706H251ZM422,358L649,0H427L296,239L422,358Z" />
      <glyph unicode="l" glyph-name="gid336" horiz-adv-x="334" d="M250,706V186q0-32 10-46t35-14q12,0 21.5,1.5T337,133L326,19Q308,6 275.5-2T211-10Q124-10 86,28.5T48,157V706H250Z" />
      <glyph unicode="m" glyph-name="gid345" horiz-adv-x="937" d="M49,0V500H231l5-103q22,55 66,84t105,29q56,0 95.5-25.5T559,410q16,33 40.5,55t57,33.5T726,510q50,0 86.5-19.5t56.5-58T889,338V0H687V288q0,40-13,55.5T637,359q-20,0-35.5-10T578,317.5T570,264V0H368V288q0,40-13,55.5T318,359q-19,0-34.5-10t-24-31.5T251,263V0H49Z" />
      <glyph unicode="n" glyph-name="gid347" horiz-adv-x="620" d="M49,0V500H231l9-193l-21,22q8,58 33,98.5T316.5,489T408,510q51,0 87.5-19.5t56.5-58T572,338V0H370V286q0,42-13.5,57.5T318,359q-19,0-34.5-9.5t-24-30.5T251,264V0H49Z" />
      <glyph unicode="o" glyph-name="gid357" horiz-adv-x="598" d="M299,510q82,0 143-30.5T537,391t34-141q0-82-34-140.5t-95-89T299-10q-80,0-141.5,30.5t-96,89T27,250q0,83 34.5,141t96,88.5T299,510Zm0-139q-22,0-37.5-11T238,322t-8-72t8-71.5t23.5-38T299,129q23,0 38,11.5t23,38t8,71.5t-8,72t-23,38t-38,11Z" />
      <glyph unicode="p" glyph-name="gid380" horiz-adv-x="627" d="M49-210V500H232l10-202l-23,24q5,55 28,97t61.5,66.5T398,510q62,0 106-30.5t67.5-88T595,252T571,111T502.5,21T397-10q-71,0-111.5,44.5T233,146l18,27V-210H49ZM320,135q34,0 53,25.5T392,250t-19,90t-52,26q-21,0-37-13t-24.5-38.5T251,250q0-37 7.5-63T282,148t38-13Z" />
      <glyph unicode="q" glyph-name="gid382" horiz-adv-x="627" d="M376-210V178l19-27q-6-47-27.5-83T312,11T230-10q-61,0-105.5,31T56,111T32,252q0,83 24,140t69,87.5T231,510q52,0 90-24.5t60.5-67T408,320l-23-21l10,201H578V-210H376ZM307,135q22,0 37.5,13T368,187.5t8,63.5q0,39-8.5,64.5t-23.5,38T307,366q-33,0-52.5-26T235,250t19-89.5T307,135Z" />
      <glyph unicode="r" glyph-name="gid383" horiz-adv-x="437" d="M49,0V500H230l6-117q17,59 53.5,93T385,510q21,0 34-3.5t19-8.5L420,334q-10,4-26,7t-37,3q-30,0-54-11t-38-32.5T251,246V0H49Z" />
      <glyph unicode="s" glyph-name="gid391" horiz-adv-x="536" d="M270-10q-74,0-140,22T17,77L98,184q27-27 69.5-47T257,117q24,0 40.5,6T314,144q0,10-8.5,16.5T270,172l-52,10Q116,202 73.5,240.5T31,342q0,41 25.5,79.5t81,63.5T281,510q77,0 137.5-20.5T515,431L436,327q-27,26-68,41t-78,15q-19,0-32-3t-19.5-8.5T232,357q0-10 11.5-17.5T286,326l80-14q79-14 115-52t36-93q0-49-26-89T410.5,14T270-10Z" />
      <glyph unicode="t" glyph-name="gid404" horiz-adv-x="443" d="M292,665V192q0-35 15.5-50T354,127q22,0 38,4t30,13L435,26Q411,9 370-0.5T290-10Q226-10 181.5,7t-68,54T90,160V609l202,56ZM428,500V361H8V500H428Z" />
      <glyph unicode="u" glyph-name="gid412" horiz-adv-x="619" d="M214-10q-51,0-88.5,17.5t-58,56T47,164V500H249V211q0-38 14-54t41-16q14,0 26,5.5T350.5,163t13,29t4.5,42V500H570V0H389l-5,100q-23-55-66-82.5T214-10Z" />
      <glyph unicode="v" glyph-name="gid428" horiz-adv-x="575" d="M372,500H581L411,0H164L-6,500H205l83-367l84,367Z" />
      <glyph unicode="w" glyph-name="gid429" horiz-adv-x="922" d="M714,500H924L781,0H534L460,274L388,0H141L-2,500H208l70-355l84,355H560l84-355l70,355Z" />
      <glyph unicode="x" glyph-name="gid434" horiz-adv-x="609" d="M231,500L344,270l74,9L612,0H382L267,232l-76-4L2,500H231Zm377,0L422,229l-83,6L223,0H-4L191,280l77-11L383,500H608Z" />
      <glyph unicode="y" glyph-name="gid435" horiz-adv-x="579" d="M585,500L422,30q-30-90-67.5-143.5T266-191T142-215q-45,0-82,9T-4-182L34-51Q51-61 70.5-66T123-71q31,0 48,8t25,29l7,19L143,127L-3,500H218l60-271l21-111l25,114l62,268H585Z" />
      <glyph unicode="z" glyph-name="gid445" horiz-adv-x="510" d="M28,0V119L204,316l49,49l-75-2H28V500H477V381L303,186l-51-51l85,2H486V0H28Z" />
      <glyph unicode="{" glyph-name="gid555" horiz-adv-x="445" d="M425-192q-96,0-155,17.5T184.5-116T158-6V103q0,56-25.5,80T46,207V331q61,0 86.5,24T158,435V545q0,69 26.5,109.5T270,713t155,18V607q-57,0-83-21.5T316,516V389q0-48-23.5-77T224,270q45-15 68.5-44T316,149V23q0-49 26-70.5T425-69V-192Z" />
      <glyph unicode="|" glyph-name="gid639" horiz-adv-x="348" d="M263,706V-168H85V706H263Z" />
      <glyph unicode="}" glyph-name="gid556" horiz-adv-x="445" d="M19,731q97,0 155.5-18T260,654.5T287,544V435q0-56 25.5-80T399,331V207q-61,0-86.5-24T287,103V-6q0-70-27-110.5t-85.5-58T19-192V-69q57,0 83.5,21.5T129,23V149q0,48 23,77t69,43q-46,14-69,43t-23,77V515q0,49-26.5,70.5T19,607V731Z" />
      <glyph unicode="~" glyph-name="gid622" horiz-adv-x="617" d="M574,439q-4-102-47-156T403,229q-36,0-60,9t-41.5,21.5t-32,21T238,289q-19,0-29-12.5T195,236H43q4,103 47,156.5T215,446q35,0 59-9t42-21t32.5-21t30.5-9q19,0 29,12.5T422,439H574Z" />
      <glyph unicode="&#xa0;" glyph-name="gid577" horiz-adv-x="267" />
      <glyph unicode="&#xa1;" glyph-name="gid537" horiz-adv-x="310" d="M50-160V27L72,282H239L261,27V-160H50ZM156,327q-51,0-79.5,24T48,417q0,43 28.5,67T156,508t79-24t28-67q0-42-28-66t-79-24Z" />
      <glyph unicode="&#xa2;" glyph-name="gid583" horiz-adv-x="578" d="M315-10q-90,0-152.5,30.5T66.5,109T33,250T66.5,391t95,88.5T307,510q83,0 135.5-23T522,427t35-80L411,297q-5,45-29.5,68.5T318,389q-52,0-81-31T208,248q0-53 14.5-83T262,123t56-12q28,0 47.5,9.5t32,28.5T414,196l143-50q-7-46-38.5-81t-83-55T315-10Zm-64-90V600H370V-100H251Z" />
      <glyph unicode="&#xa3;" glyph-name="gid601" horiz-adv-x="622" d="M42,267v83H488V267H42ZM152-10q-52,0-88,24T28,85q0,32 18,53.5T93.5,170T158,180q44,0 75.5-5.5t54.5-14t42.5-17T371,129t47-6q32,0 47,19t12,58l124-16q8-56-8.5-100t-52-69T456-10q-43,0-76,12.5T319.5,33t-53,37T214,101t-59,12q-19,0-29-7T116,86q0-14 10.5-21T153,58q21,0 33,9.5T203.5,100t5.5,59q0,44-15.5,80T144,326q-20,33-32,57T95,429.5T90,476q0,54 29,98t84.5,70T338,670q100,0 162-45t80-137L418,430q-11,53-32.5,76T329,529q-30,0-50-17t-20-48q0-12 4-25t13.5-31.5T300,361q19-35 31.5-74T344,213q0-43-12.5-82.5t-37-71T234,9T152-10Z" />
      <glyph unicode="&#xa4;" glyph-name="gid585" horiz-adv-x="640" d="M321,537q63,0 111-26.5T507,438t27-108T507,221.5t-75-73T321,122q-64,0-112.5,26.5t-75.5,73T106,330t27,108t75.5,72.5T321,537Zm0-138q-31,0-49.5-18.5T253,330t18.5-51T321,260q30,0 48,19t18,51t-18,50.5T321,399ZM139,624L274,467l-92-92L24,510L139,624Zm42-340l93-92L139,34L24,149L181,284Zm282-5L615,149L500,34L369,186l94,93Zm37,345L615,510L464,378l-95,94L500,624Z" />
      <glyph unicode="&#xa5;" glyph-name="gid603" horiz-adv-x="683" d="M242,0V127H51v58H242v63H51v60H165l66-4L14,660H220l78-181l43-103h2l42,104l79,180H669L452,304l66,4H632V248H440V185H632V127H440V0H242Z" />
      <glyph unicode="&#xa6;" glyph-name="gid640" horiz-adv-x="348" d="M263,706V321H85V706H263Zm0-488V-168H85V218H263Z" />
      <glyph unicode="&#xa7;" glyph-name="gid632" horiz-adv-x="631" d="M424,85L361,186q40,7 64,15.5t35.5,19T472,246q0,21-18.5,31.5T407,293L224,328q-42,8-74.5,30T99,411.5T81,479q0,58 30,100.5T196,646t129,24q86,0 140.5-24.5T562,573l-99-91q-28,32-66,48.5T316,547q-47,0-66-13t-19-31q0-12 7.5-21t29-16.5T329,450l84-15q68-13 111-34t63-50.5T607,279q0-57-23.5-96T519,120T424,85ZM312-110q-83,0-153.5,24.5T48-13L148,80q25-33 71.5-51T313,11q39,0 66.5,10T407,52q0,16-17,23.5T328,93L182,123q-53,12-89,32.5T38.5,208T20,286q0,54 24,88.5T108.5,430T199,463l60-100q-37-9-59.5-17t-33-18T156,303q0-21 19-30.5T232,256l155-30q81-15 122-51.5T550,71q0-58-29-98.5T439-89T312-110Z" />
      <glyph unicode="&#xa8;" glyph-name="gid675" horiz-adv-x="500" d="M134,716q46,0 71-22t25-63q0-40-25-62.5T134,546q-44,0-68.5,22.5T41,631q0,41 24.5,63T134,716Zm229,0q46,0 71-22t25-63q0-40-25-62.5T363,546q-44,0-68.5,22.5T270,631q0,41 24.5,63T363,716Z" />
      <glyph unicode="&#xa9;" glyph-name="gid633" horiz-adv-x="755" d="M377-10q-99,0-177.5,43T76.5,152.5T32,330q0,102 44.5,178t123,119T377,670q101,0 178.5-43T678,508t45-178q0-101-45-177.5T555.5,33T377-10Zm0,90q76,0 132.5,31.5t88,88T629,330q0,75-31.5,131t-88,87.5T377,580q-75,0-131.5-31.5t-88-87.5T126,330q0-74 31.5-130.5t88-88T377,80Zm6,56q-92,0-143,53T189,330t51,140.5T383,523q71,0 116.5-31.5T562,407L449,353q-10,20-24,27t-35,7q-27,0-43.5-14.5T330,330t16.5-43T391,272q19,0 35,7t25,30l108-53q-25-64-66-92T383,136Z" />
      <glyph unicode="&#xaa;" glyph-name="gid475" horiz-adv-x="458" d="M142,299q-57,0-86.5,26T26,391q0,44 28.5,66T144,492l107,22V460l-48-12q-19-5-28.5-15T165,409t9-21t22-7q11,0 20.5,4.5t15.5,14t6,24.5V524q0,19-10,30t-29,11q-18,0-31.5-10T150,517L29,539q7,56 52,89t125,33q91,0 134.5-35T384,519V414q0-15 7-22.5t19-7.5q13,0 19,3l-11-75q-12-7-26-10t-35-3q-44,0-71,22t-27,66v20l18-2q-3-29-19.5-53.5T212,313t-70-14ZM37,133V234H418V133H37Z" />
      <glyph unicode="&#xab;" glyph-name="gid570" horiz-adv-x="618" d="M323,461L205,265L323,69H154L29,265L154,461H323Zm266,0L471,265L589,69H420L295,265L420,461H589Z" />
      <glyph unicode="&#xac;" glyph-name="gid623" horiz-adv-x="604" d="M544,312V85H387V312H544Zm0,85V259H60V397H544Z" />
      <glyph unicode="&#xad;" glyph-name="gid560" horiz-adv-x="534" d="M457,349V191H78V349H457Z" />
      <glyph unicode="&#xae;" glyph-name="gid634" horiz-adv-x="755" d="M377-10q-99,0-177.5,43T76.5,152.5T32,330q0,102 44.5,178t123,119T377,670q101,0 178.5-43T678,508t45-178q0-101-45-177.5T555.5,33T377-10Zm33,164L344,296l99,23L548,154H410ZM377,80q76,0 132.5,31.5t88,88T629,330q0,75-31.5,131t-88,87.5T377,580q-75,0-131.5-31.5t-88-87.5T126,330q0-74 31.5-130.5t88-88T377,80ZM228,154V516H411q37,0 65.5-15.5T522,458t17-62q0-58-39-89.5T395,275H341V154H228ZM341,352h38q20,0 32,7.5T423,386t-12,27t-32,8H341V352Z" />
      <glyph unicode="&#xaf;" glyph-name="gid683" horiz-adv-x="500" d="M438,678V559H62V678H438Z" />
      <glyph unicode="&#xb0;" glyph-name="gid636" horiz-adv-x="508" d="M254,283q-66,0-113.5,23.5t-74,67T40,477q0,59 26.5,102.5t74,67T254,670q67,0 114-23.5t73.5-67T468,477q0-60-26.5-103.5t-73.5-67T254,283Zm0,124q32,0 51.5,20T325,477q0,31-19.5,50T254,546q-31,0-51-19t-20-50q0-30 20-50t51-20Z" />
      <glyph unicode="&#xb1;" glyph-name="gid621" horiz-adv-x="604" d="M373,656V196H232V656H373ZM556,493V360H48V493H556Zm0-364V1H48V129H556Z" />
      <glyph unicode="&#xb2;" glyph-name="gid519" horiz-adv-x="402" d="M25,333v88q25,12 46.5,23.5T113,468q41,25 66.5,47t37,41T228,592q0,16-8.5,25.5T192,627q-22,0-32.5-18T150,557L11,582q1,70 50.5,111.5T195,735q68,0 108-20t57.5-50T378,604q0-24-9.5-45.5t-27-40.5T298,482q-18-13-40-22.5T212,442v-2q18,2 46,3t56,1h68V333H25Z" />
      <glyph unicode="&#xb3;" glyph-name="gid520" horiz-adv-x="386" d="M198,735q75,0 117-29.5T357,620q0-25-10-44t-29-30t-46-13v-4q31,0 51.5-10t31-28T365,447q0-36-24-63t-65.5-42T181,327q-76,0-120.5,30T4,438l130,36q3-24 16-35.5T185,427q20,0 30,9.5T225,462q0,17-11,23.5T180,492q-4,0-8,0t-9-1v70q4-1 8-1t7,0q20,0 30.5,9T219,595t-9,25t-26,8q-18,0-31-11t-15-35L12,617q10,57 60.5,87.5T198,735Z" />
      <glyph unicode="&#xb4;" glyph-name="gid677" horiz-adv-x="519" d="M200,734H383L280,559H137l63,175Z" />
      <glyph unicode="&#xb5;" glyph-name="gid625" horiz-adv-x="621" d="M49-210V500H251V214q0-40 13.5-56.5T305,141q20,0 34.5,10.5t22.5,32t8,55.5V500H572V0H392l-6,94q-19-51-54.5-77T249-9q-16,0-30,3T193,4l58,83V-210H49Z" />
      <glyph unicode="&#xb6;" glyph-name="gid631" horiz-adv-x="781" d="M298-100V172q-75,1-135.5,27.5T67,280T32,415q0,82 36.5,136.5T170,633t149,27H723V-100H561V508H461V-100H298Zm-4,425V508q-34,0-57-11.5t-35.5-32T189,416t12.5-48.5T237,336t57-11Z" />
      <glyph unicode="&#xb7;" glyph-name="gid540" horiz-adv-x="291" d="M145,452q54,0 83-26t29-73t-29-73t-83-26q-52,0-82,26T33,353t30,73t82,26Z" />
      <glyph unicode="&#xb8;" glyph-name="gid684" horiz-adv-x="500" d="M168,12l40,28q86-9 127.5-40T377-87q0-59-39-93.5T229-215q-41,0-64,9t-41,20l30,90q12-8 25.5-12.5T212-113q25,0 40.5,14T268-61q0,22-21.5,39.5T168,12Z" />
      <glyph unicode="&#xb9;" glyph-name="gid518" horiz-adv-x="318" d="M160,730H280V333H139V537q0,11 0.5,27.5T141,599q-24-17-54-29T22,553V669q23,3 51,12.5T125.5,704T160,730Z" />
      <glyph unicode="&#xba;" glyph-name="gid476" horiz-adv-x="445" d="M223,299q-88,0-139.5,47.5T32,480T83.5,613.5T223,661q87,0 138.5-47.5T413,480T361.5,346.5T223,299ZM36,133V234H409V133H36ZM223,390q24,0 33.5,20.5T266,480q0,48-9.5,69T223,570t-34.5-21T178,480q0-49 10.5-69.5T223,390Z" />
      <glyph unicode="&#xbb;" glyph-name="gid571" horiz-adv-x="618" d="M295,69L413,265L295,461H464L589,265L464,69H295ZM29,69L147,265L29,461H198L324,265L198,69H29Z" />
      <glyph unicode="&#xbc;" glyph-name="gid529" horiz-adv-x="902" d="M160,665H280V268H139V472q0,11 0.5,27.5T141,534q-24-17-54-29T22,488V604q23,3 51,12.5T125.5,639T160,665ZM139,0L615,661H749L273,0H139ZM890,169V75H833V-4H709V75H507v64L661,394H833V169h57Zm-263,0h82v64q0,21 1,42t2,40h-3q-6-15-14-31.5T679,253l-52-84Z" />
      <glyph unicode="&#xbd;" glyph-name="gid528" horiz-adv-x="971" d="M160,665H280V268H139V472q0,11 0.5,27.5T141,534q-24-17-54-29T22,488V604q23,3 51,12.5T125.5,639T160,665ZM139,0L615,661H749L273,0H139ZM595-4V84q25,12 46.5,23.5T683,131q41,25 66.5,47t37,41T798,255q0,16-8.5,25.5T762,290q-22,0-32.5-18T720,220L581,245q1,70 50.5,111.5T765,398q68,0 108-20t57.5-50T948,267q0-24-9.5-45.5t-27-40.5T868,145q-18-13-40-22.5T782,105v-2q18,2 46,3t56,1h68V-4H595Z" />
      <glyph unicode="&#xbe;" glyph-name="gid530" horiz-adv-x="970" d="M198,670q75,0 117-29.5T357,555q0-25-10-44t-29-30t-46-13v-4q31,0 51.5-10t31-28T365,382q0-36-24-63t-65.5-42T181,262q-76,0-120.5,30T4,373l130,36q3-24 16-35.5T185,362q20,0 30,9.5T225,397q0,17-11,23.5T180,427q-4,0-8,0t-9-1v70q4-1 8-1t7,0q20,0 30.5,9T219,530t-9,25t-26,8q-18,0-31-11t-15-35L12,552q10,57 60.5,87.5T198,670ZM207,0L683,661H817L341,0H207ZM958,169V75H901V-4H777V75H575v64L729,394H901V169h57Zm-263,0h82v64q0,21 1,42t2,40h-3q-6-15-14-31.5T747,253l-52-84Z" />
      <glyph unicode="&#xbf;" glyph-name="gid539" horiz-adv-x="630" d="M310-169q-77,0-138.5,20.5t-97,63T39,21q0,63 26,102t69.5,58.5T230,206l14,79H417l-1-154q-60-2-94-13.5t-49-29T258,49q0-19 7-32T286.5-2.5T323-9q36,0 55.5,22T403,79L600,17q-12-53-45.5-95t-93-66.5T310-169Zm17,497q-51,0-79,23.5T220,418t28,66.5T327,508q50,0 78.5-23.5T434,418t-28.5-66.5T327,328Z" />
      <glyph unicode="&#xc0;" glyph-name="gid7" horiz-adv-x="684" d="M687,0H477L440,137H239L201,0H-3L219,660H464L687,0ZM273,269H407L340,515L273,269Zm90,612l59-166H278L187,881H363Z" />
      <glyph unicode="&#xc1;" glyph-name="gid2" horiz-adv-x="684" d="M687,0H477L440,137H239L201,0H-3L219,660H464L687,0ZM273,269H407L340,515L273,269Zm45,612H494L403,715H259l59,166Z" />
      <glyph unicode="&#xc2;" glyph-name="gid4" horiz-adv-x="684" d="M687,0H477L440,137H239L201,0H-3L219,660H464L687,0ZM273,269H407L340,515L273,269ZM535,715H401l-60,87l-60-87H147l97,166H438l97-166Z" />
      <glyph unicode="&#xc3;" glyph-name="gid13" horiz-adv-x="684" d="M687,0H477L440,137H239L201,0H-3L219,660H464L687,0ZM273,269H407L340,515L273,269ZM545,879q-1-57-19-94.5t-46.5-56T418,710q-28,0-48.5,8.5t-36,19T305,756t-27,8q-15,0-23-12.5T244,712H136q3,85 41.5,126.5T273,880q27,0 46-8t32.5-18.5t26-18.5t26.5-8q16,0 23.5,12.5T438,879H545Z" />
      <glyph unicode="&#xc4;" glyph-name="gid6" horiz-adv-x="684" d="M687,0H477L440,137H239L201,0H-3L219,660H464L687,0ZM273,269H407L340,515L273,269ZM225,876q46,0 71-22t25-63q0-40-25-62.5T225,706q-44,0-68.5,22.5T132,791q0,41 24.5,63T225,876Zm229,0q46,0 71-22t25-63q0-40-25-62.5T454,706q-44,0-68.5,22.5T361,791q0,41 24.5,63T454,876Z" />
      <glyph unicode="&#xc5;" glyph-name="gid11" horiz-adv-x="684" d="M687,0H477L440,137H239L201,0H-3L219,660H464L687,0ZM273,269H407L340,515L273,269Zm68,572q66,0 105.5-35T486,712q0-58-39.5-93T341,584q-65,0-104.5,35T197,712q0,59 39.5,94T341,841Zm1-82q-22,0-35-12.5T294,713q0-22 13-34.5T342,666q21,0 34,12.5T389,713q0,21-13,33.5T342,759Z" />
      <glyph unicode="&#xc6;" glyph-name="gid14" horiz-adv-x="913" d="M599,145H891V0H410V190H256L196,0H-7L239,660H878V515H599V397H813V262H599V145ZM292,315H410V522H361L292,315Z" />
      <glyph unicode="&#xc7;" glyph-name="gid20" horiz-adv-x="679" d="M664,196q-18-73-60.5-119t-103-66.5T367-10Q265-10 190.5,30.5T76,147T36,330T76,513T190.5,629.5T366,670q72,0 132.5-20T601,588t57-109L481,408q-11,64-38.5,85T372,514q-40,0-68.5-20.5t-43-61T246,330q0-61 13.5-102t42-61.5T376,146q41,0 69,24t37,75l182-49ZM271,12l40,28q86-9 127.5-40T480-87q0-59-39-93.5T332-215q-41,0-64,9t-41,20l30,90q12-8 25.5-12.5T315-113q25,0 40.5,14T371-61q0,22-21.5,39.5T271,12Z" />
      <glyph unicode="&#xc8;" glyph-name="gid43" horiz-adv-x="628" d="M61,0V660H593V507H265V400H527V258H265V153H606V0H61ZM350,881l59-166H265L174,881H350Z" />
      <glyph unicode="&#xc9;" glyph-name="gid35" horiz-adv-x="628" d="M61,0V660H593V507H265V400H527V258H265V153H606V0H61ZM295,881H471L380,715H236l59,166Z" />
      <glyph unicode="&#xca;" glyph-name="gid39" horiz-adv-x="628" d="M61,0V660H593V507H265V400H527V258H265V153H606V0H61ZM521,715H387l-60,87l-60-87H133l97,166H424l97-166Z" />
      <glyph unicode="&#xcb;" glyph-name="gid41" horiz-adv-x="628" d="M61,0V660H593V507H265V400H527V258H265V153H606V0H61ZM211,876q46,0 71-22t25-63q0-40-25-62.5T211,706q-44,0-68.5,22.5T118,791q0,41 24.5,63T211,876Zm229,0q46,0 71-22t25-63q0-40-25-62.5T440,706q-44,0-68.5,22.5T347,791q0,41 24.5,63T440,876Z" />
      <glyph unicode="&#xcc;" glyph-name="gid73" horiz-adv-x="326" d="M265,660V0H61V660H265ZM184,881l59-166H99L8,881H184Z" />
      <glyph unicode="&#xcd;" glyph-name="gid66" horiz-adv-x="326" d="M265,660V0H61V660H265ZM142,881H318L227,715H83l59,166Z" />
      <glyph unicode="&#xce;" glyph-name="gid68" horiz-adv-x="326" d="M265,660V0H61V660H265Zm92,55H223l-60,87l-60-87H-31L66,881H260l97-166Z" />
      <glyph unicode="&#xcf;" glyph-name="gid70" horiz-adv-x="326" d="M54,876q44,0 68.5-22T147,791q0-40-24.5-62.5T54,706q-42,0-66,22.5T-36,791q0,41 24,63t66,22Zm215,0q44,0 69-22t25-63q0-40-25-62.5T269,706q-42,0-66,22.5T179,791q0,41 24,63t66,22Zm-4-216V0H61V660H265Z" />
      <glyph unicode="&#xd0;" glyph-name="gid27" horiz-adv-x="743" d="M8,261V397H398V261H8ZM390,660q155,0 235.5-86T706,330q0-157-80.5-243.5T390,0H87V660H390ZM365,149q73,0 102.5,44.5T497,330T467.5,466.5T365,511H291V149h74Z" />
      <glyph unicode="&#xd1;" glyph-name="gid104" horiz-adv-x="744" d="M683,660V0H459L279,327l-42,89h-2l4-130V0H61V660H284L464,333l43-89h1l-4,130V660H683ZM577,879q-1-57-19-94.5t-46.5-56T450,710q-28,0-48.5,8.5t-36,19T337,756t-27,8q-15,0-23-12.5T276,712H168q3,85 41.5,126.5T305,880q27,0 46-8t32.5-18.5t26-18.5t26.5-8q16,0 23.5,12.5T470,879H577Z" />
      <glyph unicode="&#xd2;" glyph-name="gid113" horiz-adv-x="733" d="M367,670q103,0 176.5-40.5T656.5,513T696,330T656.5,147T543.5,30.5T367-10Q265-10 190.5,30.5T76,147T36,330T76,513T190.5,629.5T367,670Zm0-156q-41,0-67.5-20.5t-40-60.5T246,330q0-62 13.5-102.5t40-61T367,146q40,0 67,20.5t40,61T487,330q0,63-13,103t-40,60.5T367,514Zm21,367l59-166H303L212,881H388Z" />
      <glyph unicode="&#xd3;" glyph-name="gid106" horiz-adv-x="733" d="M367,670q103,0 176.5-40.5T656.5,513T696,330T656.5,147T543.5,30.5T367-10Q265-10 190.5,30.5T76,147T36,330T76,513T190.5,629.5T367,670Zm0-156q-41,0-67.5-20.5t-40-60.5T246,330q0-62 13.5-102.5t40-61T367,146q40,0 67,20.5t40,61T487,330q0,63-13,103t-40,60.5T367,514ZM344,881H520L429,715H285l59,166Z" />
      <glyph unicode="&#xd4;" glyph-name="gid108" horiz-adv-x="733" d="M367,670q103,0 176.5-40.5T656.5,513T696,330T656.5,147T543.5,30.5T367-10Q265-10 190.5,30.5T76,147T36,330T76,513T190.5,629.5T367,670Zm0-156q-41,0-67.5-20.5t-40-60.5T246,330q0-62 13.5-102.5t40-61T367,146q40,0 67,20.5t40,61T487,330q0,63-13,103t-40,60.5T367,514ZM561,715H427l-60,87l-60-87H173l97,166H464l97-166Z" />
      <glyph unicode="&#xd5;" glyph-name="gid123" horiz-adv-x="733" d="M367,670q103,0 176.5-40.5T656.5,513T696,330T656.5,147T543.5,30.5T367-10Q265-10 190.5,30.5T76,147T36,330T76,513T190.5,629.5T367,670Zm0-156q-41,0-67.5-20.5t-40-60.5T246,330q0-62 13.5-102.5t40-61T367,146q40,0 67,20.5t40,61T487,330q0,63-13,103t-40,60.5T367,514ZM571,879q-1-57-19-94.5t-46.5-56T444,710q-28,0-48.5,8.5t-36,19T331,756t-27,8q-15,0-23-12.5T270,712H162q3,85 41.5,126.5T299,880q27,0 46-8t32.5-18.5t26-18.5t26.5-8q16,0 23.5,12.5T464,879H571Z" />
      <glyph unicode="&#xd6;" glyph-name="gid110" horiz-adv-x="733" d="M367,670q103,0 176.5-40.5T656.5,513T696,330T656.5,147T543.5,30.5T367-10Q265-10 190.5,30.5T76,147T36,330T76,513T190.5,629.5T367,670Zm0-156q-41,0-67.5-20.5t-40-60.5T246,330q0-62 13.5-102.5t40-61T367,146q40,0 67,20.5t40,61T487,330q0,63-13,103t-40,60.5T367,514ZM251,876q46,0 71-22t25-63q0-40-25-62.5T251,706q-44,0-68.5,22.5T158,791q0,41 24.5,63T251,876Zm229,0q46,0 71-22t25-63q0-40-25-62.5T480,706q-44,0-68.5,22.5T387,791q0,41 24.5,63T480,876Z" />
      <glyph unicode="&#xd7;" glyph-name="gid616" horiz-adv-x="604" d="M454,72L559,178L150,587L44,481L454,72ZM150,72L559,481L454,587L44,178L150,72Z" />
      <glyph unicode="&#xd8;" glyph-name="gid121" horiz-adv-x="733" d="M261,131l-50,42L455,504l53-39L261,131ZM53-24L187,148l55-42L135-24H53ZM542,504l-55,42L597,681h83L542,504ZM367,670q103,0 176.5-40.5T656.5,513T696,330T656.5,147T543.5,30.5T367-10Q265-10 190.5,30.5T76,147T36,330T76,513T190.5,629.5T367,670Zm0-156q-41,0-67.5-20.5t-40-60.5T246,330q0-62 13.5-102.5t40-61T367,146q40,0 67,20.5t40,61T487,330q0,63-13,103t-40,60.5T367,514Z" />
      <glyph unicode="&#xd9;" glyph-name="gid165" horiz-adv-x="711" d="M663,660V277q0-144-77-215.5T356-10Q202-10 125,61.5T48,277V660H253V266q0-60 26-90t77-30t77,30t26,90V660H663ZM379,876l59-166H294L203,876H379Z" />
      <glyph unicode="&#xda;" glyph-name="gid160" horiz-adv-x="711" d="M663,660V277q0-144-77-215.5T356-10Q202-10 125,61.5T48,277V660H253V266q0-60 26-90t77-30t77,30t26,90V660H663ZM333,876H509L418,710H274l59,166Z" />
      <glyph unicode="&#xdb;" glyph-name="gid162" horiz-adv-x="711" d="M663,660V277q0-144-77-215.5T356-10Q202-10 125,61.5T48,277V660H253V266q0-60 26-90t77-30t77,30t26,90V660H663ZM550,710H416l-60,87l-60-87H162l97,166H453l97-166Z" />
      <glyph unicode="&#xdc;" glyph-name="gid164" horiz-adv-x="711" d="M663,660V277q0-144-77-215.5T356-10Q202-10 125,61.5T48,277V660H253V266q0-60 26-90t77-30t77,30t26,90V660H663ZM240,871q46,0 71-22t25-63q0-40-25-62.5T240,701q-44,0-68.5,22.5T147,786q0,41 24.5,63T240,871Zm229,0q46,0 71-22t25-63q0-40-25-62.5T469,701q-44,0-68.5,22.5T376,786q0,41 24.5,63T469,871Z" />
      <glyph unicode="&#xdd;" glyph-name="gid183" horiz-adv-x="687" d="M677,660L446,234V0H241V234L9,660H216l80-165l49-115l48,115l81,165H677ZM320,877H496L405,711H261l59,166Z" />
      <glyph unicode="&#xde;" glyph-name="gid129" horiz-adv-x="691" d="M391,566q127,0 197-58t70-171T588,166T391,108H163V256H362q90,0 90,83q0,40-23.5,59T362,417H163V566H391ZM265,660V0H61V660H265Z" />
      <glyph unicode="&#xdf;" glyph-name="gid402" horiz-adv-x="657" d="M456,353q54,0 93-21.5t61-60T632,180q0-50-22.5-93.5t-70-70T417-10q-44,0-78.5,8.5T282,22l29,127q12-8 26.5-13.5T373,130q31,0 50,21t19,57q0,35-22.5,54T356,281H303l22,137h23q38,0 57,22t19,57q0,36-21.5,55T345,571q-50,0-72-31T251,439V0H49V448q0,84 30,142.5T175.5,680T351,711q87,0 146.5-25T588,618t31-101q0-42-19.5-79t-56-59.5T456,355v-2Z" />
      <glyph unicode="&#xe0;" glyph-name="gid259" horiz-adv-x="584" d="M324,315q0,28-14.5,44.5T267,376q-26,0-44.5-14T199,309L28,340q10,78 73,124t180,46q80,0 134.5-22.5T497,422t27-103V151q0-40 37-40q15,0 23,4L574,6q-33-16-82-16q-43,0-76,13.5T364,43t-19,68v8l20,3q0-40-24.5-70t-64-46T189-10q-52,0-89,16T43.5,52T24,125q0,55 33.5,90T159,263l181,38l-1-85l-74-17q-25-5-36.5-16.5T217,151q0-19 13-29.5T262,111q13,0 24,4t19.5,12T319,147t5,29V315ZM289,734l63-175H208L106,734H289Z" />
      <glyph unicode="&#xe1;" glyph-name="gid254" horiz-adv-x="584" d="M324,315q0,28-14.5,44.5T267,376q-26,0-44.5-14T199,309L28,340q10,78 73,124t180,46q80,0 134.5-22.5T497,422t27-103V151q0-40 37-40q15,0 23,4L574,6q-33-16-82-16q-43,0-76,13.5T364,43t-19,68v8l20,3q0-40-24.5-70t-64-46T189-10q-52,0-89,16T43.5,52T24,125q0,55 33.5,90T159,263l181,38l-1-85l-74-17q-25-5-36.5-16.5T217,151q0-19 13-29.5T262,111q13,0 24,4t19.5,12T319,147t5,29V315ZM254,734H437L334,559H191l63,175Z" />
      <glyph unicode="&#xe2;" glyph-name="gid256" horiz-adv-x="584" d="M324,315q0,28-14.5,44.5T267,376q-26,0-44.5-14T199,309L28,340q10,78 73,124t180,46q80,0 134.5-22.5T497,422t27-103V151q0-40 37-40q15,0 23,4L574,6q-33-16-82-16q-43,0-76,13.5T364,43t-19,68v8l20,3q0-40-24.5-70t-64-46T189-10q-52,0-89,16T43.5,52T24,125q0,55 33.5,90T159,263l181,38l-1-85l-74-17q-25-5-36.5-16.5T217,151q0-19 13-29.5T262,111q13,0 24,4t19.5,12T319,147t5,29V315ZM480,552H339l-62,80l-62-80H74L182,728H372L480,552Z" />
      <glyph unicode="&#xe3;" glyph-name="gid265" horiz-adv-x="584" d="M324,315q0,28-14.5,44.5T267,376q-26,0-44.5-14T199,309L28,340q10,78 73,124t180,46q80,0 134.5-22.5T497,422t27-103V151q0-40 37-40q15,0 23,4L574,6q-33-16-82-16q-43,0-76,13.5T364,43t-19,68v8l20,3q0-40-24.5-70t-64-46T189-10q-52,0-89,16T43.5,52T24,125q0,55 33.5,90T159,263l181,38l-1-85l-74-17q-25-5-36.5-16.5T217,151q0-19 13-29.5T262,111q13,0 24,4t19.5,12T319,147t5,29V315ZM481,719q-1-57-19-94.5t-46.5-56T354,550q-28,0-48.5,8.5t-36,19T241,596t-27,8q-15,0-23-12.5T180,552H72q3,85 41.5,126.5T209,720q27,0 46-8t32.5-18.5t26-18.5t26.5-8q16,0 23.5,12.5T374,719H481Z" />
      <glyph unicode="&#xe4;" glyph-name="gid258" horiz-adv-x="584" d="M324,315q0,28-14.5,44.5T267,376q-26,0-44.5-14T199,309L28,340q10,78 73,124t180,46q80,0 134.5-22.5T497,422t27-103V151q0-40 37-40q15,0 23,4L574,6q-33-16-82-16q-43,0-76,13.5T364,43t-19,68v8l20,3q0-40-24.5-70t-64-46T189-10q-52,0-89,16T43.5,52T24,125q0,55 33.5,90T159,263l181,38l-1-85l-74-17q-25-5-36.5-16.5T217,151q0-19 13-29.5T262,111q13,0 24,4t19.5,12T319,147t5,29V315ZM161,716q46,0 71-22t25-63q0-40-25-62.5T161,546q-44,0-68.5,22.5T68,631q0,41 24.5,63T161,716Zm229,0q46,0 71-22t25-63q0-40-25-62.5T390,546q-44,0-68.5,22.5T297,631q0,41 24.5,63T390,716Z" />
      <glyph unicode="&#xe5;" glyph-name="gid263" horiz-adv-x="584" d="M324,315q0,28-14.5,44.5T267,376q-26,0-44.5-14T199,309L28,340q10,78 73,124t180,46q80,0 134.5-22.5T497,422t27-103V151q0-40 37-40q15,0 23,4L574,6q-33-16-82-16q-43,0-76,13.5T364,43t-19,68v8l20,3q0-40-24.5-70t-64-46T189-10q-52,0-89,16T43.5,52T24,125q0,55 33.5,90T159,263l181,38l-1-85l-74-17q-25-5-36.5-16.5T217,151q0-19 13-29.5T262,111q13,0 24,4t19.5,12T319,147t5,29V315ZM276,799q66,0 105.5-35T421,670q0-58-39.5-93T276,542q-65,0-104.5,35T132,670q0,59 39.5,94T276,799Zm1-82q-22,0-35-12.5T229,671q0-22 13-34.5T277,624q21,0 34,12.5T324,671q0,21-13,33.5T277,717Z" />
      <glyph unicode="&#xe6;" glyph-name="gid266" horiz-adv-x="874" d="M202-10q-58,0-98,16T43.5,53T23,128q0,54 36.5,88.5T160,264l164,33v15q0,31-15,47.5T265,376q-24,0-42-14t-24-53L28,340q6,48 36,86t81.5,61T266,510q81,0 134-27.5T472,401l-65-5q20,37 50,62t68,38.5T608,510q79,0 132.5-30.5t81-85T849,269q0-16-1.5-33T844,207H518q3-43 30-61.5T611,127q30,0 44,13.5T677,177l163-47q-13-47-46.5-78t-80-46.5T613-10q-91,0-149,42T387,154l40-10q-7-32-23.5-59.5T360,35.5T294,2T202-10Zm60,121q12,0 23,3.5T305,127t14,21.5t5,29.5v36l-59-14q-25-6-36.5-16.5T217,150q0-17 12-28t33-11ZM518,294H659q-2,26-9.5,43.5T628,364t-35,9q-32,0-50.5-18.5T518,294Z" />
      <glyph unicode="&#xe7;" glyph-name="gid272" horiz-adv-x="569" d="M298,510q84,0 138.5-23.5t82.5-61T551,347L364,290q-3,41-16.5,61T305,371q-25,0-42-12t-25-39t-8-72q0-46 9.5-72t27-36.5T306,129q20,0 32.5,8.5t20.5,25T369,202l181-57q-4-43-34.5-78T432,11T307-10q-86,0-149,30.5T61,109T27,250T61,391t95,88.5T298,510ZM214,12l40,28q86-9 127.5-40T423-87q0-59-39-93.5T275-215q-41,0-64,9t-41,20l30,90q12-8 25.5-12.5T258-113q25,0 40.5,14T314-61q0,22-21.5,39.5T214,12Z" />
      <glyph unicode="&#xe8;" glyph-name="gid293" horiz-adv-x="579" d="M305-10q-86,0-148.5,30.5T60.5,109T27,250T61,391t95,88.5T297,510q82,0 139.5-30.5t88-84.5T555,269q0-17-1.5-34T550,206H157v88H462l-96-37q0,57-15.5,86.5T297,373q-26,0-43.5-12t-26-40T219,247t10.5-72.5T259,138t48-10q32,0 50,13t26,36l162-48q-12-46-48.5-77T410,5.5T305-10Zm2,744l63-175H226L124,734H307Z" />
      <glyph unicode="&#xe9;" glyph-name="gid285" horiz-adv-x="579" d="M305-10q-86,0-148.5,30.5T60.5,109T27,250T61,391t95,88.5T297,510q82,0 139.5-30.5t88-84.5T555,269q0-17-1.5-34T550,206H157v88H462l-96-37q0,57-15.5,86.5T297,373q-26,0-43.5-12t-26-40T219,247t10.5-72.5T259,138t48-10q32,0 50,13t26,36l162-48q-12-46-48.5-77T410,5.5T305-10ZM272,734H455L352,559H209l63,175Z" />
      <glyph unicode="&#xea;" glyph-name="gid289" horiz-adv-x="579" d="M305-10q-86,0-148.5,30.5T60.5,109T27,250T61,391t95,88.5T297,510q82,0 139.5-30.5t88-84.5T555,269q0-17-1.5-34T550,206H157v88H462l-96-37q0,57-15.5,86.5T297,373q-26,0-43.5-12t-26-40T219,247t10.5-72.5T259,138t48-10q32,0 50,13t26,36l162-48q-12-46-48.5-77T410,5.5T305-10ZM498,552H357l-62,80l-62-80H92L200,728H390L498,552Z" />
      <glyph unicode="&#xeb;" glyph-name="gid291" horiz-adv-x="579" d="M305-10q-86,0-148.5,30.5T60.5,109T27,250T61,391t95,88.5T297,510q82,0 139.5-30.5t88-84.5T555,269q0-17-1.5-34T550,206H157v88H462l-96-37q0,57-15.5,86.5T297,373q-26,0-43.5-12t-26-40T219,247t10.5-72.5T259,138t48-10q32,0 50,13t26,36l162-48q-12-46-48.5-77T410,5.5T305-10ZM179,716q46,0 71-22t25-63q0-40-25-62.5T179,546q-44,0-68.5,22.5T86,631q0,41 24.5,63T179,716Zm229,0q46,0 71-22t25-63q0-40-25-62.5T408,546q-44,0-68.5,22.5T315,631q0,41 24.5,63T408,716Z" />
      <glyph unicode="&#xec;" glyph-name="gid324" horiz-adv-x="300" d="M251,500V0H49V500H251ZM162,734l63-175H81L-21,734H162Z" />
      <glyph unicode="&#xed;" glyph-name="gid317" horiz-adv-x="300" d="M251,500V0H49V500H251ZM127,734H310L207,559H64l63,175Z" />
      <glyph unicode="&#xee;" glyph-name="gid319" horiz-adv-x="300" d="M251,500V0H49V500H251Zm102,52H212l-62,80L88,552H-53L55,728H245L353,552Z" />
      <glyph unicode="&#xef;" glyph-name="gid321" horiz-adv-x="300" d="M252,544q-44,0-66.5,22T163,631t22.5,65T252,718t66.5-22T341,631t-22.5-65T252,544ZM48,544q-44,0-66.5,22T-41,631t22.5,65T48,718t66.5-22T137,631t-22.5-65T48,544Zm203-44V0H49V500H251Z" />
      <glyph unicode="&#xf0;" glyph-name="gid277" horiz-adv-x="598" d="M298-10q-83,0-142.5,30T65,107T34,245T64.5,382.5T149,469t124,30q72,0 109-34.5T430,374l-8-4q-6,62-25,109t-50.5,86t-77,76.5T165,719H336q40-20 80.5-55T491,578t55-118.5T567,308q0-105-35-175.5T436.5,26T298-10Zm7,139q26,0 42,12t23.5,38t7.5,66q0,46-7.5,74t-23,40.5T306,372q-24,0-39-12.5T244.5,319T237,245q0-62 16-89t52-27ZM187,541l-11,61l168,30l24-56L187,541Zm229,44l-19,55l164,31l13-58L416,585Z" />
      <glyph unicode="&#xf1;" glyph-name="gid356" horiz-adv-x="620" d="M49,0V500H231l9-193l-21,22q8,58 33,98.5T316.5,489T408,510q51,0 87.5-19.5t56.5-58T572,338V0H370V286q0,42-13.5,57.5T318,359q-19,0-34.5-9.5t-24-30.5T251,264V0H49ZM515,719q-1-57-19-94.5t-46.5-56T388,550q-28,0-48.5,8.5t-36,19T275,596t-27,8q-15,0-23-12.5T214,552H106q3,85 41.5,126.5T243,720q27,0 46-8t32.5-18.5t26-18.5t26.5-8q16,0 23.5,12.5T408,719H515Z" />
      <glyph unicode="&#xf2;" glyph-name="gid365" horiz-adv-x="598" d="M299,510q82,0 143-30.5T537,391t34-141q0-82-34-140.5t-95-89T299-10q-80,0-141.5,30.5t-96,89T27,250q0,83 34.5,141t96,88.5T299,510Zm0-139q-22,0-37.5-11T238,322t-8-72t8-71.5t23.5-38T299,129q23,0 38,11.5t23,38t8,71.5t-8,72t-23,38t-38,11Zm12,363l63-175H230L128,734H311Z" />
      <glyph unicode="&#xf3;" glyph-name="gid358" horiz-adv-x="598" d="M299,510q82,0 143-30.5T537,391t34-141q0-82-34-140.5t-95-89T299-10q-80,0-141.5,30.5t-96,89T27,250q0,83 34.5,141t96,88.5T299,510Zm0-139q-22,0-37.5-11T238,322t-8-72t8-71.5t23.5-38T299,129q23,0 38,11.5t23,38t8,71.5t-8,72t-23,38t-38,11ZM276,734H459L356,559H213l63,175Z" />
      <glyph unicode="&#xf4;" glyph-name="gid360" horiz-adv-x="598" d="M299,510q82,0 143-30.5T537,391t34-141q0-82-34-140.5t-95-89T299-10q-80,0-141.5,30.5t-96,89T27,250q0,83 34.5,141t96,88.5T299,510Zm0-139q-22,0-37.5-11T238,322t-8-72t8-71.5t23.5-38T299,129q23,0 38,11.5t23,38t8,71.5t-8,72t-23,38t-38,11ZM502,552H361l-62,80l-62-80H96L204,728H394L502,552Z" />
      <glyph unicode="&#xf5;" glyph-name="gid375" horiz-adv-x="598" d="M299,510q82,0 143-30.5T537,391t34-141q0-82-34-140.5t-95-89T299-10q-80,0-141.5,30.5t-96,89T27,250q0,83 34.5,141t96,88.5T299,510Zm0-139q-22,0-37.5-11T238,322t-8-72t8-71.5t23.5-38T299,129q23,0 38,11.5t23,38t8,71.5t-8,72t-23,38t-38,11ZM503,719q-1-57-19-94.5t-46.5-56T376,550q-28,0-48.5,8.5t-36,19T263,596t-27,8q-15,0-23-12.5T202,552H94q3,85 41.5,126.5T231,720q27,0 46-8t32.5-18.5t26-18.5t26.5-8q16,0 23.5,12.5T396,719H503Z" />
      <glyph unicode="&#xf6;" glyph-name="gid362" horiz-adv-x="598" d="M299,510q82,0 143-30.5T537,391t34-141q0-82-34-140.5t-95-89T299-10q-80,0-141.5,30.5t-96,89T27,250q0,83 34.5,141t96,88.5T299,510Zm0-139q-22,0-37.5-11T238,322t-8-72t8-71.5t23.5-38T299,129q23,0 38,11.5t23,38t8,71.5t-8,72t-23,38t-38,11ZM183,716q46,0 71-22t25-63q0-40-25-62.5T183,546q-44,0-68.5,22.5T90,631q0,41 24.5,63T183,716Zm229,0q46,0 71-22t25-63q0-40-25-62.5T412,546q-44,0-68.5,22.5T319,631q0,41 24.5,63T412,716Z" />
      <glyph unicode="&#xf7;" glyph-name="gid617" horiz-adv-x="630" d="M570,397V259H60V397H570ZM315,193q42,0 65.5-23T404,105q0-41-23.5-64T315,18q-43,0-66.5,23T225,105q0,42 23.5,65T315,193Zm0,444q42,0 65.5-23.5T404,549t-23.5-64T315,462q-43,0-66.5,23T225,549t23.5,64.5T315,637Z" />
      <glyph unicode="&#xf8;" glyph-name="gid373" horiz-adv-x="598" d="M299,510q82,0 143-30.5T537,391t34-141q0-82-34-140.5t-95-89T299-10q-80,0-141.5,30.5t-96,89T27,250q0,83 34.5,141t96,88.5T299,510Zm0-139q-22,0-37.5-11T238,322t-8-72t8-71.5t23.5-38T299,129q23,0 38,11.5t23,38t8,71.5t-8,72t-23,38t-38,11ZM41-23L490,522h67L108-23H41Z" />
      <glyph unicode="&#xf9;" glyph-name="gid418" horiz-adv-x="619" d="M214-10q-51,0-88.5,17.5t-58,56T47,164V500H249V211q0-38 14-54t41-16q14,0 26,5.5T350.5,163t13,29t4.5,42V500H570V0H389l-5,100q-23-55-66-82.5T214-10ZM316,732l63-175H235L133,732H316Z" />
      <glyph unicode="&#xfa;" glyph-name="gid413" horiz-adv-x="619" d="M214-10q-51,0-88.5,17.5t-58,56T47,164V500H249V211q0-38 14-54t41-16q14,0 26,5.5T350.5,163t13,29t4.5,42V500H570V0H389l-5,100q-23-55-66-82.5T214-10Zm67,742H464L361,557H218l63,175Z" />
      <glyph unicode="&#xfb;" glyph-name="gid415" horiz-adv-x="619" d="M214-10q-51,0-88.5,17.5t-58,56T47,164V500H249V211q0-38 14-54t41-16q14,0 26,5.5T350.5,163t13,29t4.5,42V500H570V0H389l-5,100q-23-55-66-82.5T214-10ZM507,550H366l-62,80l-62-80H101L209,726H399L507,550Z" />
      <glyph unicode="&#xfc;" glyph-name="gid417" horiz-adv-x="619" d="M214-10q-51,0-88.5,17.5t-58,56T47,164V500H249V211q0-38 14-54t41-16q14,0 26,5.5T350.5,163t13,29t4.5,42V500H570V0H389l-5,100q-23-55-66-82.5T214-10ZM188,714q46,0 71-22t25-63q0-40-25-62.5T188,544q-44,0-68.5,22.5T95,629q0,41 24.5,63T188,714Zm229,0q46,0 71-22t25-63q0-40-25-62.5T417,544q-44,0-68.5,22.5T324,629q0,41 24.5,63T417,714Z" />
      <glyph unicode="&#xfd;" glyph-name="gid436" horiz-adv-x="579" d="M585,500L422,30q-30-90-67.5-143.5T266-191T142-215q-45,0-82,9T-4-182L34-51Q51-61 70.5-66T123-71q31,0 48,8t25,29l7,19L143,127L-3,500H218l60-271l21-111l25,114l62,268H585ZM288,732H471L368,557H225l63,175Z" />
      <glyph unicode="&#xfe;" glyph-name="gid381" horiz-adv-x="627" d="M49-210V706H251V355l-18-1q12,67 53.5,111.5T405,510q57,0 100-31t66.5-89.5T595,248q0-81-24-139T502.5,20.5T397-10q-71,0-111.5,44.5T233,146l18,27V-210H49ZM320,135q34,0 53,25.5T392,250t-19,90t-52,26q-21,0-37-13t-24.5-38.5T251,250q0-37 7.5-63T282,148t38-13Z" />
      <glyph unicode="&#xff;" glyph-name="gid438" horiz-adv-x="579" d="M585,500L422,30q-30-90-67.5-143.5T266-191T142-215q-45,0-82,9T-4-182L34-51Q51-61 70.5-66T123-71q31,0 48,8t25,29l7,19L143,127L-3,500H218l60-271l21-111l25,114l62,268H585ZM195,714q46,0 71-22t25-63q0-40-25-62.5T195,544q-44,0-68.5,22.5T102,629q0,41 24.5,63T195,714Zm229,0q46,0 71-22t25-63q0-40-25-62.5T424,544q-44,0-68.5,22.5T331,629q0,41 24.5,63T424,714Z" />
      <glyph unicode="&#x2013;" glyph-name="gid561" horiz-adv-x="701" d="M625,348V191H76V348H625Z" />
      <glyph unicode="&#x2014;" glyph-name="gid562" horiz-adv-x="1003" d="M926,348V191H76V348H926Z" />
      <glyph unicode="&#x2018;" glyph-name="gid568" horiz-adv-x="308" d="M156,336q-40,0-67,19T49.5,404T37,468q0,50 22.5,94.5T116,640t70,49l79-56q-27-12-52-29t-44.5-37T139,526l4-3q8,4 16,6t21,2q20,0 40.5-9.5t34.5-29T269,442q0-35-16-59t-41.5-35.5T156,336Z" />
      <glyph unicode="&#x2019;" glyph-name="gid569" horiz-adv-x="308" d="M157,686q42,0 68.5-18.5t39-48.5T277,555q0-50-22-95t-56.5-78T127,334L49,389q27,12 52,29t44.5,37T175,496l-5,4q-6-4-14.5-6.5T133,491q-20,0-40,10T59,530.5T45,580q0,37 16,60t42,34.5T157,686Z" />
      <glyph unicode="&#x201a;" glyph-name="gid564" horiz-adv-x="296" d="M145,190q42,0 68.5-18.5t39-48.5T265,59q0-50-22-95t-56.5-78T115-162L37-107Q64-95 89-78t44.5,37T163,0l-5,4q-6-4-14.5-6.5T121-5Q101-5 81,5T47,34.5T33,84q0,37 16,60t42,34.5T145,190Z" />
      <glyph unicode="&#x201c;" glyph-name="gid566" horiz-adv-x="573" d="M156,336q-40,0-67,19T49.5,404T37,468q0,50 22.5,94.5T116,640t70,49l79-56q-27-12-52-29t-44.5-37T139,526l4-3q8,4 16,6t21,2q20,0 40.5-9.5t34.5-29T269,442q0-35-16-59t-41.5-35.5T156,336Zm266,0q-41,0-68,19t-39.5,49T302,468q0,50 22.5,94.5T381,640t71,49l78-56q-27-12-52-29t-44.5-37T404,526l5-3q7,4 15,6t22,2q20,0 40-9.5t34-29T534,442q0-35-16-59t-41.5-35.5T422,336Z" />
      <glyph unicode="&#x201d;" glyph-name="gid567" horiz-adv-x="573" d="M157,686q42,0 68.5-18.5t39-48.5T277,555q0-50-22-95t-56.5-78T127,334L49,389q27,12 52,29t44.5,37T175,496l-5,4q-6-4-14.5-6.5T133,491q-20,0-40,10T59,530.5T45,580q0,37 16,60t42,34.5T157,686Zm265,0q42,0 68.5-18.5t39-48.5T542,555q0-50-22-95t-56.5-78T392,334l-78,55q27,12 52,29t44.5,37T440,496l-5,4q-6-4-14.5-6.5T398,491q-20,0-40,10t-34,29.5T310,580q0,37 16,60t42,34.5T422,686Z" />
      <glyph unicode="&#x201e;" glyph-name="gid565" horiz-adv-x="555" d="M145,190q42,0 68.5-18.5t39-48.5T265,59q0-50-22-95t-56.5-78T115-162L37-107Q64-95 89-78t44.5,37T163,0l-5,4q-6-4-14.5-6.5T121-5Q101-5 81,5T47,34.5T33,84q0,37 16,60t42,34.5T145,190Zm258,0q42,0 68.5-18.5t39-48.5T523,59q0-50-22-95t-56.5-78T373-162l-78,55q27,12 52,29t44.5,37T421,0l-5,4q-6-4-14.5-6.5T379-5Q359-5 339,5T305,34.5T291,84q0,37 16,60t42,34.5T403,190Z" />
      <glyph unicode="&#x2022;" glyph-name="gid541" horiz-adv-x="430" d="M215,173q-77,0-120.5,42T51,331q0,75 43.5,117T215,490q78,0 121-42t43-117q0-74-43-116T215,173Z" />
      <glyph unicode="&#x2039;" glyph-name="gid572" horiz-adv-x="353" d="M323,461L205,265L323,69H154L29,265L154,461H323Z" />
      <glyph unicode="&#x203a;" glyph-name="gid573" horiz-adv-x="353" d="M29,69L147,265L29,461H198L324,265L198,69H29Z" />
    </font>
</defs>
</svg>
