<?xml version="1.0" standalone="no"?>
<!DOCTYPE svg PUBLIC "-//W3C//DTD SVG 1.1//EN" "http://www.w3.org/Graphics/SVG/1.1/DTD/svg11.dtd">
<svg xmlns="http://www.w3.org/2000/svg">
  <defs>
    <font id="Lobster" horiz-adv-x="594">
      <font-face font-family="Lobster" units-per-em="1000" panose-1="0 0 5 0 0 0 0 0 0 0" ascent="1000" descent="-250" alphabetic="0" />
      <glyph unicode=" " glyph-name="space" horiz-adv-x="217" />
      <glyph unicode="!" glyph-name="exclam" horiz-adv-x="257" d="M174,731l154,21L183,231H98l76,500ZM112-6Q79-6 55.5,17.5T32,74t23.5,56T112,153t56-23t23-56T168,17.5T112-6Z" />
      <glyph unicode="&quot;" glyph-name="quotedbl" horiz-adv-x="353" d="M155,752H260L150,520H80l75,232Zm157,0H417L307,520H237l75,232Z" />
      <glyph unicode="#" glyph-name="numbersign" horiz-adv-x="659" d="M481,415L456,292h94l-15-77H440L402,28H329l38,187H238L200,28H127l38,187H60l15,77H180l25,123H103l15,77H221l36,181h74L294,492H423l36,181h74L496,492h97l-15-77H481Zm-74,0H279L254,292H382l25,123Z" />
      <glyph unicode="$" glyph-name="dollar" horiz-adv-x="548" d="M396,560q19,14 30,37t11,48q0,24-10.5,40.5T396,710L340,466l23-25q39-41 63.5-72.5t41-70.5T484,214q0-63-34-116T358,13.5T230-18L201-143H151L180-15Q104-3 59,44T14,160q0,59 31,97t80,38q33,0 57-18.5T211,229q-42,0-68-24.5T117,140q0-35 21-58t58-28l67,296q-18,21-19,22q-54,64-81,109.5T136,580q0,52 28.5,93.5T243,739t112,24h2l23,100h51L407,758q59-11 92.5-47T533,623q0-42-21-68t-55-26q-38,0-61,31ZM264,614q0-48 37-100l45,199q-37-6-59.5-33T264,614Zm85-437q0,59-47,123L246,54q47,8 75,41.5T349,177Z" />
      <glyph unicode="%" glyph-name="percent" horiz-adv-x="796" d="M164,340Q50,340 50,489q0,75 27,138t73.5,99.5T253,763q58,0 87-37.5T369,614T341.5,477T267,377T164,340Zm14,41q26,0 49,37t37,98t14,131q0,40-7,57t-24,17q-25,0-49.5-37.5t-40-97.5T142,464q0-43 8.5-63T178,381ZM585,752h72L241,0H169L585,752ZM581-6Q467-6 467,143q0,75 27,138t73.5,99.5T670,417q58,0 87-37.5T786,268T758.5,131T684,31T581-6Zm14,41q26,0 49,37t37,98t14,131q0,40-7,57t-24,17q-25,0-49.5-37.5t-40-97.5T559,118q0-43 8.5-63T595,35Z" />
      <glyph unicode="&amp;" glyph-name="ampersand" horiz-adv-x="682" d="M657,405q3-12 3-23q0-35-26.5-66T567,272q-17-5-40-5q-9-85-50.5-149.5T368,17.5T218-18Q123-18 68.5,30T14,160q0,55 24.5,108.5t67,92.5T199,415v4q-31,26-44,55t-13,72q0,54 29.5,101.5t80,76T361,752q68,0 112-39t44-99q0-41-21-67t-55-26q-38,0-61,31q18,11 29.5,34T421,635q0,28-14,44t-38,16q-26,0-50-20t-38.5-53.5T266,551q0-50 27-84.5T367,420v-4q-47-9-88.5-43.5t-66-84T188,188q0-52 26-81t72-29q43,0 85,24t72,67t40,97q-22,0-46-6q-55-18-79-53l-3-1q-11,14-18,36q-4,12-4,26q0,34 24,61t60,38q28,8 77,12q33,2 57,7q23,7 46.5,23.5T633,442h2q15-15 22-37Z" />
      <glyph unicode="&apos;" glyph-name="quotesingle" horiz-adv-x="196" d="M155,752H260L150,520H80l75,232Z" />
      <glyph unicode="(" glyph-name="parenleft" horiz-adv-x="437" d="M306-237Q231-161 190.5-57.5T150,164q0,126 45.5,243T325,617T519,763l13-40q-78-46-139-139T298,369T264,118q0-95 19-178.5T339-208l-33-29Z" />
      <glyph unicode=")" glyph-name="parenright" horiz-adv-x="413" d="M-68-197Q10-151 71-58t95,215t34,251q0,95-19,178.5T125,734l33,29q75-76 115-179.5T313,362q0-126-45.5-243T138.5-90.5T-55-237l-13,40Z" />
      <glyph unicode="*" glyph-name="asterisk" horiz-adv-x="515" d="M248,368q-15,0-42,8l24,145q-29-35-51-50t-44-15T99,472T85,513q0,9 1,13l127,41q-70,12-95.5,29.5T92,640q0,17 8,30t29,31l101-89q-17,61-17,90q0,63 54,63q14,0 43-8L285,612q29,35 52.5,51T382,679q23,0 37-16t14-41q0-5-2-13L301,567q69-13 94.5-30.5T421,493q0-18-7.5-31T385,432L285,521q16-64 16-90q0-63-53-63Z" />
      <glyph unicode="+" glyph-name="plus" horiz-adv-x="442" d="M157,301H15l18,79H175l30,139h80L255,380H401l-17-79H237L206,157H126l31,144Z" />
      <glyph unicode="," glyph-name="comma" horiz-adv-x="216" d="M41-126q-9,6-9,17q0,12 6,21T58-64T78-40t6,22Q84-7 71,2Q24,32 24,75q0,33 23,56.5T103,155q32,0 50-21t18-55q0-47-35.5-106T41-126Z" />
      <glyph unicode="-" glyph-name="hyphen" horiz-adv-x="290" d="M37,301H237l-17-79H19l18,79Z" />
      <glyph unicode="." glyph-name="period" horiz-adv-x="263" d="M110-4Q77-4 54,19T31,75t23,56.5T110,155t56.5-23.5T190,75T166.5,19T110-4Z" />
      <glyph unicode="/" glyph-name="slash" horiz-adv-x="311" d="M223,750h72L83-250H11L223,750Z" />
      <glyph unicode="0" glyph-name="zero" horiz-adv-x="546" d="M223-10Q113-10 67,57T21,240q0,138 43,256T184.5,684.5T361,755q96,0 144.5-64T554,515q0-111-34-232.5T411.5,75.5T223-10Zm13,75q47,0 89,72t67.5,185T418,550q0,63-15,104.5T360,696q-46,0-90-73T198,437T170,215q0-150 66-150Z" />
      <glyph unicode="1" glyph-name="one" horiz-adv-x="317" d="M153,624H58l12,46q55,0 114,15t140,63L165,0H21L153,624Z" />
      <glyph unicode="2" glyph-name="two" horiz-adv-x="492" d="M313-12q-20,0-41.5,5T219,7q-37,11-61,16t-50,5Q52,28-2-1H-6q-6,24-6,47q0,42 21.5,82.5T62,203t85,87q57,55 92,94.5t59,87T322,571q0,57-18.5,90T247,694q-35,0-57-23.5T168,613t13.5-60.5T216,514v-4q-17-16-37-25t-39-9q-31,0-51.5,28T68,580q0,42 24.5,81T165,725t113,25q87,0 140.5-48.5T472,568q0-54-27.5-100T377,386T270,299q-66-50-105-86t-60-76q29,8 62,8q24,0 50-4t49-9q4-1 26.5-5.5T333,122q27,0 50,11.5T431,173l3-2q13-37 13-62q0-35-18.5-62.5T379,3.5T313-12Z" />
      <glyph unicode="3" glyph-name="three" horiz-adv-x="514" d="M205-5Q134-5 70,30T6,165q0,65 31.5,104T127,308q68,0 78-51q-51-3-69.5-35T117,149q0-43 25-67t61-24q32,0 61.5,19T313,135t19,94q0,61-33.5,113.5T199,418q53,15 92,47.5t59,72T370,613q0,37-19.5,59.5T294,695q-36,0-57.5-21.5T215,617q0-24 9.5-45T253,546q-37-34-76-34q-31,0-51.5,22.5T105,597q0,45 27.5,79.5T207,730t105,19q59,0 101-20t63.5-53T498,603q0-52-35-102T361,417q63-21 94.5-64.5T487,252q0-62-35.5-121.5T351.5,33T205-5Z" />
      <glyph unicode="4" glyph-name="four" horiz-adv-x="476" d="M477,314q0-39-30-69t-77-39L326,0H187l75,215l-19,6q-40,11-63,16t-49,5q-66,0-108-21H19L-2,260v5Q101,388 159,486t58,187q0,30-8,62q21,7 50,7q45,0 70-24.5T354,655q0-45-39.5-106.5t-97-122T105,322l1-3q18,7 42.5,12.5T195,337q25,0 60-6t44-8l81,233h64L395,324q35,13 63,47l3-2q16-28 16-55Z" />
      <glyph unicode="5" glyph-name="five" horiz-adv-x="517" d="M197-5Q109-5 62,33T15,141q0,63 36,101.5T145,281q61,0 71-51q-41-5-65.5-29.5T126,137q0-35 21-55t56-20q58,0 95,52t37,133q0,69-29,106.5T225,391q-53,0-131-45l-13,9l77,379q113-13 168-13q91,0 174,28q2-22 2-33q0-52-27.5-84T387,600q-23,0-55,5t-61,11q-25,5-51,9L180,444q65,31 124,31q82,0 129.5-55.5T481,269q0-81-35.5-143t-100-96.5T197-5Z" />
      <glyph unicode="6" glyph-name="six" horiz-adv-x="500" d="M220-5Q115-5 65.5,57.5T16,259q0,134 46.5,246.5T189,683.5T365,749q66,0 105.5-31T510,636q0-39-21-65.5T437,544q-17,0-31,9t-20,23q16,8 24.5,24t8.5,34q0,23-13.5,39.5T367,690q-41,0-80.5-43T216,528.5T171,360l3,1q18,46 59,70t97,24q69,0 111-46.5T483,282q0-74-36-140T350.5,35.5T220-5Zm21,78q28,0 54.5,27.5t43.5,75T356,279q0,54-21.5,79.5T276,384q-114,0-114-165q0-146 79-146Z" />
      <glyph unicode="7" glyph-name="seven" horiz-adv-x="464" d="M175-4q-46,0-73,32.5T75,117q0,60 30,123t69.5,116.5T276,483q50,60 71.5,89.5T369,621q-18-5-35-9t-32-4q-26,0-63,11q-4,1-25.5,6T171,630q-29,0-52-12T73,578l-3,1q-13,29-13,61q0,53 38,84.5T194,756q22,0 42-3.5T283,741q32-9 54-13t48-4q56,0 135,21l1-4q0-23-23.5-64.5T423,556q-60-93-99-159.5t-68-141T227,118q0-52 18-103Q210-4 175-4Z" />
      <glyph unicode="8" glyph-name="eight" horiz-adv-x="499" d="M355,438q42-39 67.5-68T466,303.5T484,223q0-62-35.5-114.5T352.5,25T220-6Q156-6 105.5,18.5t-79,68T-2,187q0,70 46,122.5T188,406q-43,45-66.5,84.5T98,576q0,50 29,91.5T206.5,733T318,757q53,0 95-18t65.5-50.5T502,616q0-98-147-178ZM329,709q-38,0-63.5-27.5T240,611q0-36 19-67.5T314,477q37,33 59,75t22,81q0,35-17.5,55.5T329,709ZM225,63q45,0 77.5,36T335,184q0,47-27,88t-79,93q-48-32-73.5-78.5T130,186q0-56 26-89.5T225,63Z" />
      <glyph unicode="9" glyph-name="nine" horiz-adv-x="489" d="M158-3Q92-3 52.5,28T13,110q0,39 21,66t51,27q18,0 32.5-9T136,171q-15-9-23.5-24.5T104,114q0-21 12.5-35T154,65q41,0 79,43t66,119t40,169l-3-1q-18-46-58.5-70T181,301q-70,0-112,46.5T27,474q0,73 38.5,136.5T168,712t138,38q92,0 139-66.5T492,487q0-135-44-247T327,62.5T158-3Zm66,377q65,0 95,49t30,135q0,127-73,127q-33,0-61-30.5T170.5,576T154,477q0-53 19-78t51-25Z" />
      <glyph unicode=":" glyph-name="colon" horiz-adv-x="267" d="M170,296q-33,0-56,23T91,375t23,56.5T170,455t56.5-23.5T250,375t-23.5-56T170,296ZM120,56Q87,56 64,79T41,135t23,56.5T120,215t56.5-23.5T200,135T176.5,79T120,56Z" />
      <glyph unicode=";" glyph-name="semicolon" horiz-adv-x="276" d="M173,252q-33,0-56,23T94,331t23,56.5T173,411t56.5-23.5T253,331t-23.5-56T173,252ZM63-110q-9,6-9,17q0,12 6,21T80-48t20,24t6,22q0,11-13,20Q46,48 46,91q0,33 23,56.5T125,171q32,0 50-21t18-55q0-47-35.5-106T63-110Z" />
      <glyph unicode="&lt;" glyph-name="less" horiz-adv-x="358" d="M7,238l9,41L353,449l-7-80L124,253l182-95L284,81L7,238Z" />
      <glyph unicode="=" glyph-name="equal" horiz-adv-x="515" d="M100,428H468L445,316H76l24,112ZM56,213H424L401,101H32L56,213Z" />
      <glyph unicode="&gt;" glyph-name="greater" horiz-adv-x="362" d="M14,161L236,277L54,372l22,77L353,292l-9-41L7,81l7,80Z" />
      <glyph unicode="?" glyph-name="question" horiz-adv-x="441" d="M105,232q0,48 14.5,86.5t35,66.5T208,450q43,48 64.5,84.5T294,620q0,43-17,67t-49,24q-33,0-55.5-23.5T150,629q0-26 13-47.5T198,550v-4q-18-16-37.5-25T123,512q-32,0-52.5,23.5T50,596q0,47 27.5,85T152,741t105,22q81,0 128-37t47-101q0-39-17-71.5T372.5,496T305,437q-45-38-71-64t-44.5-61.5T171,232H105ZM126,0Q94,0 70,23.5T46,80t23.5,56T126,159t56.5-23T206,80T182.5,23.5T126,0Z" />
      <glyph unicode="@" glyph-name="at" horiz-adv-x="688" d="M238-102Q126-102 58.5-43T-9,152q0,123 55.5,228.5T197,549t209,63q109,0 176.5-59.5T650,383q0-74-30.5-141t-80-107.5T435,94q-33,0-53.5,16.5T359,157Q305,84 244,84q-38,0-59,26.5T164,187q0,58 27,116.5T260,400t86,38q15,0 27-6t25-21l17,25l75-8L444,252q-1-5-7.5-29T430,183q0-13 4.5-22t15.5-9q20,0 47,33t46,85.5T562,380q0,78-38.5,119T414,540q-85,0-162-54.5t-123.5-143T82,158q0-93 40-136T244-21q61,0 114,24t85,65q12-6 19.5-19T470,16q0-39-37.5-65.5T341-89T238-102Zm49,255q15,0 30.5,9T340,184l50,189q-11,10-21,10q-24,0-49.5-30.5T277,278t-17-83q0-42 27-42Z" />
      <glyph unicode="A" glyph-name="A" horiz-adv-x="668" d="M218-114q-37,0-65,6T104.5-79T84-8q0,67 40.5,180T231,399q-50-3-79-15t-38-37q4,0 8.5-10t4.5-21q0-18-16-28.5T71,277q-28,0-45,15T9,335q0,34 26.5,62T109,441.5T213,458q21,0 52-3q82,130 173.5,212.5T613,750q48,0 79-14L535,0H391l77,363q-37,17-68,25t-66,11q-57-123-93.5-251.5T204-58q0-38 14-56ZM535,679q-43-23-89.5-85.5T355,442q72-14 122-35l58,272Z" />
      <glyph unicode="B" glyph-name="B" horiz-adv-x="641" d="M387-17q-40,0-69.5,16.5T288,57q0,26 13,58q18-20 33.5-28T368,79q50,0 74.5,56T467,259q0,127-95,127q-27,0-46-3L244,0H100L236,636l148,20L337,434h6q38,0 71,24.5t53,62T487,596q0,46-32.5,77T355,704q-61,0-119-27.5T141.5,594T105,461q0-37 7-51.5t7-16.5q-53,0-80,21.5T12,485q0,68 51,129t135,98.5T375,750q70,0 118-22t71.5-58T588,591q0-46-26-89t-74-70q60-11 89-55.5T606,271q0-57-21.5-124t-71-115.5T387-17Z" />
      <glyph unicode="C" glyph-name="C" horiz-adv-x="497" d="M238-16Q125-16 72,41T19,230q0,105 35.5,226t114,207.5T368,750q75,0 121-33t46-101q0-43-17-67.5T465,524t-57,26q18,9 32,36t14,56q0,27-14.5,44T393,703q-53,0-101-72.5T214.5,448T185,236q0-76 26-116t94-40q59,0 109,26t86,74l23-10q-25-63-74-105T344,3.5T238-16Z" />
      <glyph unicode="D" glyph-name="D" horiz-adv-x="663" d="M368-13q-60,0-122,53L238,0H94L230,636l148,20L258,95q28-20 57-20q57,0 100.5,66T483,309t24,206q0,98-38.5,143.5T361,704q-75,0-134.5-29.5T133,590T99,461q0-37 7-51.5t7-16.5q-52,0-79.5,22T6,486q0,68 51,129t136.5,98T378,750q137,0 202-81t65-207q0-114-38.5-224.5T504,57T368-13Z" />
      <glyph unicode="E" glyph-name="E" horiz-adv-x="459" d="M191-18Q100-18 53.5,32T7,158q0,54 22.5,108.5T94,362t98,55q-31,22-46,53.5T131,537q0,52 28.5,102t79,81.5T350,752q63,0 103-33t40-92q0-44-22-74t-52-30q-27,0-47,27q18,6 31,33t13,54q0,29-16,42.5T361,693q-29,0-52.5-20.5t-36.5-53T259,552q0-48 25-84.5T360,418q-51-11-92-50t-64-90.5T181,179q0-45 23.5-73T276,78q50,0 104.5,27.5T461,180l23-10Q445,84 364,33T191-18Z" />
      <glyph unicode="F" glyph-name="F" horiz-adv-x="459" d="M232,668q-63-2-96.5-48T102,461q0-37 7-51.5t7-16.5q-54,0-80.5,22.5T9,490q0,71 35,129.5T155.5,714T350,750q24,0 64-5q72-7 102-7q53,0 90,12q-3-9-11-39.5t-28.5-52T511,630q-59,0-140,19L329,450H475l-16-74H313L232,0H88L232,668Z" />
      <glyph unicode="G" glyph-name="G" horiz-adv-x="578" d="M231-207q-73,0-117.5,37.5T69-71Q69-33 87-1t49,50.5T204,68q38,0 61.5-19T289-1q0-24-11-38q-9,12-24.5,19T221-13q-30,0-49-20T153-85t18.5-52T218-157q35,0 60,31t38,92l50,221h-4q-27-38-65.5-58T212,109q-58,0-102,31T42.5,228.5T19,362q0,110 48,200.5T199,705t185,52q85,0 134.5-37T568,619q0-43-21-69t-55-26q-19,0-35.5,8T429,555q18,12 30.5,38.5T472,647q0,30-17.5,46.5T405,710q-58,0-112-51.5T206,524T173,350q0-75 24-114.5T266,196q54,0 95.5,57T428,419l118-1L473,82Q441-67 382.5-137T231-207Z" />
      <glyph unicode="H" glyph-name="H" horiz-adv-x="665" d="M245,680q-67-28-103.5-84T105,461q0-37 7-51.5t7-16.5q-54,0-80.5,22.5T12,490q0,64 52.5,124.5t134.5,98T363,750q14,0 40-2L339,450H486l64,298H694L535,0H391l80,376H324L244,0H100L245,680Z" />
      <glyph unicode="I" glyph-name="I" horiz-adv-x="375" d="M239,679q-67-27-103.5-82.5T99,461q0-37 7-51.5t7-16.5q-54,0-80.5,22.5T6,490q0,64 52.5,124.5t134.5,98T357,750q14,0 40-2L238,0H94L239,679Z" />
      <glyph unicode="J" glyph-name="J" horiz-adv-x="536" d="M165-207q-71,0-109.5,38.5T17-66q0,54 33,94t89,40q43,0 70.5-12.5T237,1q0-18-6-40q-18,15-31,20.5T171-13q-33,0-51.5-22T101-87q0-35 21-52.5T169-157q24,0 40.5,9.5t29.5,36T264-34L421,680q-67-27-104-83T280,461q0-37 7-51.5t7-16.5q-54,0-80.5,22.5T187,490q0,64 52.5,124.5t134.5,98T538,750h40L428,40Q402-83 342-145T165-207Z" />
      <glyph unicode="K" glyph-name="K" horiz-adv-x="601" d="M436-17q-78,0-78,67q0,22 6.5,50.5T383,174q14,47 21,80t7,59q0,68-60,68q-17,0-33-4L238,0H94L239,680q-67-28-103.5-84T99,461q0-37 7-51.5t7-16.5q-54,0-80.5,22.5T6,490q0,64 52.5,124.5t134.5,98T357,750q14,0 40-2L332,442L435,580Q558,746 559,745H664L386,425l35,1q68,0 96-28.5T545,319q0-29-7-61.5T518,177q-8-31-15-61t-7-50q0-23 10.5-41T535,0q-61-17-99-17Z" />
      <glyph unicode="L" glyph-name="L" horiz-adv-x="379" d="M559-250q-45,0-88.5,25.5T360-146q-50,40-85.5,64.5T197.5-40T113-23q-15,0-23-1L239,669q-67-27-103.5-82.5T99,451q0-37 7-51.5t7-16.5q-54,0-80.5,22.5T6,480q0,64 52.5,124.5t134.5,98T357,740q14,0 40-2L243,20q28-7 57.5-20.5T372-37q65-35 111-53.5T579-109q45,0 84,16q-8-73-35.5-115T559-250Z" />
      <glyph unicode="M" glyph-name="M" horiz-adv-x="787" d="M321,687q-76-25-117.5-82.5T162,462q0-38 7-52t7-17Q69,393 69,484q0,62 47.5,124.5t122,102T387,750q37,0 76-14L440,209L660,736H804L699,0H555l64,449L431,0H294l20,451L147,0H67L321,687Z" />
      <glyph unicode="N" glyph-name="N" horiz-adv-x="668" d="M243,685q-68-24-103.5-75.5T104,485q0-32 7-58.5T131,383q-64,0-94.5,26.5T6,491q0,70 41,130.5T158,718t152,36q23,0 40-3t39-11L509,205L621,748h97L555,0H417L301,496L187,0H92L243,685Z" />
      <glyph unicode="O" glyph-name="O" horiz-adv-x="665" d="M287-6Q203-6 155.5,42T108,195q0,89 32,200t93.5,190T379,664q30,0 52-8q-44-26-84.5-107T281,368T256,191q0-54 14-85t44-31q49,0 97.5,70.5t80,177.5T523,529q0,62-10.5,99.5T474,685t-79,19q-77,0-143-31.5t-105.5-90T107,447q0-27 5-39.5t5-14.5q-50,0-75.5,20T16,477q0,69 56.5,132t150,102T419,750q125,0 181-68t56-188q0-107-40-223T492.5,74.5T287-6Z" />
      <glyph unicode="P" glyph-name="P" horiz-adv-x="573" d="M230,636l148,20L307,322q48,4 88.5,42T459,458t23,110q0,60-31,98t-93,38q-122,0-190.5-64T99,461q0-37 7-51.5t7-16.5q-54,0-80.5,22.5T6,490q0,64 52.5,124.5t134.5,98T357,750q79,0 132-27t78.5-71.5T593,553q0-65-35.5-127T456,324.5T304,285h-5L238,0H94L230,636Z" />
      <glyph unicode="Q" glyph-name="Q" horiz-adv-x="665" d="M509-113q-41,0-66,16.5t-37.5,41T380,8Q335-6 287-6Q203-6 155.5,42T108,195q0,89 32,200t93.5,190T379,664q30,0 52-8q-44-26-84.5-107T281,368T256,191V173q0-17 2-25q36,9 62,9q45,0 80-27q51,66 87,179.5T523,529q0,62-10.5,99.5T474,685t-79,19q-77,0-143-31.5t-105.5-90T107,447q0-27 5-39.5t5-14.5q-50,0-75.5,20T16,477q0,69 56.5,132t150,102T419,750q125,0 181-68t56-188q0-74-21-158.5T571,175T465,52q26-39 54-60t71-21q6,0 22,2q-19-49-43.5-67.5T509-113ZM314,75q22,0 38,11q-20,34-57,34q-16,0-29-4q14-41 48-41Z" />
      <glyph unicode="R" glyph-name="R" horiz-adv-x="601" d="M436-17q-78,0-78,67q0,22 6.5,50.5T383,174q14,47 21,80t7,59q0,68-60,68q-16,0-33-4L238,0H94L230,636l148,20L329,425h8q39,0 72,27t51.5,67.5T479,599q0,46-27.5,75.5T369,704q-81,0-142-29t-94.5-84T99,461q0-37 7-51.5t7-16.5q-54,0-80.5,22.5T6,490q0,64 52.5,124.5t134.5,98T357,750q75,0 126-22t76-58.5T584,590q0-47-29-94t-79-77q38-11 53.5-36.5T545,319q0-29-7-61.5T518,177q-8-31-15-61t-7-50q0-23 10.5-41T535,0q-61-17-99-17Z" />
      <glyph unicode="S" glyph-name="S" horiz-adv-x="570" d="M245-18Q182-18 134,4T60,65.5T34,157q0,44 18.5,80t50,57T172,315q35,0 59-17.5T261,249q-52,0-83-27.5T147,147q0-43 26-69t69-26q53,0 87.5,35.5T364,177q0,47-26,89T260,368q-54,62-81.5,106.5T151,572q0,52 29,93.5T260,731t115,24q81,0 129.5-38T553,615q0-42-21-68t-55-26q-38,0-61,31q19,14 30,37t11,48q0,32-19,51t-52,19q-40,0-65.5-28.5T295,606q0-40 23-74.5T390,443q40-43 64.5-74t42-71.5T514,210q0-64-35.5-116t-97-82T245-18Z" />
      <glyph unicode="T" glyph-name="T" horiz-adv-x="481" d="M299,662H287q-89,0-138.5-44.5T99,460q0-37 7-51.5t7-16.5q-54,0-80.5,22.5T6,489q0,71 35,129.5T152.5,713T347,749q66,0 142-12q64-11 114-11q64,0 116,21q-2-65-33-96t-92-31q-32,0-64,5t-91,17L301,0H157L299,662Z" />
      <glyph unicode="U" glyph-name="U" horiz-adv-x="716" d="M355-7Q256-7 205.5,41.5T155,185q0,47 14,105L271,696q-86-23-134-81.5T89,486q0-49 26-95q-57,0-88.5,28T-5,498q0,65 52.5,124.5T187,718t184,36q34,0 56-5L305,287q-17-63-17-108q0-95 78-95q112,0 155,206L621,752H762L665,290Q633,143 554.5,68T355-7Z" />
      <glyph unicode="V" glyph-name="V" horiz-adv-x="615" d="M248,683q-71-27-110-83.5T99,461q0-37 7-51.5t7-16.5q-54,0-80.5,22.5T6,490q0,64 52.5,124.5t134.5,98T357,750q14,0 40-2l9-615L616,745h70L408,0H264L248,683Z" />
      <glyph unicode="W" glyph-name="W" horiz-adv-x="962" d="M248,683q-71-27-110-83.5T99,461q0-37 7-51.5t7-16.5q-54,0-80.5,22.5T6,490q0,64 52.5,124.5t134.5,98T357,750q14,0 40-2l9-615L616,745H743l9-612L962,745h70L754,0H610L598,509L408,0H264L248,683Z" />
      <glyph unicode="X" glyph-name="X" horiz-adv-x="620" d="M322,332L248,683q-71-27-110-83.5T99,461q0-37 7-51.5t7-16.5q-54,0-80.5,22.5T6,490q0,64 52.5,124.5t134.5,98T357,750q14,0 40-2l43-208L556,745h70L458,454L552,0H393L340,250L195,0H134L322,332Z" />
      <glyph unicode="Y" glyph-name="Y" horiz-adv-x="620" d="M344,308L248,683q-71-27-110-83.5T99,461q0-37 7-51.5t7-16.5q-54,0-80.5,22.5T6,490q0,64 52.5,124.5t134.5,98T357,750q14,0 40-2l87-358L632,745h66L504,308L438,0H278l66,308Z" />
      <glyph unicode="Z" glyph-name="Z" horiz-adv-x="542" d="M361,696q-21,0-34,1l-56,1q-92,0-92-22q6,0 11.5-8t5.5-24q0-30-18.5-43.5T137,587q-27,0-39,17.5T86,646q0,41 33,72.5T209,750H552L207,65q28,0 43-1l53-1q42,0 68.5,4.5T407,85q-7,0-12.5,7.5T389,116q0,30 18,44t42,14q26,0 38.5-17T500,116q0-26-16-53T438.5,18T372,0H11L361,696Z" />
      <glyph unicode="[" glyph-name="bracketleft" horiz-adv-x="400" d="M203,752H416l-11-57H294L107-183H218l-12-57H-7L203,752Z" />
      <glyph unicode="\" glyph-name="backslash" horiz-adv-x="362" d="M42,750h72L326-250H254L42,750Z" />
      <glyph unicode="]" glyph-name="bracketright" horiz-adv-x="400" d="M-48-183H63L250,695H139l11,57H364L154-240H-60l12,57Z" />
      <glyph unicode="^" glyph-name="asciicircum" horiz-adv-x="421" d="M262,750h21l60-189H311l-60,80L94,561H50L262,750Z" />
      <glyph unicode="_" glyph-name="underscore" horiz-adv-x="444" d="M54,79H404L387,0H36L54,79Z" />
      <glyph unicode="`" glyph-name="grave" horiz-adv-x="201" d="M24,750H129l29-189H103L24,750Z" />
      <glyph unicode="a" glyph-name="a" horiz-adv-x="526" d="M120-6Q63-6 25,33T-13,155q0,74 29.5,155.5t88,138T244,505q41,0 61-14t20-37v-7l11,53H480L408,160q-4-15-4-32q0-43 41-43q28,0 48.5,26T526,179h42Q531,71 476.5,32.5T367-6q-42,0-67.5,23.5T269,86q-29-41-64.5-66.5T120-6Zm65,97q25,0 49.5,23.5T268,179l48,226q0,13-10,25.5T275,443q-40,0-72-46.5t-50-112T135,169t14.5-64T185,91Z" />
      <glyph unicode="b" glyph-name="b" horiz-adv-x="444" d="M133-6Q65-6 29,27.5T-7,122q0,30 7,57L107,680l148,20L207,475q28,17 46,22.5t36,5.5q118,0 118-171q0-69-26.5-147.5T292.5,50T133-6Zm56,97q31,0 58,38.5t43,96T306,336q0,40-14,68t-39,28q-15,0-33.5-4.5T194,414L139,160q-3-12-3-23q0-46 53-46Z" />
      <glyph unicode="c" glyph-name="c" horiz-adv-x="384" d="M143-6Q69-6 28,32.5T-13,153q0,69 27.5,152t88,143.5T256,509q60,0 85.5-26T367,417q0-35-15-54t-38-19q-17,0-35,12q12,33 12,59q0,19-7,30t-21,11q-30,0-60-49T154,288T135,162q0-49 17-66.5T207,78q54,0 92.5,25T384,179h34Q307-6 143-6Z" />
      <glyph unicode="d" glyph-name="d" horiz-adv-x="525" d="M120-6Q63-6 25,33T-13,155q0,74 29.5,155.5t88,138T244,505q41,0 61-14t20-37v-4l49,230l148,20L407,160q-4-15-4-32q0-20 9.5-28.5T444,91q28,0 48.5,24T525,179h42Q506,0 366,0q-41,0-66.5,22T268,86q-26-40-62.5-66T120-6Zm65,97q24,0 48.5,22T267,174v5l49,229q-9,35-41,35q-40,0-72-46.5t-50-112T135,169t14.5-64T185,91Z" />
      <glyph unicode="e" glyph-name="e" horiz-adv-x="384" d="M143-6Q69-6 28,32.5T-13,153q0,69 27,152t88,143.5T257,509q110,0 110-96q0-56-32-103t-85-75.5T137,202q-2-30-2-40q0-49 17-66.5T207,78q54,0 92.5,25T384,179h34Q307-6 143-6Zm2,256q37,2 70.5,26t54,61T290,415t-25,41q-36,0-70.5-63T145,250Z" />
      <glyph unicode="f" glyph-name="f" horiz-adv-x="267" d="M-90-250q-47,0-82.5,30.5T-208-142q0,43 22,71t57,44.5T-36,8L85,579q20,96 70.5,133T267,749q47,0 82.5-30.5T385,641q0-23-3-41H335q2,22 2,27q0,16-11,25t-27,9q-21,0-41-18.5T229,579l-17-79h73l-7-40H204L89-80Q69-177 20-213.5T-90-250Zm-23,89q40,0 57,78l13,58q-53-18-81.5-41.5T-153-128q0-12 12-22.5t28-10.5Z" />
      <glyph unicode="g" glyph-name="g" horiz-adv-x="507" d="M177-250q-48,0-80,25T65-153q0,57 46,91.5T228-4l12,53Q189-6 120-6Q63-6 25,33T-13,155q0,74 29.5,155.5t88,138T244,505q41,0 61-14t20-37v-6l11,52H480L381,36q48,16 77,48t49,95h42Q522,90 476,48.5T372-8L357-80q-20-97-69-133.5T177-250Zm8,341q23,0 47,21t33,57l51,237q0,12-10,24.5T275,443q-40,0-72-46.5t-50-112T135,169t14.5-64T185,91ZM154-172q17,0 33,23t25,66l6,29q-98-36-98-85q0-13 9-23t25-10Z" />
      <glyph unicode="h" glyph-name="h" horiz-adv-x="505" d="M361-6q-61,0-89.5,32.5T243,107q0,21 5,47.5T258.5,206t7.5,32q8,35 15,69t7,55q0,51-36,51q-26,0-46-25.5T174,321L106,0H-38L107,680l148,20L201,448q50,56 117,56q51,0 81-28t30-85q0-29-7-64.5T402,240q-8-31-14.5-60.5T381,133q0-20 9-31t31-11q30,0 48,21.5T505,179h42Q510,69 461.5,31.5T361-6Z" />
      <glyph unicode="i" glyph-name="i" horiz-adv-x="267" d="M167,554q-33,0-56,23T88,633t23,56.5T167,713t56.5-23.5T247,633t-23.5-56T167,554ZM99-6Q51-6 21.5,24T-8,114q0,25 8,65L68,500H212L140,160q-4-15-4-32q0-20 9.5-28.5T177,91q29,0 54,24.5T267,179h42Q272,71 214,32.5T99-6Z" />
      <glyph unicode="j" glyph-name="j" horiz-adv-x="240" d="M159,555q-33,0-56,23T80,634t23,56.5T159,714t56.5-23.5T239,634t-23.5-56T159,555ZM-90-250q-48,0-80,25t-32,72Q-202-56-38-4L69,500H213L114,36q48,16 77,48t49,95h42Q255,90 209,48.5T105-8L90-80Q70-177 21-213.5T-90-250Zm-23,78q17,0 33,23t25,66l6,29q-98-36-98-85q0-13 9-23t25-10Z" />
      <glyph unicode="k" glyph-name="k" horiz-adv-x="518" d="M376-6q-62,0-94,29.5T250,108q0,24 6,52l8,39q4,17 4,37q0,48-36,48q-16,0-33.5-9T158,247L106,0H-38L107,680l148,20L180,348L373,500h99L272,361q15,4 33,4q54,0 82-33t28-84q0-21-4-38l-11-50q-5-18-5-32q0-37 39-37q30,0 48,21.5T518,179h42Q498-6 376-6Z" />
      <glyph unicode="l" glyph-name="l" horiz-adv-x="267" d="M99-6Q51-6 21.5,24T-8,114q0,25 8,65L107,680l148,20L140,160q-4-15-4-32q0-20 9.5-28.5T177,91q29,0 54,24.5T267,179h42Q272,71 214,32.5T99-6Z" />
      <glyph unicode="m" glyph-name="m" horiz-adv-x="752" d="M608-6q-61,0-89.5,32.5T490,107q0,21 5,47.5T505.5,206t7.5,32q8,35 15,69t7,55q0,51-36,51q-26,0-46-25.5T421,321L353,0H209l73,345q3,12 3,25q0,44-30,44q-28,0-48.5-25.5T174,321L106,0H-38L68,500H212l-11-52q51,57 122,57q88,0 103-86q55,85 139,85q51,0 81-28t30-85q0-29-7-64.5T649,240q-8-31-14.5-60.5T628,133q0-20 9-31t31-11q30,0 48,21.5T752,179h42Q757,69 708.5,31.5T608-6Z" />
      <glyph unicode="n" glyph-name="n" horiz-adv-x="505" d="M361-6q-61,0-89.5,32.5T243,107q0,21 5,47.5T258.5,206t7.5,32q8,35 15,69t7,55q0,51-36,51q-26,0-46-25.5T174,321L106,0H-38L68,500H212l-11-52q50,56 117,56q51,0 81-28t30-85q0-29-7-64.5T402,240q-8-31-14.5-60.5T381,133q0-20 9-31t31-11q30,0 48,21.5T505,179h42Q510,69 461.5,31.5T361-6Z" />
      <glyph unicode="o" glyph-name="o" horiz-adv-x="439" d="M146-4Q72-4 29,34T-14,154q0,68 28,151t90,143.5T260,509q128,0 128-160v-1q3-1 11-1q33,0 76,17.5T553,407l9-27q-29-31-75.5-52.5T385,297q-8-91-41-159T259,33T146-4Zm40,90q24,0 48,27.5t42,75T302,294q-27,6-27,42q0,41 31,54q-2,33-10,45.5T268,448q-33,0-64-48T154,285T135,167q0-48 11-64.5T186,86Z" />
      <glyph unicode="p" glyph-name="p" horiz-adv-x="468" d="M76,537H220l-16-75q50,43 117,43q56,0 89-37t33-121q0-79-23-159.5t-78-137T197-6q-64,0-85,36L60-214L-91-250L76,537ZM166,81q48,0 79.5,45t46,107.5T306,350q0,83-50,83q-18,0-36.5-13T187,384L128,104q8-23 38-23Z" />
      <glyph unicode="q" glyph-name="q" horiz-adv-x="486" d="M239,49Q188-6 120-6Q63-6 25,33T-13,155q0,74 29.5,155.5t88,138T244,505q41,0 61-14t20-37v-2l10,48H479L327-214L176-250L239,49ZM185,91q22,0 44.5,19T263,162l53,247q-8,34-41,34q-40,0-72-46.5t-50-112T135,169t14.5-64T185,91Z" />
      <glyph unicode="r" glyph-name="r" horiz-adv-x="376" d="M68,500H212l-13-62q34,30 61.5,46T320,500t50.5-22T389,425q0-29-19-51t-53-22q-22,0-29.5,10.5T276,393q-3,13-6,19t-11,6q-21,0-35.5-8.5T186,380L106,0H-38L68,500Z" />
      <glyph unicode="s" glyph-name="s" horiz-adv-x="382" d="M114-6Q66-6 33,12.5t-49,48T-32,122q0,33 15.5,57.5T21,215q39,70 68,141.5T144,511l148,20q5-128 17-277q5-60 5-87q0-23-4-38q47,27 72,50h42Q360,105 271,54Q242,23 199.5,8.5T114-6ZM82,73q37,0 62,22t25,71q0,30-6,84q-10,114-13,153q-24-79-81-189q23-12 23-35q0-19-12.5-34T48,130q-21,0-27,13q0-36 14.5-53T82,73Z" />
      <glyph unicode="t" glyph-name="t" horiz-adv-x="267" d="M99-6Q51-6 21.5,24T-8,114q0,25 8,65L60,460H27l8,40H68L98,638l148,20L212,500h60l-8-40H204L140,160q-4-15-4-32q0-20 9.5-28.5T177,91q29,0 54,24.5T267,179h42Q272,71 214,32.5T99-6Z" />
      <glyph unicode="u" glyph-name="u" horiz-adv-x="505" d="M99-6Q51-6 21.5,24T-8,114q0,25 8,65L68,500H212L140,160q-3-15-3-28q0-41 30-41q28,0 48,23.5T247,179l68,321H459L387,160q-4-15-4-32q0-20 9.5-28.5T424,91q28,0 48.5,24T505,179h42Q510,71 455.5,32.5T346-6q-43,0-68.5,24T247,89q-34-55-71.5-75T99-6Z" />
      <glyph unicode="v" glyph-name="v" horiz-adv-x="414" d="M114-6Q56-6 23.5,23.5T-9,112q0,24 5,48L68,500H212L140,160q-5-25-5-36q0-33 34-33q46,0 85.5,58T318,287t24,138q-2-5-13-7.5T310,415q-17,0-26.5,16T274,466q0,24 15.5,39T336,520q33,0 48-24.5T399,433q0-90-31-192.5T273,66T114-6Z" />
      <glyph unicode="w" glyph-name="w" horiz-adv-x="661" d="M99-6Q51-6 21.5,24T-8,114q0,25 8,65L68,500H212L140,160q-3-12-3-25q0-44 30-44q28,0 48,23.5T247,179l68,321H459L387,160q-5-25-5-36q0-33 34-33q46,0 85.5,58T565,287t24,138q-2-5-13-7.5T557,415q-17,0-26.5,16T521,466q0,24 15.5,39T583,520q33,0 48-24.5T646,433q0-90-31-192.5T520,66T361-6q-49,0-80,21T241,78Q185-6 99-6Z" />
      <glyph unicode="x" glyph-name="x" horiz-adv-x="522" d="M360-6q-46,0-76.5,42T238,168L100,0H28L230,228L214,340q-8,49-16.5,66T176,423q-20,0-45-27.5t-48.5-83T42,179H0Q29,315 86.5,410T236,505q54,0 78.5-35.5T344,386l9-76q43,48 64,82.5T440,454q-14-2-17-2q-25,0-36,15.5T376,508t19.5,37T444,557q26,0 41-27.5T500,466q0-44-30-88.5T361,248l9-70q6-48 20.5-67.5T432,91q29,0 54,24.5T522,179h42Q528,75 472,34.5T360-6Z" />
      <glyph unicode="y" glyph-name="y" horiz-adv-x="486" d="M156-250q-48,0-80,25T44-153q0,57 46,91.5T207-4l12,54Q190,18 160,6T99-6Q51-6 21.5,24T-8,114q0,25 8,65L68,500H212L140,160q-3-12-3-25q0-44 30-44q26,0 46,22.5T245,173l70,327H459L360,36q48,16 77,48t49,95h42Q501,90 455,48.5T351-8L336-80q-20-97-69-133.5T156-250Zm-23,78q17,0 33,23t25,66l6,29Q99-90 99-139q0-13 9-23t25-10Z" />
      <glyph unicode="z" glyph-name="z" horiz-adv-x="428" d="M255,446H199q-28,0-41.5-3T144,430q0-2 5.5-4.5T155,408q0-26-16-39.5T101,355q-19,0-32.5,11.5T55,399t14.5,45t41,40T171,500H428L183,77q6,0 22-2q34-4 54-4q43,0 47,20q-9,1-14,6.5T287,112q0,16 15,29.5T343,155q22,0 33-13t11-35q0-24-15-49T329,16.5T265,0H0L255,446Z" />
      <glyph unicode="{" glyph-name="braceleft" horiz-adv-x="352" d="M189-250q-65,0-104,32T46-131q0,29 9,67T82,33q18,61 27,97t9,64q0,20-9,28t-32,8H45l11,51H87q35,0 51,27.5T156,402q6,137 25.5,211.5T242,720t115,32h43l-8-50q-51,0-73.5-20.5t-34-83.5T260,381q-4-51-25-76.5T161,256q31-14 43-31.5T216,178q0-22-5.5-50T192,50Q178-2 171-39t-7-68q0-43 16.5-68.5T228-205l-10-45H189Z" />
      <glyph unicode="|" glyph-name="bar" horiz-adv-x="532" d="M219,751h93V-250H219V751Z" />
      <glyph unicode="}" glyph-name="braceright" horiz-adv-x="352" d="M-56-200q50,0 72.5,20.5T51-95.5T75,121q4,51 25,76.5T175,246q-31,14-43.5,31.5T119,324q0,23 5.5,50.5T143,452q15,57 22,91.5t7,65.5q0,43-17,68.5T107,707l10,45h29q66,0 104.5-32T289,633q0-29-9-67t-27-97q-19-67-27-100t-8-61q0-20 9-28t32-8h31l-10-51H248q-35,0-51-27.5T179,100q-6-138-25.5-212T93-218T-22-250H-65l9,50Z" />
      <glyph unicode="~" glyph-name="asciitilde" horiz-adv-x="431" d="M289,569q-23,0-44,5t-48,15q-23,8-40.5,12.5T121,606q-37,0-66-26l-6,2q24,48 67,73t100,25q25,0 46-4.5T308,662q43-15 73-15q40,0 63,23l6-1q-5-23-29.5-46.5T361,584t-72-15Z" />
      <glyph unicode="&#xa0;" glyph-name="uni00A0" horiz-adv-x="217" />
      <glyph unicode="&#xa1;" glyph-name="exclamdown" horiz-adv-x="219" d="M153,354q-33,0-56,23T74,433t23,56.5T153,513t56.5-23.5T233,433t-23.5-56T153,354ZM82,276h85L91-224L-63-245L82,276Z" />
      <glyph unicode="&#xa2;" glyph-name="cent" horiz-adv-x="384" d="M303,608q55-1 85.5-26.5T419,513q0-35-18-58.5T356,431q-13,0-25,6t-20,16q7,12 12,30.5t5,34.5q0,19-9,28t-28,9L205,183q16-2 24-2q31,0 56,11.5T333,230q8-20 8-39q0-44-38.5-70.5T199,94H185L157-27H107l29,129q-61,17-94.5,66.5T8,293T40.5,435t88,112T251,604l26,114h51L303,608ZM127,305q0-74 32-102l77,337q-47-27-78-92.5T127,305Z" />
      <glyph unicode="&#xa3;" glyph-name="sterling" horiz-adv-x="455" d="M479,164q13-29 13-62q0-49-38-78.5T351-6Q317-6 259,9q-38,9-60.5,13T149,26Q96,26 22,5L13,46Q37,60 58.5,97T90,182l40,187H34l14,50h93l34,157q19,87 78.5,137T393,763q55,0 88.5-26.5T515,662q0-37-19.5-62T443,575q-16,0-28,8t-18,19q8,12 14,31t6,35q0,21-7.5,31.5T389,710q-51,0-80-134L275,419H417l-14-50H264L233,224q-7-33-23-55t-45-38l3-4q14,5 26,6.5t32,1.5q32,0 76-11q5-1 28.5-6t46.5-5q30,0 53,12t46,40l3-1Z" />
      <glyph unicode="&#xa4;" glyph-name="currency" horiz-adv-x="500" d="M69,200l56,56q-29,38-29,89q0,52 29,90L68,492l38,36l56-56q41,30 91,30q51,0 89-29l56,56l36-36l-55-55q30-40 30-92q0-50-30-91l55-55l-36-36l-55,55q-38-29-90-29t-92,30l-56-56L69,200Zm184,46q42,0 71,29t29,71t-29,71t-71,29t-71-29t-29-71t29-71t71-29Z" />
      <glyph unicode="&#xa5;" glyph-name="yen" horiz-adv-x="558" d="M183,142H84l14,50h96l14,65H109l14,50h96L107,750H271l88-361L509,750h66L379,307H510l-14-50H368l-14-65H485l-14-50H343L313,0H153l30,142Z" />
      <glyph unicode="&#xa6;" glyph-name="brokenbar" horiz-adv-x="532" d="M219,751h93V301H219V751Zm0-529h93V-250H219V222Z" />
      <glyph unicode="&#xa7;" glyph-name="section" horiz-adv-x="542" d="M173-54Q109-54 58.5-27T8,77q0,54 27,88.5T104,200q27,0 44.5-13.5T183,150q-45-4-63-21T102,74q0-40 19-59T184-4q38,0 59,24t21,73q0,57-25,94t-73,78q-42,37-62,64.5T84,398q0,47 28.5,83T188,535q-5,25-5,42q0,56 31,95.5T293.5,731T395,750q47,0 88.5-19T525,655q0-36-18-58.5T459,574q-22,0-37,16q17,9 26.5,28.5T458,659q0,23-14,38.5T402,713q-40,0-67-32t-27-75q0-27 11.5-48.5t28-37.5T396,478q36-28 57.5-50t37-53T506,303q0-61-31-108t-85-59v-3q0-87-57.5-137T173-54ZM384,183q19,23 19,63q0,33-14,59.5t-34.5,46T299,399q-33,25-54,44t-36,43q-19-12-19-35q0-26 18.5-48T265,347q49-43 78.5-78.5T384,183Z" />
      <glyph unicode="&#xa8;" glyph-name="dieresis" horiz-adv-x="392" d="M117,573q-26,0-43.5,17.5T56,634q0,25 17.5,43T117,695q25,0 43-18t18-43q0-26-18-43.5T117,573Zm180,0q-26,0-43.5,17.5T236,634q0,25 17.5,43T297,695q25,0 43-18t18-43q0-26-18-43.5T297,573Z" />
      <glyph unicode="&#xa9;" glyph-name="copyright" horiz-adv-x="587" d="M293,76q-65,0-121,34.5t-88.5,93T51,331q0,70 32.5,129t88,93T293,587q65,0 120.5-34T502,460.5T535,332T502,203t-88.5-93T293,76Zm2,42q53,0 98.5,28t72,77T492,331T465.5,439t-72,77T295,544q-54,0-99.5-28t-72-77T97,331t26.5-108t72-77T295,118Zm3,64q-40,0-73.5,21t-53,56.5T152,336q0,42 20,75.5t54,53T300,484q47-2 80.5-28.5T424,389l-47-18q-6,19-12.5,30.5t-21.5,21T302,432q-41,0-68-23.5T207,341q0-45 27.5-76T302,234q23,0 43.5,12T377,279l44-29q-21-32-53.5-50T298,182Z" />
      <glyph unicode="&#xaa;" glyph-name="ordfeminine" horiz-adv-x="345" d="M114,467q-38,0-54.5,20T43,535q0,82 36.5,143T195,739q20,0 39-14l3,15h83L278,556q-1-4-2-9t-1-9q0-20 21-20h6q6,0 9,2q-11-31-25.5-40.5T251,470q-46,0-58,40q-36-43-79-43Zm41,45q17,0 36,26l4,18l33,143q-11,10-29,10q-21,0-39-24t-28.5-61T121,550q0-38 34-38Z" />
      <glyph unicode="&#xab;" glyph-name="guillemotleft" horiz-adv-x="589" d="M20,238l9,41L336,429l-10-55L85,254l194-96l-12-57L20,238Zm210,0l9,41L546,429l-10-55L295,254l194-96l-12-57L230,238Z" />
      <glyph unicode="&#xac;" glyph-name="logicalnot" horiz-adv-x="444" d="M270,222H19l18,79H399L348,51H235l35,171Z" />
      <glyph unicode="&#xad;" glyph-name="uni00AD" horiz-adv-x="290" d="M37,301H237l-17-79H19l18,79Z" />
      <glyph unicode="&#xae;" glyph-name="registered" horiz-adv-x="553" d="M276,79q-65,0-121,34.5t-88.5,93T34,334q0,70 32.5,129t88,93T276,590q65,0 120.5-34T485,463.5T518,335T485,206t-88.5-93T276,79Zm2,42q53,0 98.5,28t72,77T475,334T448.5,442t-72,77T278,547q-54,0-99.5-28t-72-77T80,334t26.5-108t72-77T278,121Zm10,194H222V192H176l1,291h94q55,0 87.5-22T391,399q0-27-16-48t-43-29l65-125l-47-7L288,315Zm-14,38q28,0 49.5,9.5T345,397q0,24-22,34.5T272,442H222V353h52Z" />
      <glyph unicode="&#xaf;" glyph-name="macron" horiz-adv-x="446" d="M86,665H406l-15-74H70l16,74Z" />
      <glyph unicode="&#xb0;" glyph-name="degree" horiz-adv-x="314" d="M133,374q-55,0-75.5,28T37,488q0,59 19.5,108T113,673.5T199,702q43,0 62.5-28.5T281,589q0-45-18-95.5t-51.5-85T133,374Zm3,37q38,0 61.5,57T221,604q0,30-5,46.5T196,667t-33.5-17.5t-33-51.5T111,519q-2-24-2-43q0-65 27-65Z" />
      <glyph unicode="&#xb1;" glyph-name="plusminus" horiz-adv-x="479" d="M201,386H59l18,79H219l30,139h80L299,465H445l-17-79H281L250,242H170l31,144ZM40,191H390l-17-79H22l18,79Z" />
      <glyph unicode="&#xb2;" glyph-name="uni00B2" horiz-adv-x="328" d="M228,337q-15,0-51,10q-42,11-61,11q-28,0-59-16H53q-3,14-3,26q0,34 20,63.5T131,504q47,50 71,87t24,84q0,27-9,43t-28,16t-31-13t-12-32q0-15 7-26.5T171,646l1-3q-9-8-20-13t-21-5q-19,0-32,12T86,670q0,23 14,44.5t41.5,35T206,763q50,0 81-24t31-66q0-41-27.5-74T208,520q-37-30-58.5-51.5T116,424q13,4 34,4q16,0 56-7q23-5 38-5q26,0 47,24l3-1q7-18 7-35q0-29-21.5-48T228,337Z" />
      <glyph unicode="&#xb3;" glyph-name="uni00B3" horiz-adv-x="336" d="M164,340q-50,0-82,29.5T50,445q0,35 19,57t49,22q14,0 24-8t17-26q-20-5-31.5-20.5T116,431t12-38t31-15q29,0 47,26.5T224,473t-18,67.5T156,571v4q41,13 65,41t24,64q0,25-10.5,39.5T206,734q-17,0-28-13t-11-33q0-32 23-43l1-3q-24-19-43-19q-22,0-35.5,14T99,673q0,37 35,63.5T218,763q47,0 77.5-25.5T326,674q0-34-25-60t-67-38v-4q39-8 62-34t23-63q0-35-21.5-66.5t-57-50T164,340Z" />
      <glyph unicode="&#xb4;" glyph-name="acute" horiz-adv-x="316" d="M211,750H316L175,561H120l91,189Z" />
      <glyph unicode="&#xb5;" glyph-name="uni00B5" horiz-adv-x="505" d="M-3,164l3,15L68,500H212L140,160q-3-12-3-25q0-44 30-44q28,0 48,23.5T247,179l68,321H459L387,160q-4-15-4-32q0-20 9.5-28.5T424,91q28,0 48.5,24T505,179h42Q486,0 346,0q-42,0-67.5,22.5T248,90Q192,0 105,0L78-130L-73-166L-3,164Z" />
      <glyph unicode="&#xb6;" glyph-name="paragraph" horiz-adv-x="542" d="M222,288q-72,14-111,71.5T72,491q0,64 29,123.5t86,97T322,749q82,0 133.5-40T507,584q0-29-8-72L372-81H278l81,380q-18-6-43-11L239-81H145l77,369Zm111,51q22,0 35,4l48,227q6,29 6,49q0,43-23,63L327,339h6Z" />
      <glyph unicode="&#xb7;" glyph-name="periodcentered" horiz-adv-x="434" d="M216,171q-40,0-68,28t-28,68t28,68.5T216,364t68.5-28.5T313,267t-28.5-68T216,171Z" />
      <glyph unicode="&#xb8;" glyph-name="cedilla" horiz-adv-x="227" d="M105-226q-30,0-56.5,12T5-180l17,27q14-14 33.5-22T94-183q22,0 36,11.5T144-142q0,16-11.5,25.5T102-107q-25,0-49-12l-4,4L106,29l43-3L112-66q34,10 53,10q33,0 52.5-18T237-122q0-28-18-52t-48.5-38T105-226Z" />
      <glyph unicode="&#xb9;" glyph-name="uni00B9" horiz-adv-x="229" d="M115,678q-18-5-30-5q-18,0-27,8t-9,23q0,7 3,16q78,0 164,43l3-2L130,344H45l70,334Z" />
      <glyph unicode="&#xba;" glyph-name="ordmasculine" horiz-adv-x="329" d="M133,466q-48,0-69.5,20.5T42,555q0,94 43.5,142T194,745q22,0 38.5-6.5T249,721t-7-16.5T223,695q-7,19-26,19q-26,0-43.5-27.5t-26-64T119,560q0-23 10.5-32t30.5-9q25,0 40,32.5T219,627q-15,5-15,22q0,14 12.5,27.5T243,690q11,0 15-4t4-15q12,7 21,17.5T295,703l6-11q-8-21-16-34.5T262,635q-2-53-22.5-91.5t-49.5-58T133,466Z" />
      <glyph unicode="&#xbb;" glyph-name="guillemotright" horiz-adv-x="586" d="M29,158l240,96L75,374l9,55L330,279l-11-54L15,101l14,57Zm222,0l240,96L297,374l9,55L552,279l-11-54L237,101l14,57Z" />
      <glyph unicode="&#xbc;" glyph-name="onequarter" horiz-adv-x="749" d="M115,678q-18-5-30-5q-18,0-27,8t-9,23q0,7 3,16q78,0 164,43l3-2L130,344H45l70,334Zm410,74h72L181,0H109L525,752Zm71-604H448l-1,4q40,66 58.5,116.5T524,364q0,20-8,52q16,3 35,3q25,0 38.5-16T603,359q0-35-23.5-80T517,195l1-3h87l45,210l89,11L691,192h38l-11-44H682L651,0H564l32,148Z" />
      <glyph unicode="&#xbd;" glyph-name="onehalf" horiz-adv-x="745" d="M115,678q-18-5-30-5q-18,0-27,8t-9,23q0,7 3,16q78,0 164,43l3-2L130,344H45l70,334Zm410,74h72L181,0H109L525,752ZM645-6Q630-6 594,4q-42,11-61,11q-28,0-59-16h-4q-3,14-3,26q0,34 20,63.5T548,161q47,50 71,87t24,84q0,27-9,43t-28,16t-31-13t-12-32q0-15 7-26.5T588,303l1-3q-9-8-20-13t-21-5q-19,0-32,12t-13,33q0,23 14,44.5t41.5,35T623,420q50,0 81-24t31-66q0-41-27.5-74T625,177q-37-30-58.5-51.5T533,81q13,4 34,4q16,0 56-7q23-5 38-5q26,0 47,24l3-1q7-18 7-35q0-29-21.5-48T645-6Z" />
      <glyph unicode="&#xbe;" glyph-name="threequarters" horiz-adv-x="836" d="M164,340q-50,0-82,29.5T50,445q0,35 19,57t49,22q14,0 24-8t17-26q-20-5-31.5-20.5T116,431t12-38t31-15q29,0 47,26.5T224,473t-18,67.5T156,571v4q41,13 65,41t24,64q0,25-10.5,39.5T206,734q-17,0-28-13t-11-33q0-32 23-43l1-3q-24-19-43-19q-22,0-35.5,14T99,673q0,37 35,63.5T218,763q47,0 77.5-25.5T326,674q0-34-25-60t-67-38v-4q39-8 62-34t23-63q0-35-21.5-66.5t-57-50T164,340ZM612,752h72L268,0H196L612,752Zm71-604H535l-1,4q40,66 58.5,116.5T611,364q0,20-8,52q16,3 35,3q25,0 38.5-16T690,359q0-35-23.5-80T604,195l1-3h87l45,210l89,11L778,192h38l-11-44H769L738,0H651l32,148Z" />
      <glyph unicode="&#xbf;" glyph-name="questiondown" horiz-adv-x="439" d="M292,349q-33,0-56,23t-23,56t23,56.5T292,508t56.5-23.5T372,428t-23.5-56T292,349ZM157-250q-79,0-124.5,37.5T-13-110q0,40 17.5,72.5T48,19t69,58q45,35 71.5,60.5t45,60T252,276h61q0-47-14-84.5t-34-64T212,64q-44-48-66-84.5T124-107q0-43 17.5-67T191-198q33,0 55,23t22,58q0,26-13,48T220-37v4q18,16 38,25t39,9q32,0 51.5-23.5T368-85q0-46-27.5-84t-76-59.5T157-250Z" />
      <glyph unicode="&#xc0;" glyph-name="Agrave" horiz-adv-x="668" d="M486,1000H591l29-189H545l-59,189ZM218-114q-37,0-65,6T104.5-79T84-8q0,67 40.5,180T231,399q-50-3-79-15t-38-37q4,0 8.5-10t4.5-21q0-18-16-28.5T71,277q-28,0-45,15T9,335q0,34 26.5,62T109,441.5T213,458q21,0 52-3q82,130 173.5,212.5T613,750q48,0 79-14L535,0H391l77,363q-37,17-68,25t-66,11q-57-123-93.5-251.5T204-58q0-38 14-56ZM535,679q-43-23-89.5-85.5T355,442q72-14 122-35l58,272Z" />
      <glyph unicode="&#xc1;" glyph-name="Aacute" horiz-adv-x="668" d="M665,1000H770L649,811H574l91,189ZM218-114q-37,0-65,6T104.5-79T84-8q0,67 40.5,180T231,399q-50-3-79-15t-38-37q4,0 8.5-10t4.5-21q0-18-16-28.5T71,277q-28,0-45,15T9,335q0,34 26.5,62T109,441.5T213,458q21,0 52-3q82,130 173.5,212.5T613,750q48,0 79-14L535,0H391l77,363q-37,17-68,25t-66,11q-57-123-93.5-251.5T204-58q0-38 14-56ZM535,679q-43-23-89.5-85.5T355,442q72-14 122-35l58,272Z" />
      <glyph unicode="&#xc2;" glyph-name="Acircumflex" horiz-adv-x="668" d="M683,1000h21l60-189H731l-60,80L515,811H471l212,189ZM218-114q-37,0-65,6T104.5-79T84-8q0,67 40.5,180T231,399q-50-3-79-15t-38-37q4,0 8.5-10t4.5-21q0-18-16-28.5T71,277q-28,0-45,15T9,335q0,34 26.5,62T109,441.5T213,458q21,0 52-3q82,130 173.5,212.5T613,750q48,0 79-14L535,0H391l77,363q-37,17-68,25t-66,11q-57-123-93.5-251.5T204-58q0-38 14-56ZM535,679q-43-23-89.5-85.5T355,442q72-14 122-35l58,272Z" />
      <glyph unicode="&#xc3;" glyph-name="Atilde" horiz-adv-x="668" d="M649,819q-23,0-44,5t-48,15q-23,8-40.5,12.5T481,856q-37,0-66-26l-6,2q24,48 67,73t100,25q26,0 46.5-4.5T668,912q43-15 73-15q40,0 63,23l6-1q-5-23-29.5-46.5T721,834t-72-15ZM218-114q-37,0-65,6T104.5-79T84-8q0,67 40.5,180T231,399q-50-3-79-15t-38-37q4,0 8.5-10t4.5-21q0-18-16-28.5T71,277q-28,0-45,15T9,335q0,34 26.5,62T109,441.5T213,458q21,0 52-3q82,130 173.5,212.5T613,750q48,0 79-14L535,0H391l77,363q-37,17-68,25t-66,11q-57-123-93.5-251.5T204-58q0-38 14-56ZM535,679q-43-23-89.5-85.5T355,442q72-14 122-35l58,272Z" />
      <glyph unicode="&#xc4;" glyph-name="Adieresis" horiz-adv-x="668" d="M516,823q-27,0-44,17.5T455,884q0,25 17.5,43T516,945q24,0 42-18t18-43q0-26-18-43.5T516,823Zm179,0q-26,0-43.5,17.5T634,884q0,25 18,43t43,18t43-18t18-43q0-26-17.5-43.5T695,823ZM218-114q-37,0-65,6T104.5-79T84-8q0,67 40.5,180T231,399q-50-3-79-15t-38-37q4,0 8.5-10t4.5-21q0-18-16-28.5T71,277q-28,0-45,15T9,335q0,34 26.5,62T109,441.5T213,458q21,0 52-3q82,130 173.5,212.5T613,750q48,0 79-14L535,0H391l77,363q-37,17-68,25t-66,11q-57-123-93.5-251.5T204-58q0-38 14-56ZM535,679q-43-23-89.5-85.5T355,442q72-14 122-35l58,272Z" />
      <glyph unicode="&#xc5;" glyph-name="Aring" horiz-adv-x="668" d="M599,802q-32,0-51,20t-19,50q0,32 22,61.5T614,963q35,0 53.5-21.5T686,886q0-36-21.5-60T599,802Zm4,35q23,0 34.5,12T649,883q0,21-6,34t-27,13q-24,0-35.5-17T569,874q0-37 34-37ZM218-114q-37,0-65,6T104.5-79T84-8q0,67 40.5,180T231,399q-50-3-79-15t-38-37q4,0 8.5-10t4.5-21q0-18-16-28.5T71,277q-28,0-45,15T9,335q0,34 26.5,62T109,441.5T213,458q21,0 52-3q82,130 173.5,212.5T613,750q48,0 79-14L535,0H391l77,363q-37,17-68,25t-66,11q-57-123-93.5-251.5T204-58q0-38 14-56ZM535,679q-43-23-89.5-85.5T355,442q72-14 122-35l58,272Z" />
      <glyph unicode="&#xc6;" glyph-name="AE" horiz-adv-x="764" d="M218-113q-45,2-71.5,8.5T102-74.5T84-1q0,64 40.5,175.5T231,399q-49-3-77.5-14.5T114,347q4,0 8.5-10t4.5-21q0-17-15-28T66,277q-24,0-40.5,15.5T9,340q0,30 27,56.5T108,439t96,16q26,0 59-3q82,132 174,215.5T612,751q30,0 79-9q24-4 50.5-7.5T792,731q61,0 117,19q-2-6-11.5-39T864,659t-62-19q-29,0-52,6.5T706.5,661T678,672L624,419H779l-20-74H608L557,106H781L760,0H391l77,363q-70,31-135,36q-56-123-92.5-250.5T204-57q0-37 7-45.5t7-10.5ZM535,679q-44-24-91-86.5T353,441q69-13 124-34l58,272Z" />
      <glyph unicode="&#xc7;" glyph-name="Ccedilla" horiz-adv-x="497" d="M242-218q-34,0-57,7t-50,21q18,32 40,32q15,0 23.5-4T218-173q18-12 31-12q12,0 21,13t9,29t-9.5,26T240-107q-18,0-28.5-3T188-119L225-16Q118-13 68.5,44T19,230q0,105 35.5,226t114,207.5T368,750q75,0 121-33t46-101q0-43-17-67.5T465,524t-57,26q18,9 32,36t14,56q0,27-14.5,44T393,703q-53,0-101-72.5T214.5,448T185,236q0-76 26-116t94-40q59,0 109,26t86,74l23-10Q490,87 417.5,41T268-14L247-66q34,8 53,8q62,0 62-50q0-51-36-80.5T242-218Z" />
      <glyph unicode="&#xc8;" glyph-name="Egrave" horiz-adv-x="459" d="M252,1000H357l29-189H311l-59,189ZM191-18Q100-18 53.5,32T7,158q0,54 22.5,108.5T94,362t98,55q-31,22-46,53.5T131,537q0,52 28.5,102t79,81.5T350,752q63,0 103-33t40-92q0-44-22-74t-52-30q-27,0-47,27q18,6 31,33t13,54q0,29-16,42.5T361,693q-29,0-52.5-20.5t-36.5-53T259,552q0-48 25-84.5T360,418q-51-11-92-50t-64-90.5T181,179q0-45 23.5-73T276,78q50,0 104.5,27.5T461,180l23-10Q445,84 364,33T191-18Z" />
      <glyph unicode="&#xc9;" glyph-name="Eacute" horiz-adv-x="459" d="M421,1000H526L405,811H330l91,189ZM191-18Q100-18 53.5,32T7,158q0,54 22.5,108.5T94,362t98,55q-31,22-46,53.5T131,537q0,52 28.5,102t79,81.5T350,752q63,0 103-33t40-92q0-44-22-74t-52-30q-27,0-47,27q18,6 31,33t13,54q0,29-16,42.5T361,693q-29,0-52.5-20.5t-36.5-53T259,552q0-48 25-84.5T360,418q-51-11-92-50t-64-90.5T181,179q0-45 23.5-73T276,78q50,0 104.5,27.5T461,180l23-10Q445,84 364,33T191-18Z" />
      <glyph unicode="&#xca;" glyph-name="Ecircumflex" horiz-adv-x="459" d="M414,1000h21l60-189H463l-60,80L246,811H202l212,189ZM191-18Q100-18 53.5,32T7,158q0,54 22.5,108.5T94,362t98,55q-31,22-46,53.5T131,537q0,52 28.5,102t79,81.5T350,752q63,0 103-33t40-92q0-44-22-74t-52-30q-27,0-47,27q18,6 31,33t13,54q0,29-16,42.5T361,693q-29,0-52.5-20.5t-36.5-53T259,552q0-48 25-84.5T360,418q-51-11-92-50t-64-90.5T181,179q0-45 23.5-73T276,78q50,0 104.5,27.5T461,180l23-10Q445,84 364,33T191-18Z" />
      <glyph unicode="&#xcb;" glyph-name="Edieresis" horiz-adv-x="459" d="M299,823q-26,0-43.5,17.5T238,884q0,25 17.5,43T299,945q25,0 43-18t18-43q0-26-18-43.5T299,823Zm180,0q-26,0-43.5,17.5T418,884q0,25 17.5,43T479,945q25,0 43-18t18-43q0-26-18-43.5T479,823ZM191-18Q100-18 53.5,32T7,158q0,54 22.5,108.5T94,362t98,55q-31,22-46,53.5T131,537q0,52 28.5,102t79,81.5T350,752q63,0 103-33t40-92q0-44-22-74t-52-30q-27,0-47,27q18,6 31,33t13,54q0,29-16,42.5T361,693q-29,0-52.5-20.5t-36.5-53T259,552q0-48 25-84.5T360,418q-51-11-92-50t-64-90.5T181,179q0-45 23.5-73T276,78q50,0 104.5,27.5T461,180l23-10Q445,84 364,33T191-18Z" />
      <glyph unicode="&#xcc;" glyph-name="Igrave" horiz-adv-x="375" d="M215,1000H320l29-189H274l-59,189Zm24-321q-67-27-103.5-82.5T99,461q0-37 7-51.5t7-16.5q-54,0-80.5,22.5T6,490q0,64 52.5,124.5t134.5,98T357,750q14,0 40-2L238,0H94L239,679Z" />
      <glyph unicode="&#xcd;" glyph-name="Iacute" horiz-adv-x="375" d="M384,1000H489L369,811H293l91,189ZM239,679q-67-27-103.5-82.5T99,461q0-37 7-51.5t7-16.5q-54,0-80.5,22.5T6,490q0,64 52.5,124.5t134.5,98T357,750q14,0 40-2L238,0H94L239,679Z" />
      <glyph unicode="&#xce;" glyph-name="Icircumflex" horiz-adv-x="375" d="M382,1000h21l60-189H432l-60,80L214,811H170l212,189ZM239,679q-67-27-103.5-82.5T99,461q0-37 7-51.5t7-16.5q-54,0-80.5,22.5T6,490q0,64 52.5,124.5t134.5,98T357,750q14,0 40-2L238,0H94L239,679Z" />
      <glyph unicode="&#xcf;" glyph-name="Idieresis" horiz-adv-x="375" d="M248,823q-27,0-44,17.5T187,884q0,25 17.5,43T248,945q25,0 43-18t18-43q0-26-18-43.5T248,823Zm180,0q-26,0-43.5,17.5T367,884q0,25 17.5,43T428,945q24,0 42.5-18T489,884q0-26-18-43.5T428,823ZM239,679q-67-27-103.5-82.5T99,461q0-37 7-51.5t7-16.5q-54,0-80.5,22.5T6,490q0,64 52.5,124.5t134.5,98T357,750q14,0 40-2L238,0H94L239,679Z" />
      <glyph unicode="&#xd0;" glyph-name="Eth" horiz-adv-x="663" d="M368-13q-60,0-122,53L238,0H94l74,345H129l20,74h35l46,217l148,20L327,419h79l-20-74H311L258,95q28-20 57-20q56,0 100,66t68,167t24,200q0,68-11,109.5t-41,64T369,704q-81,0-142-29t-94.5-84T99,461q0-37 7-51.5t7-16.5q-54,0-80.5,22.5T6,490q0,64 52.5,124.5t134.5,98T357,750q288,0 288-270q0-127-38.5-241T504,56T368-13Z" />
      <glyph unicode="&#xd1;" glyph-name="Ntilde" horiz-adv-x="686" d="M548,819q-23,0-44,5t-48,15q-23,8-40.5,12.5T380,856q-37,0-66-26l-6,2q24,48 67,73t100,25q25,0 46-4.5T567,912q43-15 73-15q40,0 63,23l6-1q-5-23-29.5-46.5T620,834t-72-15ZM243,685q-68-24-103.5-75.5T104,485q0-32 7-58.5T131,383q-64,0-94.5,26.5T6,491q0,70 41,130.5T158,718t152,36q23,0 40-3t39-11L509,205L621,748h97L555,0H417L301,496L187,0H92L243,685Z" />
      <glyph unicode="&#xd2;" glyph-name="Ograve" horiz-adv-x="665" d="M302,1000H407l29-189H361l-59,189ZM287-6Q203-6 155.5,42T108,195q0,89 32,200t93.5,190T379,664q30,0 52-8q-44-26-84.5-107T281,368T256,191q0-54 14-85t44-31q49,0 97.5,70.5t80,177.5T523,529q0,62-10.5,99.5T474,685t-79,19q-77,0-143-31.5t-105.5-90T107,447q0-27 5-39.5t5-14.5q-50,0-75.5,20T16,477q0,69 56.5,132t150,102T419,750q125,0 181-68t56-188q0-107-40-223T492.5,74.5T287-6Z" />
      <glyph unicode="&#xd3;" glyph-name="Oacute" horiz-adv-x="665" d="M488,1000H593L472,811H397l91,189ZM287-6Q203-6 155.5,42T108,195q0,89 32,200t93.5,190T379,664q30,0 52-8q-44-26-84.5-107T281,368T256,191q0-54 14-85t44-31q49,0 97.5,70.5t80,177.5T523,529q0,62-10.5,99.5T474,685t-79,19q-77,0-143-31.5t-105.5-90T107,447q0-27 5-39.5t5-14.5q-50,0-75.5,20T16,477q0,69 56.5,132t150,102T419,750q125,0 181-68t56-188q0-107-40-223T492.5,74.5T287-6Z" />
      <glyph unicode="&#xd4;" glyph-name="Ocircumflex" horiz-adv-x="665" d="M484,1000h21l60-189H533l-60,80L316,811H272l212,189ZM287-6Q203-6 155.5,42T108,195q0,89 32,200t93.5,190T379,664q30,0 52-8q-44-26-84.5-107T281,368T256,191q0-54 14-85t44-31q49,0 97.5,70.5t80,177.5T523,529q0,62-10.5,99.5T474,685t-79,19q-77,0-143-31.5t-105.5-90T107,447q0-27 5-39.5t5-14.5q-50,0-75.5,20T16,477q0,69 56.5,132t150,102T419,750q125,0 181-68t56-188q0-107-40-223T492.5,74.5T287-6Z" />
      <glyph unicode="&#xd5;" glyph-name="Otilde" horiz-adv-x="665" d="M514,819q-23,0-44,5t-48,15q-23,8-40.5,12.5T346,856q-37,0-66-26l-6,2q24,48 67,73t100,25q26,0 46.5-4.5T533,912q43-15 73-15q40,0 63,23l6-1q-5-23-29.5-46.5T586,834t-72-15ZM287-6Q203-6 155.5,42T108,195q0,89 32,200t93.5,190T379,664q30,0 52-8q-44-26-84.5-107T281,368T256,191q0-54 14-85t44-31q49,0 97.5,70.5t80,177.5T523,529q0,62-10.5,99.5T474,685t-79,19q-77,0-143-31.5t-105.5-90T107,447q0-27 5-39.5t5-14.5q-50,0-75.5,20T16,477q0,69 56.5,132t150,102T419,750q125,0 181-68t56-188q0-107-40-223T492.5,74.5T287-6Z" />
      <glyph unicode="&#xd6;" glyph-name="Odieresis" horiz-adv-x="665" d="M349,823q-26,0-43.5,17.5T288,884q0,25 17.5,43T349,945q25,0 43-18t18-43q0-26-18-43.5T349,823Zm180,0q-26,0-43.5,17.5T468,884q0,25 17.5,43T529,945q25,0 43-18t18-43q0-26-18-43.5T529,823ZM287-6Q203-6 155.5,42T108,195q0,89 32,200t93.5,190T379,664q30,0 52-8q-44-26-84.5-107T281,368T256,191q0-54 14-85t44-31q49,0 97.5,70.5t80,177.5T523,529q0,62-10.5,99.5T474,685t-79,19q-77,0-143-31.5t-105.5-90T107,447q0-27 5-39.5t5-14.5q-50,0-75.5,20T16,477q0,69 56.5,132t150,102T419,750q125,0 181-68t56-188q0-107-40-223T492.5,74.5T287-6Z" />
      <glyph unicode="&#xd7;" glyph-name="multiply" horiz-adv-x="414" d="M43,237L145,339L42,442l58,57L202,396L306,500l56-57L259,340L361,239l-57-58L201,282L100,181L43,237Z" />
      <glyph unicode="&#xd8;" glyph-name="Oslash" horiz-adv-x="658" d="M279-6h-2Q196-6 150,39.5T104,183q0,83 31,187t90.5,178T365,622q25,0 45-7l9,41q-16,3-38,3q-75,0-138.5-29.5T141,545T103,418q0-25 5-36.5t5-13.5q-48,0-73,18.5T15,446q0,65 54.5,124T214,665.5T404,702q16,0 24-1l11,49h52l-12-56q153-37 153-232q0-91-32.5-191.5T499,93.5T332-1L317-71H265L279-6Zm72,94q39,29 74.5,95.5t57,150.5T504,495q0,54-8,87t-30,52L351,88Zm58,522q-41-27-78.5-102.5T270,340.5T247,179q0-99 48-109L409,610Z" />
      <glyph unicode="&#xd9;" glyph-name="Ugrave" horiz-adv-x="716" d="M405,1000H510l29-189H464l-59,189ZM343-7Q239-7 194.5,33T150,152q0,58 15.5,133T215,492l17,68l33,132q-83-22-130-81.5T88,462q0-38 7-52t7-17q-53,0-80,21.5T-5,485q0,69 53.5,130t141,98T373,750q22,0 48-5L377,584q-55-202-73-279T286,181q0-45 16-67.5T355,91q49,0 76.5,20.5t54,93.5T548,439l67,309H756L690,436q-35-168-72-259.5T517,39T343-7Z" />
      <glyph unicode="&#xda;" glyph-name="Uacute" horiz-adv-x="716" d="M537,1000H642L521,811H446l91,189ZM343-7Q239-7 194.5,33T150,152q0,58 15.5,133T215,492l17,68l33,132q-83-22-130-81.5T88,462q0-38 7-52t7-17q-53,0-80,21.5T-5,485q0,69 53.5,130t141,98T373,750q22,0 48-5L377,584q-55-202-73-279T286,181q0-45 16-67.5T355,91q49,0 76.5,20.5t54,93.5T548,439l67,309H756L690,436q-35-168-72-259.5T517,39T343-7Z" />
      <glyph unicode="&#xdb;" glyph-name="Ucircumflex" horiz-adv-x="716" d="M570,1000h21l60-189H619l-60,80L402,811H358l212,189ZM343-7Q239-7 194.5,33T150,152q0,58 15.5,133T215,492l17,68l33,132q-83-22-130-81.5T88,462q0-38 7-52t7-17q-53,0-80,21.5T-5,485q0,69 53.5,130t141,98T373,750q22,0 48-5L377,584q-55-202-73-279T286,181q0-45 16-67.5T355,91q49,0 76.5,20.5t54,93.5T548,439l67,309H756L690,436q-35-168-72-259.5T517,39T343-7Z" />
      <glyph unicode="&#xdc;" glyph-name="Udieresis" horiz-adv-x="716" d="M439,823q-26,0-43.5,17.5T378,884q0,25 17.5,43T439,945q25,0 43-18t18-43q0-26-18-43.5T439,823Zm180,0q-26,0-43.5,17.5T558,884q0,25 17.5,43T619,945q25,0 43-18t18-43q0-26-18-43.5T619,823ZM343-7Q239-7 194.5,33T150,152q0,58 15.5,133T215,492l17,68l33,132q-83-22-130-81.5T88,462q0-38 7-52t7-17q-53,0-80,21.5T-5,485q0,69 53.5,130t141,98T373,750q22,0 48-5L377,584q-55-202-73-279T286,181q0-45 16-67.5T355,91q49,0 76.5,20.5t54,93.5T548,439l67,309H756L690,436q-35-168-72-259.5T517,39T343-7Z" />
      <glyph unicode="&#xdd;" glyph-name="Yacute" horiz-adv-x="620" d="M583,1000H688L567,811H492l91,189ZM344,308L248,683q-71-27-110-83.5T99,461q0-37 7-51.5t7-16.5q-54,0-80.5,22.5T6,490q0,64 52.5,124.5t134.5,98T357,750q14,0 40-2l87-358L632,745h66L504,308L438,0H278l66,308Z" />
      <glyph unicode="&#xde;" glyph-name="Thorn" horiz-adv-x="583" d="M214,562q-56-29-85.5-82.5T99,351q0-37 7-51.5t7-16.5q-54,0-80.5,22.5T6,380q0,48 29.5,94.5T115,558t110,58l25,114l148,20L374,640q108-6 163.5-61T593,443q0-65-35.5-127T456,214.5T304,175H275L238,0H94L214,562Zm83-350q51,0 93.5,38t67,95.5T482,458q0,58-29,96t-88,40L283,212h14Z" />
      <glyph unicode="&#xdf;" glyph-name="germandbls" horiz-adv-x="480" d="M56,412q30,146 88,217t148,71q59,0 93-26t34-71q0-58-31.5-120T323,380q55-41 84.5-97T437,171q0-49-22.5-89t-67-64T240-6Q201-6 180.5,7.5T160,45q0,11 5,22.5T179,86q8-11 22.5-17T234,63q39,0 61,38t22,92q0,50-19,94.5T244,351q16,17 37,60t36.5,91.5T333,586q0,52-39,52q-18,0-32-18.5t-27-62T205,434L66-214L-85-250L56,412Z" />
      <glyph unicode="&#xe0;" glyph-name="agrave" horiz-adv-x="526" d="M216,750H321l29-189H275L216,750ZM120-6Q63-6 25,33T-13,155q0,74 29.5,155.5t88,138T244,505q41,0 61-14t20-37v-7l11,53H480L408,160q-4-15-4-32q0-43 41-43q28,0 48.5,26T526,179h42Q531,71 476.5,32.5T367-6q-42,0-67.5,23.5T269,86q-29-41-64.5-66.5T120-6Zm65,97q25,0 49.5,23.5T268,179l48,226q0,13-10,25.5T275,443q-40,0-72-46.5t-50-112T135,169t14.5-64T185,91Z" />
      <glyph unicode="&#xe1;" glyph-name="aacute" horiz-adv-x="526" d="M336,750H441L320,561H245l91,189ZM120-6Q63-6 25,33T-13,155q0,74 29.5,155.5t88,138T244,505q41,0 61-14t20-37v-7l11,53H480L408,160q-4-15-4-32q0-43 41-43q28,0 48.5,26T526,179h42Q531,71 476.5,32.5T367-6q-42,0-67.5,23.5T269,86q-29-41-64.5-66.5T120-6Zm65,97q25,0 49.5,23.5T268,179l48,226q0,13-10,25.5T275,443q-40,0-72-46.5t-50-112T135,169t14.5-64T185,91Z" />
      <glyph unicode="&#xe2;" glyph-name="acircumflex" horiz-adv-x="526" d="M368,750h21l60-189H417l-60,80L200,561H156L368,750ZM120-6Q63-6 25,33T-13,155q0,74 29.5,155.5t88,138T244,505q41,0 61-14t20-37v-7l11,53H480L408,160q-4-15-4-32q0-43 41-43q28,0 48.5,26T526,179h42Q531,71 476.5,32.5T367-6q-42,0-67.5,23.5T269,86q-29-41-64.5-66.5T120-6Zm65,97q25,0 49.5,23.5T268,179l48,226q0,13-10,25.5T275,443q-40,0-72-46.5t-50-112T135,169t14.5-64T185,91Z" />
      <glyph unicode="&#xe3;" glyph-name="atilde" horiz-adv-x="526" d="M361,569q-23,0-43,5t-48,15q-29,9-44,13t-33,4q-37,0-66-26l-5,2q23,48 66,73t101,25q25,0 45.5-4.5T380,662q23-8 39-11.5t35-3.5q38,0 63,23l5-1q-4-23-28.5-46.5t-60-38.5T361,569ZM120-6Q63-6 25,33T-13,155q0,74 29.5,155.5t88,138T244,505q41,0 61-14t20-37v-7l11,53H480L408,160q-4-15-4-32q0-43 41-43q28,0 48.5,26T526,179h42Q531,71 476.5,32.5T367-6q-42,0-67.5,23.5T269,86q-29-41-64.5-66.5T120-6Zm65,97q25,0 49.5,23.5T268,179l48,226q0,13-10,25.5T275,443q-40,0-72-46.5t-50-112T135,169t14.5-64T185,91Z" />
      <glyph unicode="&#xe4;" glyph-name="adieresis" horiz-adv-x="526" d="M241,573q-26,0-43.5,17.5T180,634q0,25 17.5,43T241,695q25,0 43-18t18-43q0-26-18-43.5T241,573Zm180,0q-26,0-43.5,17.5T360,634q0,25 17.5,43T421,695q25,0 43-18t18-43q0-26-18-43.5T421,573ZM120-6Q63-6 25,33T-13,155q0,74 29.5,155.5t88,138T244,505q41,0 61-14t20-37v-7l11,53H480L408,160q-4-15-4-32q0-43 41-43q28,0 48.5,26T526,179h42Q531,71 476.5,32.5T367-6q-42,0-67.5,23.5T269,86q-29-41-64.5-66.5T120-6Zm65,97q25,0 49.5,23.5T268,179l48,226q0,13-10,25.5T275,443q-40,0-72-46.5t-50-112T135,169t14.5-64T185,91Z" />
      <glyph unicode="&#xe5;" glyph-name="aring" horiz-adv-x="526" d="M304,552q-32,0-51,20t-19,50q0,32 22,61.5T319,713q35,0 53.5-21.5T391,636q0-36-21.5-60T304,552Zm4,35q23,0 34.5,12T354,633q0,21-6,34t-27,13q-24,0-35.5-17T274,624q0-37 34-37ZM120-6Q63-6 25,33T-13,155q0,74 29.5,155.5t88,138T244,505q41,0 61-14t20-37v-7l11,53H480L408,160q-4-15-4-32q0-43 41-43q28,0 48.5,26T526,179h42Q531,71 476.5,32.5T367-6q-42,0-67.5,23.5T269,86q-29-41-64.5-66.5T120-6Zm65,97q25,0 49.5,23.5T268,179l48,226q0,13-10,25.5T275,443q-40,0-72-46.5t-50-112T135,169t14.5-64T185,91Z" />
      <glyph unicode="&#xe6;" glyph-name="ae" horiz-adv-x="650" d="M119-6Q65-6 28.5,23T-8,124q0,88 60,127t162,39q36,0 52-4q21,45 21,88q0,32-15,51.5T226,445q-42,0-69-12t-52-35L77,427q35,35 65.5,52t56,21.5T259,505q80,0 130-40q59,44 135,44q62,0 85.5-26.5T633,410q0-54-32-100.5t-85-75T403,202q-2-22-2-32q0-53 15-72.5T461,78q46,0 77.5,12T592,121t58,58h34Q572-4 408-4Q287-4 261,90q-24-45-56-70.5T119-6ZM410,250q38,2 71.5,26t54,60.5T556,412q0,22-5,33t-19,11q-37,0-70.5-62.5T410,250ZM179,91q27,0 46,29.5T259,228q-7,1-17,1q-49,0-79-24t-30-64q0-29 15-39.5T179,91Z" />
      <glyph unicode="&#xe7;" glyph-name="ccedilla" horiz-adv-x="384" d="M185-218q-34,0-57,7T78-190q18,32 40,32q15,0 23.5-4T161-173q18-12 31-12q12,0 21,13t9,29t-9.5,26T183-107q-18,0-28.5-3T131-119L172-4q-18-2-29-2Q69-6 28,32.5T-13,153q0,69 27.5,152t88,143.5T256,509q60,0 85.5-26T367,417q0-35-15-54t-38-19q-17,0-35,12q12,33 12,59q0,19-7,30t-21,11q-30,0-60-49T154,288T135,162q0-49 17-66.5T207,78q54,0 92.5,25T384,179h34Q333,39 219,5L190-66q34,8 53,8q62,0 62-50q0-51-36-80.5T185-218Z" />
      <glyph unicode="&#xe8;" glyph-name="egrave" horiz-adv-x="384" d="M158,750H263l29-189H217L158,750ZM143-6Q69-6 28,32.5T-13,153q0,69 27,152t88,143.5T257,509q110,0 110-96q0-56-32-103t-85-75.5T137,202q-2-30-2-40q0-49 17-66.5T207,78q54,0 92.5,25T384,179h34Q307-6 143-6Zm2,256q37,2 70.5,26t54,61T290,415t-25,41q-36,0-70.5-63T145,250Z" />
      <glyph unicode="&#xe9;" glyph-name="eacute" horiz-adv-x="384" d="M314,750H419L298,561H223l91,189ZM143-6Q69-6 28,32.5T-13,153q0,69 27,152t88,143.5T257,509q110,0 110-96q0-56-32-103t-85-75.5T137,202q-2-30-2-40q0-49 17-66.5T207,78q54,0 92.5,25T384,179h34Q307-6 143-6Zm2,256q37,2 70.5,26t54,61T290,415t-25,41q-36,0-70.5-63T145,250Z" />
      <glyph unicode="&#xea;" glyph-name="ecircumflex" horiz-adv-x="384" d="M317,750h21l60-189H366l-60,80L149,561H105L317,750ZM143-6Q69-6 28,32.5T-13,153q0,69 27,152t88,143.5T257,509q110,0 110-96q0-56-32-103t-85-75.5T137,202q-2-30-2-40q0-49 17-66.5T207,78q54,0 92.5,25T384,179h34Q307-6 143-6Zm2,256q37,2 70.5,26t54,61T290,415t-25,41q-36,0-70.5-63T145,250Z" />
      <glyph unicode="&#xeb;" glyph-name="edieresis" horiz-adv-x="384" d="M180,573q-26,0-43.5,17.5T119,634q0,25 17.5,43T180,695q25,0 43-18t18-43q0-26-18-43.5T180,573Zm180,0q-26,0-43.5,17.5T299,634q0,25 17.5,43T360,695q25,0 43-18t18-43q0-26-18-43.5T360,573ZM143-6Q69-6 28,32.5T-13,153q0,69 27,152t88,143.5T257,509q110,0 110-96q0-56-32-103t-85-75.5T137,202q-2-30-2-40q0-49 17-66.5T207,78q54,0 92.5,25T384,179h34Q307-6 143-6Zm2,256q37,2 70.5,26t54,61T290,415t-25,41q-36,0-70.5-63T145,250Z" />
      <glyph unicode="&#xec;" glyph-name="igrave" horiz-adv-x="267" d="M56,750H161l29-189H115L56,750ZM99-6Q51-6 21.5,24T-8,114q0,25 8,65L68,500H212L140,160q-4-15-4-32q0-20 9.5-28.5T177,91q29,0 54,24.5T267,179h42Q272,71 214,32.5T99-6Z" />
      <glyph unicode="&#xed;" glyph-name="iacute" horiz-adv-x="267" d="M202,750H307L186,561H111l91,189ZM99-6Q51-6 21.5,24T-8,114q0,25 8,65L68,500H212L140,160q-4-15-4-32q0-20 9.5-28.5T177,91q29,0 54,24.5T267,179h42Q272,71 214,32.5T99-6Z" />
      <glyph unicode="&#xee;" glyph-name="icircumflex" horiz-adv-x="267" d="M213,750h21l60-189H262l-60,80L45,561H1L213,750ZM99-6Q51-6 21.5,24T-8,114q0,25 8,65L68,500H212L140,160q-4-15-4-32q0-20 9.5-28.5T177,91q29,0 54,24.5T267,179h42Q272,71 214,32.5T99-6Z" />
      <glyph unicode="&#xef;" glyph-name="idieresis" horiz-adv-x="267" d="M78,573q-26,0-43.5,17.5T17,634q0,25 17.5,43T78,695q25,0 43-18t18-43q0-26-18-43.5T78,573Zm170,0q-26,0-43.5,17.5T187,634q0,25 17.5,43T248,695q25,0 43-18t18-43q0-26-18-43.5T248,573ZM99-6Q51-6 21.5,24T-8,114q0,25 8,65L68,500H212L140,160q-4-15-4-32q0-20 9.5-28.5T177,91q29,0 54,24.5T267,179h42Q272,71 214,32.5T99-6Z" />
      <glyph unicode="&#xf0;" glyph-name="eth" horiz-adv-x="526" d="M568,179Q507,0 367,0q-41,0-66.5,22T269,87Q208-6 120-6Q63-6 25,33T-13,155q0,74 29.5,155.5t88,138T244,505q42,0 63-15t21-42q8,53 8,91q0,34-5,56L210,563l-12,51l117,33q-18,37-46,71l87,32q38-32 63-73l111,31l13-56l-97-26q24-61 24-132q0-45-11-98L408,160q-4-15-4-32q0-20 9.5-28.5T445,91q28,0 48.5,24T526,179h42ZM316,405q0,12-10,25t-31,13q-40,0-72-46.5t-50-112T135,169t14.5-64T185,91q25,0 49.5,23.5T268,179l48,226Z" />
      <glyph unicode="&#xf1;" glyph-name="ntilde" horiz-adv-x="505" d="M328,569q-23,0-44,5t-48,15q-23,8-40.5,12.5T160,606q-37,0-66-26l-6,2q24,48 67,73t100,25q25,0 46-4.5T347,662q43-15 73-15q40,0 63,23l6-1q-5-23-29.5-46.5T400,584t-72-15ZM361-6q-61,0-89.5,32.5T243,107q0,21 5,47.5T258.5,206t7.5,32q8,35 15,69t7,55q0,51-36,51q-26,0-46-25.5T174,321L106,0H-38L68,500H212l-11-52q50,56 117,56q51,0 81-28t30-85q0-29-7-64.5T402,240q-8-31-14.5-60.5T381,133q0-20 9-31t31-11q30,0 48,21.5T505,179h42Q510,69 461.5,31.5T361-6Z" />
      <glyph unicode="&#xf2;" glyph-name="ograve" horiz-adv-x="433" d="M179,750H284l29-189H238L179,750ZM140-4Q66-4 23,34T-20,154q0,68 28,151T98,448.5T254,509q128,0 128-160v-1q3-1 11-1q33,0 76,17.5T547,407l9-27q-29-31-75.5-52.5T379,297q-8-91-41-159T253,33T140-4Zm40,90q24,0 48,27.5t42,75T296,294q-27,6-27,42q0,41 31,54q-2,33-10,45.5T262,448q-33,0-64-48T148,285T129,167q0-48 11-64.5T180,86Z" />
      <glyph unicode="&#xf3;" glyph-name="oacute" horiz-adv-x="439" d="M316,750H421L300,561H225l91,189ZM146-4Q72-4 29,34T-14,154q0,68 28,151t90,143.5T260,509q128,0 128-160v-1q3-1 11-1q33,0 76,17.5T553,407l9-27q-29-31-75.5-52.5T385,297q-8-91-41-159T259,33T146-4Zm40,90q24,0 48,27.5t42,75T302,294q-27,6-27,42q0,41 31,54q-2,33-10,45.5T268,448q-33,0-64-48T154,285T135,167q0-48 11-64.5T186,86Z" />
      <glyph unicode="&#xf4;" glyph-name="ocircumflex" horiz-adv-x="433" d="M307,750h21l60-189H356l-60,80L139,561H95L307,750ZM140-4Q66-4 23,34T-20,154q0,68 28,151T98,448.5T254,509q128,0 128-160v-1q3-1 11-1q33,0 76,17.5T547,407l9-27q-29-31-75.5-52.5T379,297q-8-91-41-159T253,33T140-4Zm40,90q24,0 48,27.5t42,75T296,294q-27,6-27,42q0,41 31,54q-2,33-10,45.5T262,448q-33,0-64-48T148,285T129,167q0-48 11-64.5T180,86Z" />
      <glyph unicode="&#xf5;" glyph-name="otilde" horiz-adv-x="433" d="M280,569q-23,0-44,5t-48,15q-23,8-40.5,12.5T112,606q-37,0-66-26l-6,2q24,48 67,73t100,25q26,0 46.5-4.5T299,662q43-15 73-15q40,0 63,23l6-1q-5-23-29.5-46.5T352,584t-72-15ZM140-4Q66-4 23,34T-20,154q0,68 28,151T98,448.5T254,509q128,0 128-160v-1q3-1 11-1q33,0 76,17.5T547,407l9-27q-29-31-75.5-52.5T379,297q-8-91-41-159T253,33T140-4Zm40,90q24,0 48,27.5t42,75T296,294q-27,6-27,42q0,41 31,54q-2,33-10,45.5T262,448q-33,0-64-48T148,285T129,167q0-48 11-64.5T180,86Z" />
      <glyph unicode="&#xf6;" glyph-name="odieresis" horiz-adv-x="433" d="M166,573q-26,0-43.5,17.5T105,634q0,25 17.5,43T166,695q25,0 43-18t18-43q0-26-18-43.5T166,573Zm180,0q-26,0-43.5,17.5T285,634q0,25 17.5,43T346,695q25,0 43-18t18-43q0-26-18-43.5T346,573ZM140-4Q66-4 23,34T-20,154q0,68 28,151T98,448.5T254,509q128,0 128-160v-1q3-1 11-1q33,0 76,17.5T547,407l9-27q-29-31-75.5-52.5T379,297q-8-91-41-159T253,33T140-4Zm40,90q24,0 48,27.5t42,75T296,294q-27,6-27,42q0,41 31,54q-2,33-10,45.5T262,448q-33,0-64-48T148,285T129,167q0-48 11-64.5T180,86Z" />
      <glyph unicode="&#xf7;" glyph-name="divide" horiz-adv-x="415" d="M256,439q-33,0-56,23t-23,56t23,56.5T256,598t56.5-23.5T336,518t-23.5-56T256,439ZM57,380H407l-17-79H39l18,79ZM196,84q-33,0-56,23t-23,56t23,56.5T196,243t56.5-23.5T276,163t-23.5-56T196,84Z" />
      <glyph unicode="&#xf8;" glyph-name="oslash" horiz-adv-x="428" d="M385,396q4-24 4-59q0-96-34-174.5T262,39T132-6Q89-6 54,13L-9-60H-71L20,45Q-13,90-13,171q0,90 37,166.5t100,122T261,505q78,0 107-57l45,52h62L385,396ZM271,450q-30,0-60.5-40.5T159,306T136,180L309,379q-1,34-11,52.5T271,450ZM175,88q26,0 52.5,29.5t47,78.5T304,302L142,115q9-27 33-27Z" />
      <glyph unicode="&#xf9;" glyph-name="ugrave" horiz-adv-x="505" d="M185,750H290l29-189H244L185,750ZM99-6Q51-6 21.5,24T-8,114q0,25 8,65L68,500H212L140,160q-3-15-3-28q0-41 30-41q28,0 48,23.5T247,179l68,321H459L387,160q-4-15-4-32q0-20 9.5-28.5T424,91q28,0 48.5,24T505,179h42Q510,71 455.5,32.5T346-6q-43,0-68.5,24T247,89q-34-55-71.5-75T99-6Z" />
      <glyph unicode="&#xfa;" glyph-name="uacute" horiz-adv-x="505" d="M330,750H435L314,561H239l91,189ZM99-6Q51-6 21.5,24T-8,114q0,25 8,65L68,500H212L140,160q-3-15-3-28q0-41 30-41q28,0 48,23.5T247,179l68,321H459L387,160q-4-15-4-32q0-20 9.5-28.5T424,91q28,0 48.5,24T505,179h42Q510,71 455.5,32.5T346-6q-43,0-68.5,24T247,89q-34-55-71.5-75T99-6Z" />
      <glyph unicode="&#xfb;" glyph-name="ucircumflex" horiz-adv-x="505" d="M338,750h21l60-189H387l-60,80L170,561H126L338,750ZM99-6Q51-6 21.5,24T-8,114q0,25 8,65L68,500H212L140,160q-3-15-3-28q0-41 30-41q28,0 48,23.5T247,179l68,321H459L387,160q-4-15-4-32q0-20 9.5-28.5T424,91q28,0 48.5,24T505,179h42Q510,71 455.5,32.5T346-6q-43,0-68.5,24T247,89q-34-55-71.5-75T99-6Z" />
      <glyph unicode="&#xfc;" glyph-name="udieresis" horiz-adv-x="505" d="M197,573q-26,0-43.5,17.5T136,634q0,25 17.5,43T197,695q25,0 43-18t18-43q0-26-18-43.5T197,573Zm180,0q-26,0-43.5,17.5T316,634q0,25 17.5,43T377,695q25,0 43-18t18-43q0-26-18-43.5T377,573ZM99-6Q51-6 21.5,24T-8,114q0,25 8,65L68,500H212L140,160q-3-15-3-28q0-41 30-41q28,0 48,23.5T247,179l68,321H459L387,160q-4-15-4-32q0-20 9.5-28.5T424,91q28,0 48.5,24T505,179h42Q510,71 455.5,32.5T346-6q-43,0-68.5,24T247,89q-34-55-71.5-75T99-6Z" />
      <glyph unicode="&#xfd;" glyph-name="yacute" horiz-adv-x="505" d="M329,750H434L313,561H238l91,189ZM156-250q-48,0-80,25T44-153q0,57 46,91.5T207-4l12,54Q190,18 160,6T99-6Q51-6 21.5,24T-8,114q0,25 8,65L68,500H212L140,160q-3-12-3-25q0-44 30-44q26,0 46,22.5T245,173l70,327H459L360,36q48,16 77,48t49,95h42Q501,90 455,48.5T351-8L336-80q-20-97-69-133.5T156-250Zm-23,78q17,0 33,23t25,66l6,29Q99-90 99-139q0-13 9-23t25-10Z" />
      <glyph unicode="&#xfe;" glyph-name="thorn" horiz-adv-x="473" d="M118,732l148,20L200,462h4q49,43 117,43q63,0 92.5-41T443,336q0-96-32.5-174.5T322,38.5T196-6q-31,0-53,9.5T112,30L60-214L-91-250L118,732ZM161,60q36,0 69.5,40.5T285,206t21,134q0,93-49,93q-20,0-38-12.5T187,384L123,83q3-10 13.5-16.5T161,60Z" />
      <glyph unicode="&#xff;" glyph-name="ydieresis" horiz-adv-x="505" d="M184,573q-26,0-43.5,17.5T123,634q0,25 17.5,43T184,695q25,0 43-18t18-43q0-26-18-43.5T184,573Zm180,0q-26,0-43.5,17.5T303,634q0,25 17.5,43T364,695q25,0 43-18t18-43q0-26-18-43.5T364,573ZM156-250q-48,0-80,25T44-153q0,57 46,91.5T207-4l12,54Q190,18 160,6T99-6Q51-6 21.5,24T-8,114q0,25 8,65L68,500H212L140,160q-3-12-3-25q0-44 30-44q26,0 46,22.5T245,173l70,327H459L360,36q48,16 77,48t49,95h42Q501,90 455,48.5T351-8L336-80q-20-97-69-133.5T156-250Zm-23,78q17,0 33,23t25,66l6,29Q99-90 99-139q0-13 9-23t25-10Z" />
      <glyph unicode="&#x2013;" glyph-name="endash" horiz-adv-x="352" d="M37,301H297l-17-79H19l18,79Z" />
      <glyph unicode="&#x2014;" glyph-name="emdash" horiz-adv-x="444" d="M37,301H387l-17-79H19l18,79Z" />
      <glyph unicode="&#x2018;" glyph-name="quoteleft" horiz-adv-x="209" d="M163,514q-31,0-50.5,19.5T93,584q0,39 32.5,85.5T212,752l15-15q-21-22-33-41t-12-31q0-7 4.5-13T200,639q14-11 22-23t8-32q0-31-19-50.5T163,514Z" />
      <glyph unicode="&#x2019;" glyph-name="quoteright" horiz-adv-x="238" d="M96,529q21,22 33,41t12,31q0,7-4.5,13T123,627q-14,11-22,23t-8,32q0,31 19,50.5T160,752q31,0 50.5-19.5T230,682q0-39-32.5-85.5T111,514L96,529Z" />
      <glyph unicode="&#x201a;" glyph-name="quotesinglbase" horiz-adv-x="220" d="M-7-77Q14-55 26-36T38-5q0,7-4.5,13T20,21Q6,32-2,44t-8,32q0,31 19,50.5T57,146q31,0 50.5-19.5T127,76q0-39-32.5-85.5T8-92L-7-77Z" />
      <glyph unicode="&#x201c;" glyph-name="quotedblleft" horiz-adv-x="429" d="M163,514q-31,0-50.5,19.5T93,584q0,39 32.5,85.5T212,752l15-15q-21-22-33-41t-12-31q0-7 4.5-13T200,639q14-11 22-23t8-32q0-31-19-50.5T163,514Zm194,0q-31,0-50.5,19.5T287,584q0,39 32.5,85.5T406,752l15-15q-21-22-33-41t-12-31q0-7 4.5-13T394,639q14-11 22-23t8-32q0-31-19-50.5T357,514Z" />
      <glyph unicode="&#x201d;" glyph-name="quotedblright" horiz-adv-x="426" d="M112,529q21,22 33,41t12,31q0,7-4.5,13T139,627q-14,11-22,23t-8,32q0,31 19,50.5T176,752q31,0 50.5-19.5T246,682q0-39-32.5-85.5T127,514l-15,15Zm194,0q21,22 33,41t12,31q0,7-4.5,13T333,627q-14,11-22,23t-8,32q0,31 19,50.5T370,752q31,0 50.5-19.5T440,682q0-39-32.5-85.5T321,514l-15,15Z" />
      <glyph unicode="&#x201e;" glyph-name="quotedblbase" horiz-adv-x="440" d="M-7-77Q14-55 26-36T38-5q0,7-4.5,13T20,21Q6,32-2,44t-8,32q0,31 19,50.5T57,146q31,0 50.5-19.5T127,76q0-39-32.5-85.5T8-92L-7-77Zm194,0q21,22 33,41T232-5q0,7-4.5,13T214,21q-14,11-22,23t-8,32q0,31 19,50.5T251,146q31,0 50.5-19.5T321,76q0-39-32.5-85.5T202-92L187-77Z" />
      <glyph unicode="&#x2022;" glyph-name="bullet" horiz-adv-x="434" d="M216,171q-40,0-68,28t-28,68t28,68.5T216,364t68.5-28.5T313,267t-28.5-68T216,171Z" />
      <glyph unicode="&#x2039;" glyph-name="guilsinglleft" horiz-adv-x="359" d="M20,238l9,41L336,449l-10-55L85,254L279,138L267,81L20,238Z" />
      <glyph unicode="&#x203a;" glyph-name="guilsinglright" horiz-adv-x="344" d="M29,138L269,254L75,394l9,55L330,279l-11-54L15,81l14,57Z" />
    </font>
</defs>
</svg>
