<svg width="211" height="176" viewBox="0 0 211 176" fill="none" xmlns="http://www.w3.org/2000/svg">
<g clip-path="url(#clip0_2246_27)">
<path d="M194.924 59.7863V53.7413H194.229C189.465 53.7413 185.623 52.2964 182.827 49.4535C177.594 44.1349 177.672 35.5906 177.672 35.5047V34.794H171.236C170.682 13.449 144.479 7.72419 128.937 7.72419C113.395 7.72419 105.811 0.562327 105.733 0.492036L105.241 0L104.749 0.492036C104.679 0.562327 97.2826 7.732 81.5609 7.732C65.8391 7.732 39.8159 13.4568 39.2614 34.8018H32.8102L32.818 35.5125C32.818 35.5984 32.8961 44.1349 27.6634 49.4614C24.8595 52.312 21.0248 53.7491 16.2606 53.7491H15.5655V59.7941C13.16 61.2234 0 69.8457 0 87.9417C0 106.038 13.1522 114.66 15.5655 116.089V122.134H16.2606C21.0248 122.134 24.8674 123.579 27.6634 126.422C32.8961 131.741 32.818 140.285 32.818 140.371V141.082H39.2536C39.8081 162.427 66.011 168.151 81.5531 168.151C97.0952 168.151 104.671 175.321 104.741 175.391L105.233 175.883L105.725 175.391C105.796 175.321 113.192 168.151 128.913 168.151C144.635 168.151 170.658 162.427 171.213 141.082H177.664L177.656 140.371C177.656 140.285 177.578 131.749 182.811 126.422C185.615 123.571 189.45 122.134 194.214 122.134H194.909V116.089C197.314 114.66 210.474 106.038 210.474 87.9417C210.474 69.8457 197.322 61.2234 194.909 59.7941L194.924 59.7863ZM193.901 115.058L193.526 115.254V120.744C188.684 120.885 184.748 122.462 181.819 125.446C177.032 130.319 176.368 137.411 176.282 139.676H169.838V140.371C169.838 161.185 144.12 166.738 128.921 166.738C114.707 166.738 107.17 172.283 105.241 173.939C103.312 172.291 95.7674 166.738 81.5609 166.738C66.3624 166.738 40.6438 161.185 40.6438 140.371V139.676H34.2004C34.1145 137.411 33.4585 130.319 28.6631 125.446C25.7265 122.462 21.7902 120.877 16.9557 120.744V115.254L16.5808 115.058C16.4324 114.98 1.3902 106.881 1.3902 87.9339C1.3902 68.9866 16.4246 60.8875 16.5808 60.8094L16.9557 60.6142V55.1237C21.798 54.9831 25.7343 53.4055 28.6631 50.422C33.4507 45.5485 34.1145 38.4491 34.2004 36.192H40.6438V35.4969C40.6438 14.683 66.3624 9.13 81.5609 9.13C95.7753 9.13 103.312 3.58484 105.241 1.92909C107.17 3.57703 114.715 9.13 128.921 9.13C144.12 9.13 169.838 14.683 169.838 35.4969V36.192H176.282C176.368 38.4569 177.024 45.5485 181.819 50.422C184.756 53.4055 188.692 54.9909 193.526 55.1237V60.6142L193.901 60.8094C194.05 60.8875 209.092 68.9866 209.092 87.9339C209.092 106.881 194.058 114.98 193.901 115.058Z" fill="white"/>
<path d="M191.293 65.8155L187.888 64.0348V60.0438L187.614 59.9735C183.764 58.9738 180.46 57.0916 177.797 54.3815C173.931 50.4452 172.189 45.5405 171.416 42.1196L171.354 41.8385H164.208V35.5045C164.208 15.0108 130.366 14.7765 128.929 14.7765C117.628 14.7765 109.912 11.5978 105.429 8.93454L105.241 8.8252L105.054 8.93454C100.571 11.5978 92.8545 14.7765 81.5533 14.7765C80.1162 14.7765 46.275 15.0108 46.275 35.5045V41.8385H39.1288L39.0663 42.1196C38.2931 45.5405 36.5515 50.4452 32.6855 54.3815C30.0144 57.0994 26.7107 58.9817 22.8682 59.9735L22.5948 60.0438L22.6417 64.0114L19.2365 65.7921C18.7366 66.0654 7.03711 72.6181 7.03711 87.9415C7.03711 103.265 18.6898 109.794 19.1974 110.068L22.6026 111.84V115.831L22.876 115.902C26.7264 116.901 30.03 118.784 32.7011 121.494C36.5671 125.43 38.3087 130.335 39.0819 133.756L39.1444 134.037H46.2907V140.371C46.2907 160.864 80.1318 161.099 81.5689 161.099C92.8701 161.099 100.586 164.277 105.069 166.941L105.257 167.05L105.444 166.941C109.927 164.277 117.644 161.099 128.945 161.099C130.382 161.099 164.223 160.864 164.223 140.371V134.037H171.369L171.432 133.756C172.205 130.335 173.947 125.43 177.813 121.494C180.476 118.776 183.78 116.894 187.63 115.902L187.903 115.831L187.857 111.864L191.262 110.083C191.762 109.81 203.461 103.265 203.461 87.9337C203.461 72.6025 191.808 66.081 191.301 65.8077L191.293 65.8155ZM190.91 109.443L187.115 111.426L187.161 115.277C183.303 116.323 179.976 118.245 177.282 120.994C174.181 124.149 171.94 128.406 170.776 133.318H163.481V140.379C163.481 160.154 130.335 160.38 128.929 160.38C117.62 160.38 109.834 163.528 105.249 166.214C100.665 163.528 92.8779 160.38 81.5611 160.38C80.1474 160.38 47.0092 160.154 47.0092 140.379V133.318H39.7146C38.5509 128.398 36.3016 124.141 33.2088 120.994C30.5143 118.245 27.1872 116.323 23.3212 115.277V111.403L19.5333 109.427C19.049 109.162 7.75564 102.828 7.75564 87.9415C7.75564 73.0555 19.0959 66.6902 19.5723 66.4325L23.368 64.4487L23.3212 60.5983C27.1794 59.5518 30.5065 57.6305 33.2009 54.8813C36.3015 51.7261 38.5431 47.4696 39.7068 42.557H47.0014V35.4967C47.0014 15.7215 80.1474 15.495 81.5533 15.495C92.8623 15.495 100.649 12.3475 105.233 9.66088C109.818 12.3475 117.605 15.495 128.914 15.495C130.327 15.495 163.466 15.7215 163.466 35.4967V42.557H170.76C171.924 47.4774 174.173 51.7339 177.266 54.8813C179.961 57.6305 183.288 59.5518 187.154 60.5983V64.4722L190.942 66.4481C191.426 66.7136 202.711 73.0398 202.711 87.9337C202.711 102.828 191.371 109.185 190.895 109.443H190.91Z" fill="white"/>
<path d="M130.499 76.9214H79.9834V78.2022H130.499V76.9214Z" fill="white"/>
<path d="M26.2885 91.2844C25.2263 91.2844 24.3672 92.1435 24.3672 93.2057C24.3672 94.2679 25.2263 95.127 26.2885 95.127C27.3506 95.127 28.2098 94.2679 28.2098 93.2057C28.2098 92.1435 27.3506 91.2844 26.2885 91.2844Z" fill="white"/>
<path d="M186.06 91.2844C184.998 91.2844 184.139 92.1435 184.139 93.2057C184.139 94.2679 184.998 95.1348 186.06 95.1348C187.122 95.1348 187.981 94.2757 187.981 93.2057C187.981 92.1357 187.122 91.2844 186.06 91.2844Z" fill="white"/>
<path d="M90.5898 31.7166C90.8397 31.7713 91.1053 31.8025 91.3865 31.8025C92.3549 31.8025 93.3702 31.4667 94.2606 31.1699C94.409 31.123 94.5574 31.0684 94.7058 31.0215C95.026 30.92 95.1353 30.6232 95.0963 30.3733C95.0494 30.0843 94.8385 29.8891 94.573 29.8891C94.5105 29.8891 94.448 29.8969 94.3777 29.9203C94.284 29.9515 94.1669 29.9984 94.0341 30.0453C93.2453 30.342 91.9332 30.8263 90.9569 30.8263C90.3399 30.8263 89.9806 30.6388 89.8401 30.2483C89.6917 29.8109 89.7229 29.4361 89.9416 29.0924C90.4805 28.2489 91.9566 27.8819 92.7454 27.7959C93.1984 27.7491 93.6826 27.7257 94.1669 27.7257C97.0488 27.7257 99.9854 28.5691 102.813 29.3814C103.359 29.5376 103.906 29.6938 104.445 29.8422C105.609 30.1624 106.843 30.4982 108.1 30.7716C107.054 31.3027 106.046 31.826 105.171 32.2946C103.523 31.5292 101.875 30.8341 99.8057 30.7404C99.6183 30.7404 99.4777 30.8185 99.3996 30.959C99.3137 31.1152 99.3137 31.3105 99.3996 31.4667C99.4855 31.6073 99.6261 31.6932 99.7979 31.6932H99.8292C101.36 31.6932 102.758 32.1071 104.351 32.7319L103.836 33.0053C103.258 33.3177 102.672 33.6223 102.094 33.9347C100.735 33.6379 99.5246 33.4895 98.4077 33.4895C96.7598 33.4895 95.2681 33.8019 93.8466 34.4423C92.8938 34.8719 92.3159 35.5904 92.3783 36.2777C92.4096 36.6135 92.6283 37.2227 93.7763 37.5195C94.2059 37.6289 94.6745 37.6835 95.1509 37.6835C97.5018 37.6835 99.9619 36.3636 101.946 35.3015L102.367 35.075C102.485 35.0125 102.594 34.95 102.703 34.8875L102.828 34.8172C103.422 34.9969 104.015 35.1999 104.593 35.3952L104.96 35.5201C105.64 35.7466 106.335 36.0044 107.014 36.2543C108.78 36.9025 110.615 37.5742 112.482 37.8866C112.958 37.9647 114.161 38.0897 115.387 38.0897C117.503 38.0897 118.776 37.7382 119.167 37.0353C119.386 36.6448 119.323 36.1606 118.987 35.606C118.363 34.5829 116.847 34.3096 115.996 34.2471C115.887 34.2393 115.715 34.2315 115.504 34.2315C115.051 34.2315 114.418 34.2783 113.958 34.497C113.84 34.5204 113.692 34.5907 113.559 34.7782L113.528 34.825L113.481 34.8953C113.364 35.0906 113.372 35.3093 113.481 35.5045C113.591 35.6998 113.794 35.8247 113.997 35.8247C114.106 35.8247 114.215 35.7935 114.309 35.7232L114.348 35.692L114.426 35.6373C114.606 35.5201 114.676 35.3717 114.707 35.2546C114.918 35.1452 115.348 35.0828 115.965 35.0593H115.996C116.035 35.0593 116.082 35.0593 116.121 35.0593C116.832 35.0593 117.503 35.2858 117.964 35.6841C118.136 35.8325 118.339 36.0512 118.284 36.2309C118.222 36.473 117.738 36.6916 117.004 36.8244C116.48 36.9181 115.895 36.965 115.262 36.965C114.333 36.965 113.278 36.8635 112.029 36.6526C110.248 36.3558 108.405 35.7701 106.624 35.2077C105.671 34.9031 104.687 34.5985 103.711 34.3252C104.367 33.9503 105.007 33.5676 105.585 33.2318H105.609L106.069 33.4348C107.061 33.8488 108.131 34.1377 109.35 34.3174C109.623 34.3564 109.92 34.3799 110.287 34.3799C110.42 34.3799 110.552 34.3799 110.685 34.3799C110.787 34.3799 110.904 34.3564 111.029 34.333C111.162 34.3096 111.302 34.2783 111.412 34.2783C111.466 34.2783 111.497 34.2783 111.513 34.2939C111.607 34.3252 111.701 34.3486 111.779 34.3486C112.044 34.3486 112.216 34.1612 112.216 33.8722C112.216 33.5207 111.966 33.1068 111.646 33.1068C111.529 33.1068 111.357 33.1615 111.208 33.4114C111.13 33.4348 110.943 33.4661 110.857 33.4895C110.795 33.5051 110.74 33.5129 110.724 33.5129C110.42 33.591 110.076 33.6301 109.701 33.6301C109.389 33.6301 109.053 33.6067 108.678 33.552C107.85 33.4348 107.038 33.1302 106.319 32.8178C107.311 32.2243 108.334 31.6151 109.365 31.0371C110.435 31.2324 111.443 31.3573 112.427 31.4198C113.364 31.4823 114.192 31.5057 114.965 31.5057C116.16 31.5057 117.23 31.4355 118.238 31.2949C119.081 31.1777 121.08 30.7247 121.338 29.1783C121.432 28.616 121.338 28.163 121.057 27.8272C120.698 27.3976 120.026 27.1868 119.081 27.1868C116.566 27.1868 112.575 28.7019 111.724 29.0768C111.099 29.3502 110.474 29.6547 109.865 29.9437C108.248 29.6938 106.632 29.3033 105.07 28.9206C104.586 28.8034 104.093 28.6785 103.601 28.5691C101.594 28.1005 99.5871 27.7257 97.6189 27.4601C96.3381 27.2883 95.1822 27.1477 94.0185 27.1477C93.4093 27.1477 92.8626 27.1868 92.3393 27.2649C91.3865 27.4054 90.0587 27.7413 89.4574 28.9518C89.1293 29.6157 89.0825 30.2639 89.3246 30.7872C89.5511 31.2636 89.9963 31.5995 90.6211 31.74L90.5898 31.7166ZM97.1894 36.0981C96.3927 36.3558 95.5492 36.4886 94.6745 36.4886H94.6355C94.2137 36.4886 93.7842 36.4417 93.3937 36.348C93.2375 36.309 93.0422 36.2387 93.0188 36.1137C92.9719 35.8482 93.503 35.3483 93.8935 35.075C94.862 34.3955 96.2756 34.0675 98.2125 34.0675C98.5093 34.0675 98.7982 34.0675 99.0794 34.0831C99.7433 34.1065 100.431 34.2002 101.212 34.3799C99.6964 35.1531 98.4077 35.6998 97.1894 36.0903V36.0981ZM111.997 29.6469C113.989 28.7175 116.34 27.7647 118.636 27.7647C119.019 27.7647 119.401 27.7959 119.761 27.8428C120.26 27.9209 120.612 28.1943 120.682 28.5691C120.745 28.9284 120.534 29.2877 120.128 29.522C119.479 29.8891 118.581 30.0062 117.792 30.0999L117.613 30.1234C116.808 30.2249 115.949 30.2796 114.989 30.2796C113.895 30.2796 112.817 30.2171 111.818 30.1468C111.591 30.1312 111.365 30.1077 111.107 30.0843C111.427 29.9203 111.716 29.7797 112.005 29.6469H111.997Z" fill="white"/>
<path d="M130.452 125.781C130.523 123.36 129.414 120.838 127.875 119.572C127.422 117.526 125.751 116.198 123.439 117.089C121.674 115.933 119.963 116.683 119.463 117.675C119.214 118.167 119.018 117.878 118.104 117.526C117.191 117.175 113.231 115.792 113.231 115.792C113.231 115.792 111.224 114.941 108.295 116.417C105.249 117.948 104.406 118.245 104.406 118.245C104.406 118.245 102.422 119.205 98.548 118.745C93.0497 118.112 90.2459 118.174 88.3714 119.315C86.622 120.385 84.4039 122.079 84.4039 122.079C82.2874 123.891 81.6469 124.532 80.8269 126.492C79.6319 129.343 79.4289 130.546 79.8975 133.654C80.1474 135.349 80.3739 136.536 80.3739 136.536C80.7332 138.738 80.4989 138.91 79.6866 140.48C79.093 141.636 78.9134 142.667 79.2649 144.299C79.5226 145.393 79.7569 146.111 80.1084 147.439C80.4832 148.852 82.0999 150.516 84.0447 150.508C84.5835 150.508 84.8335 150.508 84.9506 150.516C84.9506 150.516 85.1303 150.493 85.9972 150.454C89.543 150.313 91.5502 147.126 88.4261 145.408C87.3796 144.83 87.2077 144.627 87.8794 144.112C88.2777 143.799 88.5042 143.635 88.9963 143.385C89.9491 142.893 89.8476 143.19 90.1834 143.706C90.4255 144.073 92.4015 147.861 92.4015 147.861C93.3621 150.024 95.0959 150.211 96.2987 150.18C97.5015 150.149 99.2587 150.086 99.2587 150.086C101.367 150.032 103.999 147.259 99.4618 144.44C98.4855 143.885 98.6105 143.635 98.8995 143.104C99.1884 142.565 99.8523 141.027 100.087 140.402C100.415 139.535 101.852 139.371 102.539 139.223C103.265 139.051 103.445 139.301 103.414 140.129C103.39 140.855 103.515 144.112 103.515 144.112C103.804 146.447 104.265 149.61 108.639 149.829C110.154 149.907 110.974 149.829 112.333 149.743C114.403 149.602 117.753 146.111 112.348 143.917C111.185 143.346 111.646 142.667 111.895 142.089C112.325 141.097 112.528 141.152 113.286 141.355C113.903 141.511 114.598 141.659 116.269 142.276C117.792 142.831 117.503 143.143 117.542 144.245C117.612 146.002 121.127 147.665 123.462 143.815C125.462 140.519 123.548 138.512 122.627 137.661C121.846 136.942 119.69 134.818 119.073 134.224C118.448 133.638 118.347 133.388 119.135 133.014C120.533 132.381 121.143 132.857 122.947 133.717C124.376 135.614 125.43 135.81 127.352 134.396C130.374 134.716 131.819 134.435 131.296 131.483C130.772 128.609 130.39 127.492 130.452 125.789V125.781ZM126.289 119.713L125.141 120.088C125.141 120.088 124.735 118.987 124.267 118.338C125.352 118.01 125.907 118.518 126.289 119.713ZM99.4696 146.369C100.649 147.33 99.7195 148.321 99.0635 148.423C97.9701 148.595 96.4549 148.587 95.9082 148.509C94.8538 148.353 94.5961 147.775 94.2212 147.361C93.8619 146.962 92.05 143.284 91.8391 142.854C91.5111 142.167 91.308 141.987 91.9094 141.394C92.3936 140.91 93.8541 138.965 94.0103 138.676C94.2212 138.285 94.3774 138.059 95.3459 138.488C95.8145 138.692 96.4783 138.934 97.3296 139.441C98.384 140.058 98.2434 140.175 98.1028 140.722C97.9232 141.37 97.5015 142.347 97.0172 143.159C96.7048 143.69 96.6658 144.416 97.2125 144.807C98.0325 145.393 98.4387 145.525 99.4696 146.353V146.369ZM121.666 139.269C122.502 140.449 122.619 141.183 122.197 142.315C121.994 142.847 121.627 143.487 120.838 144.104C120.057 144.729 119.12 144.166 119.174 143.346C119.214 142.8 119.018 141.753 118.401 141.308C117.792 140.878 114.043 139.746 113.793 139.676C113.434 139.574 113.012 139.551 113.122 138.996C113.239 138.418 113.864 136.622 114.66 135.443C114.895 135.099 115.012 135.091 115.996 134.607C116.636 134.294 117.167 134.904 117.206 134.927C117.206 134.927 120.877 138.168 121.666 139.277V139.269ZM128.578 132.811C126.36 132.764 126.321 131.311 125.485 130.077C124.743 128.976 123.759 129.772 124.282 130.71C124.282 130.71 125.423 132.389 125.649 133.334C125.758 133.787 125.087 133.904 124.727 133.552C124.368 133.217 124.259 132.811 123.946 132.522C123.743 132.428 121.283 131.366 120.651 131.202C119.948 131.014 119.198 131.139 118.698 131.366C118.698 131.366 117.3 132.154 116.87 132.397C116.324 132.709 115.676 133.1 115.605 132.037C115.527 130.788 114.363 130.663 114.043 131.522C114.043 131.522 110.232 141.261 109.904 142.425C109.545 143.737 110.216 144.651 110.701 144.846C111.817 145.283 112.856 146.01 112.856 146.01C114.082 146.884 112.809 147.853 112.263 147.97C111.708 148.087 111.114 148.243 108.35 148.173C105.796 148.103 105.312 145.01 105.28 144.049C105.241 142.448 105.483 135.115 105.538 132.693C105.577 130.592 103.906 131.491 103.812 132.139C103.648 133.349 103.586 134.404 103.507 135.771C103.398 137.473 103.297 137.262 102.648 137.497C102.281 137.629 101.945 137.684 101.157 137.903C100.368 138.121 98.9073 138.239 98.3449 138.02C97.5249 137.723 96.3143 137.122 95.7598 136.786C95.2365 136.473 95.01 136.169 95.0256 135.583C95.0256 135.224 95.0256 133.576 94.7445 132.584C94.4633 131.584 92.7451 131.085 93.0263 132.92C93.1668 133.818 93.2137 134.201 93.2371 135.279C93.2684 136.442 92.9482 138.387 89.1525 141.386C88.5667 141.839 86.1221 143.432 85.8254 143.69C85.1303 144.315 84.646 145.393 86.2159 145.955C88.9416 146.931 88.9572 148.946 84.9897 148.899C81.7719 148.86 81.7953 147.251 81.2096 145.291C80.5145 142.948 80.9206 141.894 81.4439 141.011C82.1858 139.793 82.5295 138.824 81.9125 135.232C81.0065 129.874 81.5064 129.366 82.9825 126.016C83.701 124.368 87.8638 121.58 89.0197 120.892C90.6051 119.947 93.6745 119.838 96.8845 120.182C102.922 120.83 103.156 120.283 104.335 119.971C105.179 119.744 108.131 118.448 109.568 117.76C110.888 117.128 111.411 117.143 112.419 117.37C113.989 117.721 117.378 119.049 117.886 119.237C118.393 119.424 118.604 119.611 118.667 120.424C118.745 121.33 119.456 121.658 119.979 120.892C120.213 120.564 120.213 120.228 120.736 119.065C121.432 117.518 122.759 118.471 123.095 118.955C123.454 119.479 123.876 120.549 124.118 121.181C124.337 121.759 124.446 122.189 125.579 121.751C127.102 121.166 127.828 121.447 128.445 123.517C129.054 125.547 128.781 126 128.726 126.82C128.695 127.429 128.726 127.593 128.906 128.538C128.976 128.968 129.257 130.241 129.445 131.194C129.617 132.139 129.812 132.842 128.586 132.826L128.578 132.811Z" fill="white"/>
<path d="M126.157 125.602C125.602 125.157 124.962 125.055 124.728 125.352C124.501 125.649 124.814 126.359 125.376 126.789C125.93 127.226 126.501 127.453 126.665 127.125C126.954 126.562 126.719 126.039 126.157 125.602Z" fill="white"/>
<path d="M61.8167 90.3316C62.1213 88.9024 62.1213 87.5668 61.7542 86.4344C60.9342 84.1226 58.7083 82.7871 56.006 82.4825C54.0613 82.3028 52.1712 82.6309 50.4062 83.5134C47.2431 85.1223 46.6339 88.4416 48.1256 91.1517C48.6723 92.1592 49.7345 93.3151 50.742 94.1351C51.7495 94.8615 52.4446 95.3535 53.6317 96.2048C54.7251 97.0874 56.0685 98.4229 55.4905 100.008C55.0376 101.438 54.03 102.414 52.9366 102.867C50.8357 103.874 48.3131 103.351 47.8288 101.922C47.3993 100.735 48.3755 99.2117 50.7186 98.3292L47.9225 95.4707C45.642 96.5953 44.6345 99.1805 44.9703 101.43C46.1262 108.795 62.465 106.452 60.5202 96.9546C60.2781 95.7675 59.6065 94.8849 58.7239 94.1586C57.8726 93.3385 56.748 92.6356 55.678 91.9093C54.7017 91.3001 53.6708 90.48 53.1866 89.8708C52.6398 89.1679 52.5461 89.0508 52.429 88.1057C52.3118 87.1607 52.9444 85.8252 53.8582 85.216C54.7095 84.6381 55.717 84.3647 56.5683 84.4272C58.8801 84.763 58.2397 87.192 57.7242 88.5041L61.8323 90.3316H61.8167Z" fill="white"/>
<path d="M87.9188 103.312C89.6058 106.436 94.4012 106.131 96.9551 102.32C97.2597 106.506 101.735 106.225 104.703 103.195C105.624 106.709 110.162 105.967 112.911 102.632L112.927 105.296H117.004L121.963 94.8927L122.111 105.296H126.095L133.514 90.0816H131.077L126.087 100.453L125.845 90.0816H121.947L116.894 100.485L116.801 90.0816H110.927L111.872 85.2784L107.553 86.1297L106.733 90.0816H105.273L104.515 91.9404H106.343L104.734 99.8521C104.593 100.555 104.531 101.18 104.523 101.742C102.899 103.741 100.321 104.78 100.868 101.984C101.602 98.4228 103.336 89.574 104.429 84.0054H100.29L98.8295 91.1829C98.6811 91.0032 98.5561 90.847 98.4312 90.7299C95.8148 88.5665 88.114 90.7299 87.3252 99.9458C87.2549 100.789 87.3174 101.531 87.4736 102.187C85.8335 103.913 83.5451 104.671 84.0372 102.109C84.7401 98.6103 85.3727 95.9002 86.3177 91.2453L86.5598 90.0894H78.8591C73.4154 90.2691 71.0099 95.1738 70.5804 100.071C70.5804 100.133 70.5804 100.188 70.5726 100.243C69.3854 103.109 65.3398 105.499 66.0193 102.047L68.0577 91.9482H69.9712L70.8537 90.0894H68.3857L69.3307 85.2862L65.0118 86.1375L64.1917 90.0894H62.7312L61.9736 91.9482H63.8012L62.1923 99.8599C60.7006 107.186 67.386 106.764 70.7131 102.187C71.7206 106.506 77.383 106.655 80.2024 102.445C80.507 106.491 84.9353 106.225 87.9032 103.312H87.9188ZM108.577 102.047L110.615 91.9482H112.528L112.841 91.2922L112.895 100.727C111.49 103.367 107.936 105.304 108.577 102.047ZM92.0269 97.6028C93.0344 92.6433 96.6505 89.3865 98.5093 92.7371L97.1425 99.7974C97.1113 99.9458 97.08 100.164 97.08 100.313C92.8548 106.03 90.8163 103.14 92.0269 97.6028ZM75.2664 97.7277C76.3286 92.7995 79.9212 89.5115 81.78 92.8933L80.3196 100.438C76.1177 106.1 74.1105 103.234 75.2664 97.7277Z" fill="white"/>
<path d="M135.739 87.7153C136.192 88.1683 136.77 88.387 137.442 88.387C138.113 88.387 138.691 88.1761 139.175 87.7153C139.66 87.2623 139.933 86.7078 139.933 86.0127C139.933 85.3176 139.691 84.7943 139.199 84.3101C138.746 83.8571 138.223 83.6072 137.528 83.6072C136.832 83.6072 136.278 83.8493 135.794 84.3101C135.341 84.7943 135.122 85.341 135.091 86.0127C135.091 86.7156 135.302 87.2623 135.731 87.7153H135.739Z" fill="white"/>
<path d="M146.814 93.4007L147.455 90.0814H143.284L141.16 100.586C139.754 103.265 135.943 105.319 136.591 101.953C137.294 98.3601 137.989 95.2283 138.965 90.0892H134.763L132.756 99.7347C131.374 106.631 137.13 106.787 140.652 103.109L140.207 105.303H144.495L146.197 96.5091C147.752 93.9865 150.001 91.6434 152.461 93.4398L155.288 91.0967C151.305 88.7225 148.72 90.2142 146.799 93.4085L146.814 93.4007Z" fill="white"/>
<path d="M159.927 102.047L161.966 91.9484H163.879L164.762 90.0896H162.294L163.239 85.2864L158.92 86.1377L158.1 90.0896H156.639L155.882 91.9484H157.709L156.101 99.86C154.398 108.225 163.372 106.491 165.808 99.985H164.59C163.559 102.968 159.232 105.616 159.935 102.055L159.927 102.047Z" fill="white"/>
<path d="M62.1215 66.1514C62.8791 65.2611 63.2618 64.0817 63.2618 62.6134C63.2618 61.4497 63.0353 60.5594 62.5823 59.9424C62.1293 59.3254 61.4264 58.9271 60.458 58.7474C62.1528 58.5678 63.0041 57.4119 63.0041 55.2798C63.0041 53.8427 62.6136 52.6712 61.8325 51.7652C61.0593 50.8827 59.8722 50.4375 58.2711 50.4375H53.9834V67.4948H59.1459C60.3799 67.4948 61.3718 67.0496 62.1215 66.1436V66.1514ZM57.662 54.1473C57.7479 54.1473 57.826 54.1317 57.8884 54.1317C57.9509 54.1317 58.0056 54.1317 58.0446 54.1317C58.9116 54.1317 59.3411 54.6237 59.3411 55.6156C59.3411 56.0764 59.2162 56.4435 58.9584 56.7012C58.7007 56.9589 58.3571 57.0917 57.9119 57.0917H57.662V54.1629V54.1473ZM57.9822 63.824C57.9822 63.824 57.9041 63.824 57.8494 63.824C57.7947 63.824 57.7322 63.8162 57.662 63.8084V60.536H57.9509C58.4273 60.536 58.8022 60.6765 59.0756 60.9655C59.3489 61.2545 59.4895 61.6528 59.4895 62.1605C59.4895 62.6681 59.3489 63.0742 59.0756 63.3788C58.8022 63.6834 58.4352 63.8318 57.9744 63.8318L57.9822 63.824Z" fill="white"/>
<path d="M71.6815 63.4023H68.5184V60.8015H71.3535V56.9433H68.5184V54.4597H71.6815V50.4453H64.832V67.5026H71.6815V63.4023Z" fill="white"/>
<path d="M76.9217 61.5357L76.8983 60.411C76.9608 60.6453 77.0154 60.8484 77.0623 61.0202C77.1092 61.192 77.1404 61.3248 77.156 61.4263L78.9758 67.5026H82.9589L80.2176 60.411C81.6234 59.6222 82.3263 58.2007 82.3263 56.1389C82.3263 54.2098 81.803 52.7181 80.7565 51.6793C79.9286 50.8592 78.6868 50.4531 77.0311 50.4531H73.2588V67.5104H76.9295V61.5435L76.9217 61.5357ZM76.9373 54.2801H77.0701C78.1401 54.2801 78.6712 54.9205 78.6712 56.1935C78.6712 56.8184 78.5306 57.3338 78.2494 57.7399C77.9683 58.1461 77.6168 58.3491 77.1873 58.3491H76.9373V54.2879V54.2801Z" fill="white"/>
<path d="M87.6913 63.1523C87.6913 62.4807 87.6757 61.6997 87.6366 60.8093C87.5976 59.919 87.5429 58.8724 87.4726 57.6696C87.5898 58.2007 87.7304 58.7553 87.8866 59.341C88.0428 59.9268 88.2146 60.5516 88.4098 61.2232L90.2686 67.4948H93.7832V50.4375H90.2686V54.2723C90.2686 54.983 90.3077 55.8733 90.378 56.9199C90.4483 57.9742 90.5498 59.2395 90.6904 60.7234L90.3077 59.2239C90.1515 58.6303 90.0109 58.0992 89.8859 57.6462C89.761 57.1932 89.6438 56.7871 89.5423 56.4278L87.6991 50.4375H84.1846V67.4948H87.6991V63.1445L87.6913 63.1523Z" fill="white"/>
<path d="M103.429 65.5344C104.554 63.9958 105.116 61.809 105.116 58.9818C105.116 56.1545 104.452 53.874 103.117 52.2807C102.102 51.0545 100.688 50.4453 98.8682 50.4453H95.6895V67.5026H99.1337C101.039 67.5026 102.469 66.8465 103.429 65.5344ZM99.3758 63.3788V54.694H99.493C100.063 54.694 100.516 55.0923 100.852 55.889C101.188 56.6778 101.352 57.7556 101.352 59.1145C101.352 61.8793 100.696 63.2929 99.3758 63.3788Z" fill="white"/>
<path d="M111.615 67.7993C113.13 67.7993 114.356 66.987 115.301 65.3703C116.246 63.7458 116.722 61.6293 116.722 59.0285C116.722 56.4278 116.254 54.1472 115.324 52.5461C114.395 50.9373 113.145 50.1406 111.568 50.1406C110.287 50.1406 109.17 50.7342 108.233 51.9213C106.975 53.5224 106.343 55.8264 106.343 58.8489C106.343 61.8714 106.944 64.3628 108.155 65.9405C109.115 67.1823 110.263 67.8071 111.607 67.8071L111.615 67.7993ZM110.545 55.6546C110.802 54.8423 111.154 54.4362 111.583 54.4362C112.458 54.4362 112.888 55.9826 112.888 59.0676C112.888 60.4578 112.763 61.5434 112.513 62.3244C112.278 63.1054 111.943 63.4959 111.505 63.4959C111.068 63.4959 110.748 63.0976 110.513 62.3088C110.271 61.5199 110.154 60.4031 110.154 58.966C110.154 57.529 110.279 56.4043 110.537 55.6546H110.545Z" fill="white"/>
<path d="M118.292 67.5026H121.963V61.5357L121.939 60.411C122.002 60.6453 122.056 60.8484 122.103 61.0202C122.15 61.192 122.181 61.3248 122.197 61.4263L124.017 67.5026H128L125.259 60.411C126.664 59.6222 127.367 58.2007 127.367 56.1389C127.367 54.2098 126.844 52.7181 125.797 51.6793C124.97 50.8592 123.728 50.4531 122.072 50.4531H118.3V67.5104L118.292 67.5026ZM121.978 54.2801H122.111C123.173 54.2801 123.712 54.9205 123.712 56.1935C123.712 56.8184 123.572 57.3338 123.29 57.7399C123.009 58.1461 122.658 58.3491 122.228 58.3491H121.978V54.2879V54.2801Z" fill="white"/>
<path d="M132.896 60.8015H135.528V56.9433H132.896V54.4597H135.724V50.4453H129.21V67.5026H132.896V60.8015Z" fill="white"/>
<path d="M144.003 63.4023H140.84V60.8015H143.675V56.9433H140.84V54.4597H144.003V50.4453H137.153V67.5026H144.003V63.4023Z" fill="white"/>
<path d="M149.243 61.5357L149.22 60.411C149.282 60.6453 149.337 60.8484 149.384 61.0202C149.43 61.192 149.462 61.3248 149.477 61.4263L151.297 67.5026H155.28L152.539 60.411C153.945 59.6222 154.648 58.2007 154.648 56.1389C154.648 54.2098 154.124 52.7181 153.078 51.6793C152.25 50.8592 151.008 50.4531 149.352 50.4531H145.58V67.5104H149.251V61.5435L149.243 61.5357ZM149.259 54.2801H149.391C150.454 54.2801 150.992 54.9205 150.992 56.1935C150.992 56.8184 150.852 57.3338 150.571 57.7399C150.29 58.1461 149.938 58.3491 149.509 58.3491H149.259V54.2879V54.2801Z" fill="white"/>
</g>
<defs>
<clipPath id="clip0_2246_27">
<rect width="210.49" height="175.876" fill="white"/>
</clipPath>
</defs>
</svg>
